<?xml version="1.0" encoding="UTF-8"?>
<svg version="1.1" viewBox="0 0 2048 1227" width="1001" height="600" xmlns="http://www.w3.org/2000/svg">
<path transform="translate(1169,323)" d="m0 0h19l11 4 9 6 9 11 18 35 11 24 11 27 15 44 10 38 7 35 5 35 3 33 1 21v36l-2 31-4 34-6 34-10 40-12 36-11 27-14 29-10 19-14 22-10 14-7 7-12 6-13 3h-11l-13-4-11-8-8-11-5-11-2-10v-9l7-48 2-21 1-21v-21l-2-32-4-29-6-29-8-27-7-20-11-26-10-20 3 27 2 34v35l-2 32-5 37-6 30-8 30-10 29-12 29-10 20-11 19-7 8-10 6-9 3-5 1h-12l-12-4-8-6-6-8-4-8-2-8v-11l3-12 9-17 10-18 11-23 10-26 8-25 6-26 4-24 2-20v-50l-3-29-5-28-8-32-12-36-11-28-14-30-13-25-12-20-9-10-6-10-4-15v-17l4-11 6-9 8-7 10-5 11-2 12 1 10 4 9 7 15 13 11 9 17 16 26 26 7 8 13 15 11 14 10 13 12 17 10 15 14 23 10 18 12 23 12 26 11 28 12 36 9 34 7 36 6-32 3-30v-53l-3-30-6-36-11-44-13-40-14-35-12-26-20-40-2-7v-17l4-12 8-11 10-8 9-4z" fill="#6466AD"/>
<path transform="translate(841,439)" d="m0 0h18l10 4 8 6 10 10 11 14 11 16 10 17 9 17 10 24 12 36 7 26 6 31 4 32 1 16v40l-2 25-3 21-6 24-8 20-7 14-10 14-12 12-13 8-15 5-12 2h-8l-10-2-9-4-6-4-9-8-10-13-10-17-11-23-20-49-18-45v-2h-2l-1 7-7 28-8 24-11 24-8 16-6 9-8 5-8 2h-11l-13-4-9-6-8-9-4-10-1-4v-8l19-57 5-22 2-15v-25l-3-18-5-17-9-21-8-15-5-14v-19l4-11 7-9 9-6 8-3h20l15 5 16 9 11 9 9 8 7 8 12 15 16 24 10 18 12 24 13 32 9 25 11 35 6 12 6 4h6l6-4 6-10 5-14 3-16v-38l-4-28-5-24-7-24-9-24-8-16-10-18-9-12-9-10-14-14-5-11-1-5v-10l4-13 7-11 10-9 10-5z" fill="#6466AD"/>
<path transform="translate(336,534)" d="m0 0h35l20 4 16 6 15 8 13 10 13 13 9 13 8 15 6 18 2 8v5h-66l-9-17-7-8-10-7-12-5-12-2-14 1-12 4-10 6-9 8-7 11-5 12-2 10v21l4 16 7 13 8 9 11 7 9 4 10 2h14l13-3 11-6 10-9 7-11 5-13h67l-1 9-5 18-7 16-9 14-11 13-11 10-14 9-17 8-18 5-14 2h-28l-17-3-16-5-16-7-12-8-11-9-10-10-10-14-6-10-6-15-4-14-3-22v-13l3-22 6-20 8-16 8-12 10-11 5-5 8-7 14-9 17-8 13-4z" fill="#E6E8EB"/>
<path transform="translate(1428,587)" d="m0 0h17l19 3 18 6 14 8 10 8 10 10 9 14 7 16 4 20v21l-1 6h-135l5 13 4 6 8 7 10 4 12 1 14-3 11-7 5-6h63l-3 10-8 15-8 10-11 11-14 9-13 6-14 4-12 2h-26l-19-4-17-7-12-8-12-11-8-9-9-16-5-14-3-15v-26l4-18 5-13 7-12 8-10 9-9 15-10 11-5 12-4zm0 50-10 4-8 6-6 9-3 8h72l-1-5-5-9-7-7-8-4-7-2z" fill="#E6E8EB"/>
<path transform="translate(1630,521)" d="m0 0h53v48l-30 1-8 3-3 4-1 4-1 15h42l1 1v48l-1 1h-40v129h-63v-129h-29l-1-1v-49h31v-28l4-16 6-11 10-10 14-7z" fill="#E6E8EB"/>
<path transform="translate(1771,540)" d="m0 0h13l1 1v21l-1 31h46l1 1v47l-1 1h-44l1 60 3 10 6 5 7 2 28 1 1 1v54h-55l-15-3-14-7-11-10-7-11-4-10-3-16v-76h-33v-16l9-9 7-8 8-8 7-8 9-9 7-8 9-9 7-8 8-8 7-8z" fill="#E6E8EB"/>
<path transform="translate(580,612)" d="m0 0h10l14 3 13 7 10 9 8 11 5 12 2 8v21l-4 14-6 11-9 10-7 6-13 6-9 2h-18l-13-4-10-6-10-9-9-14-4-11-2-11v-10l3-15 8-16 10-11 11-7 10-4z" fill="#E6E8EB"/>
</svg>
