<?xml version="1.0" encoding="UTF-8"?>
<svg id="BACKGROUND" xmlns="http://www.w3.org/2000/svg" xmlns:xlink="http://www.w3.org/1999/xlink" viewBox="0 0 1069 381">
  <defs>
    <style>
      .cls-1 {
        fill: #8647ff;
      }

      .cls-1, .cls-2, .cls-3, .cls-4, .cls-5, .cls-6, .cls-7, .cls-8, .cls-9, .cls-10, .cls-11, .cls-12, .cls-13, .cls-14, .cls-15, .cls-16, .cls-17, .cls-18, .cls-19, .cls-20, .cls-21, .cls-22, .cls-23, .cls-24, .cls-25, .cls-26, .cls-27, .cls-28, .cls-29, .cls-30, .cls-31, .cls-32, .cls-33, .cls-34 {
        stroke-width: 0px;
      }

      .cls-2 {
        fill: #b82a67;
      }

      .cls-3 {
        fill: #8d8dce;
      }

      .cls-35 {
        stroke-width: 1.45px;
      }

      .cls-35, .cls-36, .cls-37, .cls-16, .cls-38, .cls-39, .cls-40, .cls-41, .cls-42, .cls-43, .cls-44, .cls-45 {
        fill: none;
      }

      .cls-35, .cls-40, .cls-42, .cls-43 {
        stroke-linecap: round;
        stroke-linejoin: round;
      }

      .cls-35, .cls-40, .cls-42, .cls-43, .cls-44 {
        stroke: #ff3a90;
      }

      .cls-4 {
        fill: #3e305e;
      }

      .cls-5 {
        fill: #5017c2;
      }

      .cls-6 {
        fill: #bc79cc;
      }

      .cls-7 {
        fill: #9b9bd3;
      }

      .cls-8 {
        fill: #8e4e9b;
      }

      .cls-36 {
        stroke: #fff;
        stroke-width: 1.84px;
      }

      .cls-36, .cls-46, .cls-37, .cls-38, .cls-39, .cls-41, .cls-44, .cls-45 {
        stroke-miterlimit: 10;
      }

      .cls-46 {
        fill: #9c9eaa;
        stroke: #a37233;
        stroke-width: .81px;
      }

      .cls-9 {
        fill: #d593e2;
      }

      .cls-10 {
        fill: #330e7a;
      }

      .cls-11 {
        fill: #c72e70;
      }

      .cls-12 {
        fill: #5418cc;
      }

      .cls-13 {
        fill: #7a36ff;
      }

      .cls-37 {
        stroke-width: .44px;
      }

      .cls-37, .cls-45 {
        stroke: #45457c;
      }

      .cls-14 {
        fill: #6828e8;
      }

      .cls-15 {
        fill: #381087;
      }

      .cls-17 {
        fill: #48386e;
      }

      .cls-47 {
        opacity: .54;
      }

      .cls-18 {
        fill: #601be8;
      }

      .cls-19 {
        fill: #32274d;
      }

      .cls-38 {
        stroke-width: .89px;
      }

      .cls-38, .cls-39 {
        stroke: #ba68c8;
      }

      .cls-48 {
        opacity: .4;
      }

      .cls-20 {
        fill: #6e3b7a;
      }

      .cls-21 {
        fill: #fff;
      }

      .cls-39 {
        stroke-width: 1.3px;
      }

      .cls-22 {
        fill: #e63581;
      }

      .cls-40, .cls-44 {
        stroke-width: 1.59px;
      }

      .cls-23 {
        fill: #7a4784;
      }

      .cls-24 {
        fill: #4514a6;
      }

      .cls-25 {
        fill: #4414a3;
      }

      .cls-41 {
        stroke: #3f3372;
        stroke-width: .56px;
      }

      .cls-42 {
        stroke-width: 1.19px;
      }

      .cls-43 {
        stroke-width: 1.38px;
      }

      .cls-49 {
        clip-path: url(#clippath);
      }

      .cls-50 {
        opacity: .76;
      }

      .cls-26 {
        fill: #5b1adb;
      }

      .cls-27 {
        fill: #ff3a90;
      }

      .cls-28 {
        fill: #604b93;
      }

      .cls-29 {
        fill: #52407d;
      }

      .cls-51 {
        opacity: .42;
      }

      .cls-30 {
        fill: #45457c;
      }

      .cls-31 {
        fill: #2b0c66;
      }

      .cls-32 {
        fill: #9259ff;
      }

      .cls-33 {
        fill: #6767aa;
      }

      .cls-34 {
        fill: #ba68c8;
      }

      .cls-45 {
        stroke-width: 1.9px;
      }
    </style>
    <clipPath id="clippath">
      <path class="cls-16" d="M82.25,183.93c17.01,18.99,46.61,70.92,20.55,188.14-1.3,5.86-6.79,10.06-13.16,10.06h-35.39c-6.37,0-11.86-4.2-13.16-10.06-26.06-117.23,3.54-169.15,20.55-188.14,5.39-6.02,15.23-6.02,20.61,0Z"/>
    </clipPath>
  </defs>
  <g class="cls-47">
    <path class="cls-39" d="M264.64,214.77c-2.39-32.11-.47-65.21,4.53-99.02l-14.36,12.85-1.31,26.52-8.21-.39-2.96-28.77-10.92-13.04-3.57,2.21c3.36,14.83,2.65,21.03,4.66,33.29,3.48,44.25,2.75,75.68-6.05,100.64l-40.81,141.46,20.78.08,13.23-60.19,24.46-103.08,11.56.54,35.02,162.73h20.78c-18.1-61.43-35.87-122.47-46.86-175.83ZM245.45,165.06h7.05v10.08h-7.05v-10.08ZM246.29,185.21h6.21v10.92h-7.05l.84-10.92ZM253.51,216.96h-9.75l1.68-11.09h8.06v11.09Z"/>
    <path class="cls-39" d="M373.16,347.04c-72.4,1.06-138.44,6.29-189.77,21.16l-55.55,22.32,78.61.08,44.06-9.55c42.75-4.99,84-6.76,122.66-3.02v-30.99Z"/>
    <polygon class="cls-39" points="342.89 376.21 342.89 390.52 373.16 390.6 373.16 378.03 342.89 376.21"/>
    <line class="cls-39" x1="264.54" y1="158.83" x2="373.16" y2="315.05"/>
    <line class="cls-39" x1="263.95" y1="170.09" x2="373.16" y2="342.76"/>
    <path class="cls-39" d="M263.67,180.51c-.02,1.5,94.36,166.53,94.36,166.53"/>
    <line class="cls-39" x1="263.67" y1="192.81" x2="342.89" y2="347.04"/>
    <path class="cls-39" d="M263.67,204c.39,1.25,65.6,143.04,65.6,143.04"/>
    <line class="cls-39" x1="264.64" y1="214.77" x2="315.15" y2="347.04"/>
    <line class="cls-39" x1="303.28" y1="349.69" x2="274.88" y2="259.48"/>
    <line class="cls-39" x1="232.51" y1="165.06" x2="160.27" y2="377.49"/>
    <line class="cls-39" x1="232.51" y1="176.6" x2="167.89" y2="376.21"/>
    <line class="cls-39" x1="234.44" y1="188.31" x2="172.51" y2="372.58"/>
    <line class="cls-39" x1="234.36" y1="198.91" x2="178.85" y2="368.82"/>
    <line class="cls-39" x1="233.75" y1="211.41" x2="185.65" y2="367.56"/>
  </g>
  <g class="cls-48">
    <path class="cls-36" d="M726.89,279.18v-17.29c22.67-28.6,42.58-59.88,53.54-99.84l6.69-73.01h10.6l4.46,6.08-6.14,76.41,97.61-7.81,5.58-95.93,12.83-2.79,3.9,7.25c-5.21,57.25-1.83,101.21,12.83,127.73l55.78,75.3v24.54l-103.93-7.99,3.35-98.91-81.8,2.6-3.08,89.09-72.22-5.43Z"/>
    <path class="cls-36" d="M835.84,118.27l5.15-1.32,3.35,2.09,3.1-4.96,3.22-.74c1.64-1.95,3.33-2.39,5.08-.99-1.71,1.42-2.92,3.28-3.49,5.7,1.43,2.72.06,6.02-1.47,8.18-3.51,5.94-8.82,8.38-15.49,8.18l.56-16.14Z"/>
    <line class="cls-36" x1="797.48" y1="101.69" x2="835.84" y2="118.27"/>
    <polyline class="cls-36" points="796.55 165.36 835.29 134.41 792.77 162.17"/>
    <line class="cls-36" x1="892.43" y1="152.02" x2="848.22" y2="129.63"/>
    <polyline class="cls-36" points="896.89 87.56 855.74 112.35 898.47 81.15"/>
  </g>
  <g>
    <g>
      <polygon class="cls-23" points="946.21 264.93 866.07 373.61 930.14 381.05 946.21 264.93"/>
      <polygon class="cls-6" points="946.21 264.93 930.14 381.05 1039.84 381.05 946.21 264.93"/>
    </g>
    <g>
      <polygon class="cls-23" points="852.7 204.24 751.01 348.81 807.8 381.16 852.7 204.24"/>
      <polygon class="cls-34" points="852.7 204.24 807.8 381.16 982.13 381.16 852.7 204.24"/>
    </g>
    <g>
      <polygon class="cls-34" points="792 219.2 732.52 386.3 679.69 375.03 792 219.2"/>
      <polygon class="cls-9" points="792 219.2 732.52 386.3 918.37 386.3 792 219.2"/>
    </g>
  </g>
  <g>
    <rect class="cls-3" x="679.34" y="173.26" width="57.06" height="13.56" transform="translate(-.34 1.34) rotate(-.11)"/>
    <polygon class="cls-3" points="735.66 172.06 680.06 172.17 687.7 146.87 727.92 146.8 735.66 172.06"/>
    <rect class="cls-3" x="677.17" y="254.74" width="61.94" height="130.53" transform="translate(-.61 1.34) rotate(-.11)"/>
    <rect class="cls-30" x="675.36" y="375.37" width="65.77" height="3.27" transform="translate(-.71 1.34) rotate(-.11)"/>
    <rect class="cls-30" x="675.24" y="310.7" width="65.77" height="3.27" transform="translate(-.59 1.34) rotate(-.11)"/>
    <rect class="cls-30" x="675.25" y="318.57" width="65.77" height="3.27" transform="translate(-.61 1.34) rotate(-.11)"/>
    <rect class="cls-3" x="689.39" y="127.43" width="36.79" height="17.93" transform="translate(-.26 1.34) rotate(-.11)"/>
    <rect class="cls-30" x="675.13" y="253.2" width="65.77" height="3.27" transform="translate(-.48 1.34) rotate(-.11)"/>
    <rect class="cls-30" x="677.06" y="170.84" width="61.59" height="3.27" transform="translate(-.33 1.34) rotate(-.11)"/>
    <rect class="cls-30" x="686.4" y="143.92" width="42.82" height="3.27" transform="translate(-.27 1.34) rotate(-.11)"/>
    <rect class="cls-30" x="688.76" y="124.73" width="38.01" height="3.29" transform="translate(-.24 1.35) rotate(-.11)"/>
    <rect class="cls-3" x="672.41" y="188.43" width="71.09" height="64.8" transform="translate(-.42 1.34) rotate(-.11)"/>
    <g>
      <path class="cls-30" d="M732.26,215.35c.03,13.43-10.84,24.34-24.27,24.36-13.43.03-24.34-10.84-24.36-24.27-.03-13.43,10.84-24.34,24.27-24.36,13.43-.03,24.34,10.84,24.36,24.27Z"/>
      <path class="cls-3" d="M729.99,215.36c.02,12.18-9.83,22.07-22.01,22.09-12.18.02-22.07-9.83-22.09-22-.02-12.18,9.83-22.07,22.01-22.09,12.18-.02,22.07,9.83,22.09,22.01Z"/>
      <circle class="cls-37" cx="707.94" cy="215.4" r="17.26" transform="translate(166.55 719.86) rotate(-59.9)"/>
      <path class="cls-30" d="M707.94,217.25h0c-1.02,0-1.85-.83-1.86-1.85h0c0-1.02.83-1.85,1.85-1.86h0c1.02,0,1.85.83,1.86,1.85h0c0,1.02-.83,1.85-1.85,1.86Z"/>
      <g>
        <g>
          <rect class="cls-30" x="707.39" y="206.36" width=".63" height="9.56" transform="translate(-.37 1.23) rotate(-.1)"/>
          <polygon class="cls-30" points="707.66 205.17 706.94 206.95 707.68 206.4 708.38 206.95 707.66 205.17"/>
        </g>
        <g>
          <rect class="cls-30" x="712.63" y="203.76" width=".93" height="14.02" transform="translate(356.7 -441.85) rotate(44.89)"/>
          <polygon class="cls-30" points="719.23 204.53 716.64 205.64 717.98 205.83 718.13 207.12 719.23 204.53"/>
        </g>
      </g>
    </g>
    <g>
      <path class="cls-33" d="M686.06,307.39h-.07c-2.03,0-3.68-1.64-3.68-3.67l-.08-39.67c0-2.03,1.64-3.68,3.67-3.68h.07c2.03,0,3.68,1.64,3.68,3.67l.08,39.67c0,2.03-1.64,3.68-3.67,3.68Z"/>
      <path class="cls-33" d="M700.78,307.36h-.07c-2.03,0-3.68-1.64-3.68-3.67l-.08-39.67c0-2.03,1.64-3.68,3.67-3.68h.07c2.03,0,3.68,1.64,3.68,3.67l.08,39.67c0,2.03-1.64,3.68-3.67,3.68Z"/>
      <path class="cls-33" d="M715.51,307.33h-.07c-2.03,0-3.68-1.64-3.68-3.67l-.07-39.67c0-2.03,1.64-3.68,3.67-3.68h.07c2.03,0,3.68,1.64,3.68,3.67l.08,39.67c0,2.03-1.64,3.68-3.67,3.68Z"/>
      <path class="cls-33" d="M730.24,307.3h-.07c-2.03,0-3.68-1.64-3.68-3.67l-.08-39.67c0-2.03,1.64-3.68,3.67-3.68h.07c2.03,0,3.68,1.64,3.68,3.67l.08,39.67c0,2.03-1.64,3.68-3.67,3.68Z"/>
    </g>
    <g>
      <rect class="cls-33" x="694.56" y="130.31" width="3.8" height="11.54" rx="1.3" ry="1.3" transform="translate(-.26 1.34) rotate(-.11)"/>
      <rect class="cls-33" x="702.11" y="130.29" width="3.8" height="11.54" rx="1.3" ry="1.3" transform="translate(-.26 1.35) rotate(-.11)"/>
      <rect class="cls-33" x="709.66" y="130.28" width="3.8" height="11.54" rx="1.3" ry="1.3" transform="translate(-.25 1.31) rotate(-.11)"/>
      <rect class="cls-33" x="717.21" y="130.26" width="3.8" height="11.54" rx="1.3" ry="1.3" transform="translate(-.24 1.26) rotate(-.1)"/>
    </g>
    <g>
      <rect class="cls-33" x="682.2" y="243.76" width="7.42" height="7.51" rx="1.47" ry="1.47" transform="translate(-.48 1.33) rotate(-.11)"/>
      <path class="cls-33" d="M698.4,243.73h4.48c.81,0,1.47.66,1.47,1.47v4.57c0,.81-.66,1.47-1.47,1.47h-4.48c-.81,0-1.47-.66-1.47-1.47v-4.57c0-.81.66-1.47,1.47-1.47Z" transform="translate(-.48 1.36) rotate(-.11)"/>
      <rect class="cls-33" x="711.65" y="243.71" width="7.42" height="7.51" rx="1.47" ry="1.47" transform="translate(-.47 1.36) rotate(-.11)"/>
      <rect class="cls-33" x="726.38" y="243.68" width="7.42" height="7.51" rx="1.47" ry="1.47" transform="translate(-.47 1.39) rotate(-.11)"/>
    </g>
    <g>
      <rect class="cls-33" x="682.07" y="176.47" width="7.42" height="7.51" rx="1.47" ry="1.47" transform="translate(-.34 1.3) rotate(-.11)"/>
      <rect class="cls-33" x="696.8" y="176.44" width="7.42" height="7.51" rx="1.47" ry="1.47" transform="translate(-.35 1.36) rotate(-.11)"/>
      <rect class="cls-33" x="711.53" y="176.41" width="7.42" height="7.51" rx="1.47" ry="1.47" transform="translate(-.34 1.37) rotate(-.11)"/>
      <rect class="cls-33" x="726.25" y="176.39" width="7.42" height="7.51" rx="1.47" ry="1.47" transform="translate(-.34 1.38) rotate(-.11)"/>
    </g>
    <g>
      <path class="cls-33" d="M686.18,372.13h-.07c-2.03,0-3.68-1.64-3.68-3.67l-.08-39.67c0-2.03,1.64-3.68,3.67-3.68h.07c2.03,0,3.68,1.64,3.68,3.67l.08,39.67c0,2.03-1.64,3.68-3.67,3.68Z"/>
      <path class="cls-33" d="M700.91,372.1h-.07c-2.03,0-3.68-1.64-3.68-3.67l-.08-39.67c0-2.03,1.64-3.68,3.67-3.68h.07c2.03,0,3.68,1.64,3.68,3.67l.08,39.67c0,2.03-1.64,3.68-3.67,3.68Z"/>
      <path class="cls-33" d="M715.63,372.08h-.07c-2.03,0-3.68-1.64-3.68-3.67l-.08-39.67c0-2.03,1.64-3.68,3.67-3.68h.07c2.03,0,3.68,1.64,3.68,3.67l.08,39.67c0,2.03-1.64,3.68-3.67,3.68Z"/>
      <path class="cls-33" d="M730.36,372.05h-.07c-2.03,0-3.68-1.64-3.68-3.67l-.08-39.67c0-2.03,1.64-3.68,3.67-3.68h.07c2.03,0,3.68,1.64,3.68,3.67l.08,39.67c0,2.03-1.64,3.68-3.67,3.68Z"/>
    </g>
    <rect class="cls-45" x="682.45" y="189.68" width="50.98" height="51.03" transform="translate(-.41 1.34) rotate(-.11)"/>
    <rect class="cls-30" x="667.35" y="185.8" width="81.06" height="3.27" transform="translate(-.35 1.34) rotate(-.11)"/>
    <rect class="cls-3" x="706.87" y="41.58" width="1.56" height="41.15" transform="translate(-.11 1.27) rotate(-.1)"/>
    <polygon class="cls-3" points="691.98 124.75 707.69 83.99 723.55 124.69 691.98 124.75"/>
    <rect class="cls-30" x="704.81" y="77.13" width="5.77" height="14.34" transform="translate(-.16 1.36) rotate(-.11)"/>
    <g>
      <path class="cls-33" d="M695.14,152.44c-1.88,0-3.41,1.51-3.45,3.39h6.91c-.05-1.89-1.58-3.39-3.46-3.39Z"/>
      <path class="cls-33" d="M707.82,152.42c-1.88,0-3.41,1.51-3.45,3.39h6.91c-.05-1.89-1.58-3.39-3.46-3.39Z"/>
      <path class="cls-33" d="M720.5,152.4c-1.88,0-3.41,1.51-3.45,3.39h6.91c-.05-1.89-1.58-3.39-3.46-3.39Z"/>
    </g>
    <g>
      <path class="cls-33" d="M691.78,161.65c-1.88,0-3.41,1.51-3.45,3.39h6.91c-.05-1.89-1.58-3.39-3.46-3.39Z"/>
      <path class="cls-33" d="M702.48,161.63c-1.88,0-3.41,1.51-3.45,3.39h6.91c-.05-1.89-1.58-3.39-3.46-3.39Z"/>
      <path class="cls-33" d="M713.19,161.61c-1.88,0-3.41,1.51-3.45,3.39h6.91c-.05-1.89-1.58-3.39-3.46-3.39Z"/>
      <path class="cls-33" d="M723.89,161.59c-1.88,0-3.41,1.51-3.45,3.39h6.91c-.05-1.89-1.58-3.39-3.46-3.39Z"/>
    </g>
  </g>
  <g class="cls-51">
    <g>
      <path class="cls-46" d="M377.48,371.55h-.05c-.45-.04-.79-.55-.76-1.15l1.95-43.67c.03-.6.44-1.01.86-1.02.45.04.79.55.76,1.15l-1.95,43.67c-.03.58-.38,1.02-.81,1.02Z"/>
      <path class="cls-46" d="M404.37,327.01c-.16,0-.32-.06-.46-.19-.37-.34-.46-1.02-.2-1.52.2-.39.47-.8.75-1.24.68-1.05,1.39-2.14,1.24-3.14-.61-1.05-7.82-3.08-18.75-2.52-2.32.12-9.38.49-10.12,2.01-.03.06-.12.26.12,1.07.63,1.91,2.43,2.83,3.12,3.18.15.08.25.13.31.17.4.27.56.92.36,1.46-.2.54-.68.76-1.08.49-.94-.48-3.29-1.68-4.21-4.46-.25-.83-.51-2.02.02-3.1.78-1.6,2.83-2.56,11.42-3,8.04-.41,19.69.61,20.39,4.19.33,2.12-.78,3.83-1.59,5.08-.24.36-.47.71-.64,1.04-.16.31-.41.47-.67.47Z"/>
      <path class="cls-46" d="M402.82,359.57h-.02c-.45-.01-.81-.51-.8-1.11l.49-33.76c0-.59.37-1.06.81-1.06h.01c.45.01.81.51.8,1.11l-.49,33.76c0,.59-.37,1.06-.81,1.06Z"/>
      <path class="cls-46" d="M405.59,323.52c-.05,0-.11,0-.16-.02-17.56-4.58-28.28-.92-28.39-.88-.43.14-.88-.19-.99-.78-.11-.58.15-1.18.58-1.33.45-.16,11.19-3.82,29.11.86.44.11.73.69.64,1.28-.07.52-.42.88-.79.88Z"/>
      <path class="cls-46" d="M403.07,330.38s-.09,0-.13-.01c-17.38-3.78-22.76-.36-22.81-.32-.4.26-.89.05-1.09-.48-.2-.53-.05-1.18.34-1.46.23-.15,5.73-3.82,23.81.1.44.1.74.66.67,1.25-.06.53-.41.91-.8.91Z"/>
      <path class="cls-46" d="M380.41,318.06h-.03c-.44-.02-.78-.49-.78-1.08,0-.08.09-1.21.24-3.08,3.04-36.71,2.96-43.97,2.64-45.03-.28-.47-.2-1.1.15-1.47.35-.38.89-.24,1.17.23.64,1.06,1.03,5.63-2.35,46.51-.14,1.67-.23,2.72-.23,2.9-.03.57-.39,1.02-.81,1.02Z"/>
      <path class="cls-46" d="M403.39,319.49h0c-.45,0-.81-.5-.8-1.1l.41-49.12c0-.6.37-1.08.81-1.08h0c.45,0,.81.5.8,1.1l-.4,49.12c0,.6-.37,1.08-.81,1.08Z"/>
      <path class="cls-46" d="M404.26,269.83c-.36,0-.7-.05-.97-.14-.44-.14-.71-.72-.61-1.3.1-.58.52-.96.97-.82.02,0,1.47.43,1.84-.69.15-.42.42-1.46-.02-2.62-.47-1.22-1.84-2.87-5.71-3.81-8.25-1.91-18.44-1.09-18.79,1.52-.39,3.41,1.51,4.82,1.53,4.83.4.28.55.94.33,1.47-.21.53-.7.73-1.1.45-.12-.09-2.94-2.16-2.37-7.12.81-5.91,15.65-4.46,20.68-3.3,3.64.88,5.95,2.56,6.87,4.96.78,2.02.3,3.84.06,4.52-.53,1.6-1.71,2.05-2.71,2.05Z"/>
      <path class="cls-46" d="M405.91,267.65c-.39,0-.74-.39-.8-.93-.1-.86-1.63-2.93-13.77-3.54-8.19-.39-9.49,1.32-9.64,1.59-.02.49-.29.92-.67,1.01-.44.1-.86-.29-.94-.89-.03-.19-.07-.86.41-1.59,1.19-1.82,4.86-2.61,10.9-2.29,13,.64,15.04,2.97,15.31,5.39.07.59-.24,1.15-.68,1.24-.04,0-.08.01-.12.01Z"/>
      <path class="cls-46" d="M403.55,272.88c-.1,0-.21-.02-.31-.08-8.99-4.92-19.21-1.52-19.31-1.48-.43.17-.88-.2-.99-.78-.11-.58.15-1.18.59-1.32.44-.16,10.85-3.62,20.32,1.57.41.23.61.86.44,1.42-.13.42-.43.68-.75.68Z"/>
      <path class="cls-46" d="M384.14,259.26s-.05,0-.08,0c-.45-.05-.77-.59-.73-1.19,1.34-18.97,3.23-49.97,2.59-52.47-.22-.52-.07-1.15.32-1.45.39-.29.9-.08,1.12.45,1.1,2.6-1.57,41.74-2.42,53.68-.04.56-.39.98-.81.98Z"/>
      <path class="cls-46" d="M403.47,261.66h-.03c-.45-.02-.8-.52-.78-1.13,0-.03.08-3.33.08-23.38s.56-31.11.57-31.23c.03-.6.43-1,.87-1.01.45.05.78.57.75,1.17,0,.1-.57,10.98-.57,31.07s-.08,23.33-.08,23.46c-.02.59-.37,1.05-.81,1.05Z"/>
      <path class="cls-46" d="M404.34,207.03c-.38,0-.72-.09-.97-.21-.42-.2-.65-.82-.5-1.39.15-.57.61-.86,1.03-.67.27.11,1.22.39,1.76-1.17.17-.56.3-1.5-.11-2.65-.67-1.86-2.49-3.44-5.14-4.45-4.38-1.69-12.21-1.84-15.11.4-.49.38-.78.79-.86,1.21-.51,2.49.49,3.79,1.64,4.83.3.27.51.46.62.88.14.57-.09,1.19-.51,1.37-.32.15-.66,0-.86-.31l-.14-.13c-.79-.71-3.19-2.87-2.31-7.19.19-1,.73-1.87,1.62-2.55,3.31-2.56,11.66-2.42,16.36-.61,3.96,1.51,5.54,3.88,6.15,5.6.53,1.47.58,3.05.14,4.47-.69,2.01-1.86,2.56-2.81,2.56Z"/>
      <path class="cls-46" d="M406.15,204.48c-.4,0-.75-.39-.8-.94-.14-1.4-1.49-3.39-11.52-4.39-5.92-.66-7.69.73-8.18,1.36-.3.38-.29.68-.29.69.08.59-.22,1.13-.66,1.23-.43.11-.87-.32-.94-.92-.07-.56.05-1.52.63-2.38,1.35-1.99,4.57-2.72,9.58-2.16,9.1.91,12.63,2.61,13,6.27.06.59-.25,1.14-.69,1.23-.04,0-.07,0-.11,0Z"/>
      <path class="cls-46" d="M403.88,209.28c-.38,0-.72-.36-.8-.88-.03.18-.83-1.22-6.02-2.63-5.91-1.53-9.39,1.05-9.43,1.08-.39.3-.88.11-1.11-.4-.22-.52-.09-1.18.3-1.48.16-.12,3.99-3.02,10.55-1.33,6.06,1.64,7.18,3.43,7.3,4.35.08.59-.21,1.16-.65,1.27-.05.02-.1.02-.15.02Z"/>
      <path class="cls-46" d="M387.64,194.9c-.44,0-.81-.48-.81-1.08l-.08-10.24c0-.6.35-1.09.8-1.1h0c.44,0,.81.48.81,1.08l.08,10.24c0,.61-.35,1.14-.81,1.1Z"/>
      <path class="cls-46" d="M388.12,184.12c-.13,0-.26-.04-.38-.12-4.58-3.24-4.81-3.55-4.91-3.69-.17-.23-.27-.58-.24-.91.06-.71.08-.98,4.66-3.38.41-.21.89.06,1.05.62.16.56-.04,1.19-.46,1.41-.95.49-2.01,1.07-2.79,1.52.92.69,2.23,1.63,3.44,2.49.39.28.55.94.34,1.47-.15.37-.43.58-.72.58Z"/>
      <path class="cls-46" d="M404.28,180.2c-.41,0-.76-.4-.8-.96,0-.06-.57-6.12-3.11-9.61-1.14-1.58-2.99-2.51-4.95-2.51h-.07c-1.85.02-3.54.87-4.53,2.28-2.18,3.22-2.14,7.58-2.13,7.62,0,.6-.35,1.1-.79,1.11-.47.09-.82-.46-.83-1.06,0-.21-.06-5.28,2.57-9.15,1.31-1.87,3.38-2.95,5.71-2.98h.09c2.42,0,4.64,1.16,6.11,3.18,2.92,4.02,3.53,10.58,3.55,10.86.05.6-.26,1.14-.71,1.21-.03,0-.07,0-.1,0Z"/>
      <path class="cls-46" d="M404.21,186.84c-.32,0-.63-.26-.76-.69-.16-.56.04-1.19.46-1.41l3.02-1.6c-.36-.67-1-1.57-2.04-2.29-1.56-1.05-10.25-2.46-15.7-3.15-.45-.05-.77-.59-.73-1.18.04-.6.45-1.04.88-.98,1.42.18,13.95,1.8,16.29,3.38,2.45,1.7,3.21,4.29,3.24,4.4.16.55-.05,1.18-.46,1.4l-3.9,2.07c-.1.05-.2.08-.3.08Z"/>
      <path class="cls-46" d="M403.39,197.62h-.04c-.45-.04-.79-.55-.77-1.15l.49-12.19c.02-.6.38-1.07.85-1.03.45.03.79.55.77,1.15l-.49,12.2c-.02.58-.38,1.03-.81,1.03Z"/>
      <path class="cls-46" d="M404.77,185.86c-.21,0-.41-.1-.57-.32h0s-1.37-1.62-6.88-3.75c-5.43-2.04-8.98.83-9.01.86-.38.31-.88.15-1.12-.35-.23-.51-.12-1.19.27-1.5.17-.14,4.2-3.38,10.31-1.1,5.97,2.3,7.44,4.11,7.58,4.31.32.43.32,1.11,0,1.54-.16.21-.37.32-.57.32Z"/>
      <path class="cls-46" d="M389.99,194.9h-.06c-.28-.03-.52-.25-.65-.56-.12.13-.28.22-.45.23-.43.04-.83-.42-.86-1.02-.2-4.12-.25-9.29.67-10.52.23-.31.54-.45.85-.44h0c.25,0,.53.18.75.49.95,1.37.76,7.36.57,10.81-.03.57-.39,1-.81,1Z"/>
      <path class="cls-46" d="M394.87,194.57s-.08,0-.13-.01c-.44-.09-.75-.65-.68-1.24.52-4.5-.24-9.35-.83-9.83-.41.56-1.06,5.25-1.21,10.04-.02.6-.36,1.02-.85,1.04-.45-.03-.8-.53-.78-1.13.13-4.1.61-11.09,2.4-11.97.51-.26,1.03-.13,1.47.36,1.52,1.67,1.84,8.01,1.4,11.83-.06.54-.41.92-.8.92Z"/>
      <path class="cls-46" d="M400.47,195.88c-.06,0-.12,0-.19-.03-.43-.13-.71-.72-.61-1.31,0-.02.3-1.77.22-4.72-.11-4.27-.62-5.02-.77-5.14-.08-.08-.29.05-.34.09-.83.48-1.27,5.07-1.16,8.89.02.6-.33,1.11-.78,1.13-.5.03-.83-.45-.84-1.05-.06-2.25-.09-9.67,2.11-10.95.84-.55,1.48-.29,1.86.02,1.24,1.01,1.47,3.92,1.55,6.93.08,3.27-.25,5.21-.27,5.3-.09.5-.42.84-.79.84Z"/>
      <path class="cls-46" d="M402.91,196.64h-.05c-.24-.02-.45-.18-.59-.42-.08.05-.16.08-.25.09-.45.05-.85-.36-.89-.97-.21-2.59-.56-8.77.66-10.28.39-.48.84-.46,1.12-.27.44.28,1.25.8.81,10.83-.03.58-.38,1.02-.81,1.02Z"/>
      <path class="cls-46" d="M398.53,167.13c-.11,0-.21-.03-.31-.08-.19-.1-.7-.48-1.48-1.88-.08-.15-.15-.35-.21-.58-.3.8-.6,1.14-.85,1.35-.31.43-.78.38-1.1-.04-.32-.42-.27-1.17.04-1.6.05-.06.15-.17.2-.21.15-.13.4-.7.65-1.93.27-1.5.27-5.49.23-7.67,0-.31-.01-.59-.02-.84,0-.6.34-1.1.79-1.11.47.07.82.46.84,1.05,0,.05,0,.31.01.72.09,4.16.39,8.83.74,9.59.52.92.82,1.16.82,1.16.42.23.59.84.43,1.4-.12.42-.44.67-.77.67Z"/>
    </g>
    <g>
      <path class="cls-46" d="M663.37,355.18c-.47,0-.87-.49-.9-1.13l-2.07-45.86c-.03-.67.35-1.24.85-1.28.48,0,.92.47.95,1.13l2.07,45.87c.03.67-.35,1.24-.84,1.28h-.06Z"/>
      <path class="cls-46" d="M633.67,308.34c-.3,0-.6-.2-.77-.57-.18-.4-.46-.81-.75-1.25-.86-1.31-2.05-3.11-1.61-5.37.64-4.04,13.61-5.21,22.6-4.76,9.52.49,11.78,1.56,12.62,3.36.57,1.22.25,2.53-.04,3.41-.97,3.08-3.4,4.33-4.32,4.8l-.22.11c-.42.37-.94.19-1.21-.36-.27-.55-.13-1.33.29-1.7.12-.12.26-.18.5-.31.79-.41,2.63-1.36,3.31-3.51.2-.6.25-.98.17-1.17-.79-1.69-8.59-2.09-11.16-2.22-12.07-.61-20.08,1.68-20.82,3.04-.16.87.41,1.83,1.24,3.08.36.55.7,1.08.93,1.58.26.57.13,1.32-.3,1.66-.15.13-.31.18-.47.18Z"/>
      <path class="cls-46" d="M635.56,363.98c-.49,0-.89-.52-.9-1.18l-.72-56.84c0-.67.39-1.22.89-1.23h.02c.49,0,.89.52.9,1.18l.72,56.84c0,.67-.39,1.22-.88,1.23h-.01Z"/>
      <path class="cls-46" d="M632.32,304.48c-.42,0-.8-.4-.88-.98-.09-.66.22-1.29.71-1.41,19.95-5.19,31.77-1.12,32.26-.95.48.17.77.83.64,1.47-.13.65-.62,1.02-1.1.86-.11-.04-11.95-4.08-31.46.98-.06.02-.11.02-.17.02Z"/>
      <path class="cls-46" d="M635.11,312.08c-.43,0-.82-.42-.89-1.01-.08-.66.25-1.28.74-1.38,20.14-4.35,26.16-.16,26.41.01.44.32.59,1.06.36,1.64-.24.58-.78.79-1.21.49-.07-.05-5.96-3.94-25.26.25-.05,0-.1.01-.15.01Z"/>
      <path class="cls-46" d="M660.22,298.57s-.1,0-.15-.02c-.45-.1-.77-.64-.75-1.24-.02-.46-.25-3.44-.53-6.87-3.08-38.38-3.16-46.46-2.23-47.93.32-.51.89-.56,1.27-.13.38.43.42,1.19.1,1.7-.84,2.73,1.78,35.38,2.64,46.1.57,7.05.56,7.09.53,7.38-.08.59-.45,1.01-.88,1.01Z"/>
      <path class="cls-46" d="M634.84,300.02c-.49,0-.89-.53-.9-1.19l-.45-54.43c0-.67.39-1.21.89-1.22h0c.49,0,.89.53.9,1.19l.45,54.44c0,.67-.32,1.22-.9,1.22Z"/>
      <path class="cls-46" d="M633.76,245c-1.1,0-2.37-.48-2.9-2.21-.57-1.71-.53-3.61.1-5.2,1.03-2.58,3.56-4.35,7.51-5.25,5.55-1.36,21.99-3.14,22.91,3.5.59,4.4-1.45,7.18-2.62,8.03-.44.33-.98.11-1.22-.47-.24-.58-.08-1.31.35-1.64.1-.07,2.21-1.74,1.71-5.49-.4-2.95-11.69-3.8-20.82-1.57-4.21.96-5.72,2.72-6.24,4.02-.51,1.27-.24,2.49-.03,3.11.33,1.07,1.93.64,1.95.64.48-.14.96.26,1.08.91.11.65-.19,1.3-.68,1.44-.31.1-.7.16-1.1.16Z"/>
      <path class="cls-46" d="M632.05,242.57s-.06,0-.09,0c-.49-.07-.86-.66-.81-1.32.22-3.03,3.18-5.21,16.88-6.04,6.68-.35,10.79.52,12.15,2.54.53.79.5,1.53.48,1.73-.07.66-.53,1.14-1.01,1.03-.42-.08-.74-.55-.77-1.09-.16-.29-1.6-2.23-10.77-1.79-13.48.81-15.1,2.97-15.16,3.86-.05.62-.44,1.08-.89,1.08Z"/>
      <path class="cls-46" d="M634.57,248.48c-.36,0-.69-.28-.84-.75-.19-.62.04-1.32.5-1.58,10.51-5.75,22.03-2.02,22.52-1.86.48.16.77.81.66,1.46-.12.65-.61,1.05-1.09.88-.11-.04-11.45-3.7-21.41,1.76-.11.06-.23.09-.34.09Z"/>
      <path class="cls-46" d="M656.08,233.28c-.46,0-.85-.47-.89-1.09-1.2-16.96-3.85-56.71-2.57-59.52.26-.57.81-.75,1.24-.4.42.35.56,1.09.3,1.66-.73,2.71,1.34,37.05,2.83,58.03.05.67-.32,1.26-.81,1.32-.03,0-.06,0-.09,0Z"/>
      <path class="cls-46" d="M634.66,236.05c-.48,0-.88-.51-.9-1.16,0-.14-.1-3.78-.1-26.11s-.62-34.32-.62-34.43c-.04-.67.34-1.24.83-1.29.5.03.93.46.96,1.12,0,.12.63,12.25.63,34.61s.09,25.99.09,26.03c.02.67-.37,1.23-.87,1.25h-.03Z"/>
      <path class="cls-46" d="M633.69,175.39c-1.04,0-2.34-.6-3.09-2.8-.49-1.58-.45-3.31.11-4.9.67-1.9,2.4-4.53,6.84-6.3,3.13-1.19,7.72-1.72,11.66-1.34,3.42.32,7.64,1.42,8.36,4.83.89,4.79-1.7,7.18-2.55,7.97l-.16.15c-.23.35-.61.52-.96.36-.47-.21-.73-.89-.57-1.52.11-.46.35-.67.67-.97,1.26-1.16,2.35-2.61,1.83-5.35-.23-1.11-2.15-2.61-6.75-3.05-3.77-.37-8.1.14-11.03,1.25-2.95,1.18-4.99,2.97-5.71,5.02-.35.98-.38,1.98-.09,2.89.58,1.69,1.63,1.38,1.94,1.25.47-.21.98.13,1.13.76.16.62-.08,1.3-.55,1.52-.28.13-.66.23-1.08.23Z"/>
      <path class="cls-46" d="M631.69,172.69s-.08,0-.12-.01c-.49-.09-.84-.7-.77-1.36.42-4.09,4.49-6.08,14.51-7.08,5.48-.6,9.02.19,10.51,2.39.65.95.78,2.02.7,2.65-.08.66-.57,1.09-1.04.98-.48-.11-.8-.7-.74-1.34,0-.06-.02-.38-.33-.77-.54-.69-2.49-2.2-8.96-1.5-8.4.84-12.61,2.47-12.87,5-.06.61-.45,1.04-.89,1.04Z"/>
      <path class="cls-46" d="M634.22,178.02c-.09,0-.19-.02-.29-.05-.48-.18-.73-.96-.6-1.6.23-1.16,1.82-2.89,8.07-4.61,7.37-2.01,11.62,1.2,11.79,1.34.43.33.57,1.07.33,1.64-.25.57-.8.78-1.23.45-.04-.03-3.9-2.87-10.54-1.07-5.87,1.61-6.73,3.05-6.77,3.11-.1.52-.41.79-.78.79Z"/>
      <path class="cls-46" d="M652.21,161.95h-.02c-.5-.02-.89-.57-.88-1.23l.18-11.34c.01-.67.41-1.12.92-1.18.5.01.89.56.88,1.23l-.18,11.34c0,.66-.41,1.18-.9,1.18Z"/>
      <path class="cls-46" d="M651.67,150.12c-.32,0-.63-.23-.79-.63-.23-.59-.07-1.32.37-1.64,1.16-.83,2.78-2,3.91-2.82-.86-.52-2.04-1.19-3.1-1.75-.46-.24-.69-.95-.51-1.57.19-.62.71-.92,1.17-.68,4.88,2.59,4.98,3.04,5.12,3.62.08.35.04.76-.11,1.07-.07.14-.15.25-.25.34-.27.25-3.86,2.82-5.38,3.92-.13.1-.28.14-.42.14Z"/>
      <path class="cls-46" d="M633.76,145.65s-.08,0-.11-.01c-.49-.08-.85-.68-.79-1.34.03-.31.71-7.58,3.94-12.04,1.66-2.28,4.2-3.46,6.9-3.5,2.57.06,4.87,1.3,6.3,3.41,2.9,4.16,2.84,9.89,2.84,10.13-.01.67-.44,1.31-.92,1.18-.5-.01-.89-.56-.88-1.23,0-.05.04-5.01-2.36-8.45-1.09-1.61-2.96-2.59-5-2.63-2.17,0-4.29.99-5.58,2.77-2.81,3.87-3.44,10.58-3.44,10.65-.06.61-.45,1.06-.89,1.06Z"/>
      <path class="cls-46" d="M633.85,153.01c-.11,0-.22-.03-.33-.08l-4.32-2.29c-.23-.12-.41-.36-.5-.67-.09-.31-.09-.65.01-.95.04-.12.96-2.81,3.62-4.79,2.54-1.76,16.42-3.46,18-3.64.45-.07.93.43.98,1.09.04.67-.32,1.25-.82,1.31-6.04.72-15.64,2.21-17.3,3.37-1.13.84-1.86,1.83-2.3,2.57l3.3,1.75c.46.24.69.95.5,1.57-.14.48-.48.76-.83.76Z"/>
      <path class="cls-46" d="M634.75,165.09c-.48,0-.88-.51-.9-1.15l-.45-13.64c-.02-.67.36-1.23.86-1.26.54.01.92.49.94,1.15l.45,13.64c.02.67-.36,1.23-.85,1.26h-.04Z"/>
      <path class="cls-46" d="M633.22,151.92c-.24,0-.47-.12-.65-.37-.34-.47-.34-1.22,0-1.68.17-.22,1.8-2.23,8.41-4.66,6.87-2.65,11.33.95,11.51,1.11.42.35.55,1.09.29,1.66-.26.56-.81.74-1.24.4-.04-.03-4.01-3.18-10.08-.84-6.11,2.25-7.62,4.04-7.64,4.07-.18.21-.4.32-.62.32Z"/>
      <path class="cls-46" d="M649.6,161.95c-.47,0-.86-.49-.9-1.13-.6-12.3.85-12.44,1.55-12.51h.01c.4,0,.71.19.96.55,1.04,1.51.83,7.93.62,11.62-.04.66-.51,1.14-.97,1.11-.19-.02-.36-.12-.49-.26-.14.35-.41.59-.73.62h-.06Z"/>
      <path class="cls-46" d="M644.2,161.59c-.43,0-.82-.43-.89-1.02-.49-4.19-.11-11.2,1.62-13.1.49-.54,1.08-.69,1.64-.4,1.98.98,2.46,8.74,2.57,13.28.02.66-.37,1.22-.87,1.24-.54.03-.91-.5-.93-1.17-.13-5.29-.8-10.49-1.44-11.12-.51.53-1.41,5.9-.82,10.9.08.66-.26,1.28-.75,1.38-.05,0-.09.02-.14.02Z"/>
      <path class="cls-46" d="M637.99,163.15c-.41,0-.78-.38-.88-.95-.02-.09-.39-2.36-.29-5.97.11-4.32.68-6.76,1.8-7.66.43-.36,1.14-.64,2.1-.03,2.41,1.41,2.38,9.72,2.31,12.24-.02.66-.43,1.18-.93,1.16-.5-.03-.89-.58-.87-1.26.11-4.29-.37-9.43-1.26-9.95-.21-.14-.34-.16-.42-.11-.08.07-.81.79-.93,5.68-.08,3.27.25,5.35.25,5.37.11.65-.2,1.3-.68,1.44-.07.02-.13.03-.2.03Z"/>
      <path class="cls-46" d="M635.29,163.88c-.48,0-.88-.5-.9-1.14-.42-11.13.42-11.66.93-11.98.4-.24.86-.14,1.21.29,1.36,1.68,1.03,8.52.83,11.38-.05.67-.48,1.17-.98,1.09-.13-.02-.24-.07-.35-.14-.15.29-.4.49-.69.51h-.04Z"/>
      <path class="cls-46" d="M640.24,131.29c-.27,0-.55-.17-.72-.48-.29-.53-.21-1.29.19-1.69h0s.32-.37.99-1.57c.39-.88.73-6.59.81-11.36h0c.01-.66.41-1.18.9-1.18h.02c.5.01.89.56.88,1.23-.02,1.98,0,7.55.34,9.61.09.51.35,1.77.72,2.1.05.05.16.15.21.21.35.47.35,1.23,0,1.71-.33.44-.84.47-1.19.1-.3-.26-.66-.69-1-1.62-.08.28-.16.5-.25.66-.82,1.48-1.25,1.95-1.35,2.06-.16.16-.35.23-.54.23Z"/>
    </g>
    <path class="cls-46" d="M427.55,354.89h0c-.24,0-.43-.2-.43-.44l1-73.42c0-.24.2-.43.43-.43h0c.24,0,.43.2.43.44l-1,73.42c0,.24-.2.43-.43.43Z"/>
    <path class="cls-46" d="M430.63,293.44h-.02c-.24,0-.43-.21-.42-.45l.48-11.88c0-.24.18-.4.45-.42.24,0,.43.21.42.45l-.48,11.88c0,.23-.2.41-.43.41Z"/>
    <path class="cls-46" d="M431.84,281.3c-.16,0-.31-.09-.39-.24-.24-.47-1.03-1.68-1.89-1.54-1.07.21-1.86,1.44-1.87,1.45-.13.2-.39.27-.6.14-.2-.13-.26-.39-.14-.6.04-.06.98-1.55,2.45-1.84,1.64-.25,2.77,1.92,2.82,2.01.11.21.02.47-.19.58-.06.03-.13.05-.19.05Z"/>
    <path class="cls-46" d="M430.89,283.42h-2.04c-.24,0-.43-.19-.43-.43s.19-.43.43-.43h2.04c.24,0,.43.19.43.43s-.19.43-.43.43Z"/>
    <path class="cls-46" d="M428.67,294.26c-.24,0-.43-.19-.43-.43,0-.22.17-.4.38-.43.51-.09,13.32-2.72,20.05-4.11.24-.04.46.1.51.34.05.23-.1.46-.34.51-20,4.13-20.12,4.13-20.18,4.13Z"/>
    <path class="cls-46" d="M429.8,279.08c-.24,0-.43-.19-.43-.43v-3.21c0-.24.19-.43.43-.43s.43.19.43.43v3.21c0,.24-.19.43-.43.43Z"/>
    <path class="cls-46" d="M433.92,287.06c-.26.04-.44-.2-.43-.44l.17-14.74c0-.24.2-.43.43-.43h0c.24,0,.43.2.43.44l-.17,14.74c0,.24-.2.43-.43.43Z"/>
    <path class="cls-46" d="M433.88,292.96c-.23,0-.43-.18-.43-.42l-.13-4.21c0-.24.18-.44.42-.45.26,0,.44.18.45.42l.13,4.21c0,.24-.18.44-.42.45h-.01Z"/>
    <path class="cls-46" d="M434.82,288.89c-1.43,0-1.88-.25-2.08-.55-.13-.19-.51-.76-.22-1.31.3-.57,1.12-.81,2.83-.84,2.47-.09,5.43-.13,5.43-.13v.87s-2.93.04-5.4.13c-1.85.03-2.07.34-2.09.37-.01.03,0,.15.18.42.13.11,1.03.46,6.51-.35.27-.04.44-.06.47-.06.24,0,.43.19.43.43s-.18.42-.41.43c-.05,0-.17.02-.36.05-2.54.37-4.19.52-5.28.52Z"/>
    <path class="cls-46" d="M444.47,288.93c-.13,0-.26-.06-.35-.17l-3.65-4.87-4.48-.25c-.24-.01-.42-.22-.41-.46.01-.24.23-.4.46-.41l4.69.26c.13,0,.25.07.32.17l3.78,5.03c.14.19.11.46-.09.61-.08.06-.17.09-.26.09Z"/>
    <path class="cls-46" d="M444.73,290.66c-.11,0-.22-.04-.31-.13l-4.04-4.12c-.17-.17-.17-.45,0-.61.17-.17.45-.16.61,0l4.04,4.12c.17.17.17.45,0,.61-.08.08-.19.12-.3.12Z"/>
    <path class="cls-46" d="M440.43,286.85h-.01c-.24,0-.43-.21-.42-.45l.09-2.65c0-.24.2-.42.45-.42.24,0,.43.21.42.45l-.09,2.65c0,.23-.2.42-.43.42Z"/>
    <path class="cls-46" d="M435.92,283.33h-.01c-.24,0-.43-.2-.42-.44l.26-11.06c0-.24.2-.42.43-.42h.01c.24,0,.43.2.42.44l-.26,11.06c0,.23-.2.42-.43.42Z"/>
    <path class="cls-46" d="M446.68,285.11c-.17,0-.33-.1-.4-.27-.14-.34-.7-1.37-1.32-1.29-.73.03-1.44.9-1.65,1.23-.13.2-.39.26-.6.14-.2-.13-.26-.39-.14-.6.04-.07,1-1.59,2.35-1.64,1.36-.07,2.12,1.75,2.15,1.83.09.22-.02.47-.24.56-.05.02-.11.03-.16.03Z"/>
    <path class="cls-46" d="M444.47,290.19c-.22,0-.41-.17-.43-.4l-.39-5.03c-.02-.24.16-.45.4-.47.23,0,.45.16.47.4l.39,5.03c.02.24-.16.45-.4.47h-.03Z"/>
    <path class="cls-46" d="M445.9,290.49c-.24,0-.43-.19-.43-.43l-.04-5.2c0-.24.17-.4.43-.44.24,0,.43.19.43.43l.04,5.2c0,.24-.19.43-.43.44h0Z"/>
    <path class="cls-46" d="M444.9,282.94h0c-.24,0-.43-.2-.43-.44l.04-2.13c0-.24.18-.43.44-.42.24,0,.43.2.42.44l-.04,2.13c0,.24-.2.42-.43.42Z"/>
    <path class="cls-46" d="M446.68,285.11c-.07,0-.14-.02-.2-.05,0,0-.58-.3-1.53-.3-1.03,0-1.85.28-1.85.28-.23.08-.47-.04-.55-.27-.08-.23.04-.47.27-.55.04-.01.95-.33,2.14-.33s1.91.38,1.94.4c.21.11.29.38.18.59-.08.15-.23.23-.38.23Z"/>
    <path class="cls-46" d="M441.3,291.66c-.2,0-.38-.14-.42-.35l-.74-3.69c-.05-.23.1-.46.34-.51.23-.05.46.11.51.34l.74,3.69c.05.24-.11.46-.34.51-.03,0-.06,0-.09,0Z"/>
    <path class="cls-46" d="M437.05,271.89c-.17,0-.33-.1-.4-.27,0-.01-.55-1.29-1.33-1.29h-.03c-.7.03-1.43.9-1.65,1.24-.13.2-.4.26-.6.12-.2-.13-.26-.4-.12-.6.11-.16,1.07-1.58,2.34-1.63,1.43-.09,2.17,1.75,2.2,1.83.09.22-.02.47-.24.57-.05.02-.11.03-.16.03Z"/>
    <path class="cls-46" d="M435.23,269.72h0c-.24,0-.43-.2-.42-.44l.04-2.13c0-.24.19-.46.44-.42.24,0,.43.2.43.44l-.04,2.13c0,.24-.2.42-.43.42Z"/>
    <path class="cls-46" d="M433.27,271.89c-.17,0-.34-.11-.41-.28-.09-.22.03-.47.25-.56.04-.02,1-.38,2.15-.38,1.22,0,1.95.38,1.98.4.21.11.29.38.18.59-.11.21-.38.29-.59.18,0,0-.59-.3-1.58-.3s-1.83.32-1.84.32c-.05.02-.1.03-.15.03Z"/>
    <path class="cls-46" d="M451.89,276.53c-.17,0-.33-.1-.4-.27,0-.01-.55-1.29-1.33-1.29h-.03c-.87.03-1.63,1.25-1.64,1.27-.12.2-.39.27-.6.14-.2-.12-.27-.39-.15-.59.04-.07,1-1.63,2.35-1.68,1.41-.1,2.17,1.75,2.2,1.83.09.22-.02.47-.24.56-.05.02-.11.03-.16.03Z"/>
    <path class="cls-46" d="M450.07,274.36h0c-.24,0-.43-.2-.42-.44l.04-2.13c0-.24.21-.44.44-.42.24,0,.43.2.42.44l-.04,2.13c0,.24-.2.42-.43.42Z"/>
    <path class="cls-46" d="M451.89,276.53c-.07,0-.14-.02-.2-.05,0,0-.58-.3-1.58-.3-1.03.04-1.84.32-1.85.32-.23.08-.47-.04-.55-.27-.08-.23.04-.47.27-.55.04-.01.94-.33,2.12-.37h0c1.24,0,1.97.38,2,.4.21.11.29.38.18.59-.08.15-.23.23-.38.23Z"/>
    <path class="cls-46" d="M448.85,290.14c-.24,0-.43-.19-.43-.43l-.04-13.4c0-.24.15-.42.43-.44.24,0,.43.19.43.43l.04,13.4c0,.24-.19.44-.43.44h0Z"/>
    <path class="cls-46" d="M451.11,289.75h0c-.24,0-.43-.2-.43-.44l.22-13.05c0-.24.2-.42.43-.42h0c.24,0,.43.2.43.44l-.22,13.05c0,.24-.2.43-.43.43Z"/>
    <path class="cls-46" d="M428.98,298.47c-.2,0-.38-.14-.42-.34-.05-.23.1-.46.33-.52l19.79-4.25c.23-.05.46.1.51.33.05.23-.1.46-.33.51l-19.79,4.25s-.06,0-.09,0Z"/>
    <path class="cls-46" d="M450.98,293.87c-.24,0-.43-.19-.43-.43,0-.24.19-.43.43-.44l32.67-.26h0c.24,0,.43.19.43.43,0,.24-.19.44-.43.44l-32.67.26h0Z"/>
    <path class="cls-46" d="M451.67,289.71c-.24,0-.43-.19-.43-.43,0-.24.19-.43.43-.43l31.11-.09h0c.24,0,.43.19.43.43,0,.24-.19.43-.43.43l-31.11.09h0Z"/>
    <path class="cls-46" d="M456.92,280.69s-.05,0-.07,0l-2.69-.43c-.12-.02-.23-.09-.29-.19l-1.95-2.95c-.08-.12-.09-.27-.04-.4.05-.13.17-.23.3-.26l9.29-2.17,15.81-.06,5.94,1.14c.24.05.39.27.34.51-.04.24-.28.4-.51.34l-5.86-1.13-15.63.05-8.58,2.01,1.51,2.27,2.5.4c.24.04.4.26.36.5-.03.21-.22.37-.43.37Z"/>
    <path class="cls-46" d="M456.66,280.08c-.24,0-.43-.19-.43-.43v-.91c0-.2.14-.38.34-.42l7.77-1.73h11.42s7.54,1.25,7.54,1.25c.24.04.4.26.36.5-.04.24-.26.39-.5.36l-7.46-1.26h-11.25s-7.33,1.65-7.33,1.65v.56c0,.24-.19.43-.43.43Z"/>
    <path class="cls-46" d="M456.97,275.88h0c-.24,0-.43-.19-.43-.43,0-.1.09-9.86,7.63-14.51.2-.12.47-.06.6.14.13.2.06.47-.14.6-7.1,4.38-7.21,13.67-7.21,13.77,0,.24-.19.43-.43.43Z"/>
    <path class="cls-46" d="M463.95,261.82c-.12,0-.25-.05-.33-.16-.15-.19-.13-.46.06-.61.51-.43,1.37-.95,2.36-1.56,1.87-1.14,4.44-2.71,5.03-3.98.1-.21.36-.31.58-.21.22.1.31.36.21.58-.7,1.5-3.29,3.08-5.36,4.35-.96.59-1.79,1.1-2.26,1.48-.08.07-.18.1-.28.1Z"/>
    <path class="cls-46" d="M478.18,262c-.07,0-.13-.01-.2-.05-3.39-1.72-6.32-5.69-6.45-5.85-.14-.19-.1-.46.09-.61.19-.14.46-.1.61.09.03.04,2.93,3.97,6.14,5.59.21.11.3.37.19.58-.08.15-.23.24-.39.24Z"/>
    <path class="cls-46" d="M483.26,266.6c-.14,0-.28-.07-.36-.19-1.61-2.44-5.75-4.78-5.79-4.8-.21-.12-.28-.38-.17-.59.12-.21.38-.28.59-.17.18.1,4.36,2.47,6.09,5.08.13.2.08.47-.12.6-.07.05-.16.07-.24.07Z"/>
    <path class="cls-46" d="M483.52,272.58s-.05,0-.08,0l-8.07-1.56c-4.11,0-10.51.03-10.94.09h0c-.66.16-3.82.74-6.47,1.22-.23.04-.46-.11-.5-.35-.04-.24.11-.46.35-.5,2.32-.42,6.12-1.12,6.41-1.2.06-.04.21-.11,11.25-.11l8.15,1.57c.24.05.39.27.34.51-.04.21-.22.35-.42.35Z"/>
    <path class="cls-46" d="M471.29,251.63c-.57,0-1-.37-1-.87,0-.46.44-.82,1-.82.59,0,1.04.35,1.04.82,0,.5-.44.87-1.04.87Z"/>
    <path class="cls-46" d="M471.37,253.67c-.71,0-1.26-.44-1.26-1s.55-1,1.26-1,1.26.44,1.26,1-.55,1-1.26,1ZM471.37,252.54c-.26,0-.38.11-.39.14.01.01.13.12.39.12s.38-.11.39-.14c-.01-.01-.14-.12-.39-.12Z"/>
    <path class="cls-46" d="M471.46,255.88c-.83,0-1.48-.49-1.48-1.13,0-.6.66-1.08,1.48-1.08s1.43.48,1.43,1.08c0,.64-.62,1.13-1.43,1.13ZM471.46,254.54c-.37,0-.59.17-.61.23,0,.07.23.25.61.25.34,0,.56-.16.56-.26-.01-.05-.2-.22-.56-.22Z"/>
    <path class="cls-46" d="M471.33,250.59h0c-.24,0-.43-.2-.42-.44l.04-2.04c0-.24.17-.45.44-.42.24,0,.43.2.42.44l-.04,2.04c0,.24-.2.42-.43.42Z"/>
    <path class="cls-46" d="M447.55,331.08c-.2.04-.43-.2-.43-.43l.09-31.75-16.46,2.82c-.23.04-.46-.12-.5-.35-.04-.24.12-.46.35-.5l16.97-2.91c.12-.02.25.02.35.1.1.08.15.21.15.33l-.09,32.27c0,.24-.19.43-.43.43Z"/>
    <path class="cls-46" d="M444.43,332.29h-.01c-.24,0-.43-.2-.42-.44l.72-28.58-12.16,1.75c-.23.03-.46-.13-.49-.37-.03-.24.13-.46.37-.49l12.67-1.82c.12-.02.25.02.35.11.1.08.15.21.15.33l-.74,29.1c0,.24-.2.42-.43.42Z"/>
    <path class="cls-46" d="M432.62,333.47c-.24,0-.43-.19-.43-.43,0-.65.33-26.4.35-27.5,0-.24.2-.43.43-.43h0c.24,0,.43.2.43.44,0,.27-.35,26.85-.35,27.49,0,.24-.19.43-.43.43Z"/>
    <path class="cls-46" d="M433.49,312.91s-.06,0-.1-.01c-.23-.05-.38-.28-.33-.52.04-.2,1.13-4.84,5.74-7.94.12-.08.26-.09.39-.05.17.06,4.16,1.61,5.77,6.65.07.23-.05.47-.28.55-.23.07-.47-.06-.54-.28-1.28-4.02-4.25-5.64-5.05-6.01-4.16,2.91-5.17,7.23-5.18,7.28-.05.2-.22.34-.42.34Z"/>
    <path class="cls-46" d="M430.45,335.55c-.22,0-.4-.16-.43-.38-.03-.24.14-.45.38-.48l15.58-1.82c.23-.05.45.14.48.38.03.24-.14.45-.38.48l-15.58,1.82s-.03,0-.05,0Z"/>
    <path class="cls-46" d="M444.43,349.25c-.24,0-.43-.19-.43-.43v-10.96l-11.58,1.29c-.23.02-.45-.15-.48-.38-.03-.24.15-.45.38-.48l12.06-1.34c.13-.01.24.03.34.11.09.08.14.2.14.32v11.45c0,.24-.19.43-.43.43Z"/>
    <path class="cls-46" d="M432.19,353.33c-.26-.04-.44-.2-.43-.44l.13-13.62c0-.24.2-.43.43-.43h0c.24,0,.43.2.43.44l-.13,13.62c0,.24-.2.43-.43.43Z"/>
    <path class="cls-46" d="M432.62,347.43c-.07,0-.13-.01-.2-.05-.21-.11-.29-.35-.2-.56.01-.03.03-.1.06-.18,1.34-4.59,3.89-6.63,5.8-7.53.08-.04.18-.05.27-.03.14.03,3.43.77,6.04,7.24.09.22-.02.47-.24.56-.22.09-.47-.02-.56-.24-2.13-5.28-4.69-6.47-5.29-6.68-1.72.87-3.97,2.76-5.19,6.92-.05.17-.09.28-.1.31-.08.15-.23.24-.39.24Z"/>
    <path class="cls-46" d="M481.09,333.6h0c-.24,0-.43-.2-.43-.44l.39-34.99-28.59-.13c-.24,0-.43-.19-.43-.43,0-.24.2-.43.43-.43h0l29.03.13c.12,0,.23.05.31.13.08.08.13.19.12.31l-.39,35.43c0,.24-.2.43-.43.43Z"/>
    <path class="cls-46" d="M451.15,347h-.01c-.24,0-.43-.21-.42-.45l1.43-47.83c0-.24.23-.42.45-.42.24,0,.43.21.42.45l-1.43,47.83c0,.23-.2.42-.43.42Z"/>
    <path class="cls-46" d="M478.92,338.11h0c-.24,0-.43-.2-.43-.44l.04-1.82-24.56-.47c-.24,0-.43-.2-.43-.44,0-.24.23-.41.44-.42l24.99.48c.12,0,.22.05.3.13.08.08.12.19.12.31l-.04,2.25c0,.24-.2.42-.43.42Z"/>
    <path class="cls-46" d="M454.78,332.9c-.19,0-.38-.14-.44-.33-.03-.09-.11-.33.37-32.93,0-.24.2-.43.43-.43h0l23.87.17c.24,0,.43.2.43.44l-.22,32.57c0,.24-.2.43-.43.43-.24.04-.44-.19-.43-.44l.21-32.13-23-.17c-.16,11.11-.44,31.58-.39,32.29.07.23-.06.43-.28.51-.04.01-.08.02-.12.02Z"/>
    <path class="cls-46" d="M476.93,331.65h-.02c-.24-.01-.42-.22-.41-.46,0-.12.64-12.05-.34-19.09-.89-6.39-8.29-7.96-9.15-8.12-8.86,2.13-9.12,7.37-9.13,7.42l-.13,19.81c0,.24-.2.43-.43.43h0c-.24,0-.43-.2-.43-.44l.13-19.82c0-.25.29-6.01,9.88-8.27.05-.01.11-.01.17,0,.09.01,8.92,1.48,9.95,8.87.99,7.11.36,19.13.35,19.25-.01.23-.2.41-.43.41Z"/>
    <path class="cls-46" d="M456.45,310.92h0c-.24,0-.43-.2-.43-.44l.17-9.37c0-.24.2-.42.43-.42h0l20.61.35c.24,0,.43.2.43.44,0,.24-.2.42-.43.42h0l-20.18-.34-.16,8.93c0,.24-.2.43-.43.43Z"/>
    <path class="cls-46" d="M456.84,289.62h0c-.24,0-.43-.2-.43-.44l.04-8.33c0-.24.2-.43.43-.43h0c.24,0,.43.2.43.44l-.04,8.33c0,.24-.19.43-.43.43Z"/>
    <path class="cls-46" d="M464.25,289.49c-.07,0-.14-.02-.21-.05-.31-.17-.36-.19-.31-11.7,0-.24.19-.43.43-.43.21.03.43.19.43.43-.02,4.15-.01,10.46.06,11.17.06.18,0,.39-.17.5-.07.05-.16.07-.24.07Z"/>
    <path class="cls-46" d="M475.75,289.32h0c-.24,0-.43-.2-.43-.44l.17-11.4c0-.24.2-.43.43-.43h0c.24,0,.43.2.43.44l-.17,11.4c0,.24-.2.43-.43.43Z"/>
    <path class="cls-46" d="M483.17,293.48h0c-.24,0-.43-.2-.43-.44l.17-14.14c0-.24.17-.39.44-.43.24,0,.43.2.43.44l-.17,14.14c0,.24-.2.43-.43.43Z"/>
    <path class="cls-46" d="M476.62,289.41c-.23,0-.43-.19-.43-.42,0-.21-.12-5.08.96-7.07,1.17-2.05,2.85-2.49,2.92-2.51.14-.03.28,0,.39.09.09.07,2.09,1.79,2.41,4.44.3,2.48.18,4.83.18,4.93-.01.24-.22.39-.46.41-.24-.01-.42-.22-.41-.46,0-.02.12-2.38-.17-4.78-.23-1.88-1.47-3.27-1.93-3.72-.43.17-1.41.69-2.16,2.02-.97,1.78-.86,6.58-.85,6.62,0,.24-.18.44-.42.45h-.01Z"/>
    <path class="cls-46" d="M474.11,289.41s-.02,0-.04,0c-.24-.02-.41-.23-.4-.47,0-.02.12-1.52-.3-4.68-.35-2.55-2.95-3.89-3.61-4.19-2.61,1.07-3.2,3.3-3.33,4.23-.03.3-.02,2.96,0,4.58,0,.24-.22.4-.43.44-.24,0-.43-.19-.43-.43-.02-2.02-.03-4.47,0-4.69.16-1.12.87-3.8,4.05-5,.1-.04.21-.04.31,0,.16.06,3.85,1.52,4.31,4.94.43,3.26.31,4.8.31,4.86-.02.23-.21.4-.43.4Z"/>
    <path class="cls-46" d="M463.21,289.49s-.04,0-.07,0c-.24-.04-.4-.26-.36-.49,0-.03.42-2.79,0-5.59-.35-2.19-1.42-3-1.81-3.23-.39.17-1.39.74-1.82,2.09-.57,1.8-.03,6.49-.03,6.54.03.24-.14.45-.38.48-.23.03-.45-.14-.48-.38-.02-.2-.57-4.93.06-6.9.67-2.1,2.46-2.69,2.54-2.71.1-.03.2-.03.29,0,.08.03,1.97.82,2.48,3.98.44,2.94.02,5.74,0,5.86-.03.21-.22.37-.43.37Z"/>
    <path class="cls-46" d="M457.44,344.87c-.08,0-.16-.02-.23-.07-.2-.13-.26-.39-.13-.6,1.22-1.93,3.81-4.47,9.26-5.61.04,0,.08,0,.12,0,.09,0,2.15.15,4.46,1.3.21.11.3.37.19.58-.11.21-.37.3-.58.19-1.94-.97-3.74-1.18-4.07-1.21-5.11,1.09-7.52,3.43-8.64,5.22-.08.13-.22.2-.37.2Z"/>
    <path class="cls-46" d="M486.52,259.61c-.18,0-.34-.11-.41-.28,0-.01-.51-1.32-1.28-1.32h-.03c-.87.03-1.64,1.25-1.64,1.26-.13.21-.39.27-.6.15-.21-.12-.27-.39-.15-.6.04-.07,1-1.63,2.35-1.68,1.41-.08,2.13,1.81,2.16,1.89.08.22-.03.47-.26.56-.05.02-.1.03-.15.03Z"/>
    <path class="cls-46" d="M484.74,257.4h0c-.24,0-.43-.2-.43-.44l.04-2.13c0-.24.23-.44.44-.42.24,0,.43.2.42.44l-.04,2.13c0,.24-.2.42-.43.42Z"/>
    <path class="cls-46" d="M486.52,259.61c-.07,0-.15-.02-.21-.06,0,0-.54-.29-1.52-.29-1.03,0-1.85.28-1.85.28-.23.08-.47-.04-.55-.27-.08-.23.04-.47.27-.55.04-.01.95-.33,2.14-.33s1.92.39,1.95.4c.21.12.28.38.16.59-.08.14-.23.22-.38.22Z"/>
    <path class="cls-46" d="M483.61,278.61h0c-.24,0-.43-.2-.43-.44l.17-18.6c0-.24.2-.43.43-.43h0c.24,0,.43.2.43.44l-.17,18.6c0,.24-.2.43-.43.43Z"/>
    <path class="cls-46" d="M485.61,276.61h0c-.24,0-.43-.2-.42-.44l.35-16.61c0-.24.17-.41.44-.42.24,0,.43.2.42.44l-.35,16.61c0,.24-.2.42-.43.42Z"/>
    <path class="cls-46" d="M485.26,336.02h0c-.24,0-.43-.2-.43-.44l.39-57.72c0-.24.2-.43.43-.43h0c.24,0,.43.2.43.44l-.39,57.72c0,.24-.2.43-.43.43Z"/>
    <path class="cls-46" d="M483,336.76h0c-.24,0-.43-.2-.43-.44l.48-41.33c0-.24.2-.43.43-.43h0c.24,0,.43.2.43.44l-.48,41.33c0,.24-.2.43-.43.43Z"/>
    <path class="cls-46" d="M619.73,366.38c-.24,0-.43-.19-.43-.43l-1.17-84.91c0-.24.19-.44.43-.44h0c.24,0,.43.19.43.43l1.17,84.91c0,.24-.19.43-.43.44h0Z"/>
    <path class="cls-46" d="M616.48,293.44c-.23,0-.42-.18-.43-.41l-.48-11.88c-.01-.24.18-.44.42-.45.26.01.44.18.45.42l.48,11.88c0,.24-.18.44-.42.45h-.02Z"/>
    <path class="cls-46" d="M615.26,281.3c-.07,0-.13-.02-.19-.05-.21-.11-.3-.37-.19-.58.05-.09,1.14-2.3,2.76-2.01,1.52.3,2.47,1.78,2.51,1.84.13.2.07.47-.14.6-.2.13-.47.07-.6-.13,0-.01-.79-1.23-1.93-1.45-.79-.12-1.59,1.07-1.83,1.55-.08.15-.23.24-.39.24Z"/>
    <path class="cls-46" d="M618.26,283.42h-2.04c-.24,0-.43-.19-.43-.43s.19-.43.43-.43h2.04c.24,0,.43.19.43.43s-.19.43-.43.43Z"/>
    <path class="cls-46" d="M618.39,294.26c-.06,0-.13,0-20.14-4.13-.23-.05-.39-.28-.34-.51.05-.24.28-.38.51-.34,6.77,1.4,19.67,4.06,20.02,4.12.24,0,.4.19.4.43s-.23.43-.47.43Z"/>
    <path class="cls-46" d="M617.3,279.08c-.24,0-.43-.19-.43-.43l-.04-3.21c0-.24.19-.44.43-.44h0c.24,0,.43.19.43.43l.04,3.21c0,.24-.19.44-.43.44h0Z"/>
    <path class="cls-46" d="M613.18,287.06c-.24,0-.43-.19-.43-.43l-.17-14.74c0-.24.19-.43.43-.44h0c.24,0,.43.19.43.43l.17,14.74c0,.24-.19.43-.43.44h0Z"/>
    <path class="cls-46" d="M613.22,292.96h0c-.24,0-.43-.2-.42-.44l.09-4.21c0-.24.2-.42.43-.42h0c.24,0,.43.2.42.44l-.09,4.21c0,.24-.2.42-.43.42Z"/>
    <path class="cls-46" d="M612.28,288.89c-1.09,0-2.74-.14-5.27-.52-.19-.03-.32-.05-.37-.05-.23-.02-.41-.22-.4-.45.01-.23.2-.41.43-.41.03,0,.19.02.47.06,5.48.81,6.38.46,6.52.33.15-.24.16-.38.14-.41-.02-.03-.24-.34-2.06-.37-2.48-.09-5.42-.13-5.42-.13v-.87s2.97.04,5.45.13c1.68.03,2.5.27,2.8.82.29.54-.07,1.12-.19,1.31-.21.31-.66.56-2.1.56Z"/>
    <path class="cls-46" d="M602.63,288.93c-.09,0-.18-.03-.26-.09-.19-.14-.23-.42-.09-.61l3.78-5.03c.08-.1.2-.16.32-.17l4.69-.26c.23,0,.44.17.46.41.01.24-.17.44-.41.46l-4.48.25-3.65,4.87c-.08.11-.22.17-.35.17Z"/>
    <path class="cls-46" d="M602.37,290.66c-.11,0-.22-.04-.3-.12-.17-.17-.17-.44,0-.61l4.04-4.12c.17-.17.44-.17.61,0,.17.17.17.44,0,.61l-4.04,4.12c-.08.09-.2.13-.31.13Z"/>
    <path class="cls-46" d="M606.67,286.85c-.23,0-.43-.18-.43-.42l-.09-2.65c0-.24.18-.44.42-.45.23,0,.44.18.45.42l.09,2.65c0,.24-.18.44-.42.45h-.01Z"/>
    <path class="cls-46" d="M611.18,283.33c-.24,0-.43-.19-.43-.42l-.26-11.06c0-.24.18-.44.42-.44h.01c.24,0,.43.19.43.42l.26,11.06c0,.24-.18.44-.42.44h-.01Z"/>
    <path class="cls-46" d="M600.42,285.11c-.05,0-.11,0-.16-.03-.22-.09-.33-.34-.24-.56.03-.08.82-1.92,2.15-1.83,1.34.05,2.31,1.57,2.35,1.63.13.2.07.47-.14.6-.21.13-.47.06-.6-.14-.21-.33-.91-1.2-1.65-1.23-.6-.04-1.18.95-1.32,1.29-.07.17-.23.27-.4.27Z"/>
    <path class="cls-46" d="M602.64,290.19h-.03c-.24-.02-.42-.23-.4-.47l.39-5.03c.02-.24.24-.4.47-.4.24.02.42.23.4.47l-.39,5.03c-.02.23-.21.4-.43.4Z"/>
    <path class="cls-46" d="M601.16,290.49h0c-.24,0-.43-.2-.43-.44l.09-5.2c0-.24.2-.43.43-.43h0c.24,0,.43.2.43.44l-.09,5.2c0,.24-.2.43-.43.43Z"/>
    <path class="cls-46" d="M602.2,282.94c-.24,0-.43-.19-.43-.42l-.04-2.13c0-.24.19-.44.42-.44.24,0,.44.19.44.42l.04,2.13c0,.24-.19.44-.42.44h0Z"/>
    <path class="cls-46" d="M600.42,285.11c-.16,0-.31-.08-.38-.23-.11-.21-.03-.47.18-.58.03-.02.76-.4,1.94-.4s2.1.31,2.14.33c.23.08.35.33.27.55-.08.23-.32.35-.55.27,0,0-.82-.28-1.85-.28-.95,0-1.53.29-1.53.3-.06.03-.13.05-.2.05Z"/>
    <path class="cls-46" d="M605.8,291.66s-.05,0-.08,0c-.24-.04-.39-.27-.35-.51l.69-3.69c.04-.24.27-.39.51-.35.24.04.39.27.35.51l-.69,3.69c-.04.21-.22.35-.43.35Z"/>
    <path class="cls-46" d="M610.05,271.89c-.06,0-.11-.01-.16-.03-.22-.09-.33-.34-.24-.56.03-.08.76-1.83,2.14-1.83.02,0,.04,0,.06,0,1.27.05,2.24,1.47,2.34,1.63.13.2.08.47-.12.6-.2.13-.47.08-.6-.12-.22-.33-.95-1.21-1.65-1.24-.79,0-1.36,1.28-1.36,1.29-.07.17-.23.27-.4.27Z"/>
    <path class="cls-46" d="M611.83,269.72c-.24,0-.43-.19-.43-.43v-2.13c0-.24.19-.43.43-.43s.43.19.43.43v2.13c0,.24-.19.43-.43.43Z"/>
    <path class="cls-46" d="M613.83,271.89c-.05,0-.1,0-.15-.03,0,0-.86-.32-1.84-.32s-1.57.29-1.58.3c-.21.11-.47.03-.58-.18-.11-.21-.03-.47.18-.58.03-.02.76-.4,1.98-.4,1.15,0,2.11.36,2.15.38.22.09.34.34.25.56-.07.17-.23.28-.41.28Z"/>
    <path class="cls-46" d="M595.21,276.53c-.06,0-.11-.01-.16-.03-.22-.09-.33-.34-.24-.56.03-.08.76-1.83,2.13-1.83.02,0,.04,0,.06,0,1.28.05,2.24,1.51,2.35,1.67.13.2.07.47-.13.6-.2.13-.47.07-.6-.13-.22-.35-.95-1.25-1.65-1.28-.77,0-1.35,1.28-1.36,1.29-.07.17-.23.27-.4.27Z"/>
    <path class="cls-46" d="M597.04,274.36c-.24,0-.43-.19-.43-.42l-.04-2.13c0-.24.19-.44.42-.44.27-.02.44.19.44.42l.04,2.13c0,.24-.19.44-.43.44h0Z"/>
    <path class="cls-46" d="M598.99,276.53s-.09,0-.14-.02c0,0-.87-.29-1.88-.33-.97,0-1.55.29-1.56.3-.21.11-.47.03-.58-.18-.11-.21-.03-.47.18-.58.03-.02.76-.4,1.98-.4,1.15.04,2.09.36,2.13.37.23.08.35.32.27.55-.06.18-.23.3-.41.3Z"/>
    <path class="cls-46" d="M598.25,290.14h0c-.24,0-.43-.2-.43-.44l.04-13.4c0-.24.2-.43.43-.43.19.02.43.19.43.44l-.04,13.4c0,.24-.19.43-.43.43Z"/>
    <path class="cls-46" d="M596,289.75c-.24,0-.43-.19-.43-.42l-.26-13.05c0-.24.19-.44.42-.44h0c.24,0,.43.19.43.42l.26,13.05c0,.24-.19.44-.42.44h0Z"/>
    <path class="cls-46" d="M618.08,298.47s-.06,0-.09,0l-19.74-4.25c-.23-.05-.38-.28-.33-.51.05-.23.28-.38.52-.33l19.74,4.25c.23.05.38.28.33.52-.04.2-.22.34-.42.34Z"/>
    <path class="cls-46" d="M596.08,293.87h0l-32.63-.26c-.24,0-.43-.2-.43-.44,0-.24.17-.39.44-.43l32.63.26c.24,0,.43.2.43.44,0,.24-.2.43-.43.43Z"/>
    <path class="cls-46" d="M595.43,289.71h0l-31.11-.09c-.24,0-.43-.2-.43-.43,0-.24.19-.43.43-.43h0l31.11.09c.24,0,.43.19.43.43,0,.24-.2.43-.43.43Z"/>
    <path class="cls-46" d="M590.18,280.69c-.21,0-.39-.15-.43-.37-.04-.23.12-.46.36-.5l2.5-.4,1.5-2.27-8.68-2.03-15.65-.03-5.73,1.12c-.23.05-.46-.11-.51-.34-.05-.24.11-.46.34-.51l5.82-1.13,15.83.04,9.38,2.18c.14.03.25.13.3.26.05.13.04.28-.04.4l-1.95,2.95c-.07.1-.17.17-.29.19l-2.69.43s-.05,0-.07,0Z"/>
    <path class="cls-46" d="M590.4,280.08s-.09,0-.14-.02c-.22-.07-.34-.3-.28-.52,0-.07,0-.25,0-.45l-7.44-1.66h-11.19s-7.39,1.26-7.39,1.26c-.24.04-.46-.12-.5-.36-.04-.24.12-.46.36-.5l7.46-1.26h11.36s7.86,1.74,7.86,1.74c.19.04.33.21.34.4.05.86,0,1.01-.02,1.07-.06.18-.23.3-.41.3Z"/>
    <path class="cls-46" d="M590.14,275.88c-.24,0-.43-.19-.43-.43,0-.09-.11-9.39-7.21-13.77-.2-.13-.27-.39-.14-.6.13-.2.39-.27.6-.14,7.54,4.65,7.63,14.41,7.63,14.51,0,.24-.19.43-.43.43h0Z"/>
    <path class="cls-46" d="M583.46,261.3c-.15,0-.28-.07-.35-.18-.28-.22-1.88-1.12-4.35-2.29-2.71-1.31-3.47-2.87-3.5-2.94-.1-.22,0-.48.21-.58.21-.1.47-.01.58.21,0,.01.69,1.37,3.09,2.53,4.76,2.26,4.76,2.6,4.76,2.82,0,.24-.19.43-.43.43Z"/>
    <path class="cls-46" d="M568.75,261.05c-.19,0-.36-.12-.42-.31-.07-.23.07-.47.3-.54,3.62-1.03,6.2-4.57,6.23-4.61.14-.19.41-.24.6-.1.19.14.24.41.1.61-.11.15-2.78,3.82-6.7,4.93-.04.01-.08.02-.12.02Z"/>
    <path class="cls-46" d="M563.84,266.6c-.08,0-.16-.02-.24-.07-.2-.13-.26-.4-.12-.6,1.73-2.62,5.92-4.98,6.09-5.08.21-.12.47-.04.59.17.12.21.04.47-.17.59-.04.02-4.18,2.36-5.8,4.8-.08.12-.22.19-.36.19Z"/>
    <path class="cls-46" d="M563.58,272.58c-.2,0-.38-.14-.42-.35-.05-.23.11-.46.34-.51l8.03-1.56c11.16,0,11.31.07,11.43.12.23.06,4.03.76,6.35,1.18.24.04.39.27.35.5-.04.24-.28.39-.5.35-2.87-.52-6.34-1.15-6.55-1.24-.36-.03-6.78-.06-10.99-.06l-7.94,1.55s-.06,0-.08,0Z"/>
    <path class="cls-46" d="M575.82,251.63c-.6,0-1.04-.37-1.04-.87,0-.47.45-.82,1.04-.82.56,0,1,.36,1,.82,0,.5-.43.87-1,.87Z"/>
    <path class="cls-46" d="M575.73,253.67c-.73,0-1.3-.44-1.3-1s.57-1,1.3-1,1.26.45,1.26,1-.56,1-1.26,1ZM575.29,252.7s.18.11.44.11c.22,0,.37-.11.39-.15h0s-.17-.11-.39-.11c-.26,0-.42.11-.44.16h0Z"/>
    <path class="cls-46" d="M575.64,255.88c-.82,0-1.43-.48-1.43-1.13,0-.61.63-1.08,1.43-1.08s1.48.49,1.48,1.08c0,.63-.65,1.13-1.48,1.13ZM575.64,254.54c-.36,0-.55.17-.56.22,0,.1.23.26.56.26.38,0,.61-.18.61-.26-.02-.05-.24-.22-.61-.22Z"/>
    <path class="cls-46" d="M575.77,250.59c-.24,0-.43-.19-.43-.42l-.04-2.04c0-.24.19-.44.42-.44.21-.03.44.18.44.42l.04,2.04c0,.24-.19.44-.42.44h0Z"/>
    <path class="cls-46" d="M599.51,331.08c-.24,0-.43-.19-.43-.43l-.09-32.27c0-.13.06-.25.15-.33.1-.08.23-.12.35-.1l17.01,2.91c.24.04.4.26.36.5-.04.24-.27.4-.5.35l-16.5-2.82.09,31.75c0,.24-.19.43-.43.43h0Z"/>
    <path class="cls-46" d="M602.68,332.29c-.23,0-.43-.19-.43-.42l-.74-29.1c0-.13.05-.25.15-.33.09-.09.22-.12.35-.11l12.67,1.82c.24.03.4.25.37.49-.03.24-.26.39-.49.37l-12.16-1.75.73,28.58c0,.24-.18.44-.42.44h-.01Z"/>
    <path class="cls-46" d="M614.48,333.47c-.23,0-.42-.17-.43-.4-.04-.66-.34-26.42-.35-27.52,0-.24.19-.44.43-.44h0c.24,0,.43.19.43.43.11,9.28.31,26.97.35,27.47.02.24-.16.44-.4.46h-.03Z"/>
    <path class="cls-46" d="M613.61,312.91c-.2,0-.38-.14-.42-.34,0-.04-1.03-4.38-5.18-7.28-.8.37-3.77,2.01-5.05,6.01-.07.23-.32.35-.54.28-.23-.07-.35-.32-.28-.55,1.61-5.04,5.6-6.59,5.77-6.65.13-.05.28-.03.39.05,4.6,3.1,5.69,7.74,5.73,7.94.05.23-.09.47-.33.52-.03,0-.06.01-.1.01Z"/>
    <path class="cls-46" d="M616.65,335.55s-.03,0-.05,0l-15.58-1.82c-.24-.03-.41-.24-.38-.48.03-.24.24-.43.48-.38l15.58,1.82c.24.03.41.24.38.48-.03.22-.21.38-.43.38Z"/>
    <path class="cls-46" d="M602.72,353.46c-.24,0-.43-.19-.43-.43l-.04-15.66c0-.12.05-.24.14-.32.09-.08.21-.12.34-.11l12.06,1.34c.24.03.41.24.38.48-.03.24-.25.4-.48.38l-11.58-1.29.04,15.17c0,.24-.19.43-.43.43h0Z"/>
    <path class="cls-46" d="M614.96,361.7c-.24,0-.43-.19-.43-.43l-.17-21.99c0-.24.19-.43.43-.43h0c.24,0,.43.19.43.43l.17,21.99c0,.24-.19.43-.43.44h0Z"/>
    <path class="cls-46" d="M614.49,347.44c-.16,0-.32-.09-.4-.25-.02-.04-.05-.14-.1-.31-1.22-4.16-3.46-6.06-5.19-6.92-.59.21-3.15,1.4-5.29,6.68-.09.23-.34.33-.56.24-.22-.09-.33-.34-.24-.56,2.62-6.47,5.9-7.22,6.04-7.24.09-.02.19,0,.27.03,1.9.9,4.45,2.95,5.8,7.54.03.09.04.15.06.18.11.21.02.46-.2.57-.06.03-.12.04-.19.04Z"/>
    <path class="cls-46" d="M614.92,368.07h0c-.24,0-.43-.2-.43-.43l.04-6.11c0-.24.2-.43.43-.43h4.38c.24,0,.43.19.43.43s-.19.43-.43.43h-3.95l-.04,5.69c0,.24-.2.43-.43.43Z"/>
    <path class="cls-46" d="M565.79,314.82c-.24,0-.43-.19-.43-.43l-.17-16.65c0-.12.04-.23.13-.31.08-.08.19-.13.31-.13l29.03-.13h0c.24,0,.43.19.43.43,0,.24-.19.43-.43.43l-28.59.13.17,16.22c0,.24-.21.45-.43.44Z"/>
    <path class="cls-46" d="M596.13,354.15c-.23,0-.43-.18-.43-.42l-1.65-54.99c0-.24.18-.44.42-.45.22,0,.44.18.45.42l1.65,54.99c0,.24-.18.44-.42.45h-.01Z"/>
    <path class="cls-46" d="M568.18,314.39c-.24,0-.43-.19-.43-.43l-.09-14.14c0-.24.19-.43.43-.44l23.87-.17h0c.24,0,.43.19.43.43,0,0,.09,4.94.17,11.02,0,.24-.19.44-.43.44-.26-.01-.44-.19-.44-.43-.07-5.01-.14-9.26-.16-10.58l-23,.17.09,13.7c0,.24-.19.44-.43.44h0Z"/>
    <path class="cls-46" d="M570.31,314.04s-.02,0-.03,0c-.24-.02-.42-.23-.4-.47.05-.58.13-1.12.22-1.6,1.25-7.15,9.85-8.83,9.94-8.85.06-.01.12,0,.18,0,9.59,2.26,9.79,7.48,9.79,7.7,0,.24-.19.44-.43.44-.27.04-.44-.19-.44-.42,0-.07-.27-4.75-9.03-6.85-.87.19-8.07,1.94-9.16,8.13-.08.47-.17.98-.21,1.52-.02.23-.21.4-.43.4Z"/>
    <path class="cls-46" d="M590.66,310.92c-.24,0-.43-.19-.43-.43l-.17-8.93-20.18.34h0c-.24,0-.43-.19-.43-.42,0-.24.19-.44.43-.44l20.61-.35h0c.24,0,.43.19.43.42l.17,9.37c0,.24-.19.44-.43.44h0Z"/>
    <path class="cls-46" d="M590.27,289.62c-.24,0-.43-.19-.43-.43l-.04-8.33c0-.24.19-.44.43-.44h0c.24,0,.43.19.43.43l.04,8.33c0,.24-.19.44-.43.44h0Z"/>
    <path class="cls-46" d="M583.02,289.46l-.31-.81.14.41-.42-.08c.05-.44.05-6.96.03-11.24,0-.24.17-.4.43-.43.24,0,.43.19.43.43q.04,11.57-.31,11.72Z"/>
    <path class="cls-46" d="M571.35,289.32c-.24,0-.43-.19-.43-.43l-.17-11.4c0-.24.19-.44.43-.44h0c.24,0,.43.19.43.43l.17,11.4c0,.24-.19.44-.43.44h0Z"/>
    <path class="cls-46" d="M563.93,293.48c-.24,0-.43-.19-.43-.43l-.17-14.14c0-.24.19-.44.43-.44h0c.24,0,.43.19.43.43l.17,14.14c0,.24-.19.44-.43.44h0Z"/>
    <path class="cls-46" d="M570.48,289.41h-.01c-.24,0-.43-.21-.42-.45,0-.05.12-4.84-.9-6.62-.72-1.33-1.7-1.85-2.12-2.02-.46.46-1.7,1.84-1.93,3.72-.3,2.4-.17,4.76-.17,4.78.01.24-.17.44-.41.46-.24,0-.44-.17-.46-.41,0-.1-.13-2.45.18-4.94.32-2.65,2.32-4.37,2.41-4.44.11-.09.25-.12.39-.09.07.02,1.76.46,2.88,2.51,1.13,1.98,1.01,6.86,1.01,7.07,0,.23-.2.42-.43.42Z"/>
    <path class="cls-46" d="M573,289.41c-.22,0-.41-.17-.43-.4,0-.06-.13-1.6.31-4.86.42-3.43,4.15-4.89,4.31-4.94.1-.04.21-.04.31,0,3.18,1.21,3.89,3.88,4.04,4.98,0,.02.01.09.01.11v4.6c0,.24-.19.43-.43.43s-.43-.19-.43-.43v-4.6c-.13-.91-.72-3.14-3.34-4.21-.66.3-3.3,1.63-3.61,4.18-.42,3.16-.3,4.67-.3,4.68.02.24-.16.45-.4.47-.01,0-.02,0-.04,0Z"/>
    <path class="cls-46" d="M583.89,289.49c-.21,0-.4-.15-.43-.37-.02-.12-.44-2.92,0-5.85.51-3.16,2.4-3.95,2.48-3.98.09-.03.2-.04.29,0,.07.02,1.83.61,2.49,2.71.63,1.97.13,6.7.11,6.9-.03.24-.23.41-.48.39-.24-.03-.41-.24-.38-.48,0-.05.5-4.75-.07-6.54-.43-1.35-1.4-1.91-1.78-2.08-.39.23-1.45,1.05-1.81,3.24-.42,2.8,0,5.56,0,5.59.04.24-.13.46-.36.49-.02,0-.04,0-.07,0Z"/>
    <path class="cls-46" d="M560.54,259.61c-.05,0-.11,0-.16-.03-.22-.09-.33-.34-.24-.56.03-.08.76-1.88,2.14-1.88.02,0,.04,0,.06,0,1.35.05,2.31,1.61,2.35,1.68.12.2.06.47-.15.6-.21.12-.47.06-.6-.14-.21-.34-.91-1.24-1.64-1.27h-.03c-.78,0-1.33,1.32-1.33,1.33-.07.17-.23.27-.4.27Z"/>
    <path class="cls-46" d="M562.37,257.4c-.24,0-.43-.19-.43-.42l-.04-2.13c0-.24.19-.44.42-.44.25-.02.44.19.44.42l.04,2.13c0,.24-.19.44-.42.44h0Z"/>
    <path class="cls-46" d="M560.55,259.61c-.16,0-.31-.08-.38-.23-.11-.21-.03-.47.18-.58.03-.02.76-.4,1.98-.4s2.1.31,2.14.33c.23.08.35.33.27.55-.08.23-.32.35-.55.27,0,0-.82-.28-1.85-.28s-1.57.29-1.58.3c-.06.03-.13.05-.2.05Z"/>
    <path class="cls-46" d="M563.49,278.61c-.24,0-.43-.19-.43-.43l-.17-18.6c0-.24.19-.44.43-.44h0c.24,0,.43.19.43.43l.17,18.6c0,.24-.19.44-.43.44h0Z"/>
    <path class="cls-46" d="M561.5,276.61c-.24,0-.43-.19-.43-.42l-.35-16.61c0-.24.19-.44.42-.44.2.01.44.18.44.42l.35,16.61c0,.24-.19.44-.42.44h0Z"/>
    <path class="cls-46" d="M563.84,315.34c-.24,0-.43-.19-.43-.43l-.26-19.91c0-.24.19-.44.43-.44h0c.24,0,.43.19.43.43l.26,19.91c0,.24-.19.44-.43.44h0Z"/>
    <path class="cls-46" d="M538.16,273.32c-23.12,0-51.81-.56-52.22-.57-.24,0-.43-.2-.42-.44,0-.24.2-.42.43-.42h0c.57.01,57.04,1.12,75.3.22.27,0,.44.17.45.41.01.24-.17.44-.41.45-5.28.26-13.75.35-23.14.35Z"/>
    <path class="cls-46" d="M561.46,276.14h0l-75.72-.04c-.24,0-.43-.19-.43-.43s.19-.43.43-.43h0l75.72.04c.24,0,.43.19.43.43s-.19.43-.43.43Z"/>
    <path class="cls-46" d="M483.61,277.87c-.24,0-.43-.19-.43-.43,0-.24.19-.43.43-.43l79.89-.13h0c.24,0,.43.19.43.43,0,.24-.19.43-.43.43l-79.89.13h0Z"/>
    <path class="cls-46" d="M557.64,316.42c-.24,0-.43-.19-.43-.43l-.56-32.79-67.05.09h0c-.24,0-.43-.19-.43-.43,0-.24.19-.43.43-.43l67.48-.09h0c.24,0,.43.19.43.43l.56,33.22c0,.24-.19.44-.43.44h0Z"/>
    <path class="cls-46" d="M489.29,334.85h0c-.24,0-.43-.19-.43-.43l.22-50.65c0-.24.19-.43.43-.43h0c.24,0,.43.2.43.43l-.22,50.65c0,.24-.19.43-.43.43Z"/>
    <path class="cls-46" d="M551.91,317.64c-.24,0-.43-.19-.43-.43l-.38-28.63-56.16-.26c-.24,0-.43-.19-.43-.43,0-.24.19-.43.43-.43h0l56.58.26c.24,0,.43.19.43.43l.39,29.06c0,.24-.19.44-.43.44h0Z"/>
    <path class="cls-46" d="M494.67,333.29h0c-.24,0-.43-.19-.43-.43l.04-44.23c0-.24.19-.43.43-.43h0c.24,0,.43.19.43.43l-.04,44.23c0,.24-.19.43-.43.43Z"/>
    <path class="cls-46" d="M499.71,331.82c-.24,0-.43-.19-.43-.43v-12.75c0-.17.54-16.28,23.89-22.02.07-.02.14-.02.21,0,.2.05,20.27,5.25,23.49,21.89.05.24-.11.46-.34.51-.23.05-.46-.11-.51-.34-3.01-15.51-21.22-20.77-22.75-21.19-22.57,5.59-23.12,21-23.12,21.16v12.74c0,.24-.19.43-.43.43Z"/>
    <path class="cls-46" d="M499.53,319.94h0c-.24,0-.43-.2-.43-.44l.52-27.5c0-.11.05-.22.13-.3.08-.08.21-.12.31-.12l47.08.91c.24,0,.43.2.43.43l-.04,25.67c0,.24-.19.43-.43.43h0c-.24,0-.43-.19-.43-.43l.04-25.25-46.22-.89-.51,27.06c0,.24-.2.42-.43.42Z"/>
    <path class="cls-46" d="M561.54,270.28c-.05,0-.1,0-.15-.03-40.89-15.29-74.76-1.11-75.09-.96-.22.09-.48,0-.57-.23-.1-.22,0-.48.23-.57.34-.15,34.53-14.46,75.74.95.23.08.34.33.25.56-.07.17-.23.28-.41.28Z"/>
    <path class="cls-46" d="M561.5,273.1c-.05,0-.1,0-.15-.03-40.88-15.28-74.76-1.15-75.09-1.01-.22.09-.48,0-.57-.23-.09-.22,0-.48.23-.57.34-.15,34.53-14.42,75.74.99.22.08.34.33.25.56-.07.17-.23.28-.41.28Z"/>
    <path class="cls-46" d="M483.04,265.34c-.17,0-.33-.1-.4-.26-.14-.33-11.71-33.68,21.94-51.38.21-.11.47-.03.59.18.11.21.03.48-.18.59-32.99,17.35-21.68,49.95-21.54,50.27.09.22,0,.48-.23.57-.06.02-.11.03-.17.03Z"/>
    <path class="cls-46" d="M504.44,214.25c-.18,0-.35-.11-.41-.29-.08-.22.04-.47.26-.55.09-.03,9.55-3.46,17.66-12.25.16-.18.44-.19.61-.02.18.16.19.44.02.61-8.27,8.95-17.91,12.44-18.01,12.48-.05.02-.1.02-.14.02Z"/>
    <path class="cls-46" d="M541.41,214.64c-.06,0-.13-.01-.19-.04-.54-.27-13.37-6.66-19-12.85-.16-.18-.15-.45.03-.61.18-.16.45-.15.61.03,5.52,6.07,18.62,12.59,18.75,12.65.21.11.3.37.2.58-.08.15-.23.24-.39.24Z"/>
    <path class="cls-46" d="M504.39,214.73c-.16,0-.31-.09-.39-.24-.11-.21-.02-.47.2-.58.19-.1,19.69-9.59,34.99-.85.21.12.28.38.16.59-.12.21-.38.28-.59.16-14.9-8.5-33.99.78-34.18.88-.06.03-.13.04-.19.04Z"/>
    <path class="cls-46" d="M563.97,262.56s-.06,0-.1-.01c-.23-.05-.38-.29-.33-.52,7.26-31.78-24.19-47.84-24.5-48-.21-.11-.3-.37-.2-.58.11-.21.37-.3.58-.2.32.16,32.37,16.53,24.96,48.97-.05.2-.22.34-.42.34Z"/>
    <path class="cls-46" d="M559.98,258.96s-.1,0-.14-.02c-35.37-12.47-72.77-.3-73.14-.17-.23.08-.47-.05-.55-.27-.08-.23.05-.47.27-.55.38-.13,38.05-12.39,73.7.18.23.08.34.33.26.55-.06.18-.23.29-.41.29Z"/>
    <path class="cls-46" d="M560.59,262.04s-.09,0-.14-.02c-37.73-12.6-73.86-.26-74.23-.13-.22.08-.47-.04-.55-.27-.08-.23.04-.47.27-.55.36-.13,36.77-12.57,74.79.13.23.08.35.32.27.55-.06.18-.23.3-.41.3Z"/>
    <path class="cls-46" d="M522.14,191.22c-1.01,0-1.82-.6-1.82-1.34,0-.78.8-1.39,1.82-1.39s1.82.61,1.82,1.39-.82,1.34-1.82,1.34ZM522.14,189.36c-.55,0-.95.28-.95.52,0,.17.36.48.95.48s.96-.31.96-.48c0-.25-.41-.52-.96-.52Z"/>
    <path class="cls-46" d="M522.31,196c-1.34,0-2.39-.78-2.39-1.78s1.07-1.73,2.39-1.73,2.39.78,2.39,1.73-1.05,1.78-2.39,1.78ZM522.31,193.35c-.87,0-1.52.46-1.52.87,0,.43.62.91,1.52.91s1.52-.48,1.52-.91c0-.41-.65-.87-1.52-.87Z"/>
    <path class="cls-46" d="M522.49,201.2c-1.55,0-2.82-.91-2.82-2.04s1.27-2.04,2.82-2.04,2.78.91,2.78,2.04-1.25,2.04-2.78,2.04ZM522.49,197.99c-1.12,0-1.95.62-1.95,1.17s.84,1.17,1.95,1.17,1.91-.62,1.91-1.17-.78-1.17-1.91-1.17Z"/>
    <path class="cls-46" d="M522.23,188.8h0c-.24,0-.43-.2-.43-.44l.09-4.69c0-.24.2-.43.43-.43h0c.24,0,.43.2.43.44l-.09,4.69c0,.24-.2.43-.43.43Z"/>
    <path class="cls-46" d="M463.18,398.92c-1.9,0-2-.36-2.07-.62-.2-.71-.49-1.78,20.03-8.4,7.81-2.52,36.62-10.1,62.03-16.8,17.87-4.71,34.75-9.15,42.86-11.44,20.27-5.71,24.13-7.68,24.74-8.32-1.98-.88-19.87.44-112.92,17.67l-4.4.81c-40.05,7.37-45.91,5.77-46.54,3.54-1.58-5.61,39.64-22.02,93.7-42.89,24.3-9.38,49.4-19.07,51.49-21.37-.24-.04-.76-.06-1.83.05-8.26.86-17.79,2.38-28.34,4.5-45.62,9.2-104.26,29-155.99,46.48-16.33,5.52-31.75,10.73-46.47,15.52-.23.08-.47-.05-.55-.28-.07-.23.05-.47.28-.55,14.72-4.79,30.14-10,46.47-15.52,51.76-17.48,110.42-37.3,156.1-46.51,10.57-2.13,20.13-3.65,28.42-4.52,1.96-.2,2.74-.05,2.89.55.44,1.85-10.71,6.45-52.15,22.45-37.7,14.55-94.67,36.55-93.17,41.84.42,1.5,6.91,2.95,45.55-4.16l4.39-.81c113.09-20.94,113.74-18.19,114.01-17.02.18.77.48,2.05-25.43,9.36-8.11,2.29-25,6.74-42.88,11.44-25.41,6.69-54.2,14.28-61.99,16.78-15.38,4.97-18.7,6.72-19.34,7.32,2.81.82,31.34-2.62,222.05-46.66,3.48-.8,5.59-1.29,6.05-1.39.23-.04.47.1.52.33.05.23-.1.47-.33.52-.46.1-2.57.59-6.04,1.39-177.3,40.95-213.54,46.69-221.12,46.69Z"/>
  </g>
  <g>
    <path class="cls-7" d="M82.25,183.93c17.01,18.99,46.61,70.92,20.55,188.14-1.3,5.86-6.79,10.06-13.16,10.06h-35.39c-6.37,0-11.86-4.2-13.16-10.06-26.06-117.23,3.54-169.15,20.55-188.14,5.39-6.02,15.23-6.02,20.61,0Z"/>
    <g class="cls-49">
      <path class="cls-33" d="M86.29,173.48c9.96,21.02,7.19,46.89-7.03,65.62-6.06,7.98-13.91,14.6-20.54,22.16-11.77,13.43-19.5,29.64-24.7,46.33-5.2,16.69-7.98,33.95-10.75,51.14l3.77-60.51c3.74-16.35,9.35-29.5,19.76-43.06,7.51-9.78,21.89-20.2,28.1-30.75,9.66-16.41,9.76-37.25,3.25-54.98l8.14,4.04Z"/>
      <path class="cls-33" d="M104.42,218.91c.97,25.83-12.71,50.15-28.55,71.29-15.84,21.14-34.4,40.85-45.62,64.45v12.18c35.96-33.01,66.16-69.49,81.39-116.51l-7.22-31.41Z"/>
      <path class="cls-33" d="M113.87,299.57c-15.95,30.64-37.17,58.86-62.58,83.23l18.03.5s38.57-34.54,42.5-57.35l2.04-26.38Z"/>
      <g>
        <path class="cls-41" d="M65.49,174.7c10.84,27.01,28.88,51.45,52.03,70.45"/>
        <path class="cls-41" d="M59.28,176.98c6.21,36.46,28.95,70.17,61.39,91.02"/>
        <path class="cls-41" d="M53.96,184.33c.46,25.73,8.52,51.3,23.05,73.11,9.71,14.57,23.02,27.95,40.37,33.43"/>
        <path class="cls-41" d="M47.06,197.54c1.7,26.27,4.71,52.95,15.73,77.15,11.01,24.2,31.19,45.9,57.91,53.85"/>
        <path class="cls-41" d="M41.6,214.36c-.38,19.74-.75,39.57,2.11,59.13,2.86,19.56,9.11,38.99,20.98,55.29,11.87,16.3,29.77,29.24,50.38,33.14"/>
        <path class="cls-41" d="M31.19,250.13c1.55,19.74,4.51,39.39,8.85,58.76,3.42,15.23,7.76,30.45,15.5,44.22,7.74,13.77,19.17,26.1,34.01,33.03"/>
        <path class="cls-41" d="M28.55,304.43c4.73,29.95,16.12,58.95,33.23,84.62"/>
        <path class="cls-41" d="M72.36,176.62c6.19,15.98,19.98,29.22,36.87,35.38"/>
        <path class="cls-41" d="M70.53,176.11c-7.8,22.34-21.98,42.69-40.65,58.34"/>
        <path class="cls-41" d="M73.79,176.16c-.99,31.9-18.35,63.01-45.73,81.93"/>
        <path class="cls-41" d="M76.83,178.5c3.87,20.92.78,42.92-8.72,62.18-9.5,19.26-25.37,35.7-44.86,46.47"/>
        <path class="cls-41" d="M79.96,178.53c3.83,17.76,6.22,35.96,4.61,54.02-1.62,18.06-7.42,36.07-18.79,50.72-11.36,14.65-28.62,25.67-47.75,28.08"/>
        <path class="cls-41" d="M85.98,182.34c6.14,20.21,9.32,41.38,7.39,62.32-1.93,20.94-9.14,41.67-22.36,58.62-13.23,16.96-32.68,29.92-54.57,34.32"/>
        <path class="cls-41" d="M99.07,203.74c2.83,20.49,5.05,41.19,3.43,61.8-1.62,20.61-7.24,41.27-19.07,58.69-11.83,17.43-30.3,31.38-51.78,35.85"/>
        <path class="cls-41" d="M109.54,232.48c1.55,17.46,3.09,35,1.91,52.49s-5.19,35.06-14.17,50.42c-13.86,23.74-38.9,40.66-66.24,49.28"/>
        <path class="cls-41" d="M116.19,301.6c-1.3,32.96-16.42,65.28-41.41,88.46"/>
      </g>
    </g>
  </g>
  <g>
    <path class="cls-34" d="M557.05,222.72l65.46-13.4c1.21-.25,1.99-1.43,1.74-2.63h0c-.06-.3-.35-.49-.65-.43l-68.75,14.07c-.3.06-.49.35-.43.65h0c.25,1.21,1.43,1.99,2.63,1.74Z"/>
    <g>
      <rect class="cls-34" x="603.17" y="174.95" width="2.77" height="5.24" transform="translate(1232.44 230.3) rotate(168.43)"/>
      <rect class="cls-34" x="603.17" y="174.95" width="2.77" height="5.24" transform="translate(1232.44 230.3) rotate(168.43)"/>
      <rect class="cls-34" x="597.74" y="176.06" width="2.77" height="5.24" transform="translate(1221.91 233.57) rotate(168.43)"/>
      <rect class="cls-34" x="592.3" y="177.18" width="2.77" height="5.24" transform="translate(1211.37 236.88) rotate(168.43)"/>
      <rect class="cls-34" x="586.87" y="178.29" width="2.77" height="5.24" transform="translate(1200.84 240.15) rotate(168.43)"/>
      <rect class="cls-34" x="581.44" y="179.4" width="2.77" height="5.24" transform="translate(1190.31 243.44) rotate(168.43)"/>
      <rect class="cls-34" x="576" y="180.51" width="2.77" height="5.24" transform="translate(1179.78 246.74) rotate(168.43)"/>
      <rect class="cls-34" x="570.57" y="181.63" width="2.77" height="5.24" transform="translate(1169.24 250.03) rotate(168.43)"/>
      <rect class="cls-34" x="565.14" y="182.74" width="2.77" height="5.24" transform="translate(1158.7 253.36) rotate(168.43)"/>
      <rect class="cls-34" x="559.7" y="183.85" width="2.77" height="5.24" transform="translate(1148.18 256.61) rotate(168.43)"/>
    </g>
    <rect class="cls-34" x="557.65" y="183.56" width="51.72" height="3.62" transform="translate(1192.34 249.95) rotate(168.43)"/>
    <rect class="cls-34" x="558.92" y="215.8" width="65.47" height="18.72" transform="translate(1216.44 327.09) rotate(168.43)"/>
    <g>
      <path class="cls-34" d="M614.91,229.95l7.95-1.63-2.43-11.87c-.45-2.2-2.59-3.61-4.79-3.16h0c-2.2.45-3.61,2.59-3.16,4.79l2.43,11.87Z"/>
      <path class="cls-34" d="M602.23,232.54l7.95-1.63-2.43-11.87c-.45-2.2-2.59-3.61-4.79-3.16h0c-2.2.45-3.61,2.59-3.16,4.79l2.43,11.87Z"/>
      <path class="cls-34" d="M589.55,235.14l7.95-1.63-2.43-11.87c-.45-2.2-2.59-3.61-4.79-3.16h0c-2.2.45-3.61,2.59-3.16,4.79l2.43,11.87Z"/>
      <path class="cls-34" d="M576.88,237.73l7.95-1.63-2.43-11.87c-.45-2.2-2.59-3.61-4.79-3.16h0c-2.2.45-3.61,2.59-3.16,4.79l2.43,11.87Z"/>
      <path class="cls-34" d="M564.2,240.33l7.95-1.63-2.43-11.87c-.45-2.2-2.59-3.61-4.79-3.16h0c-2.2.45-3.61,2.59-3.16,4.79l2.43,11.87Z"/>
    </g>
    <path class="cls-8" d="M557.05,222.72l65.46-13.4c1.21-.25,1.99-1.43,1.74-2.63h0c-.06-.3-.35-.49-.65-.43l-68.75,14.07c-.3.06-.49.35-.43.65h0c.25,1.21,1.43,1.99,2.63,1.74Z"/>
    <rect class="cls-34" x="558.92" y="215.8" width="65.47" height="18.72" transform="translate(1216.44 327.09) rotate(168.43)"/>
    <g>
      <path class="cls-21" d="M614.91,229.95l7.95-1.63-2.43-11.87c-.45-2.2-2.59-3.61-4.79-3.16h0c-2.2.45-3.61,2.59-3.16,4.79l2.43,11.87Z"/>
      <path class="cls-21" d="M602.23,232.54l7.95-1.63-2.43-11.87c-.45-2.2-2.59-3.61-4.79-3.16h0c-2.2.45-3.61,2.59-3.16,4.79l2.43,11.87Z"/>
      <path class="cls-21" d="M589.55,235.14l7.95-1.63-2.43-11.87c-.45-2.2-2.59-3.61-4.79-3.16h0c-2.2.45-3.61,2.59-3.16,4.79l2.43,11.87Z"/>
      <path class="cls-21" d="M576.88,237.73l7.95-1.63-2.43-11.87c-.45-2.2-2.59-3.61-4.79-3.16h0c-2.2.45-3.61,2.59-3.16,4.79l2.43,11.87Z"/>
      <path class="cls-21" d="M564.2,240.33l7.95-1.63-2.43-11.87c-.45-2.2-2.59-3.61-4.79-3.16h0c-2.2.45-3.61,2.59-3.16,4.79l2.43,11.87Z"/>
    </g>
    <path class="cls-8" d="M556.82,185.33h54.13c1.29,0,2.34,1.05,2.34,2.34v.8c0,.32-.26.58-.58.58h-57.65c-.32,0-.58-.26-.58-.58v-.8c0-1.29,1.05-2.34,2.34-2.34Z" transform="translate(1193.44 253.48) rotate(168.43)"/>
    <rect class="cls-34" x="559.74" y="188.71" width="54.02" height="25.01" transform="translate(1201.94 280.67) rotate(168.43)"/>
    <g>
      <path class="cls-21" d="M606.9,209.84l6.56-1.34-3.66-17.88c-.37-1.81-2.14-2.98-3.95-2.61h0c-1.81.37-2.98,2.14-2.61,3.95l3.66,17.88Z"/>
      <path class="cls-21" d="M596.44,211.99l6.56-1.34-3.66-17.88c-.37-1.81-2.14-2.98-3.95-2.61h0c-1.81.37-2.98,2.14-2.61,3.95l3.66,17.88Z"/>
      <path class="cls-21" d="M585.98,214.13l6.56-1.34-3.66-17.88c-.37-1.81-2.14-2.98-3.95-2.61h0c-1.81.37-2.98,2.14-2.61,3.95l3.66,17.88Z"/>
      <path class="cls-21" d="M575.52,216.27l6.56-1.34-3.66-17.88c-.37-1.81-2.14-2.98-3.95-2.61h0c-1.81.37-2.98,2.14-2.61,3.95l3.66,17.88Z"/>
      <path class="cls-21" d="M565.06,218.41l6.56-1.34-3.66-17.88c-.37-1.81-2.14-2.98-3.95-2.61h0c-1.81.37-2.98,2.14-2.61,3.95l3.66,17.88Z"/>
    </g>
    <path class="cls-8" d="M561.35,243.73l65.46-13.4c1.21-.25,1.99-1.43,1.74-2.63h0c-.06-.3-.35-.49-.65-.43l-68.75,14.07c-.3.06-.49.35-.43.65h0c.25,1.21,1.43,1.99,2.63,1.74Z"/>
    <rect class="cls-34" x="563.22" y="236.8" width="65.47" height="18.72" transform="translate(1229.17 367.81) rotate(168.43)"/>
    <g>
      <path class="cls-21" d="M619.21,250.95l7.95-1.63-2.43-11.87c-.45-2.2-2.59-3.61-4.79-3.16h0c-2.2.45-3.61,2.59-3.16,4.79l2.43,11.87Z"/>
      <path class="cls-21" d="M606.53,253.55l7.95-1.63-2.43-11.87c-.45-2.2-2.59-3.61-4.79-3.16h0c-2.2.45-3.61,2.59-3.16,4.79l2.43,11.87Z"/>
      <path class="cls-21" d="M593.85,256.14l7.95-1.63-2.43-11.87c-.45-2.2-2.59-3.61-4.79-3.16h0c-2.2.45-3.61,2.59-3.16,4.79l2.43,11.87Z"/>
      <path class="cls-21" d="M581.18,258.74l7.95-1.63-2.43-11.87c-.45-2.2-2.59-3.61-4.79-3.16h0c-2.2.45-3.61,2.59-3.16,4.79l2.43,11.87Z"/>
      <path class="cls-21" d="M568.5,261.33l7.95-1.63-2.43-11.87c-.45-2.2-2.59-3.61-4.79-3.16h0c-2.2.45-3.61,2.59-3.16,4.79l2.43,11.87Z"/>
    </g>
    <path class="cls-8" d="M565.65,264.73l65.46-13.4c1.21-.25,1.99-1.43,1.74-2.63h0c-.06-.3-.35-.49-.65-.43l-68.75,14.07c-.3.06-.49.35-.43.65h0c.25,1.21,1.43,1.99,2.63,1.74Z"/>
    <rect class="cls-34" x="567.52" y="257.81" width="65.47" height="18.72" transform="translate(1241.89 408.52) rotate(168.43)"/>
    <g>
      <path class="cls-21" d="M623.51,271.96l7.95-1.63-2.43-11.87c-.45-2.2-2.59-3.61-4.79-3.16h0c-2.2.45-3.61,2.59-3.16,4.79l2.43,11.87Z"/>
      <path class="cls-21" d="M610.83,274.55l7.95-1.63-2.43-11.87c-.45-2.2-2.59-3.61-4.79-3.16h0c-2.2.45-3.61,2.59-3.16,4.79l2.43,11.87Z"/>
      <path class="cls-21" d="M598.15,277.15l7.95-1.63-2.43-11.87c-.45-2.2-2.59-3.61-4.79-3.16h0c-2.2.45-3.61,2.59-3.16,4.79l2.43,11.87Z"/>
      <path class="cls-21" d="M585.48,279.74l7.95-1.63-2.43-11.87c-.45-2.2-2.59-3.61-4.79-3.16h0c-2.2.45-3.61,2.59-3.16,4.79l2.43,11.87Z"/>
      <path class="cls-21" d="M572.8,282.34l7.95-1.63-2.43-11.87c-.45-2.2-2.59-3.61-4.79-3.16h0c-2.2.45-3.61,2.59-3.16,4.79l2.43,11.87Z"/>
    </g>
    <path class="cls-8" d="M569.95,285.73l65.46-13.4c1.21-.25,1.99-1.43,1.74-2.63h0c-.06-.3-.35-.49-.65-.43l-68.75,14.07c-.3.06-.49.35-.43.65h0c.25,1.21,1.43,1.99,2.63,1.74Z"/>
    <rect class="cls-34" x="571.82" y="278.81" width="65.47" height="18.72" transform="translate(1254.62 449.24) rotate(168.43)"/>
    <g>
      <path class="cls-21" d="M627.81,292.96l7.95-1.63-2.43-11.87c-.45-2.2-2.59-3.61-4.79-3.16h0c-2.2.45-3.61,2.59-3.16,4.79l2.43,11.87Z"/>
      <path class="cls-21" d="M615.13,295.55l7.95-1.63-2.43-11.87c-.45-2.2-2.59-3.61-4.79-3.16h0c-2.2.45-3.61,2.59-3.16,4.79l2.43,11.87Z"/>
      <path class="cls-21" d="M602.45,298.15l7.95-1.63-2.43-11.87c-.45-2.2-2.59-3.61-4.79-3.16h0c-2.2.45-3.61,2.59-3.16,4.79l2.43,11.87Z"/>
      <path class="cls-21" d="M589.78,300.75l7.95-1.63-2.43-11.87c-.45-2.2-2.59-3.61-4.79-3.16h0c-2.2.45-3.61,2.59-3.16,4.79l2.43,11.87Z"/>
      <path class="cls-21" d="M577.1,303.34l7.95-1.63-2.43-11.87c-.45-2.2-2.59-3.61-4.79-3.16h0c-2.2.45-3.61,2.59-3.16,4.79l2.43,11.87Z"/>
    </g>
    <path class="cls-20" d="M574.25,306.74l65.46-13.4c1.21-.25,1.99-1.43,1.74-2.63h0c-.06-.3-.35-.49-.65-.43l-68.75,14.07c-.3.06-.49.35-.43.65h0c.25,1.21,1.43,1.99,2.63,1.74Z"/>
    <rect class="cls-34" x="576.12" y="299.81" width="65.47" height="18.72" transform="translate(1267.34 489.96) rotate(168.43)"/>
    <g>
      <path class="cls-21" d="M632.11,313.96l7.95-1.63-2.43-11.87c-.45-2.2-2.59-3.61-4.79-3.16h0c-2.2.45-3.61,2.59-3.16,4.79l2.43,11.87Z"/>
      <path class="cls-21" d="M619.43,316.56l7.95-1.63-2.43-11.87c-.45-2.2-2.59-3.61-4.79-3.16h0c-2.2.45-3.61,2.59-3.16,4.79l2.43,11.87Z"/>
      <path class="cls-21" d="M606.75,319.15l7.95-1.63-2.43-11.87c-.45-2.2-2.59-3.61-4.79-3.16h0c-2.2.45-3.61,2.59-3.16,4.79l2.43,11.87Z"/>
      <path class="cls-21" d="M594.08,321.75l7.95-1.63-2.43-11.87c-.45-2.2-2.59-3.61-4.79-3.16h0c-2.2.45-3.61,2.59-3.16,4.79l2.43,11.87Z"/>
      <path class="cls-21" d="M581.4,324.34l7.95-1.63-2.43-11.87c-.45-2.2-2.59-3.61-4.79-3.16h0c-2.2.45-3.61,2.59-3.16,4.79l2.43,11.87Z"/>
    </g>
    <path class="cls-8" d="M578.55,327.74l65.46-13.4c1.21-.25,1.99-1.43,1.74-2.63h0c-.06-.3-.35-.49-.65-.43l-68.75,14.07c-.3.06-.49.35-.43.65h0c.25,1.21,1.43,1.99,2.63,1.74Z"/>
    <rect class="cls-34" x="580.42" y="320.82" width="65.47" height="18.72" transform="translate(1280.07 530.68) rotate(168.43)"/>
    <g>
      <path class="cls-21" d="M636.41,334.97l7.95-1.63-2.43-11.87c-.45-2.2-2.59-3.61-4.79-3.16h0c-2.2.45-3.61,2.59-3.16,4.79l2.43,11.87Z"/>
      <path class="cls-21" d="M623.73,337.56l7.95-1.63-2.43-11.87c-.45-2.2-2.59-3.61-4.79-3.16h0c-2.2.45-3.61,2.59-3.16,4.79l2.43,11.87Z"/>
      <path class="cls-21" d="M611.05,340.16l7.95-1.63-2.43-11.87c-.45-2.2-2.59-3.61-4.79-3.16h0c-2.2.45-3.61,2.59-3.16,4.79l2.43,11.87Z"/>
      <path class="cls-21" d="M598.38,342.75l7.95-1.63-2.43-11.87c-.45-2.2-2.59-3.61-4.79-3.16h0c-2.2.45-3.61,2.59-3.16,4.79l2.43,11.87Z"/>
      <path class="cls-21" d="M585.7,345.35l7.95-1.63-2.43-11.87c-.45-2.2-2.59-3.61-4.79-3.16h0c-2.2.45-3.61,2.59-3.16,4.79l2.43,11.87Z"/>
    </g>
    <path class="cls-8" d="M582.85,348.75l65.46-13.4c1.21-.25,1.99-1.43,1.74-2.63h0c-.06-.3-.35-.49-.65-.43l-68.75,14.07c-.3.06-.49.35-.43.65h0c.25,1.21,1.43,1.99,2.63,1.74Z"/>
    <polygon class="cls-34" points="587.52 368.18 654.37 368.3 647.64 335.45 583.51 348.58 587.52 368.18"/>
    <g>
      <path class="cls-21" d="M643.24,368.27l8.36.02-5.38-25.81c-.45-2.2-2.59-3.61-4.79-3.16h0c-2.2.45-3.61,2.59-3.16,4.79l4.97,24.17Z"/>
      <path class="cls-21" d="M630.02,368.27h8.31s-4.77-23.2-4.77-23.2c-.45-2.2-2.59-3.61-4.79-3.16h0c-2.2.45-3.61,2.59-3.16,4.79l4.42,21.57Z"/>
      <path class="cls-21" d="M616.73,368.25h8.36s-4.22-20.59-4.22-20.59c-.45-2.2-2.59-3.61-4.79-3.16h0c-2.2.45-3.61,2.59-3.16,4.79l3.81,18.96Z"/>
      <path class="cls-21" d="M603.6,368.27l8.29-.05-3.7-17.97c-.45-2.2-2.59-3.61-4.79-3.16h0c-2.2.45-3.61,2.59-3.16,4.79l3.36,16.39Z"/>
      <path class="cls-21" d="M590.35,368.19h8.36s-3.19-15.34-3.19-15.34c-.45-2.2-2.59-3.61-4.79-3.16h0c-2.2.45-3.61,2.59-3.16,4.79l2.78,13.71Z"/>
    </g>
    <line class="cls-38" x1="586.68" y1="357.38" x2="648.19" y2="344.79"/>
    <line class="cls-38" x1="588.1" y1="364.32" x2="649.61" y2="351.72"/>
  </g>
  <g>
    <rect class="cls-26" x="155.31" y="275.8" width="18.13" height="29.77" transform="translate(-127.57 452.83) rotate(-89.56)"/>
    <polygon class="cls-5" points="149.42 299.58 126.31 299.4 126.4 287.68 149.56 281.58 149.42 299.58"/>
    <rect class="cls-18" x="148.27" y="294.55" width="40.32" height="9.56" transform="translate(2.3 -1.28) rotate(.44)"/>
    <rect class="cls-18" x="146.28" y="303.98" width="50.1" height="9.97" transform="translate(2.38 -1.31) rotate(.44)"/>
    <rect class="cls-18" x="143.31" y="313.97" width="62.14" height="10.63" transform="translate(2.46 -1.33) rotate(.44)"/>
    <rect class="cls-18" x="140.93" y="324.57" width="74.59" height="11.62" transform="translate(2.54 -1.36) rotate(.44)"/>
    <rect class="cls-18" x="137.99" y="336.28" width="88.53" height="13.9" transform="translate(2.64 -1.39) rotate(.44)"/>
    <rect class="cls-18" x="134.67" y="350.16" width="103.55" height="15.91" transform="translate(2.75 -1.42) rotate(.44)"/>
    <rect class="cls-18" x="130.28" y="366.01" width="120.62" height="17.83" transform="translate(2.88 -1.45) rotate(.44)"/>
    <rect class="cls-10" x="163.47" y="289.8" width="3.87" height="4.87" transform="translate(2.25 -1.26) rotate(.44)"/>
    <polygon class="cls-31" points="138.8 296.39 134.88 297.49 134.92 292.62 138.84 291.52 138.8 296.39"/>
    <polygon class="cls-12" points="148.3 294.39 119.96 299.71 119.9 308.48 148.23 303.95 148.3 294.39"/>
    <polygon class="cls-12" points="146.32 303.79 112.76 309.67 112.69 319.4 146.24 313.76 146.32 303.79"/>
    <polygon class="cls-12" points="143.35 313.74 104.78 319.69 104.7 329.88 143.27 324.37 143.35 313.74"/>
    <polygon class="cls-12" points="140.97 324.29 95.13 330.97 95.05 341.92 140.88 335.91 140.97 324.29"/>
    <polygon class="cls-12" points="138.04 335.94 83.92 342.87 83.99 356.95 137.94 349.84 138.04 335.94"/>
    <polygon class="cls-12" points="130.35 365.55 60.93 372.94 60.85 382.96 130.22 383.37 130.35 365.55"/>
    <polygon class="cls-12" points="134.73 349.77 72.86 357.73 72.74 373.03 134.61 365.68 134.73 349.77"/>
    <rect class="cls-24" x="148.61" y="285.63" width="32.24" height="2.69" transform="translate(2.21 -1.26) rotate(.44)"/>
    <rect class="cls-24" x="148.65" y="279.72" width="32.24" height="2.69" transform="translate(2.16 -1.26) rotate(.44)"/>
    <polygon class="cls-15" points="148.64 282.29 125.64 287.91 125.64 285.15 148.66 279.59 148.64 282.29"/>
    <polygon class="cls-15" points="148.6 288.15 125.59 293.78 125.59 291.02 148.62 285.46 148.6 288.15"/>
    <polygon class="cls-25" points="132.18 297.31 75.27 383.07 97.63 383.24 139.6 295.98 132.18 297.31"/>
    <polygon class="cls-5" points="161.57 294.46 171.18 294.54 219.22 384 184.04 383.73 161.57 294.46"/>
    <polygon class="cls-13" points="164.32 294.49 190.89 383.81 213.94 383.99 169.62 294.57 164.32 294.49"/>
    <polygon class="cls-14" points="138.06 296.26 133.15 297.11 78.75 383.15 91.95 383.25 138.06 296.26"/>
  </g>
  <g>
    <path class="cls-32" d="M669.14,375.08c3.95-15.42,8.82-30.12,14.81-44.88-12.78-1.31-26.01,1.93-35.53,10.56-9.51,8.63-15.13,21.4-15.06,34.25l35.78.06Z"/>
    <g>
      <g>
        <path class="cls-1" d="M545.42,302.69s59.39,30.41,61.69,72.65h-23.81s-48.61-.23-48.61-.23c-3.71-24.51.3-49.45,10.73-72.42Z"/>
        <path class="cls-28" d="M583.3,375.34c-4.58-31.51-15.38-50.58-37.88-72.65-10.43,22.97-14.44,47.92-10.73,72.42l48.61.23Z"/>
        <path class="cls-29" d="M578.72,375.34c-2.51-23.47-13.53-44.5-33.32-63.91-9.18,20.21-12.7,42.15-9.44,63.71l42.76.2Z"/>
        <path class="cls-1" d="M515.04,317.76s52.88-1.65,61.57,57.58h-73.88c-.68-38.56,12.31-57.58,12.31-57.58Z"/>
        <path class="cls-28" d="M515.04,317.76c35.04,24.36,33.12,57.38,33.12,57.38l28.45.2h-73.88c-.68-38.56,12.31-57.58,12.31-57.58Z"/>
        <path class="cls-29" d="M544.47,375.34h-39.91c-.6-33.92,9.89-50.58,9.89-50.58,30.06,21.08,30.06,50.4,30.06,50.4"/>
        <path class="cls-1" d="M497.66,336.76s35.44-1.1,41.26,38.58h-49.51c-.46-25.84,8.25-38.58,8.25-38.58Z"/>
        <path class="cls-28" d="M497.66,336.76c23.48,16.32,22.19,38.45,22.19,38.45l19.07.14h-49.51c-.46-25.84,8.25-38.58,8.25-38.58Z"/>
        <path class="cls-29" d="M517.39,375.35h-26.75c-.4-22.73,7.73-33.1,7.73-33.1,20.15,14.13,19.04,32.98,19.04,32.98"/>
      </g>
      <g>
        <path class="cls-1" d="M607.9,302.69s51.81,30.41,53.82,72.65h-20.77s-42.41-.23-42.41-.23c-3.24-24.51.26-49.45,9.36-72.42Z"/>
        <path class="cls-28" d="M640.95,375.34c-4-31.51-13.42-50.58-33.05-72.65-9.1,22.97-12.6,47.92-9.36,72.42l42.41.23Z"/>
        <path class="cls-29" d="M636.95,375.34c-2.19-23.47-11.8-44.5-29.07-63.91-8.01,20.21-11.08,42.15-8.24,63.71l37.31.2Z"/>
        <path class="cls-1" d="M581.4,317.76s46.14-1.65,53.72,57.58h-64.45c-.6-38.56,10.74-57.58,10.74-57.58Z"/>
        <path class="cls-28" d="M581.4,317.76c30.57,24.36,28.89,57.38,28.89,57.38l24.82.2h-64.45c-.6-38.56,10.74-57.58,10.74-57.58Z"/>
        <path class="cls-29" d="M607.08,375.34h-34.82c-.52-33.92,8.63-50.58,8.63-50.58,26.23,21.08,26.23,50.4,26.23,50.4"/>
        <path class="cls-1" d="M553.85,334.34s41.96,8.09,50.91,40.78l-69.95.22s.43-31.28,19.04-41Z"/>
        <path class="cls-28" d="M553.85,334.34s24.04,9.31,26.25,40.86h-.03s-45.25.14-45.25.14c0,0,.43-31.28,19.04-41Z"/>
        <path class="cls-29" d="M553.68,338.37s21.69,8.4,23.68,36.85h-.03l-40.82.13s.38-28.22,17.17-36.98Z"/>
      </g>
    </g>
    <polygon class="cls-4" points="623.75 375.08 671.88 375.08 691.94 388.3 596.26 388.3 596.26 364.07 617.31 364.07 623.75 375.08"/>
    <polygon class="cls-17" points="596.26 364.07 478.07 364.07 478.07 368.97 471.52 375.51 466.08 375.51 466.08 388.3 596.26 388.3 599.44 364.07 596.26 364.07"/>
    <rect class="cls-4" x="482.19" y="369.21" width="111.74" height="2.5" transform="translate(1076.11 740.93) rotate(180)"/>
    <rect class="cls-4" x="477.39" y="374.01" width="111.74" height="2.5" transform="translate(1066.52 750.53) rotate(180)"/>
    <rect class="cls-4" x="472.35" y="379.05" width="111.74" height="2.5" transform="translate(1056.43 760.61) rotate(180)"/>
    <rect class="cls-19" x="605.92" y="380.31" width="65.03" height="2.99" transform="translate(1276.87 763.6) rotate(180)"/>
  </g>
  <g>
    <path class="cls-22" d="M748.74,321.96h0s-.1,0-.1,0c-15.01.34-30.22-1-45.56-3.56l7.93,11.8h75.35l7.93-11.8c-15.34,2.57-30.54,3.9-45.56,3.56Z"/>
    <path class="cls-27" d="M748.74,318.33h-.11c-16.84.25-33.9-.75-51.11-2.69l5.92,7.71h90.5l5.92-7.71c-17.21,1.93-34.27,2.94-51.11,2.69Z"/>
    <g>
      <g>
        <rect class="cls-27" x="772.29" y="334.19" width="7.74" height="46.47"/>
        <rect class="cls-2" x="772.29" y="380.49" width="7.74" height="10.37"/>
        <rect class="cls-2" x="718.04" y="380.49" width="7.74" height="10.37"/>
        <rect class="cls-11" x="771.07" y="330.07" width="10.19" height="5.55"/>
      </g>
      <g>
        <rect class="cls-27" x="718.05" y="334.19" width="7.74" height="46.47"/>
        <rect class="cls-11" x="716.82" y="330.07" width="10.19" height="5.55"/>
      </g>
    </g>
    <rect class="cls-11" x="745.18" y="330.07" width="7.72" height="13.64"/>
    <rect class="cls-27" x="709.29" y="341.72" width="79.5" height="3.1"/>
  </g>
  <g class="cls-50">
    <g>
      <g>
        <polyline class="cls-40" points="282.28 391.21 259.8 367.28 291.12 367.11 243.41 391.41"/>
        <line class="cls-40" x1="315.61" y1="304.7" x2="291.12" y2="367.11"/>
        <polygon class="cls-35" points="291.12 367.11 270.32 349.33 298.16 349.18 259.8 367.28 291.12 367.11"/>
        <polygon class="cls-35" points="270.32 349.33 304.29 333.56 278.48 333.7 298.16 349.18 270.32 349.33"/>
        <polygon class="cls-35" points="310.85 316.84 278.48 333.7 286.31 316.97 304.29 333.56 310.85 316.84"/>
        <polygon class="cls-43" points="303.2 304.76 286.31 316.97 297.6 316.91 291.9 304.82 303.2 304.76"/>
        <polygon class="cls-43" points="315.61 304.7 298.18 316.91 310.49 316.84 304.72 304.75 315.61 304.7"/>
        <polygon class="cls-44" points="339.77 304.57 291.9 304.82 286.31 316.97 339.83 316.69 339.77 304.57"/>
        <polygon class="cls-40" points="339.77 304.57 326.04 316.76 339.83 316.69 326.56 304.64 339.77 304.57"/>
        <polygon class="cls-40" points="327.4 304.63 310.85 316.84 326.4 316.76 315.38 305.3 327.4 304.63"/>
        <polygon class="cls-40" points="339.83 316.69 324.26 329.6 339.9 329.52 325.96 316.76 339.83 316.69"/>
        <polygon class="cls-40" points="325.96 316.76 305.88 329.49 324.26 329.6 310.85 316.84 325.96 316.76"/>
        <polygon class="cls-27" points="340.16 297.55 286.15 297.84 288.33 292.75 340.13 292.47 340.16 297.55"/>
        <polygon class="cls-27" points="340.19 304.58 290.3 304.84 292.3 297.63 340.16 297.37 340.19 304.58"/>
        <polygon class="cls-27" points="339.51 246.28 300.88 246.49 302.43 240.86 339.48 240.67 339.51 246.28"/>
        <polygon class="cls-40" points="325.29 280.89 296.16 292.7 320.67 292.57 300.33 281.02 325.29 280.89"/>
        <polygon class="cls-40" points="300.33 281.02 328.93 269.84 303.95 269.97 325.29 280.89 300.33 281.02"/>
        <polygon class="cls-40" points="303.95 269.97 331.48 259.46 307.08 259.59 328.93 269.84 303.95 269.97"/>
        <polygon class="cls-40" points="333.36 246.31 307.08 259.59 331.48 259.46 310.51 246.44 333.36 246.31"/>
        <path class="cls-42" d="M339.11,180.31c-1.8,19.92-4.41,41.62-6.21,61.54l6.54-.03-.33-61.51Z"/>
        <polygon class="cls-42" points="333 240.7 339.38 236.03 339.43 241.81 333.43 236.06 333 240.7"/>
        <polygon class="cls-42" points="339.38 236.03 333.43 236.06 339.34 231.35 333.88 231.38 339.38 236.03"/>
        <polyline class="cls-42" points="339.34 231.35 334.49 225.21 339.4 225.18 333.88 231.38"/>
        <polygon class="cls-42" points="334.49 225.21 339.29 218.22 335.19 218.24 339.4 225.18 334.49 225.21"/>
        <polygon class="cls-42" points="339.29 218.22 336 211.08 339.27 211.06 335.19 218.24 339.29 218.22"/>
        <polygon class="cls-42" points="336 211.08 339.29 204.06 336.74 204.07 339.27 211.06 336 211.08"/>
        <polyline class="cls-42" points="301.9 349.79 299.41 345.98 305.19 345.95 301.22 341.37 309.92 341.32 303.37 335.9 317.42 335.83 305.88 329.49"/>
        <line class="cls-42" x1="288.93" y1="310.9" x2="339.8" y2="310.63"/>
        <path class="cls-40" d="M298.18,316.91s-15.85,40.46-36.43,74.41"/>
        <line class="cls-40" x1="282.61" y1="325.33" x2="307.61" y2="325.2"/>
        <line class="cls-40" x1="301.22" y1="341.37" x2="274.51" y2="341.51"/>
        <line class="cls-40" x1="294.74" y1="357.88" x2="265.38" y2="358.03"/>
        <line class="cls-40" x1="286.36" y1="378.16" x2="252.41" y2="378.34"/>
        <path class="cls-40" d="M321.69,246.38s-3.75,30.76-15.99,47.32"/>
        <line class="cls-40" x1="323.05" y1="286.73" x2="298.73" y2="286.86"/>
        <line class="cls-40" x1="327.22" y1="275.36" x2="302.43" y2="275.5"/>
        <line class="cls-40" x1="330.32" y1="264.65" x2="305.84" y2="264.78"/>
        <line class="cls-40" x1="332.95" y1="252.89" x2="309.28" y2="253.01"/>
        <polygon class="cls-42" points="312.51 240.81 333.86 228.3 315.45 228.4 332.89 241.85 312.51 240.81"/>
        <polygon class="cls-42" points="333.86 228.3 317.6 218.33 335.19 218.24 315.45 228.4 333.86 228.3"/>
        <polygon class="cls-42" points="336.46 207.95 317.6 218.33 335.19 218.24 319.82 208.04 336.46 207.95"/>
        <polygon class="cls-42" points="337.43 197.49 319.82 208.04 336.46 207.95 321.33 197.57 337.43 197.49"/>
        <polygon class="cls-42" points="321.33 197.57 338.35 188.37 322.68 188.45 337.43 197.49 321.33 197.57"/>
        <polygon class="cls-42" points="322.68 188.45 339.1 178.79 323.89 178.87 338.35 188.37 322.68 188.45"/>
        <polygon class="cls-42" points="323.89 178.87 339.05 169.13 324.75 169.21 339.1 178.79 323.89 178.87"/>
        <polygon class="cls-42" points="324.75 169.21 338.99 159.24 325.62 159.31 339.05 169.13 324.75 169.21"/>
        <path class="cls-40" d="M339.46,246.28l-.46-87.04-13.38.07c-1.34,22.92-11.34,132.69-82.2,232.1l38.87-.21s13.83-61.45,57.62-61.69l-.13-24.95-24.16.13c6.62-16.37,15.72-34.45,17.74-58.38l6.1-.03Z"/>
        <polyline class="cls-40" points="398.22 390.59 420.45 366.42 389.12 366.59 437.09 390.38"/>
        <line class="cls-40" x1="363.97" y1="304.44" x2="389.12" y2="366.59"/>
        <polygon class="cls-35" points="389.12 366.59 409.74 348.59 381.9 348.74 420.45 366.42 389.12 366.59"/>
        <polygon class="cls-35" points="409.74 348.59 375.6 333.18 401.4 333.04 381.9 348.74 409.74 348.59"/>
        <polygon class="cls-35" points="368.87 316.53 401.4 333.04 393.4 316.4 375.6 333.18 368.87 316.53"/>
        <polygon class="cls-43" points="376.38 304.37 393.4 316.4 382.11 316.46 387.68 304.31 376.38 304.37"/>
        <polygon class="cls-43" points="363.97 304.44 381.53 316.47 369.22 316.53 374.86 304.38 363.97 304.44"/>
        <polygon class="cls-44" points="339.81 304.57 387.68 304.31 393.4 316.4 339.88 316.69 339.81 304.57"/>
        <polygon class="cls-40" points="339.81 304.57 353.67 316.61 339.88 316.69 353.02 304.5 339.81 304.57"/>
        <polygon class="cls-40" points="352.18 304.5 368.87 316.53 353.31 316.62 364.21 305.04 352.18 304.5"/>
        <polygon class="cls-40" points="339.88 316.69 355.59 329.43 339.95 329.52 353.75 316.61 339.88 316.69"/>
        <polygon class="cls-40" points="353.75 316.61 373.96 329.12 355.59 329.43 368.87 316.53 353.75 316.61"/>
        <polygon class="cls-27" points="339.35 297.56 393.35 297.27 391.12 292.2 339.32 292.47 339.35 297.56"/>
        <polygon class="cls-27" points="339.39 304.58 389.28 304.32 387.2 297.12 339.35 297.38 339.39 304.58"/>
        <polygon class="cls-27" points="339.45 246.28 378.08 246.08 376.47 240.47 339.42 240.67 339.45 246.28"/>
        <polygon class="cls-40" points="354.04 280.74 383.29 292.24 358.79 292.37 379 280.6 354.04 280.74"/>
        <polygon class="cls-40" points="379 280.6 350.28 269.73 375.26 269.6 354.04 280.74 379 280.6"/>
        <polygon class="cls-40" points="375.26 269.6 347.62 259.38 372.02 259.25 350.28 269.73 375.26 269.6"/>
        <polygon class="cls-40" points="345.61 246.25 372.02 259.25 347.62 259.38 368.45 246.13 345.61 246.25"/>
        <path class="cls-42" d="M339.15,180.31c2.01,19.9,4.85,41.57,6.87,61.47l-6.54.03-.33-61.51Z"/>
        <polygon class="cls-42" points="345.9 240.63 339.47 236.03 339.48 241.81 345.42 236 345.9 240.63"/>
        <polygon class="cls-42" points="339.47 236.03 345.42 236 339.47 231.35 344.92 231.32 339.47 236.03"/>
        <polyline class="cls-42" points="339.47 231.35 344.25 225.16 339.34 225.18 344.92 231.32"/>
        <polygon class="cls-42" points="344.25 225.16 339.38 218.22 343.47 218.19 339.34 225.18 344.25 225.16"/>
        <polygon class="cls-42" points="339.38 218.22 342.59 211.04 339.32 211.06 343.47 218.19 339.38 218.22"/>
        <polygon class="cls-42" points="342.59 211.04 339.23 204.06 341.77 204.04 339.32 211.06 342.59 211.04"/>
        <polyline class="cls-42" points="378.16 349.39 380.61 345.55 374.83 345.58 378.75 340.96 370.05 341 376.55 335.51 362.5 335.59 373.96 329.12"/>
        <line class="cls-42" x1="390.71" y1="310.36" x2="339.85" y2="310.63"/>
        <path class="cls-40" d="M381.53,316.47s16.28,40.29,37.22,74.01"/>
        <line class="cls-40" x1="397.19" y1="324.72" x2="372.19" y2="324.86"/>
        <line class="cls-40" x1="378.75" y1="340.96" x2="405.46" y2="340.82"/>
        <line class="cls-40" x1="385.4" y1="357.39" x2="414.77" y2="357.24"/>
        <line class="cls-40" x1="394" y1="377.59" x2="427.95" y2="377.41"/>
        <path class="cls-40" d="M357.28,246.19s4.08,30.72,16.5,47.15"/>
        <line class="cls-40" x1="356.34" y1="286.55" x2="380.66" y2="286.42"/>
        <line class="cls-40" x1="352.05" y1="275.23" x2="376.84" y2="275.1"/>
        <line class="cls-40" x1="348.84" y1="264.55" x2="373.31" y2="264.42"/>
        <line class="cls-40" x1="346.08" y1="252.82" x2="369.75" y2="252.69"/>
        <polygon class="cls-42" points="366.39 240.52 344.91 228.24 363.32 228.14 346.02 241.78 366.39 240.52"/>
        <polygon class="cls-42" points="344.91 228.24 361.07 218.1 343.47 218.19 363.32 228.14 344.91 228.24"/>
        <polygon class="cls-42" points="342.1 207.92 361.07 218.1 343.47 218.19 358.74 207.83 342.1 207.92"/>
        <polygon class="cls-42" points="341.02 197.47 358.74 207.83 342.1 207.92 357.11 197.38 341.02 197.47"/>
        <polygon class="cls-42" points="357.11 197.38 340 188.36 355.67 188.28 341.02 197.47 357.11 197.38"/>
        <polygon class="cls-42" points="355.67 188.28 339.15 178.79 354.36 178.71 340 188.36 355.67 188.28"/>
        <polygon class="cls-42" points="354.36 178.71 339.09 169.13 353.39 169.06 339.15 178.79 354.36 178.71"/>
        <polygon class="cls-42" points="353.39 169.06 339.04 159.24 352.42 159.17 339.09 169.13 353.39 169.06"/>
        <path class="cls-40" d="M339.5,246.28l-.46-87.04,13.38-.07c1.59,22.91,12.75,132.56,84.66,231.21l-38.87.21s-14.48-61.3-58.27-61.07l-.13-24.95,24.16-.13c-6.79-16.3-16.08-34.28-18.36-58.19l-6.1.03Z"/>
        <polygon class="cls-40" points="325.61 159.31 328.13 109.47 338.73 109.41 339.04 159.24 325.61 159.31"/>
        <polygon class="cls-40" points="325.61 159.31 338.94 148.46 326.15 148.53 339.04 159.24 325.61 159.31"/>
        <polygon class="cls-40" points="326.15 148.53 338.88 137.56 326.7 137.63 338.94 148.46 326.15 148.53"/>
        <polygon class="cls-40" points="326.7 137.63 338.88 127.89 327.19 127.96 338.88 137.56 326.7 137.63"/>
        <polygon class="cls-40" points="327.19 127.96 338.83 118.89 327.66 118.95 338.88 127.89 327.19 127.96"/>
        <polygon class="cls-40" points="327.66 118.95 338.73 109.41 328.13 109.47 338.83 118.89 327.66 118.95"/>
        <polygon class="cls-40" points="352.32 159.18 349.27 109.37 338.67 109.43 338.88 159.25 352.32 159.18"/>
        <polygon class="cls-40" points="352.32 159.18 338.88 148.47 351.66 148.4 338.88 159.25 352.32 159.18"/>
        <polygon class="cls-40" points="351.66 148.4 338.82 137.57 350.99 137.51 338.88 148.47 351.66 148.4"/>
        <polygon class="cls-40" points="350.99 137.51 338.72 127.91 350.4 127.84 338.82 137.57 350.99 137.51"/>
        <polygon class="cls-40" points="350.4 127.84 338.67 118.9 349.83 118.84 338.72 127.91 350.4 127.84"/>
        <polygon class="cls-40" points="349.83 118.84 338.67 109.43 349.27 109.37 338.67 118.9 349.83 118.84"/>
      </g>
      <path class="cls-27" d="M347.92,110.64l-19.33.1c-2.87.02-5.2-2.3-5.22-5.16h0c-.02-2.87,2.3-5.2,5.16-5.22l19.33-.1c2.87-.02,5.2,2.3,5.22,5.16h0c.02,2.87-2.3,5.2-5.16,5.22Z"/>
      <path class="cls-27" d="M348.6,98.45c.03,5.75-4.61,10.44-10.36,10.47-5.75.03-10.44-4.61-10.47-10.36-.03-5.75,4.61-10.44,10.36-10.47,5.75-.03,10.44,4.61,10.47,10.36Z"/>
      <polygon class="cls-27" points="344.99 92.98 331.7 93.05 332.52 82.81 344.06 82.75 344.99 92.98"/>
      <polygon class="cls-27" points="338.11 48 336.71 85.35 338.31 85.34 339.91 85.33 338.11 48"/>
    </g>
  </g>
</svg>