<?xml version="1.0" encoding="UTF-8"?>
<svg id="TEXT" xmlns="http://www.w3.org/2000/svg" viewBox="0 0 454 513">
  <defs>
    <style>
      .cls-1, .cls-2, .cls-3, .cls-4, .cls-5, .cls-6, .cls-7, .cls-8, .cls-9, .cls-10, .cls-11, .cls-12 {
        fill: none;
      }

      .cls-1, .cls-2, .cls-4, .cls-5, .cls-7, .cls-8, .cls-9, .cls-10, .cls-11, .cls-12 {
        stroke-linecap: round;
        stroke-linejoin: round;
      }

      .cls-1, .cls-3 {
        stroke-width: .6px;
      }

      .cls-1, .cls-3, .cls-6 {
        stroke: #2d201b;
      }

      .cls-2 {
        stroke-width: .83px;
      }

      .cls-2, .cls-5, .cls-9, .cls-11, .cls-12 {
        stroke: #fff;
      }

      .cls-13 {
        fill: #b692ef;
      }

      .cls-13, .cls-14, .cls-15, .cls-16, .cls-17, .cls-18, .cls-19, .cls-20, .cls-21, .cls-22, .cls-23, .cls-24, .cls-25, .cls-26 {
        stroke-width: 0px;
      }

      .cls-3, .cls-6 {
        stroke-miterlimit: 10;
      }

      .cls-14 {
        fill: #2d201b;
      }

      .cls-4 {
        stroke: #6a4ea0;
        stroke-width: .55px;
      }

      .cls-5, .cls-8 {
        stroke-width: 1.5px;
      }

      .cls-15 {
        fill: #e2d2c3;
      }

      .cls-16 {
        fill: #f0cad6;
      }

      .cls-17 {
        fill: #d1705d;
      }

      .cls-18 {
        fill: #beb09f;
      }

      .cls-6 {
        stroke-width: .54px;
      }

      .cls-19 {
        fill: #161616;
      }

      .cls-20 {
        fill: #fff;
      }

      .cls-21 {
        fill: #e79c25;
      }

      .cls-7 {
        stroke: #592e9e;
        stroke-width: .18px;
      }

      .cls-8 {
        stroke: #373339;
      }

      .cls-9 {
        stroke-width: .79px;
      }

      .cls-10 {
        stroke: #422e22;
        stroke-width: .24px;
      }

      .cls-22 {
        fill: #2e2521;
      }

      .cls-23 {
        fill: #eebd81;
      }

      .cls-11 {
        stroke-width: .89px;
      }

      .cls-24 {
        fill: #6767aa;
      }

      .cls-25 {
        fill: #d67160;
      }

      .cls-26 {
        fill: #9c9eaa;
      }

      .cls-12 {
        stroke-width: 1.2px;
      }
    </style>
  </defs>
  <ellipse class="cls-14" cx="243.28" cy="464.79" rx="92.16" ry="7.63"/>
  <path class="cls-14" d="M357.17,461.86c0,2.59-8.15,4.7-18.2,4.7s-18.2-2.1-18.2-4.7,8.15-4.7,18.2-4.7,18.2,2.1,18.2,4.7Z"/>
  <g>
    <g>
      <path class="cls-15" d="M216.53,300.84c-.45,4.42-4.65,20.69-.45,22.84,2.85,1.46,6.08,1.73,9.13,2.6,5.96,1.7,11.31,5.87,14.39,11.21l-39.65-.76,4.49-40.52,12.09,4.61Z"/>
      <path class="cls-14" d="M201.17,324.41s.02.04.03.06c1.29,2.34,3.53,4.25,6.33,4.26,4.08.02,7.96-3.63,9.96-7.62.22.3.36.85.39,1.77.01.49.61.82,1.04,1.03,3.98,1.94,7.36,2.1,11.05,3.15,5.73,1.64,10.99,5.16,14.78,9.77,1.23,1.5.12,3.75-1.82,3.71l-41.05-.78c-1.34-.03-2.37-1.2-2.22-2.53,0,0,1.05-8.93,1.5-12.82Z"/>
      <path class="cls-15" d="M246.45,343.09l-46.73-.89c-1.33-.03-2.48-1.11-2.56-2.4h0c-.08-1.3.95-2.34,2.27-2.31l46.73.89c1.33.03,2.48,1.11,2.56,2.4h0c.08,1.3-.95,2.34-2.27,2.31Z"/>
      <path class="cls-15" d="M215.69,328.93h0c-.53-.5-.58-1.3-.11-1.78l6.86-6.97c.47-.48,1.29-.46,1.82.03h0c.53.5.58,1.3.11,1.78l-6.86,6.97c-.47.48-1.29.46-1.82-.03Z"/>
      <path class="cls-15" d="M221.48,331.37h0c-.53-.5-.62-1.26-.19-1.69l6.17-6.25c.42-.43,1.2-.37,1.73.13h0c.53.5.62,1.26.19,1.69l-6.17,6.25c-.42.43-1.2.37-1.73-.13Z"/>
    </g>
    <g>
      <path class="cls-17" d="M226.81,64.29c.46,2.34.35,8.84.27,11.37-.17,5.19-2.57,8.28-4.03,9.6,1.56,2.11,6.54,3.84,9.08,4.48,2.55.63,5.31.35,7.68-.79.65-.31,1.26-.68,1.87-1.05.75-.45,1.5-.91,2.26-1.36-3.31-5.62-6.14-11.84-5.31-18.3-1.64-.29-3.95-.97-5.59-1.26-.71-.13-1.43-.26-2.15-.22-1.14.06-2.97-2.26-4.09-2.45Z"/>
      <path class="cls-18" d="M260.9,151.47c-.02.36,3.53,33.58-10.57,41.91-11.15,6.58-25.22,12.51-35.33,2.53-7.26-7.16-6.56-21.03-6.57-31.2l52.48-13.23Z"/>
      <path class="cls-26" d="M266.22,129.64c-.49,8.81-1.74,17.61-3.5,26.28-.6,2.96-1.33,6.05-3.47,8.37-3.5,3.8-9.29,4.43-14.42,4.68-6.35.31-12.71.25-19.06-.03-5.58-.24-12.86.28-18.11-1.6-4.92-1.76-6.03-6.74-6.42-11-.25-2.7-.37-5.39-.48-8.08-.05-1.27-.11-2.54-.18-3.81-.14-2.6-.34-5.2-.72-7.8-1-6.84-3.01-13.56-4.96-20.23-1.2-4.11-2.53-8.24-2.77-12.48-.24-4.24-7.73.71-4.79-2.62,2.81-3.18,15.58-14.42,19.92-15.55,12.81-3.33,26.44-1.42,39.73-.49.09,0,.19.01.28.02,1.1.08,2.22.15,3.34.27,3.6.37,7.16,1.11,9.65,3.37,2.49,2.26,3.34,5.56,3.96,8.69,2.06,10.55,2.58,21.29,1.98,32Z"/>
    </g>
    <path class="cls-25" d="M289.9,229.31l-19.58-31.76-25.88.16,23.73,38.5-17.63,57.38c.13,2.8,0,3.01,2.73,5.7,1.73,1.71,3.38,1.89,5.17,1.31.54-.75,7.09-11.27,7.44-12.16l24.89-49.3c1.27-3.24.95-6.88-.88-9.85Z"/>
    <g>
      <path class="cls-22" d="M230.66,56.49c2.05.23,3.36,2.2,3.26,4.1-.1,1.89-1.3,3.66-2.71,5.13-.99-2.2-1.74-4.14-2.73-6.34-.37-.82-.68-1.92.09-2.55.43-.35,1.53-.4,2.09-.34Z"/>
      <path class="cls-17" d="M241.21,66.19c0,.07,0,.14,0,.22,0,.04,0,.07,0,.11,0,.02,0,.05,0,.07,0,.07,0,.14,0,.21,0,.02,0,.04,0,.06,0,.1-.01.2-.02.3,0,.11-.02.21-.04.32,0,.04-.01.07-.02.11,0,.02,0,.04-.01.07-.01.09-.03.18-.05.27-.04.21-.1.43-.17.63-.02.05-.03.1-.05.15-.15.45-.35.87-.59,1.27-.05.09-.11.17-.16.26-.03.05-.06.09-.09.13-.05.07-.1.15-.16.22-.13.18-.27.34-.42.51-.07.08-.14.15-.21.22-.3.29-.63.56-.98.8-.26.18-.54.34-.83.47-.06.03-.13.06-.19.09-.05.02-.09.04-.14.06-.02.01-.05.02-.08.03-.02,0-.05.02-.07.03-.08.03-.15.06-.23.08-.46.16-.93.26-1.43.32-.11.01-.22.02-.33.03-1.22.07-2.39-.2-3.41-.72-1.93-.99-3.34-2.91-3.59-5.21l-.17-1.57-.49-4.6-.15-1.44-.21-1.99c-.01-.11-.02-.22-.03-.33,0-.05,0-.11,0-.16,0-.04,0-.08,0-.13,0-.04,0-.09,0-.13,0-.01,0-.02,0-.03,0-.03,0-.05,0-.08,0-.03,0-.06,0-.09,0-.02,0-.04,0-.06,0-.05,0-.09,0-.14,0-.04,0-.08,0-.12,0-.02,0-.05,0-.07,0-.09.02-.18.03-.27,0-.05.01-.1.02-.15,0-.05.01-.09.02-.14,0-.04.02-.09.03-.13,0,0,0,0,0,0,0-.04.02-.09.03-.13.01-.04.02-.09.03-.14.01-.04.02-.09.03-.13.02-.09.05-.18.08-.27,0-.02.01-.03.02-.05.02-.07.05-.15.07-.22,0-.02.01-.03.02-.05.03-.07.06-.15.09-.22,0-.01,0-.02.01-.03.91-2.16,2.94-3.79,5.43-4.06,2.8-.3,5.4,1.2,6.62,3.57.37.71.61,1.5.7,2.34l1.03,9.6c.01.11.02.22.03.33Z"/>
      <path class="cls-23" d="M236.99,55.52c.93-.41,1.71-1.02,2.37-1.74-1.26-2.28-3.8-3.72-6.54-3.43-2.11.23-3.89,1.43-4.94,3.12,2.65,2.14,6.11,3.39,9.11,2.05Z"/>
      <path class="cls-14" d="M232.49,64.72c-.27.3-.53.6-.81.91-.29.33-.95.31-1.09-.18-.67-2.41-1.32-4.54-3.47-5.31l.06.53.15,1.44.49,4.6.17,1.57c.25,2.31,1.66,4.22,3.59,5.21,1.02.53,2.19.79,3.41.72.11,0,.22-.02.33-.03.5-.05.97-.16,1.43-.32.08-.03.15-.05.23-.08.02,0,.05-.02.07-.03.03,0,.05-.02.08-.03.05-.02.09-.04.14-.06.06-.03.13-.06.19-.09.29-.14.57-.3.83-.47.35-.23.68-.5.98-.8.07-.07.14-.15.21-.22.15-.16.29-.33.42-.51.05-.07.11-.14.16-.22.03-.04.06-.09.09-.13.06-.08.11-.17.16-.26.24-.4.44-.83.59-1.27.02-.05.03-.1.05-.15.07-.21.12-.42.17-.63.02-.09.04-.18.05-.27,0-.02,0-.04.01-.07,0-.04.01-.07.02-.11.01-.11.03-.21.04-.32,0-.1.02-.2.02-.3,0-.02,0-.04,0-.06,0-.07,0-.14,0-.21,0-.02,0-.05,0-.07,0-.04,0-.07,0-.11,0-.07,0-.14,0-.22,0-.11-.02-.22-.03-.33l-.37-3.49c-2.65-.98-6.28-.59-8.36,1.34Z"/>
    </g>
    <path class="cls-25" d="M210.41,212.83l-.67,23.86c-1.77,18.94-5.98,65.5-5.98,65.5,2.54,3.07,4.23,4.35,11.43,6.55,6.18-33.03,14.23-67.65,18.32-96.06l-23.1.15Z"/>
    <polygon class="cls-14" points="209.87 176.47 207.44 230.64 232.5 242.28 237.72 191.52 262.29 233.07 284.37 211.41 257.75 172.7 209.87 176.47"/>
    <g>
      <path class="cls-15" d="M259.69,298.86c-2.54,3.92-2.52,9.39.05,12.95,1.74,2.42,4.39,3.87,6.6,5.82,4.3,3.8,6.88,9.65,6.94,15.75l-33.79-15.48,10.86-23.72,9.34,4.67Z"/>
      <path class="cls-14" d="M269.47,319.03c-2.52-2.22-5.55-3.89-7.54-6.65-1.7-2.36-2.43-5.45-2.17-8.5-1.31.84-2.61,1.71-3.96,2.48-1.31.75-2.69,1.42-4.14,1.66-1.46.24-2.87-.07-4.05-.91-.87-.62-1.55-1.48-2.12-2.43l-6.72,14.67,38.62,17.68c-.06-6.97-3.01-13.66-7.93-18Z"/>
      <path class="cls-15" d="M257.58,305.32h.19c1.23,0,2.23,1,2.23,2.23v41.17c0,1.23-1,2.23-2.23,2.23h-.19c-1.23,0-2.23-1-2.23-2.23v-41.17c0-1.23,1-2.23,2.23-2.23Z" transform="translate(-147.95 425.79) rotate(-65.39)"/>
      <path class="cls-15" d="M254.38,311.23h0c-.2-.62.13-1.34.73-1.59l8.79-3.69c.6-.25,1.26.05,1.47.67h0c.2.62-.13,1.34-.73,1.59l-8.79,3.69c-.6.25-1.26-.05-1.47-.67Z"/>
      <path class="cls-15" d="M256.85,315.89h0c-.2-.62.13-1.34.73-1.59l8.79-3.69c.6-.25,1.26.05,1.47.67h0c.2.62-.13,1.34-.73,1.59l-8.79,3.69c-.6.25-1.26-.05-1.47-.67Z"/>
    </g>
    <path class="cls-14" d="M239.58,57.8l-2.41.51c-.34.07-.67-.1-.73-.39h0c-.06-.29.17-.58.51-.66l2.41-.51c.34-.07.67.1.73.39h0c.06.29-.17.58-.51.66Z"/>
    <path class="cls-14" d="M234.49,58.76l-2.41.51c-.34.07-.67-.1-.73-.39h0c-.06-.29.17-.58.51-.66l2.41-.51c.34-.07.67.1.73.39h0c.06.29-.17.58-.51.66Z"/>
    <polyline class="cls-10" points="234.71 62.53 236.64 63.27 235.77 58.38"/>
    <g>
      <path class="cls-17" d="M197.45,112.45l-39.04-23.33-1.39-.83c-1.25-.74-2.14-1.85-2.64-3.1l-18.25-45.94c-1.56-4.08,3.95-7.06,6.5-3.51,0,0,28.38,40.46,28.38,40.46l-4.03-3.93,41.84,17.82c6.39,2.72,9.36,10.11,6.64,16.5-2.9,6.97-11.57,9.78-18.02,5.87h0Z"/>
      <path class="cls-17" d="M140.16,39.34c3.51-1.11,5.35-8.06,6.15-11.18.48-1.86.66-3.59.75-5.49l-3-.13.19-4.39-12.6-.53c-.24,5.54-1,13.93,1.75,19.45,1.67,3.34,4.39,4.4,7.21,5.89l-.45-3.61Z"/>
      <path class="cls-1" d="M145.66,22.6l-6.1-.26c-.81,1.08-2.22,1.54-3.63,1.7-.64.07-.8.95-.23,1.25,2.09,1.12,4.38,1.44,6.76.35-2.78,1.02-3.94,3.69-4,6.44"/>
      <path class="cls-1" d="M138.29,31.67c-1.03-1.97-2.11-3.87-3.76-5.35"/>
    </g>
    <g>
      <path class="cls-20" d="M235.18,60.06c.04.25-.45.56-1.18.78-.21.06-.45.12-.7.17-.29.05-.57.09-.83.1-.7.03-1.21-.08-1.25-.32-.04-.22.34-.49.93-.7.28-.1.6-.19.95-.25.31-.06.61-.09.88-.1.67-.02,1.16.09,1.2.32Z"/>
      <path class="cls-14" d="M234.25,60.14c.05.25-.05.5-.25.7-.21.06-.45.12-.7.17-.29.05-.57.09-.83.1-.22-.11-.37-.28-.42-.5-.04-.18,0-.36.1-.52.28-.1.6-.19.95-.25.31-.06.61-.09.88-.1.13.1.23.24.26.4Z"/>
    </g>
    <path class="cls-17" d="M283.07,116.31l20.89,18.92-6.2-2.04,47.42.29c2.78.02,5.01,2.28,4.99,5.05-.02,2.52-1.88,4.59-4.29,4.94l-46.91,6.91c-2.39.37-4.53-.53-6.2-2.04,0,0-21.97-17.65-21.97-17.65-4.07-3.27-4.72-9.22-1.45-13.29,3.38-4.24,9.71-4.73,13.72-1.09h0Z"/>
    <g>
      <path class="cls-20" d="M239.89,59.17c.04.21-.37.47-.98.65-.18.05-.37.1-.58.14-.24.04-.48.07-.69.08-.58.03-1.01-.07-1.04-.27-.03-.18.28-.41.78-.58.23-.08.5-.15.79-.21.26-.05.51-.08.74-.08.56-.02.96.08,1,.27Z"/>
      <path class="cls-14" d="M239.11,59.24c.04.21-.04.42-.21.59-.18.05-.37.1-.58.14-.24.04-.48.07-.69.08-.18-.09-.31-.23-.35-.42-.03-.15,0-.3.09-.43.23-.08.5-.15.79-.21.26-.05.51-.08.74-.08.11.09.19.2.22.34Z"/>
    </g>
    <path class="cls-20" d="M234.26,64.77c-.01.11-.01.23,0,.35.1,1.02,1.01,1.77,2.03,1.67,1.02-.1,1.77-1.01,1.67-2.03-.01-.12-.04-.23-.07-.34l-3.63.36Z"/>
    <path class="cls-23" d="M228.58,55.04c1.18.82,1.81,2.32,1.73,3.75-.08,1.44-.82,2.79-1.89,3.76-.47-.25-1.07-.46-1.54-.71l-.05-7.95"/>
    <path class="cls-26" d="M218.1,89.75c-9.02-12.48-29.75-9.87-40.9-19.98-.2,12.03-.98,21.84.58,33.93,7.02,6.91,21.17,14.47,31.05,15.7,5.8-7.01,15.12-16.03,9.27-29.65Z"/>
    <path class="cls-26" d="M254.08,86.3c9.14,1.5,17.64,11.61,22.88,15.13,5.18,3.48,10.84,7.13,16.49,9.63-3.24,9.68-13.46,23.65-22.24,29.06-8.43-1.83-26.85-16.27-31.58-22.36l14.45-31.47Z"/>
    <path class="cls-4" d="M262.3,94.08c5.66,12.33,5.78,32.25,3.45,41.06,3-7.57,6.31-15.52,7.43-23.58"/>
    <path class="cls-4" d="M243.93,154.42c6.02,6.34,16.4,7.08,16.4,7.08,0,0-8.01-4.74-8.84-9.91"/>
    <polyline class="cls-4" points="188.81 100.92 196.24 114.59 191.54 92.89"/>
    <g>
      <path class="cls-17" d="M337.18,134.09c.19-1.89,3.19-3.98,4.21-5.66.43-.7,1.07-3.78,1.69-4.12,1.52-.83,1.39,1.94,1.36,2.88-.06,1.89-.99,3.15-2,4.62l10.62-.13.16,13.53-14.55.18c-2.75.03-3.8-5.76-1.29-7.71-.24-1.03-.33-2.48-.21-3.59Z"/>
      <path class="cls-17" d="M343.76,135.32l8.72-.11c1.08-.01,1.96-.91,1.94-1.99h0c-.01-1.08-.91-1.96-1.99-1.94l-8.72.11c-1.08.01-1.96.91-1.94,1.99h0c.01,1.08.91,1.96,1.99,1.94Z"/>
      <path class="cls-17" d="M343.8,138.91l8.72-.11c1.08-.01,1.96-.91,1.94-1.99h0c-.01-1.08-.91-1.96-1.99-1.94l-8.72.11c-1.08.01-1.96.91-1.94,1.99h0c.01,1.08.91,1.96,1.99,1.94Z"/>
      <path class="cls-17" d="M343.84,142.5l8.72-.11c1.08-.01,1.96-.91,1.94-1.99h0c-.01-1.08-.91-1.96-1.99-1.94l-8.72.11c-1.08.01-1.96.91-1.94,1.99h0c.01,1.08.91,1.96,1.99,1.94Z"/>
      <path class="cls-17" d="M343.89,146.09l8.72-.11c1.08-.01,1.96-.91,1.94-1.99h0c-.01-1.08-.91-1.96-1.99-1.94l-8.72.11c-1.08.01-1.96.91-1.94,1.99h0c.01,1.08.91,1.96,1.99,1.94Z"/>
    </g>
    <line class="cls-1" x1="343.75" y1="134.98" x2="343.84" y2="142.16"/>
    <path class="cls-1" d="M338.97,141.66s2.81.15,4.82-3.09"/>
    <path class="cls-17" d="M220.57,63.24c.23,2.17,2.18,3.73,4.34,3.5,2.17-.23,3.73-2.18,3.5-4.34-.23-2.17-2.18-3.73-4.34-3.5-2.17.23-3.73,2.18-3.5,4.34Z"/>
    <path class="cls-18" d="M208.78,173.49c-7.29,12.21.82,21.3-.92,35.41-1.19,9.65-7.68,18.07-8.66,27.74-.96,9.45,3.48,18.74,3.18,28.23-.51,16.39-14.91,31.59-10.29,47.32h35.31c3.6-6.21,5.17-12.92,4.47-20.06-.68-6.9-3.41-14.03-1.06-20.55,2.14-5.94,8.02-9.81,10.65-15.55,1.92-4.19,1.89-9.22-.07-13.38-1.41-2.99-3.75-5.55-4.58-8.74-1.68-6.42,3.16-12.55,7.65-17.44,1.74,5.68,5.07,11.59,9.15,15.9,2.66,2.81,5.94,5.59,6.39,9.43.66,5.64-4.99,9.89-6.93,15.23-2.18,6.01.44,13.28-2.82,18.78-2.81,4.75-9.65,7.61-9.3,13.11l36.8,14.11s6.75-7.98,7.37-24.56c0,0,15.35-11.05,12.28-25.17-.77-3.55-1.59-7.28-1.54-10.94.05-3.74,2.93-6.17,4.13-9.64,2.61-7.58-4.92-14.26-9.19-19.81-5.49-7.12-10.98-14.24-16.47-21.37-4.59-5.95-10.71-14.26-15.29-20.21l-50.24,2.15"/>
    <path class="cls-14" d="M268.94,289.88c.54-2.95.85-5.94,1.04-8.94.17-2.6.26-5.21.16-7.81-.16-4.09-.79-8.22-2.43-12.01-1.53-3.53-3.86-6.61-6.56-9.33-1.03-1.03-2.1-2.02-3.21-2.98-1.64,2.68-3.82,5.28-4.88,8.21-2.18,6.01.44,13.28-2.82,18.78-2.81,4.75-9.65,7.61-9.3,13.11l25.48,9.77c1.12-2.84,1.96-5.79,2.51-8.81Z"/>
    <path class="cls-3" d="M199.21,236.63l23.9-.52s3.38,43.29-16.58,45.13l-8.29-.31"/>
    <line class="cls-3" x1="199.47" y1="249.31" x2="223.22" y2="249.31"/>
    <path class="cls-3" d="M206.84,195.59l23.33-.61s0,24.56-12.89,25.79l-12.59.31"/>
    <path class="cls-3" d="M274.32,191.54l-15.6.05,10.01,12.52c3.74,4.67,9.48,7.29,15.47,7.03l4.91-.21"/>
    <path class="cls-3" d="M299.98,232.72l-20.08.32v16.8c0,7.75,3.78,15.01,10.13,19.45l2.15,1.51"/>
    <line class="cls-3" x1="279.9" y1="242.86" x2="295.86" y2="242.86"/>
    <line class="cls-3" x1="207.76" y1="202.65" x2="229.67" y2="202.65"/>
    <line class="cls-3" x1="264.86" y1="198.97" x2="279.29" y2="198.97"/>
    <rect class="cls-3" x="218.81" y="168.88" width="4.91" height="15.66"/>
    <rect class="cls-3" x="249.82" y="168.88" width="4.91" height="15.66"/>
    <path class="cls-3" d="M258.11,207.25s-17.19,11.36-22.1,11.97"/>
    <path class="cls-24" d="M240.03,55.19h-14.33c-.53,0-.95-.43-.95-.96h0c0-.53.43-.96.95-.96h14.33c.53,0,.96.43.96.96h0c0,.53-.43.96-.96.96Z"/>
    <path class="cls-24" d="M239.57,53.15s0-.04,0-.06c0-2.6-2.8-4.71-6.26-4.71s-6.26,2.11-6.26,4.71c0,.02,0,.04,0,.06h12.5Z"/>
    <path class="cls-7" d="M230.48,53.28s.37-4.64,2.85-4.91v4.64"/>
    <line class="cls-7" x1="227.07" y1="53.15" x2="239.36" y2="53.15"/>
    <path class="cls-7" d="M237.03,52.87s-.86-4.5-3.7-4.5"/>
    <path class="cls-10" d="M222.56,62.01s3-2.05,4.25,2.28"/>
    <path class="cls-24" d="M250.64,85.58c-.54,10.82-3.41,20.8-8.52,29.67-4.34,7.53-10.3,14.27-17.71,20.05-9.98,7.78-19.76,11.64-23.63,12.97-.05-1.27-.11-2.54-.18-3.81,1.3-.48,3.05-1.17,5.1-2.11,4.54-2.06,10.56-5.3,16.57-10,7.01-5.49,12.64-11.87,16.73-18.99,4.82-8.38,7.52-17.82,8.01-28.08.09,0,.19.01.28.02,1.1.08,2.22.15,3.34.27Z"/>
    <path class="cls-24" d="M234.39,133.56h0c-5.23-1.98-7.88-7.82-5.9-13.06l6.51-17.23c1.98-5.23,7.82-7.88,13.06-5.9h0c5.23,1.98,7.88,7.82,5.9,13.06l-6.51,17.23c-1.98,5.23-7.82,7.88-13.06,5.9Z"/>
    <path class="cls-2" d="M232.32,131.43s6.45-12.28,15.04-7.67"/>
    <path class="cls-2" d="M244.29,98.27s-2.46,13.51,6.14,16.88"/>
    <line class="cls-2" x1="240.3" y1="103.49" x2="233.24" y2="123.14"/>
  </g>
  <g>
    <path class="cls-24" d="M219.64,360.16l-22.06,23.86c-2.76,2.99-.64,7.83,3.42,7.83h39.17c3.8,0,6-4.29,3.79-7.38l-17.11-23.86c-1.72-2.4-5.21-2.62-7.21-.45Z"/>
    <rect class="cls-13" x="99.93" y="342.25" width="257.88" height="15.43"/>
    <path class="cls-14" d="M287.85,342.25c-5.36,4.89-10.88,9.6-16.41,14.28-.45.38-.9.76-1.36,1.15h87.72v-15.43h-69.95Z"/>
    <circle class="cls-24" cx="217.33" cy="431.14" r="38.81"/>
    <path class="cls-14" d="M240.19,431.4c-4.27,1.46-8.38,3.45-11.99,6.16-3.35,2.51-6.2,5.65-8.49,9.15-2.54,3.89-4.41,8.18-5.89,12.57-1.13,3.33-2.05,6.72-2.85,10.14,2.07.34,4.19.52,6.36.52,21.43,0,38.81-17.38,38.81-38.81,0-1.09-.05-2.18-.14-3.25-5.35.71-10.69,1.76-15.81,3.51Z"/>
    <path class="cls-11" d="M181.98,442.05s32.27-12.41,26.69-47.79"/>
    <path class="cls-11" d="M197.5,462.53s22.96-18,41.58.62"/>
    <path class="cls-11" d="M229.77,395.51s-13.03,44.68,22.34,52.13"/>
    <ellipse class="cls-11" cx="217.67" cy="440.81" rx="7.76" ry="6.83"/>
    <path class="cls-11" d="M241.56,415.06c0,2.23-1.67,4.03-3.72,4.03s-3.72-1.81-3.72-4.03,1.67-4.03,3.72-4.03,3.72,1.81,3.72,4.03Z"/>
    <path class="cls-6" d="M209.58,372.01s8.82,8.27-3.31,18.73"/>
    <path class="cls-6" d="M221.68,392.33s-3.28-20.32,16-17.01"/>
    <path class="cls-6" d="M214.82,365.67s1.38,7.44,18.18,4.13"/>
    <path class="cls-6" d="M234.65,384.27c0,1.75-1.6,3.17-3.58,3.17s-3.58-1.42-3.58-3.17,1.6-3.17,3.58-3.17,3.58,1.42,3.58,3.17Z"/>
    <g>
      <line class="cls-6" x1="118.11" y1="342.25" x2="118.11" y2="358.78"/>
      <line class="cls-6" x1="135.75" y1="342.25" x2="135.75" y2="358.78"/>
      <line class="cls-6" x1="153.38" y1="342.25" x2="153.38" y2="358.78"/>
      <line class="cls-6" x1="171.01" y1="342.25" x2="171.01" y2="358.78"/>
      <line class="cls-6" x1="188.64" y1="342.25" x2="188.64" y2="358.78"/>
      <line class="cls-6" x1="206.28" y1="342.25" x2="206.28" y2="358.78"/>
      <line class="cls-6" x1="223.91" y1="342.25" x2="223.91" y2="358.78"/>
      <line class="cls-6" x1="241.54" y1="342.25" x2="241.54" y2="358.78"/>
      <line class="cls-6" x1="259.18" y1="342.25" x2="259.18" y2="358.78"/>
      <line class="cls-6" x1="276.81" y1="342.25" x2="276.81" y2="358.78"/>
      <line class="cls-9" x1="295.54" y1="341.7" x2="295.54" y2="358.23"/>
      <line class="cls-9" x1="315.28" y1="341.7" x2="315.28" y2="358.23"/>
      <line class="cls-9" x1="335.42" y1="341.7" x2="335.42" y2="358.23"/>
      <line class="cls-6" x1="100.48" y1="350.52" x2="356.71" y2="349.41"/>
      <line class="cls-9" x1="276.26" y1="349.41" x2="356.71" y2="349.41"/>
    </g>
  </g>
  <g>
    <g>
      <path class="cls-12" d="M275.8,359.38v62.31"/>
      <path class="cls-12" d="M306.95,390.53h-62.31"/>
    </g>
    <g>
      <path class="cls-12" d="M297.83,368.51s-43.15,43.15-44.06,44.06"/>
      <path class="cls-12" d="M297.83,412.56s-43.15-43.15-44.06-44.06"/>
    </g>
    <g>
      <path class="cls-12" d="M304.91,379.44s-57.02,21.73-58.22,22.19"/>
      <path class="cls-12" d="M286.9,419.65s-21.73-57.02-22.19-58.22"/>
    </g>
    <g>
      <path class="cls-12" d="M304.23,403.27s-55.69-24.95-56.86-25.48"/>
      <path class="cls-12" d="M263.06,418.97s24.95-55.69,25.48-56.86"/>
    </g>
  </g>
  <circle class="cls-24" cx="174.98" cy="380.38" r="21.6"/>
  <path class="cls-14" d="M191.29,366.23c-3.48.35-6.86,1.34-9.88,3.21-7,4.33-10.68,12.24-12.99,19.84-1.07,3.51-1.87,7.08-2.58,10.68,2.77,1.3,5.87,2.02,9.13,2.02,11.93,0,21.6-9.67,21.6-21.6,0-5.41-2-10.36-5.29-14.15Z"/>
  <circle class="cls-16" cx="62.32" cy="301.01" r="11.32" transform="translate(-244.95 292.29) rotate(-76.68)"/>
  <path class="cls-16" d="M95.63,302.82c0,2.27-1.84,4.11-4.11,4.11s-4.11-1.84-4.11-4.11,1.84-4.11,4.11-4.11,4.11,1.84,4.11,4.11Z"/>
  <circle class="cls-16" cx="354.23" cy="238.78" r="7.04" transform="translate(104.93 585.69) rotate(-88.28)"/>
  <circle class="cls-16" cx="377.71" cy="254.05" r="3.52"/>
  <path class="cls-5" d="M146.84,258.74c0,3.57-2.89,6.46-6.46,6.46s-6.46-2.89-6.46-6.46,2.89-6.46,6.46-6.46,6.46,2.89,6.46,6.46Z"/>
  <path class="cls-5" d="M148.77,276.94c0,2.27-1.84,4.11-4.11,4.11s-4.11-1.84-4.11-4.11,1.84-4.11,4.11-4.11,4.11,1.84,4.11,4.11Z"/>
  <circle class="cls-13" cx="129.99" cy="173.62" r="4.7"/>
  <path class="cls-12" d="M147.13,167.98c0,1.82-1.47,3.29-3.29,3.29s-3.29-1.47-3.29-3.29,1.47-3.29,3.29-3.29,3.29,1.47,3.29,3.29Z"/>
  <path class="cls-5" d="M86.54,325.67c0,1.62-1.31,2.94-2.94,2.94s-2.94-1.31-2.94-2.94,1.31-2.94,2.94-2.94,2.94,1.31,2.94,2.94Z"/>
  <path class="cls-5" d="M91.65,255.22c0,1.62-1.31,2.94-2.94,2.94s-2.94-1.31-2.94-2.94,1.31-2.94,2.94-2.94,2.94,1.31,2.94,2.94Z"/>
  <path class="cls-5" d="M188.65,206.22c0,1.62-1.31,2.94-2.94,2.94s-2.94-1.31-2.94-2.94,1.31-2.94,2.94-2.94,2.94,1.31,2.94,2.94Z"/>
  <circle class="cls-5" cx="354.82" cy="177.15" r="3.52"/>
  <circle class="cls-8" cx="375.66" cy="195.05" r="1.47"/>
  <circle class="cls-5" cx="329.66" cy="234.05" r="1.47"/>
  <path class="cls-13" d="M383,294.85c0,2.43-1.97,4.4-4.4,4.4s-4.4-1.97-4.4-4.4,1.97-4.4,4.4-4.4,4.4,1.97,4.4,4.4Z"/>
  <circle class="cls-8" cx="361.42" cy="301.6" r="3.96"/>
  <path class="cls-5" d="M365.24,407.41c0,2.19-1.77,3.96-3.96,3.96s-3.96-1.77-3.96-3.96,1.77-3.96,3.96-3.96,3.96,1.77,3.96,3.96Z"/>
  <path class="cls-13" d="M108.85,251.11c0,2.92-2.37,5.28-5.28,5.28s-5.28-2.37-5.28-5.28,2.37-5.28,5.28-5.28,5.28,2.37,5.28,5.28Z"/>
  <circle class="cls-13" cx="345.43" cy="399.63" r="5.28"/>
  <g>
    <path class="cls-24" d="M123.88,212.3c2.28-1.29,4.56-2.59,6.84-3.89-14.39-18.45-32.15-25.31-45.87-27.63-12.09-2.05-22.64-.96-28.83.13v7.97c5.27-1.03,15.8-2.42,27.82-.34,16.27,2.83,29.68,10.8,40.03,23.76Z"/>
    <path class="cls-21" d="M130.72,208.41c-14.39-18.45-32.15-25.31-45.87-27.63"/>
  </g>
  <g>
    <path class="cls-14" d="M87.72,181.32c-.65.63-1.3,1.26-1.95,1.9-1.62,1.61-3.21,3.24-4.8,4.88.94.12,1.9.27,2.87.44,16.27,2.83,29.68,10.8,40.03,23.76,2.28-1.29,4.56-2.59,6.84-3.89-13.41-17.19-29.73-24.32-43-27.09Z"/>
    <path class="cls-14" d="M86.97,182.05l43.75,26.36c-13.41-17.19-29.73-24.32-43-27.09-.25.24-.5.49-.75.73Z"/>
    <path class="cls-14" d="M86.52,181.08c-.56-.11-1.12-.21-1.67-.31l1.23.74c.15-.15.29-.29.44-.44Z"/>
  </g>
  <path class="cls-24" d="M151.74,317.89l-8.29-.89c1.99-18.57,11.74-28.8,19.56-34.12,8.45-5.74,16.46-7.07,16.8-7.13l1.32,8.23-.66-4.12.67,4.12c-1.07.18-26.27,4.72-29.4,33.9Z"/>
  <path class="cls-14" d="M154.24,306.98c-1.18,3.18-2.06,6.8-2.5,10.91l-8.29-.89c.41-3.85,1.16-7.34,2.15-10.5,2.89.28,5.78.44,8.64.48Z"/>
  <g>
    <path class="cls-14" d="M373.57,213.45c-6.71,2.24-13.39,3.35-19.94,3.35-7.75,0-15.33-1.55-22.59-4.64,1.74-3.13,3.08-6.56,4.04-10.15,11.04,4.78,22.78,5.15,35.03,1.06l3.46,10.39Z"/>
    <path class="cls-24" d="M335.09,202c-.96,3.6-2.3,7.03-4.04,10.15-3.98-1.69-7.87-3.84-11.63-6.44-12.21-8.45-18.84-18.74-19.11-19.17l9.23-5.88c.06.09,5.91,9.09,16.42,16.27,2.99,2.04,6.03,3.73,9.13,5.08Z"/>
  </g>
  <path class="cls-24" d="M384.88,324.72l-5.54-6.92c1.12-.9,27.74-22,50.84-23.85l.71,8.83c-20.42,1.63-45.76,21.73-46.02,21.94Z"/>
  <path class="cls-19" d="M430.9,302.79c-4.96.4-10.2,1.88-15.31,3.9-1.4-2.65-3.09-5.16-4.98-7.53,6.38-2.67,13.12-4.7,19.58-5.21l.7,8.83Z"/>
  <g>
    <line class="cls-12" x1="117.5" y1="124.5" x2="117.5" y2="145.5"/>
    <line class="cls-12" x1="107.5" y1="133.5" x2="126.5" y2="133.5"/>
  </g>
  <g>
    <line class="cls-12" x1="332.5" y1="278.5" x2="332.5" y2="299.5"/>
    <line class="cls-12" x1="322.5" y1="287.5" x2="341.5" y2="287.5"/>
  </g>
</svg>