<?xml version="1.0" encoding="UTF-8"?>
<svg id="BACKGROUND" xmlns="http://www.w3.org/2000/svg" viewBox="0 0 475 516">
  <defs>
    <style>
      .cls-1, .cls-2, .cls-3, .cls-4, .cls-5, .cls-6, .cls-7, .cls-8, .cls-9, .cls-10, .cls-11, .cls-12, .cls-13, .cls-14, .cls-15, .cls-16, .cls-17, .cls-18 {
        stroke-width: 0px;
      }

      .cls-1, .cls-3, .cls-4, .cls-19, .cls-15 {
        isolation: isolate;
      }

      .cls-1, .cls-4, .cls-17 {
        opacity: .3;
      }

      .cls-1, .cls-5, .cls-10, .cls-17 {
        fill: #fff;
      }

      .cls-20 {
        opacity: .7;
      }

      .cls-2 {
        fill: #407bff;
      }

      .cls-3, .cls-21, .cls-8 {
        opacity: .2;
      }

      .cls-5 {
        opacity: .9;
      }

      .cls-6 {
        fill: #4e4e84;
      }

      .cls-22 {
        fill: none;
        opacity: .1;
        stroke: #000;
        stroke-miterlimit: 10;
        stroke-width: .5px;
      }

      .cls-9 {
        fill: #d3d1c2;
      }

      .cls-11 {
        fill: #a24e3f;
      }

      .cls-19, .cls-15 {
        opacity: .4;
      }

      .cls-12 {
        fill: #b97964;
      }

      .cls-13 {
        fill: #ff3636;
      }

      .cls-14 {
        fill: #263238;
      }

      .cls-16 {
        fill: #6767aa;
      }

      .cls-18 {
        fill: #9c9eaa;
      }
    </style>
  </defs>
  <path class="cls-14" d="M304.01,87.49s10.82-10.57,10.09-13.79c-.73-3.22-2.51-2.08-2.51-2.08,0,0,3.42-8.15-.61-9.21-4.03-1.06-4.2.28-4.2.28,0,0,1.09-6.52-2.16-8.23-2.48-1.31-3.27,1.71-3.27,1.71,0,0-5.03-6.7-10.44-6.2-2.66.4-3.86,2.22-3.33,4.25.02.09.05.18.08.26,0,0-11.28-3.97-16.14-.62-4.86,3.36,2,6.16,2,6.16,0,0-10.73-.34-12.51,4.1-1.41,3.52,3.49,5.47,3.49,5.47,0,0-1.64.69-2.98,2.1-2.56,2.67-.55,7.24,3.15,7.11.03,0,.06,0,.09,0,.57-.02,1.59.02,1.98-.39,0,0-1.55,3.99,2.48,4.94s5.58-3.75,5.58-3.75l29.23,7.89Z"/>
  <path class="cls-14" d="M274.29,82.41c-6.86,1.99-6.09-7.5-3.89-11.82,3.76-7.5,10.75,9.83,3.89,11.82Z"/>
  <path class="cls-12" d="M286.31,130.02c7.58-1.9,13.95-7.01,17.44-13.99-2-1.11-3.67-2.73-4.84-4.71-2.64-4.52-4.5-9.45-5.47-14.6-.64-2.95-1.12-5.94-1.46-8.94l-5.47,8.76-6.08,9.58c.91,1.44,1.71,2.96,2.39,4.53,1.82,4.42,1.73,8.67-3.65,11.93-.73,3.28-.07,9.47,7.13,7.44Z"/>
  <path class="cls-3" d="M295.95,105.26s-2.77,9.48-12.43,7.42l-.69-2.04,13.12-5.38Z"/>
  <path class="cls-12" d="M301.4,74.94c-2.95-8.58-12.29-13.14-20.87-10.19-11.82,4.09-14.23,21.62-12.15,32.4,2.32,12.01,16.73,18.23,26.15,9.56,6.28-5.77,6.4-12.75,7.66-24.58.28-2.43,0-4.89-.79-7.2Z"/>
  <path class="cls-14" d="M286.6,94.46c.11-.11.11-.29,0-.4-.11-.11-.29-.11-.4,0-1.59,1.85-3.96,2.83-6.39,2.65-.05-.01-.1-.01-.14,0-.16.04-.25.2-.21.36.04.16.2.25.36.21.42.03.84.03,1.26,0,2.15-.14,4.15-1.15,5.53-2.81Z"/>
  <path class="cls-14" d="M284.92,84.98c-.11,1.35-1.08,2.32-1.97,2.19-.89-.14-1.42-1.35-1.22-2.69.2-1.34,1.1-2.32,1.97-2.19.87.14,1.42,1.32,1.22,2.69Z"/>
  <path class="cls-14" d="M273.15,83.39c-.11,1.35-1.1,2.32-1.97,2.19-.87-.14-1.42-1.35-1.22-2.69.2-1.34,1.1-2.32,1.97-2.19.87.14,1.41,1.41,1.22,2.69Z"/>
  <path class="cls-14" d="M269.54,76.72c.18.14.43.18.64.09,1.43-.66,3.09-.6,4.48.16.28.19.67.11.86-.17.19-.28.11-.67-.17-.86,0,0,0,0,0,0-1.73-1-3.83-1.1-5.64-.27-.32.13-.47.48-.35.8,0,0,0,0,0,.01.05.09.11.17.18.24Z"/>
  <path class="cls-14" d="M288.01,79.88c.12.02.25,0,.36-.07.26-.22.3-.61.08-.87,0,0,0,0,0-.01-1.27-1.54-3.22-2.37-5.21-2.22-.34.05-.57.36-.53.69h0c.05.34.36.57.7.53h0c1.58-.07,3.1.6,4.1,1.82.15.11.33.16.52.12Z"/>
  <path class="cls-14" d="M279.82,95.85c2.53-.37,4.95-1.27,7.1-2.64.16.41.26.84.3,1.28.09.78-.02,1.56-.31,2.29-.59,1.49-2.12,2.99-5.86,3.56-.27.06-.55.1-.83.12-.48-1.51-1.06-2.97-1.75-4.4,0,0,.51-.06,1.34-.21Z"/>
  <path class="cls-10" d="M286.85,93.2c.16.41.26.84.3,1.28-.93,1.24-3.33,2.09-6.85,2.66l-.55-1.29c2.53-.37,4.95-1.27,7.1-2.64Z"/>
  <path class="cls-13" d="M282.88,98.23c1.25-.72,2.61-1.21,4.03-1.45-.59,1.49-2.12,2.99-5.86,3.56.38-.88,1.02-1.61,1.83-2.1Z"/>
  <path class="cls-11" d="M276.81,83.52c-1.73,3-3.87,5.75-6.36,8.17,1.29,1.26,3.08,1.89,4.87,1.71l1.48-9.88Z"/>
  <g>
    <path class="cls-14" d="M308.01,113.78h-5.72l-4.25-4.04s-10.73,11.84-10.88,11.44c-.15-.4-3.39-7.41-3.39-7.41l-2.06,2.48-5.14.28-10.65,17.95,2.3,25.79,28.19,8.1,11.61-54.59Z"/>
    <path class="cls-5" d="M308.01,113.78h-5.72l-4.25-4.04s-10.73,11.84-10.88,11.44c-.15-.4-3.39-7.41-3.39-7.41l-2.06,2.48-5.14.28-10.65,17.95,2.3,25.79,28.19,8.1,11.61-54.59Z"/>
    <path class="cls-16" d="M283.59,128.73c-1.95,9.93-3.51,21.15-3.7,31.27,1.19,2.43,3.33,10.09,4.76,12.48,1.04-2.74,3.5-9.85,4.74-12.61-1.11-11.9-3.92-25.11-3.28-31.45l-2.52.31Z"/>
    <polygon class="cls-6" points="283.92 134.42 282.48 127.06 286.47 123.02 289.39 127 283.92 134.42"/>
    <polygon class="cls-4" points="302.29 113.78 292.13 129.53 286.47 123.02 291.35 131.24 293.27 131.24 302.29 113.78"/>
    <polygon class="cls-4" points="286.47 123.02 282.15 127.39 281.65 117.85 281.03 128.72 282.15 128.72 286.47 123.02"/>
  </g>
  <g>
    <polygon class="cls-12" points="366.81 419.86 373.15 452.5 362.77 454.24 351.13 425.51 366.81 419.86"/>
    <g>
      <path class="cls-14" d="M375.28,470l-9.09-.07s-1.83-.99-2.91-.87c-1.08.12-4.82.81-4.82.81l-23.48-.06c.2-1.01.13-1.99.41-2.78.34-.97.39-1.83.82-2.53,1.51-2.43,1.84-2.75,6.2-4.16,3.44-1.11,13.64-6.45,13.64-6.45,0,0,2.68-.23,2.92-4.34.09-1.54,2.38-3.4,3.46-3.55,2.21-.3,3.43,1.1,3.73,3.31l.11,1.56,2.66-.75s5.2-2.57,4.93-.04c-.15,1.45,2.8,7.79,2.21,12.9-.14,1.19-.27,2.32-.38,3.3h0c-.25,2.19-.42,3.7-.42,3.7Z"/>
      <g class="cls-21">
        <path class="cls-10" d="M334.98,469.81l23.48.06s3.75-.69,4.82-.81c1.08-.12,2.91.87,2.91.87l9.09.07s.17-1.51.42-3.7l-40.31.73c-.28.8-.21,1.77-.41,2.78Z"/>
      </g>
      <path class="cls-2" d="M350.75,456.49c.11-.11.29-.12.42-.03.6.4,1.09.97,1.43,1.67.18.37-.37.73-.55.35-.3-.63-.73-1.13-1.25-1.48-.17-.12-.2-.36-.05-.51,0,0,0,0,0,0Z"/>
      <path class="cls-2" d="M352.67,455.37c.11-.11.29-.12.41-.03.6.4,1.09.97,1.43,1.67.18.37-.37.73-.55.35-.3-.63-.73-1.13-1.25-1.48-.17-.12-.2-.36-.05-.51,0,0,0,0,0,0Z"/>
      <path class="cls-2" d="M354.66,454.33c.11-.11.29-.12.41-.03.6.4,1.09.97,1.43,1.67.18.37-.37.73-.55.35-.3-.63-.73-1.13-1.25-1.48-.17-.12-.2-.36-.05-.51,0,0,0,0,0,0Z"/>
    </g>
  </g>
  <g>
    <polygon class="cls-12" points="252.85 420.48 243.64 452.42 233.6 449.25 236.31 418.36 252.85 420.48"/>
    <g>
      <path class="cls-14" d="M247.19,468.96l-9.09-.07s-1.83-.99-2.91-.87c-1.08.12-4.82.81-4.82.81l-23.48-.06c.2-1.01.13-1.99.41-2.78.34-.97.39-1.83.82-2.53,1.51-2.43,1.84-2.75,6.2-4.16,3.44-1.11,13.64-6.45,13.64-6.45,0,0,2.68-.23,2.92-4.34.09-1.54,2.38-3.4,3.46-3.55,2.21-.3,3.43,1.1,3.73,3.31l.11,1.56,2.66-.75s5.2-2.57,4.93-.04c-.15,1.45,2.8,7.79,2.21,12.9-.14,1.19-.27,2.32-.38,3.3h0c-.25,2.19-.42,3.7-.42,3.7Z"/>
      <g class="cls-21">
        <path class="cls-10" d="M206.89,468.77l23.48.06s3.75-.68,4.82-.81c1.08-.12,2.91.87,2.91.87l9.09.07s.17-1.51.42-3.7l-40.31.73c-.28.8-.21,1.77-.41,2.78Z"/>
      </g>
      <path class="cls-2" d="M222.65,455.45c.11-.11.29-.12.42-.03.59.4,1.09.97,1.43,1.67.18.37-.37.73-.55.35-.3-.63-.73-1.13-1.25-1.48-.17-.12-.2-.36-.05-.51,0,0,0,0,0,0Z"/>
      <path class="cls-2" d="M224.58,454.33c.11-.11.29-.12.41-.03.6.4,1.09.97,1.43,1.67.18.37-.37.73-.55.35-.3-.63-.73-1.13-1.25-1.48-.17-.12-.2-.36-.05-.51,0,0,0,0,0,0Z"/>
      <path class="cls-2" d="M226.57,453.29c.11-.11.29-.12.41-.03.59.4,1.09.97,1.43,1.67.18.37-.37.73-.55.35-.3-.63-.73-1.13-1.25-1.48-.17-.12-.2-.36-.05-.51,0,0,0,0,0,0Z"/>
    </g>
  </g>
  <g>
    <path class="cls-14" d="M264.83,119.06s-7.39,1.64-10.84,8.77c-3.03,6.27-17.26,34.02-18,34.2-.74.18-26.57-8.4-26.57-8.4l-6.28,15.04s28.97,12.18,38.39,12.36c9.41.18,18.82-17.43,18.82-17.43l4.47-44.55Z"/>
    <path class="cls-1" d="M264.83,119.06s-7.39,1.64-10.84,8.77c-3.03,6.27-17.26,34.02-18,34.2-.74.18-26.57-8.4-26.57-8.4l-6.28,15.04s28.97,12.18,38.39,12.36c9.41.18,18.82-17.43,18.82-17.43l4.47-44.55Z"/>
  </g>
  <g>
    <path class="cls-2" d="M228.11,448.25l21.61,5.07s7.09-69.02,18.77-105.9c6.42-20.22,17.7-52.5,27.63-80.13,4.85-13.69,9.38-26.23,12.79-35.63,3.73-10.34,6.1-16.85,6.1-16.85l-38.04-17.46s-31.17,100.17-39.75,134.69c-9.42,37.8-9.11,116.21-9.11,116.21Z"/>
    <path class="cls-6" d="M228.11,448.25l21.61,5.07s7.09-69.02,18.77-105.9c6.42-20.22,17.7-52.5,27.63-80.13,4.85-13.69,9.38-26.23,12.79-35.63,3.73-10.34,6.1-16.85,6.1-16.85l-38.04-17.46s-31.17,100.17-39.75,134.69c-9.42,37.8-9.11,116.21-9.11,116.21Z"/>
    <path class="cls-4" d="M296.06,267.31c4.85-13.69,9.38-26.23,12.79-35.63-2.62.07-5.13,1.01-7.16,2.66-4.75,10.3-6.69,21.67-5.62,32.97Z"/>
    <path class="cls-2" d="M292.21,202.71s14.2,103.95,21.19,138.82c7.53,38.22,41.05,109.09,41.05,109.09l21.71-4.56s-22.83-65.5-27.88-103.88c-5.65-42.88-14.13-139.85-14.13-139.85l-41.94.38Z"/>
    <path class="cls-16" d="M292.21,202.71s14.2,103.95,21.19,138.82c7.53,38.22,41.05,109.09,41.05,109.09l21.71-4.56s-22.83-65.5-27.88-103.88c-5.65-42.88-14.13-139.85-14.13-139.85l-41.94.38Z"/>
  </g>
  <g>
    <path class="cls-14" d="M348.34,242.18l-51.76,2.02-7.83-18.64-7.3,21.4-19.84-4.41,8.23-44.46c-6.35-53.45-5.01-79.04-5.01-79.04,13.12-3.03,14.12-2.86,14.12-2.86-11.86,18.16,5.7,56.28,5.7,56.28,10.64-29.85,23.35-58.7,23.35-58.7,8.03.32,15.93,2.19,23.26,5.51,0,0-2.15,61.09,3.98,78.38,6.13,17.3,13.09,44.51,13.09,44.51Z"/>
    <path class="cls-18" d="M348.34,242.18l-51.76,2.02-7.83-18.64-7.3,21.4-19.84-4.41,8.23-44.46c-6.35-53.45-5.01-79.04-5.01-79.04,13.12-3.03,14.12-2.86,14.12-2.86-11.86,18.16,5.7,56.28,5.7,56.28,10.64-29.85,23.35-58.7,23.35-58.7,8.03.32,15.93,2.19,23.26,5.51,0,0-2.15,61.09,3.98,78.38,6.13,17.3,13.09,44.51,13.09,44.51Z"/>
    <path class="cls-15" d="M287.65,219.61c.35.05,6.27-.36,10.84-4.47,4.57-4.11,8.79-7.41,8.79-7.41l29.35-6.02-2.08-6.49-31.37,7.11-16.23,17.28"/>
    <path class="cls-14" d="M278.95,116.19l-2.39.34s-8.31,10.86-7.38,17.89c0,0,1.75,4.39,3.3,5.42l-2.48,2.01,9.2,15.96s-3.53-15.76-3.43-24.52c.1-8.77,3.17-17.1,3.17-17.1Z"/>
    <path class="cls-14" d="M311.51,114.01s2.38,18.85-1.06,22.13c-3.44,3.28-7.92,3.35-7.92,3.35l4.96,3.68-22.85,29.3s9.26-24.78,12.12-31.83c2.86-7.05,10.56-26.86,10.56-26.86l4.18.23Z"/>
    <path class="cls-15" d="M324.41,145.07s.38,16.88,7.1,26.69c-.53-9.12-.68-19.05-.68-27.7-2.19-.47-4.48-.11-6.42,1Z"/>
  </g>
  <g class="cls-19">
    <path class="cls-7" d="M266.89,163.64s0,0-.01,0c.07,0,.14-.02.2-.03l-.19.02Z"/>
  </g>
  <g>
    <g id="freepik--device-1--inject-2">
      <path class="cls-14" d="M318.22,346.21l-106.06,32.56c-11.93,3.65-24.56-3.05-28.85-14.62L105.49,110.65c-3.04-12.28,3.66-24.91,15.59-28.58l106.06-32.56c11.93-3.65,24.56,3.05,28.23,14.97l77.82,253.49c3.65,11.93-3.05,24.56-14.97,28.23Z"/>
      <path class="cls-10" d="M228.65,54.47l-27.56,8.46c-1.79.54-2.91,2.33-2.61,4.17l.15.9c.76,4.54-1.95,8.95-6.34,10.32l-26.2,8.04c-4.41,1.33-9.12-.8-11.04-4.98l-.37-.83c-.79-1.72-2.72-2.59-4.53-2.03l-27.56,8.46c-9.2,2.79-14.4,12.51-11.61,21.71.01.03.02.07.03.1l77.82,253.49c2.82,9.19,12.56,14.35,21.75,11.53l106.06-32.56c9.19-2.82,14.36-12.56,11.54-21.75l-77.82-253.5c-2.82-9.17-12.52-14.33-21.7-11.54Z"/>
      <g class="cls-20">
        <path class="cls-7" d="M170.07,75.53c.37,1.17-.28,2.41-1.45,2.77-1.17.37-2.41-.28-2.77-1.45-.37-1.17.28-2.41,1.45-2.77,0,0,.02,0,.03,0,1.16-.36,2.39.3,2.74,1.46Z"/>
        <path class="cls-7" d="M184.36,68.84l-7.23,2.22c-1.16.36-1.81,1.58-1.46,2.74.36,1.16,1.58,1.81,2.74,1.46l7.23-2.22c1.16-.36,1.81-1.58,1.46-2.74-.36-1.16-1.58-1.81-2.74-1.46Z"/>
      </g>
      <rect class="cls-2" x="120.67" y="97.57" width="2.33" height="2.34" transform="translate(-23.61 40.11) rotate(-17.07)"/>
      <polygon class="cls-2" points="124.83 96.6 125.51 98.83 127.75 98.15 127.06 95.92 126.37 93.68 124.14 94.37 124.83 96.6"/>
      <polygon class="cls-2" points="127.93 90.78 128.61 93 129.29 95.23 129.98 97.46 132.21 96.78 131.52 94.54 130.84 92.31 130.16 90.1 127.93 90.78"/>
      <path class="cls-2" d="M223.88,61.48l.5,1.63-1.09.33,1.01,3.27,1.09-.33.5,1.63,9.87-3.03-2.01-6.53-9.87,3.03ZM229.79,65.04l-3.35,1.03-1.01-3.27,3.27-1.01,1.08,3.25Z"/>
    </g>
    <path class="cls-17" d="M174.17,314.52c-.78-2.56-1.82-38.59,7.62-79.7,9.44-41.11,46.97-35.21,59.4-80.97,12.43-45.76-9.78-100.28-9.78-100.28l-28.17,8.65s19.66,78.22-6.13,90.53c-36.42,17.39-45.96,86.81-45.96,86.81l23.01,74.95Z"/>
    <path class="cls-17" d="M210.87,374.21l16.64-5.11s51.84-159.86,58.26-187.72l-7.83-25.5c-3.5,33.43-67.07,218.33-67.07,218.33Z"/>
  </g>
  <g>
    <g>
      <path class="cls-12" d="M277.49,212.86s-2.31,1.07-1.76-1.23c.54-2.3,11.78-12.2,12.36-13.8.58-1.6-1.94-1.95-4.17-2.24-2.23-.29-6.1-1.61-3.18-2.73,2.92-1.12,6.4-1.08,10.41-2.32,2.9-.9,5.96.05,7.42.64l9.53-1.93,5.4,12.21-8.84.72c-.47,1.56-1.46,3.11-2.87,4.78-2.38,2.83-8.11,7.22-10.7,9.77-2.82,2.79-6.48,5.29-6.75,3.34-.27-1.95,5.31-6.22,5.31-6.22-.62.07-10.06,7.77-11.27,6.83-.85-.66-.96-1.94.33-3.38.99-1.1,8.39-7.55,8.76-7.82,0,0-6.33,4.8-9.45,6.94-1.39.95-2.35.5-2.52.17-.67-1.25,2-3.72,2-3.72Z"/>
      <path class="cls-14" d="M325.99,117.1c5.52,1.37,7.65,1.83,13.32,11.27,4.65,7.74,21.05,46.98,22.03,50.77,1.49,5.78-3.08,11.26-7.28,12.96-15.56,6.31-45.49,12.9-45.49,12.9l-7.7-17.11s34.25-12.17,35.6-12.27l-15.92-34.16,5.44-24.36Z"/>
      <path class="cls-18" d="M325.99,117.1c5.52,1.37,7.65,1.83,13.32,11.27,4.65,7.74,21.05,46.98,22.03,50.77,1.49,5.78-3.08,11.26-7.28,12.96-15.56,6.31-45.49,12.9-45.49,12.9l-7.7-17.11s34.25-12.17,35.6-12.27l-15.92-34.16,5.44-24.36Z"/>
    </g>
    <path class="cls-14" d="M322.37,141.6c-1.42-7.37,1.49-15.2,7.32-19.9.38-.3-.16-.83-.53-.53-6.05,4.88-8.98,13.01-7.51,20.63.09.47.81.27.72-.2h0Z"/>
    <path class="cls-15" d="M336.46,175.61s4.8,1.44,6.38,4.76l-10.31-3.54,3.92-1.22Z"/>
    <path class="cls-14" d="M301.32,188.24c11.89-4.19,23.77-8.37,35.66-12.56.45-.16.26-.88-.2-.72-11.89,4.19-23.77,8.37-35.66,12.56-.45.16-.26.88.2.72h0Z"/>
  </g>
  <g>
    <path class="cls-12" d="M165.74,69.48s2.41,9.7.94,11.57c-1.48,1.87-2.86-1.24-2.86-1.24,0,0,1.31,3.52-.11,4.27-1.7.91-3.13-2.36-3.13-2.36,0,0,.95,2.91-.36,3.5-1.35.61-3.23-2.96-3.23-2.96,0,0,.28,2.18-.86,2.07-1.14-.11-5.23-7.6-4.97-10.58.27-2.97,8.61-7.58,12.13-8.2,2.41-.42,5.71.04,7.01,2.04l-4.56,1.88h0Z"/>
    <path class="cls-8" d="M163.61,79.91s0,0,0-.01l-1.98-6.24c-.03-.08.03-.18.12-.21.09-.03.19.01.22.09l1.98,6.24c.03.08-.03.18-.12.21-.09.03-.18,0-.21-.08Z"/>
    <path class="cls-8" d="M160.37,81.75s0,0,0,0l-2.38-5.84c-.03-.08.01-.18.11-.22.09-.04.17,0,.23.08l2.38,5.84c.03.08-.01.18-.11.22-.09.04-.19,0-.23-.07Z"/>
    <path class="cls-8" d="M156.76,82.24l-1.89-4.29c-.04-.08,0-.18.1-.22.09-.04.19,0,.23.07l1.89,4.29c.04.08,0,.18-.1.22-.09.04-.19,0-.23-.07Z"/>
  </g>
  <path class="cls-14" d="M302.74,66.48c-.3-.77-.63-1.55-1.19-2.14-.59-.63-1.4-1.02-2.21-1.33-3.69-1.44-7.78-1.72-11.71-1.17-3.93.55-7.71,1.9-11.29,3.6-2.16,1.02-4.29,2.2-5.97,3.89-1.69,1.69-2.9,3.98-2.87,6.36,0,.19.02.4.14.56.22.29.67.25,1.02.16,2.41-.62,4.57-2.16,5.94-4.24.34-.51.63-1.19.3-1.71,4.3.81,8.76.77,13.04-.13-.84,1.08-.63,2.76.32,3.74.95.98,2.49,1.27,3.8.89,0,1.75.08,3.61,1.05,5.07.65.98,1.97,1.72,2.98,1.12-.14,1.11-.22,2.23-.24,3.35-.02,1.08.04,2.22.62,3.12.62.98,1.74,1.5,2.79,1.98l6.2-8.44c.02-5.01-.9-10.02-2.7-14.69Z"/>
  <path class="cls-12" d="M308.59,92.05c-1.24,3.03-3.63,5.44-6.64,6.7-4,1.65-6.51-1.81-5.84-5.86.63-3.59,3.45-8.9,7.69-8.78,4.24.11,6.27,4.21,4.8,7.94Z"/>
  <path class="cls-22" d="M298.96,93.58c.21-2.2,1.43-4.29,3.26-5.53.78-.53,1.86-.9,2.62-.34"/>
  <g>
    <path class="cls-16" d="M226.85,157.73c.08.75.21,1.52.22,2.28.01.8-.06,1.6-.15,2.39-.08.65-.69,1.06-1.47,1.05-.84,0-1.56-.63-1.57-1.37-.01-.58-.01-1.16-.04-1.74-.06-1.35-.29-2.66-1.07-3.81-.43-.63-.94-1.19-1.53-1.67-.41-.33-.72-.73-.83-1.25-.23-1.02.48-1.89,1.6-1.96,1.05-.07,1.98.28,2.86.78,1.68.95,3.03,2.28,4.28,3.72.48.55.91,1.14,1.38,1.71.12.14.23.29.38.4.42.35.85.2.95-.34.06-.32.08-.67.04-.99-.12-1.01-.53-1.93-1.02-2.81-.81-1.46-1.8-2.77-3.1-3.84-.52-.43-1.09-.77-1.72-1-.97-.35-1.34-1.39-.87-2.4.44-.95,1.43-1.31,2.36-.85,1.76.87,3.15,2.16,4.36,3.67,1.64,2.04,2.85,4.31,3.53,6.85.31,1.17.48,2.37.28,3.58-.18,1.09-.65,2-1.67,2.55-.67.36-1.34.38-2.02.03-.82-.42-1.49-1.03-2.11-1.69-.96-1.02-1.9-2.05-2.85-3.08-.08-.08-.16-.16-.21-.21Z"/>
    <g>
      <path class="cls-16" d="M241.02,162.24c-.07.46-.12.92-.21,1.38-.16.77-.99,1.42-1.76,1.39-.95-.04-1.69-.88-1.62-1.87.02-.36.1-.73.15-1.09.7-4.92-.68-9.24-3.83-13.04-1.39-1.67-2.96-3.13-4.71-4.4-1.25-.91-.86-2.53.2-3.04.62-.3,1.22-.22,1.78.18,2.25,1.62,4.19,3.56,5.8,5.83,1.82,2.57,3.11,5.38,3.79,8.46.45,2.06.59,4.13.41,6.22Z"/>
      <path class="cls-16" d="M247.42,158.88c.1.49.22.98.29,1.48.13.84-.44,1.8-1.17,2.04-.91.3-1.91-.3-2.2-1.33-.11-.38-.17-.77-.25-1.16-1.09-5.27-3.94-9.18-8.28-11.94-1.91-1.21-3.92-2.15-6.03-2.82-1.51-.48-1.71-2.28-.89-3.18.48-.53,1.08-.66,1.75-.45,2.71.85,5.24,2.14,7.58,3.88,2.64,1.97,4.87,4.38,6.61,7.28,1.16,1.93,2.03,4,2.6,6.2Z"/>
      <path class="cls-16" d="M248.45,159.79c-.11.49-.21.99-.35,1.47-.24.82-1.2,1.44-2.03,1.34-1.02-.13-1.75-1.11-1.59-2.17.06-.39.17-.78.26-1.16,1.2-5.25.08-10.04-3.01-14.43-1.36-1.93-2.94-3.65-4.72-5.18-1.27-1.09-.71-2.81.49-3.27.7-.27,1.34-.13,1.91.36,2.3,1.95,4.23,4.22,5.78,6.82,1.75,2.94,2.9,6.09,3.37,9.48.31,2.26.27,4.51-.11,6.76Z"/>
    </g>
    <path class="cls-18" d="M219.28,156.72c1.39.15,2.42,1.47,2.26,2.91-.15,1.31-1.28,2.25-2.56,2.11-1.39-.15-2.43-1.46-2.28-2.87.14-1.35,1.28-2.29,2.58-2.15Z"/>
  </g>
  <rect class="cls-9" x="151.13" y="167.74" width="50.55" height="8.55" rx="3.11" ry="3.11" transform="translate(-43.44 60.75) rotate(-17.43)"/>
  <rect class="cls-9" x="154.13" y="178.74" width="50.55" height="8.55" rx="3.11" ry="3.11" transform="translate(-46.59 62.16) rotate(-17.43)"/>
  <rect class="cls-9" x="157.13" y="182.15" width="113.67" height="8.55" rx="3.11" ry="3.11" transform="translate(-46.03 72.67) rotate(-17.43)"/>
  <rect class="cls-9" x="160.68" y="196.29" width="113.67" height="8.55" rx="3.11" ry="3.11" transform="translate(-50.1 74.38) rotate(-17.43)"/>
  <rect class="cls-9" x="165.13" y="211.15" width="113.67" height="8.55" rx="3.11" ry="3.11" transform="translate(-54.35 76.4) rotate(-17.43)"/>
  <rect class="cls-9" x="168.81" y="226.17" width="107.76" height="8.55" rx="3.11" ry="3.11" transform="translate(-58.81 77.31) rotate(-17.43)"/>
</svg>