<?xml version="1.0" encoding="UTF-8"?>
<svg id="BACKGROUND" xmlns="http://www.w3.org/2000/svg" viewBox="0 0 500 500">
  <defs>
    <style>
      .cls-1 {
        fill: #945959;
      }

      .cls-1, .cls-2, .cls-3, .cls-4, .cls-5, .cls-6, .cls-7, .cls-8, .cls-9, .cls-10, .cls-11, .cls-12, .cls-13, .cls-14, .cls-15, .cls-16, .cls-17, .cls-18, .cls-19, .cls-20, .cls-21, .cls-22, .cls-23, .cls-24, .cls-25, .cls-26 {
        stroke-width: 0px;
      }

      .cls-2 {
        opacity: .4;
      }

      .cls-27, .cls-11, .cls-23 {
        opacity: .2;
      }

      .cls-4, .cls-28, .cls-24 {
        opacity: .3;
      }

      .cls-5 {
        fill: #37474f;
      }

      .cls-6 {
        fill: #e0e0e0;
      }

      .cls-7 {
        opacity: .5;
      }

      .cls-7, .cls-13, .cls-15, .cls-23, .cls-24 {
        fill: #fff;
      }

      .cls-8 {
        opacity: .7;
      }

      .cls-9 {
        fill: #f5f5f5;
      }

      .cls-10 {
        fill: #f0f0f0;
      }

      .cls-12 {
        fill: #ffa8a7;
      }

      .cls-14, .cls-15 {
        opacity: .6;
      }

      .cls-16 {
        fill: #fafafa;
      }

      .cls-17 {
        fill: #f28f8f;
      }

      .cls-18 {
        fill: #263238;
      }

      .cls-19 {
        fill: #703838;
      }

      .cls-20 {
        fill: #ebebeb;
      }

      .cls-21 {
        fill: #455a64;
      }

      .cls-22 {
        fill: #6767aa;
      }

      .cls-25 {
        fill: #3f3f6b;
      }

      .cls-26 {
        fill: #ba68c8;
      }
    </style>
  </defs>
  <g>
    <g>
      <path class="cls-22" d="M237.41,295.67c-10.09,5.83-26.45,5.83-36.54,0-10.09-5.83-10.09-15.27,0-21.1s26.45-5.83,36.54,0c10.09,5.83,10.09,15.27,0,21.1Z"/>
      <path class="cls-2" d="M237.41,295.67c-10.09,5.83-26.45,5.83-36.54,0-10.09-5.83-10.09-15.27,0-21.1s26.45-5.83,36.54,0c10.09,5.83,10.09,15.27,0,21.1Z"/>
      <path class="cls-22" d="M237.41,295.67c-10.09,5.83-26.45,5.83-36.54,0-5.04-2.91-7.57-6.73-7.57-10.55h0v3.13h0c.1,3.74,2.61,7.47,7.56,10.33,10.09,5.83,26.45,5.83,36.54,0,5.16-2.98,7.68-6.91,7.56-10.82v-2.38c-.12,3.73-2.63,7.44-7.56,10.28Z"/>
      <path class="cls-14" d="M237.41,295.67c-10.09,5.83-26.45,5.83-36.54,0-5.04-2.91-7.57-6.73-7.57-10.55h0v3.13h0c.1,3.74,2.61,7.47,7.56,10.33,10.09,5.83,26.45,5.83,36.54,0,5.16-2.98,7.68-6.91,7.56-10.82v-2.38c-.12,3.73-2.63,7.44-7.56,10.28Z"/>
    </g>
    <path class="cls-22" d="M215.66,188.05v95.17c0,4.48,6.96,4.49,6.96,0v-95.17c0-4.48-6.96-4.49-6.96,0h0Z"/>
    <g>
      <path class="cls-22" d="M211.04,173.45v21.16h0c0,1.2.79,2.4,2.37,3.31,3.17,1.83,8.3,1.83,11.46,0,1.58-.91,2.37-2.11,2.37-3.31v-21.16h-16.21Z"/>
      <path class="cls-8" d="M211.04,173.45v21.16h0c0,1.2.79,2.4,2.37,3.31,3.17,1.83,8.3,1.83,11.46,0,1.58-.91,2.37-2.11,2.37-3.31v-21.16h-16.21Z"/>
    </g>
    <g>
      <ellipse class="cls-22" cx="219.14" cy="146.82" rx="47.45" ry="27.4"/>
      <ellipse class="cls-2" cx="219.14" cy="146.82" rx="47.45" ry="27.4"/>
      <path class="cls-22" d="M252.7,166.19c-18.53,10.7-48.58,10.7-67.11,0-9.27-5.35-13.9-12.36-13.9-19.37h0v5.75h.02c.17,6.88,4.79,13.72,13.88,18.97,18.53,10.7,48.58,10.7,67.11,0,9.48-5.47,14.1-12.69,13.88-19.87v-4.36c-.21,6.85-4.83,13.66-13.88,18.88Z"/>
      <path class="cls-14" d="M252.7,166.19c-18.53,10.7-48.58,10.7-67.11,0-9.27-5.35-13.9-12.36-13.9-19.37h0v5.75h.02c.17,6.88,4.79,13.72,13.88,18.97,18.53,10.7,48.58,10.7,67.11,0,9.48-5.47,14.1-12.69,13.88-19.87v-4.36c-.21,6.85-4.83,13.66-13.88,18.88Z"/>
    </g>
  </g>
  <g>
    <g>
      <path class="cls-26" d="M94.92,333.89s-14.56-14.22-6.27-38.03c4.64-13.35,20.03-23.15,28.79-24.07,0,0-4.75,5.48-6.85,11.55l-11.04,7.34,10.14-3.18-2.16,8.68s-9.44,5.71-10.83,6.95l10.17-2.66s-.78,24.58-11.96,33.42Z"/>
      <path class="cls-2" d="M94.92,333.89s-14.56-14.22-6.27-38.03c4.64-13.35,20.03-23.15,28.79-24.07,0,0-4.75,5.48-6.85,11.55l-11.04,7.34,10.14-3.18-2.16,8.68s-9.44,5.71-10.83,6.95l10.17-2.66s-.78,24.58-11.96,33.42Z"/>
      <path class="cls-13" d="M94.92,333.89s-7.54-29.75,3.61-47.1c0,0-13.07,15.31-3.61,47.1Z"/>
    </g>
    <path class="cls-5" d="M111.58,337.91l-17.81-.22h0s-.09,0-.09,0h-.09s0,0,0,0l-17.81.22s-.2,21.94,6.56,30.87h0c1.87,2.37,6.24,4.04,11.34,4.04s9.49-1.67,11.35-4.05c6.75-8.94,6.55-30.86,6.55-30.86Z"/>
    <ellipse class="cls-21" cx="93.67" cy="337.91" rx="17.9" ry="9.61"/>
    <g>
      <path class="cls-18" d="M93.67,335.36c6.16,0,11.38,1.98,13.21,4.71.46-.68.71-1.41.71-2.16,0-3.8-6.24-6.87-13.93-6.87s-13.93,3.08-13.93,6.87c0,.76.26,1.48.71,2.16,1.84-2.74,7.05-4.71,13.21-4.71Z"/>
      <path class="cls-6" d="M93.67,335.36c-6.16,0-11.38,1.98-13.21,4.71,1.84,2.74,7.05,4.71,13.21,4.71s11.38-1.98,13.21-4.71c-1.84-2.74-7.05-4.71-13.21-4.71Z"/>
    </g>
    <g>
      <path class="cls-26" d="M93.89,341.26s-6.9-.27-12.82-9.43c-2.44-3.78-3.62-5.76-3.62-5.76l9.61-.72-10.77-2.69-5.09-7.79,8.95-.66s-6.66-2.33-11.42-2.36c0,0-8.25-14.57-10.66-16.65,0,0,19.02.16,32.58,16.19,13.56,16.03,5.25,30.29,3.23,29.88Z"/>
      <path class="cls-13" d="M93.89,341.26s4.32-25.99-23.23-41.63c0,0,28.58,13.73,23.23,41.63Z"/>
    </g>
    <g>
      <path class="cls-26" d="M93.89,341.26s6.25.41,12.45-7.3c2.56-3.18,3.81-4.86,3.81-4.86l-8.61-1.55,9.97-1.42,5.33-6.55-8.01-1.44s6.23-1.48,10.53-1.06c0,0,8.81-12.37,11.19-14.02,0,0-17.18-1.65-30.92,11.54-13.74,13.19-7.59,26.83-5.73,26.65Z"/>
      <path class="cls-11" d="M93.89,341.26s6.25.41,12.45-7.3c2.56-3.18,3.81-4.86,3.81-4.86l-8.61-1.55,9.97-1.42,5.33-6.55-8.01-1.44s6.23-1.48,10.53-1.06c0,0,8.81-12.37,11.19-14.02,0,0-17.18-1.65-30.92,11.54-13.74,13.19-7.59,26.83-5.73,26.65Z"/>
      <path class="cls-13" d="M93.89,341.26s-1.45-23.86,24.87-35.37c0,0-27.08,9.7-24.87,35.37Z"/>
    </g>
  </g>
  <g>
    <g>
      <path class="cls-18" d="M298,316.18s-1.78.96-2.11,4.78c-.33,3.82-3.76,10.89,4.39,11.17,8.15.28,7.02.72,10.34,2.05,3.32,1.34,10.51,4.34,16.23.3,5.72-4.04-.88-6.19-3.26-7-2.38-.81-8.49-3.15-11.96-5.84-3.48-2.69-4.02-3.54-4.02-3.54l-9.6-1.92Z"/>
      <path class="cls-18" d="M271.74,325.65s-1.4.4-1.47,3.21-2.27,7.03.73,9.55c3,2.52,3.45,2.21,5.27,6.08,1.82,3.87,6.01,9.12,14.73,7.19,8.72-1.93,3.23-7.17,2.48-7.94-.75-.77-9.26-9.21-10.19-11.96-.93-2.75-1.91-4.45-1.91-4.45l-9.65-1.68Z"/>
      <path class="cls-1" d="M271.69,322.18v5.15s.62,2.42,5.4,2.42c2.57,0,4.25-1.53,4.29-2.42v-5.65l-9.69.51Z"/>
      <path class="cls-1" d="M297.91,312.96v5.15s.62,2.42,5.4,2.42c2.57,0,4.25-1.53,4.29-2.42v-5.65l-9.69.51Z"/>
      <path class="cls-22" d="M312.53,192.72l3.69,59.52c.17,2.81.07,5.62-.32,8.41l-7.59,55.08s-6.1,2.71-11.26-1.57l-2.96-44.03c-.25-3.71.26-7.43,1.49-10.94l1.17-3.33-10.65-59,26.43-4.13Z"/>
      <path class="cls-25" d="M305.23,208.3s-1.8,7.04-10.8,11.39l-1.81,13.27-3.9-21.6,16.51-3.05Z"/>
      <path class="cls-22" d="M308.16,195.13s1.26,11.28-7.44,18.57c-4.43,3.71-8.53,4.15-8.53,4.15l-2.88,41.84-7.02,65.37s-4.22,3.53-12.03,0l-3.69-48.99c-.41-5.5.58-11.02,2.9-16.02l.16-.35s-2.93-27.41-2.1-65.42l40.63.86Z"/>
    </g>
    <g>
      <path class="cls-1" d="M320.07,151.84l3.16,6.27s14.16,5.02,22.53,4.84l3.63,8.8s-10.32.86-20.16.22c-9.85-.63-11.32-.88-14.22-4.63-2.91-3.75-7.24-10.61-7.24-10.61l12.32-4.89Z"/>
      <path class="cls-1" d="M345.75,162.94s1.24-.83,2.12-1.78c.88-.94,1.4-1.9,5.08-2.81,2.37-.58,2.82-2.45,4.1-1.82,1.29.63-.93,4.82-3.47,5.52,0,0,3.25.37,5.4-.73,2.15-1.09,5.53-2.58,6.89-2.11,1.36.47,1.55,8-3.38,10.83-4.93,2.84-15.1,1.5-15.1,1.5l-1.63-8.61Z"/>
    </g>
    <path class="cls-26" d="M298.03,123.62h0c4.55-.91,9.17,1.27,11.36,5.36l11.96,22.39s-3.21,6.83-13.6,7.17l-9.72-34.93Z"/>
    <path class="cls-23" d="M298.03,123.62h0c4.55-.91,9.17,1.27,11.36,5.36l11.96,22.39s-3.21,6.83-13.6,7.17l-9.72-34.93Z"/>
    <path class="cls-1" d="M268.05,162.91l-3.58,9.2-3.75,31.12-9.02,2.85s-.76-18.72-.38-31.31c.1-3.37.73-6.69,1.86-9.87l2.52-7.09,12.35,5.08Z"/>
    <path class="cls-26" d="M281.1,126.81l-11.36,3.26-2.2,31.73v32.47s7.07,6.12,23.83,6.12c12.39,0,21.17-7.66,21.17-7.66v-40.89c0-3.66,1.45-24.63-14.5-28.21l-2.73.54-14.2,2.65Z"/>
    <path class="cls-7" d="M281.1,126.81l-11.36,3.26-2.2,31.73v32.47s7.07,6.12,23.83,6.12c12.39,0,21.17-7.66,21.17-7.66v-40.89c0-3.66,1.45-24.63-14.5-28.21l-2.73.54-14.2,2.65Z"/>
    <path class="cls-26" d="M276.17,128.22s3.79,3.75,1.06,14.27c-2.73,10.52-8.11,23.43-8.11,23.43,0,0-9.1,2.17-15.42-5.67l8.07-22.34c1.41-3.9,4.6-6.88,8.58-8.03l5.81-1.67Z"/>
    <path class="cls-23" d="M276.17,128.22s3.79,3.75,1.06,14.27c-2.73,10.52-8.11,23.43-8.11,23.43,0,0-9.1,2.17-15.42-5.67l8.07-22.34c1.41-3.9,4.6-6.88,8.58-8.03l5.81-1.67Z"/>
    <path class="cls-1" d="M260.72,203.23s.75,1.29,1.63,2.23c.88.94,1.81,1.52,2.47,5.25.43,2.4,2.26,2.97,1.56,4.21-.71,1.24-4.75-1.23-5.29-3.82,0,0-.57,3.22.38,5.43.95,2.21,2.21,5.68,1.66,7.01-.55,1.33-8.08,1.03-10.59-4.07-2.51-5.1-.52-15.17-.52-15.17l8.7-1.07Z"/>
    <g>
      <path class="cls-18" d="M308.36,86.89s2.66,2.72,2.66,9.84-5.92,13.32-5.92,13.32v-22.82l3.27-.34Z"/>
      <path class="cls-18" d="M308.36,88.75s3.72-1.88,4.1-6.43c.38-4.55-2.3-2.92-3.22-2.53-.93.4-3.67,1.4-3.67,1.4,0,0,2.54-2.64,1.03-4.4-1.12-1.3-6.5,2.8-13.31,3.6-6.81.8-13.34.74-15.26,6.83,0,0-6.58,1.32-5,12.85,1.58,11.53,6.01,18.18,8.08,18.08l27.26-29.42Z"/>
      <g>
        <path class="cls-1" d="M281.1,126.81l5.93,3.76c2.68,1.7,6.08,1.77,8.83.18h0c2.29-1.32,2.4-4.59.21-6.07l-.77-.52v-16.4h-14.2v19.05Z"/>
        <path class="cls-19" d="M295.3,124.16c-3.8-.33-11.04-3.62-13.04-11.62v-4.78h13.04v16.4Z"/>
        <path class="cls-1" d="M298.61,84.49s13.51.51,11.07,22.27c-1.15,10.23-1.99,15.89-10.74,15.89s-21.67-6.6-20.84-24.16c.83-17.56,20.51-13.99,20.51-13.99Z"/>
        <polygon class="cls-19" points="299.97 102.42 299.97 110.05 304.44 108.68 299.97 102.42"/>
        <g>
          <path class="cls-18" d="M293.44,103.74c0,.86.7,1.55,1.55,1.55s1.55-.7,1.55-1.55-.7-1.55-1.55-1.55-1.55.7-1.55,1.55Z"/>
          <path class="cls-18" d="M303.67,102.66c0,.86.7,1.56,1.55,1.56s1.55-.7,1.55-1.56-.7-1.55-1.55-1.55-1.55.7-1.55,1.55Z"/>
          <path class="cls-18" d="M307.12,99.42l-3.04-1.81s1.17-1.21,2.33-.48c1.16.73.71,2.29.71,2.29Z"/>
          <path class="cls-18" d="M294.19,98.89l-2.74,2.23s-.74-1.51.35-2.35c1.08-.84,2.4.12,2.4.12Z"/>
        </g>
        <path class="cls-19" d="M299.26,113.68s-5.55-1.43-4.19-1.12c0,0-.29,2.21,1.56,2.63,1.85.42,2.63-1.51,2.63-1.51Z"/>
        <path class="cls-18" d="M308.36,88.75s-4.31,4.04-15.36,3.21c-11.06-.83-10.09,2.23-8.89,7.4.83,3.57.9,13.03-1.85,8.39h-5.47v-10.93c0-7.72,6.25-13.97,13.97-13.97h11.31l6.29,5.89Z"/>
        <path class="cls-1" d="M282.39,107.2s-.55-5.23-4.19-5.33c-3.99-.11-4.53,3.73-4.47,5.1.14,3.59,3.05,7.47,8.46,7.62l.2-7.38Z"/>
      </g>
      <path class="cls-18" d="M278.03,87.24s-2.8-3.71-1-5.25c1.8-1.54,2.63,4.84,2.63,4.84l-1.63.42Z"/>
      <path class="cls-18" d="M278.26,88.46s-4.65-.06-4.76-2.43c-.11-2.36,5.43.89,5.43.89l-.67,1.54Z"/>
    </g>
  </g>
  <g>
    <g>
      <g>
        <ellipse class="cls-22" cx="340.84" cy="351.84" rx="25.84" ry="14.92"/>
        <ellipse class="cls-2" cx="340.84" cy="351.84" rx="25.84" ry="14.92"/>
        <path class="cls-22" d="M359.11,362.39c-10.09,5.83-26.45,5.83-36.54,0-5.05-2.91-7.57-6.73-7.57-10.55h0v3.13h0c.1,3.74,2.61,7.47,7.56,10.33,10.09,5.83,26.45,5.83,36.54,0,5.16-2.98,7.68-6.91,7.56-10.82v-2.38c-.12,3.73-2.63,7.44-7.56,10.28Z"/>
        <path class="cls-14" d="M359.11,362.39c-10.09,5.83-26.45,5.83-36.54,0-5.05-2.91-7.57-6.73-7.57-10.55h0v3.13h0c.1,3.74,2.61,7.47,7.56,10.33,10.09,5.83,26.45,5.83,36.54,0,5.16-2.98,7.68-6.91,7.56-10.82v-2.38c-.12,3.73-2.63,7.44-7.56,10.28Z"/>
      </g>
      <path class="cls-22" d="M337.36,254.77v95.17c0,4.48,6.96,4.49,6.96,0v-95.17c0-4.48-6.96-4.49-6.96,0h0Z"/>
      <g>
        <path class="cls-22" d="M332.73,240.17v21.16h0c0,1.2.79,2.4,2.37,3.31,3.17,1.83,8.3,1.83,11.46,0,1.58-.91,2.37-2.11,2.37-3.31v-21.16h-16.21Z"/>
        <path class="cls-8" d="M332.73,240.17v21.16h0c0,1.2.79,2.4,2.37,3.31,3.17,1.83,8.3,1.83,11.46,0,1.58-.91,2.37-2.11,2.37-3.31v-21.16h-16.21Z"/>
      </g>
      <g>
        <ellipse class="cls-22" cx="340.84" cy="213.53" rx="47.45" ry="27.4"/>
        <ellipse class="cls-2" cx="340.84" cy="213.53" rx="47.45" ry="27.4"/>
        <path class="cls-22" d="M374.39,232.91c-18.53,10.7-48.58,10.7-67.11,0-9.27-5.35-13.9-12.36-13.9-19.37h0v5.75h.02c.17,6.88,4.79,13.72,13.88,18.97,18.53,10.7,48.58,10.7,67.11,0,9.48-5.48,14.1-12.69,13.88-19.87v-4.36c-.21,6.85-4.83,13.66-13.88,18.88Z"/>
        <path class="cls-14" d="M374.39,232.91c-18.53,10.7-48.58,10.7-67.11,0-9.27-5.35-13.9-12.36-13.9-19.37h0v5.75h.02c.17,6.88,4.79,13.72,13.88,18.97,18.53,10.7,48.58,10.7,67.11,0,9.48-5.48,14.1-12.69,13.88-19.87v-4.36c-.21,6.85-4.83,13.66-13.88,18.88Z"/>
      </g>
    </g>
    <g>
      <path class="cls-22" d="M328.77,184.22h-21.32l1.91,22.57h0c.11,1.2.95,2.39,2.54,3.3,3.42,1.98,8.97,1.98,12.39,0,1.59-.92,2.43-2.1,2.54-3.3h0l1.91-22.57Z"/>
      <g>
        <path class="cls-6" d="M330.13,182.99v-1.79h-.42c-.53-1.14-1.55-2.21-3.1-3.11-4.7-2.71-12.31-2.71-17.01,0-1.55.89-2.57,1.97-3.1,3.11h-.42v1.8c0,1.78,1.17,3.55,3.52,4.91,4.7,2.71,12.31,2.71,17.01,0,2.35-1.36,3.53-3.14,3.52-4.92Z"/>
        <path class="cls-20" d="M326.61,186.22c-4.7,2.71-12.31,2.71-17.01,0-4.7-2.71-4.7-7.11,0-9.82,4.7-2.71,12.31-2.71,17.01,0,4.7,2.71,4.7,7.11,0,9.82Z"/>
        <path class="cls-6" d="M327.74,180.56v-1.43h-.34c-.42-.91-1.25-1.77-2.48-2.49-3.76-2.17-9.86-2.17-13.63,0-1.24.72-2.06,1.58-2.48,2.49h-.34v1.44c0,1.42.94,2.85,2.82,3.93,3.76,2.17,9.86,2.17,13.63,0,1.89-1.09,2.83-2.52,2.82-3.94Z"/>
        <path class="cls-9" d="M324.92,183.15c-3.76,2.17-9.86,2.17-13.63,0-3.76-2.17-3.76-5.69,0-7.87,3.76-2.17,9.86-2.17,13.63,0,3.76,2.17,3.76,5.69,0,7.87Z"/>
        <path class="cls-10" d="M323.35,182c-2.89,1.67-7.59,1.67-10.49,0-2.8-1.62-2.9-4.2-.29-5.87.1-.06.19-.13.29-.18.6-.34,1.29-.63,2.03-.83,2.76-.77,6.18-.5,8.46.83,2.9,1.67,2.9,4.39,0,6.06Z"/>
        <path class="cls-6" d="M312.86,176.81c2.9-1.67,7.59-1.67,10.49,0,1.26.73,1.97,1.65,2.13,2.6.21-1.23-.5-2.51-2.13-3.46-2.9-1.67-7.59-1.67-10.49,0-1.64.95-2.35,2.22-2.13,3.46.16-.95.87-1.87,2.13-2.6Z"/>
        <path class="cls-6" d="M316.83,177.1l-2.16,1.37-2.1-1.51v-.83c.1-.06.19-.13.29-.18.6-.34,1.29-.63,2.03-.83v.63l1.94,1.36Z"/>
      </g>
    </g>
    <g>
      <path class="cls-22" d="M373.67,196.71h-21.32l1.91,22.57h0c.11,1.2.95,2.39,2.54,3.3,3.42,1.98,8.97,1.98,12.39,0,1.59-.92,2.43-2.1,2.54-3.3h0l1.91-22.57Z"/>
      <g>
        <path class="cls-6" d="M375.03,195.47v-1.79h-.42c-.53-1.14-1.55-2.21-3.1-3.11-4.7-2.71-12.31-2.71-17.01,0-1.55.89-2.57,1.97-3.1,3.11h-.42v1.8c0,1.78,1.17,3.55,3.52,4.91,4.7,2.71,12.31,2.71,17.01,0,2.35-1.36,3.53-3.14,3.52-4.92Z"/>
        <ellipse class="cls-20" cx="363.01" cy="193.79" rx="12.02" ry="6.94"/>
        <path class="cls-6" d="M372.64,193.05v-1.43h-.34c-.42-.91-1.25-1.77-2.48-2.49-3.76-2.17-9.86-2.17-13.63,0-1.24.72-2.06,1.58-2.48,2.49h-.34v1.44c0,1.42.94,2.85,2.82,3.93,3.76,2.17,9.86,2.17,13.63,0,1.89-1.09,2.83-2.52,2.82-3.94Z"/>
        <path class="cls-9" d="M369.82,195.63c-3.76,2.17-9.86,2.17-13.63,0s-3.76-5.69,0-7.87c3.76-2.17,9.86-2.17,13.63,0,3.76,2.17,3.76,5.69,0,7.87Z"/>
        <path class="cls-10" d="M368.25,194.49c-2.89,1.67-7.59,1.67-10.49,0-2.8-1.62-2.9-4.2-.29-5.87.1-.06.19-.13.29-.18.6-.35,1.29-.63,2.03-.83,2.76-.77,6.18-.5,8.46.83,2.9,1.67,2.9,4.39,0,6.06Z"/>
        <path class="cls-6" d="M357.76,189.29c2.9-1.67,7.59-1.67,10.49,0,1.26.73,1.97,1.65,2.13,2.6.21-1.23-.5-2.51-2.13-3.46-2.9-1.67-7.59-1.67-10.49,0-1.64.95-2.35,2.22-2.13,3.46.16-.95.87-1.87,2.13-2.6Z"/>
        <path class="cls-6" d="M361.73,189.58l-2.16,1.37-2.1-1.51v-.83c.1-.06.19-.13.29-.18.6-.35,1.29-.63,2.03-.83v.63l1.94,1.36Z"/>
      </g>
    </g>
  </g>
  <g>
    <path class="cls-1" d="M429.78,206.5l6.61,18.66c1.35,3.8.74,8.02-1.61,11.29l-10.05,13.95-7.18-10.47,6.57-10.34-5.87-12.63v-4.91l11.53-5.55Z"/>
    <path class="cls-26" d="M414.17,184.22s5.04-.5,7.6,3.5c2.56,4,8.02,18.78,8.02,18.78,0,0-4.44,5.86-12.71,6.97l-2.91-29.25Z"/>
    <path class="cls-24" d="M414.17,184.22s5.04-.5,7.6,3.5c2.56,4,8.02,18.78,8.02,18.78,0,0-4.44,5.86-12.71,6.97l-2.91-29.25Z"/>
    <g>
      <path class="cls-18" d="M422.57,387.44c-.63,1.38-2.35,2.51-4.15,2.51s-5.33-1.03-6.97-5.23c-1.64-4.21-4.25-6.11-4.94-6.84-1.05-1.12-5.07-4.75-5.5-8.61-.03.24-.04.49-.04.76,0,4.08,4.43,8.07,5.54,9.25.69.73,3.31,2.63,4.94,6.84,1.64,4.21,5.17,5.23,6.97,5.23s3.52-1.14,4.15-2.51c.36-.8.33-1.33.23-2.11-.05.22-.11.45-.23.7Z"/>
      <path class="cls-26" d="M421.84,377.1l.21.23c.54.59.8,1.38.73,2.17-.08.87-.16,2.12-.16,3.48,0,2.52.57,3.08-.06,4.46-.63,1.38-2.35,2.51-4.15,2.51s-5.33-1.03-6.97-5.23c-1.64-4.21-4.25-6.11-4.94-6.84-1.11-1.18-5.54-5.17-5.54-9.25s3.38-5.53,5.4-5.53,4.72,1.19,6.81,4.22c2.1,3.03,8.66,9.79,8.66,9.79Z"/>
      <g class="cls-28">
        <path class="cls-3" d="M421.84,377.1l.21.23c.54.59.8,1.38.73,2.17-.08.87-.16,2.12-.16,3.48,0,2.52.57,3.08-.06,4.46-.63,1.38-2.35,2.51-4.15,2.51s-5.33-1.03-6.97-5.23c-1.64-4.21-4.25-6.11-4.94-6.84-1.11-1.18-5.54-5.17-5.54-9.25s3.38-5.53,5.4-5.53,4.72,1.19,6.81,4.22c2.1,3.03,8.66,9.79,8.66,9.79Z"/>
      </g>
      <path class="cls-20" d="M408.09,372.56c-.09,0-.18-.02-.26-.08-.23-.15-.3-.45-.15-.68.1-.16,2.53-3.93,6.68-3.51.27.03.47.27.44.54-.03.27-.27.46-.54.44-3.55-.36-5.72,3.02-5.74,3.05-.09.15-.25.23-.42.23Z"/>
      <path class="cls-20" d="M410.53,374.98c-.09,0-.18-.02-.26-.08-.23-.15-.3-.45-.15-.68.1-.16,2.53-3.93,6.68-3.51.27.03.47.27.44.54s-.27.47-.54.44c-3.55-.37-5.72,3.02-5.74,3.05-.09.15-.25.23-.42.23Z"/>
      <path class="cls-16" d="M412.67,366.65c-2.01-2.52-4.44-3.55-6.3-3.55-2.02,0-5.4,1.45-5.4,5.53,0,2.1,1.17,4.17,2.46,5.85.05-.92.49-5.11,4.74-6.87,1.52-.63,3.08-.89,4.5-.97Z"/>
      <path class="cls-1" d="M426.63,322.38l-1.4-4.39,2.53-36.9-22.56,7.54.92,32.26c.05,1.71.19,3.41.43,5.1l4.64,32.79c.81.8,3.1,2.57,7.43,2.57,2.95,0,4.91-1.36,6.1-2.64l3.15-20.12c.85-5.43.42-10.98-1.25-16.22Z"/>
      <path class="cls-26" d="M418.62,361.35c-4.34,0-6.62-1.77-7.43-2.57l2.79,19.74c5.44,3.72,7.64,0,7.64,0l3.1-19.81c-1.2,1.28-3.15,2.64-6.1,2.64Z"/>
      <path class="cls-7" d="M418.62,361.35c-4.34,0-6.62-1.77-7.43-2.57l2.79,19.74c5.44,3.72,7.64,0,7.64,0l3.1-19.81c-1.2,1.28-3.15,2.64-6.1,2.64Z"/>
    </g>
    <g>
      <path class="cls-26" d="M385.3,387.36l-4.09,3s-10.38.81-13.31.98c-2.92.17-6.62,1.51-7.42,4.69-.7,2.76.82,5.62,8.07,6.54,7.25.92,9.75-.77,15,.12,4.97.84,11.99,3.14,15.45-2.68.36-.61.47-1.35.28-2.05-.39-1.49-1.11-4.24-1.27-5.2-.23-1.35-.44-5.86-1.72-5.86s-11,.46-11,.46Z"/>
      <path class="cls-4" d="M385.3,387.36l-4.09,3s-10.38.81-13.31.98c-2.92.17-6.62,1.51-7.42,4.69-.7,2.76.82,5.62,8.07,6.54,7.25.92,9.75-.77,15,.12,4.97.84,11.99,3.14,15.45-2.68.36-.61.47-1.35.28-2.05-.39-1.49-1.11-4.24-1.27-5.2-.23-1.35-.44-5.86-1.72-5.86s-11,.46-11,.46Z"/>
      <path class="cls-5" d="M399.31,399.16c-.06.3-.16.58-.31.85-3.45,5.82-10.48,3.53-15.45,2.68-5.25-.89-7.75.8-15-.12-5.77-.73-7.9-2.69-8.18-4.85-.32,2.56,1.47,5.07,8.18,5.93,7.25.92,9.75-.77,15,.12,4.97.84,12.33,3.48,15.79-2.34.35-.58.15-1.57-.03-2.27Z"/>
      <path class="cls-26" d="M383.18,368.66l2.13,18.7s.41,4.03,5.69,4.03,5.31-4.48,5.31-4.48l1.37-18.24h-14.49Z"/>
      <path class="cls-7" d="M383.18,368.66l2.13,18.7s.41,4.03,5.69,4.03,5.31-4.48,5.31-4.48l1.37-18.24h-14.49Z"/>
      <path class="cls-1" d="M377.61,295.14v17.16c0,2.82.15,5.63.45,8.43l5.12,47.93s8.14,6.16,14.49,0l2.52-28.89c.57-6.51-.22-13.06-2.3-19.25h0l5.05-25.38h-25.33Z"/>
      <path class="cls-16" d="M371.38,391.11c-1.45.1-2.71.19-3.47.24-2.92.17-6.62,1.51-7.42,4.69-.7,2.76.82,5.62,8.07,6.54-1.31-8.56,2.82-11.46,2.82-11.46Z"/>
      <path class="cls-20" d="M372.95,396.18c-.27,0-.49-.22-.49-.49,0-3.11,2.45-5.17,2.55-5.25.21-.17.52-.14.69.07.17.21.14.52-.07.69-.02.02-2.2,1.85-2.2,4.49,0,.27-.22.49-.49.49Z"/>
      <path class="cls-20" d="M377.24,395.95c-.27,0-.49-.22-.49-.49,0-3.11,2.45-5.17,2.55-5.25.21-.17.52-.14.69.07.17.21.14.52-.07.69-.02.02-2.2,1.85-2.2,4.49,0,.27-.22.49-.49.49Z"/>
    </g>
    <path class="cls-22" d="M383.08,235.62s-5.48,12.1-5.48,23.47v35.94s12.45,10.39,30.3,7.45c17.85-2.94,21.26-8.85,21.26-8.85v-26.03c0-10.67-2.76-21.16-8.01-30.45l-2.39-4.23-35.69,2.7Z"/>
    <path class="cls-26" d="M383.08,229.17v6.45s4.84,4.31,17.66,4.31,18.03-7.01,18.03-7.01l-2.65-4.18-33.04.43Z"/>
    <path class="cls-4" d="M383.08,229.17v6.45s4.84,4.31,17.66,4.31,18.03-7.01,18.03-7.01l-2.65-4.18-33.04.43Z"/>
    <path class="cls-26" d="M391.79,188.82l-4.62,1.64-7.96,17.27v12.81l3.87,8.65s6.77,5.5,17.49,5.5,15.55-5.94,15.55-5.94c0,0,2.94-13.09,5.04-21.46,2.1-8.37-1.51-20.05-6.99-23.06l-7.25,1.19-15.13,3.4Z"/>
    <path class="cls-1" d="M385.2,216.57s-10.93,17.31-12.63,20.27-6.57,5.5-16.94-5.02c-10.37-10.52-13.48-13.99-13.48-13.99,0,0-13.62-4.76-16.8-8.6-3.18-3.83-4.44-9.44-1.82-8.55,2.62.89,16.86,6.03,18.47,1.66,0,0-1.04-1.99-1.04-4.16s.94-3.93,2.15-3.93.85,2.17,1.7,3.93c.85,1.76,6.15,8.96,5.24,12.38l15.07,12.17,7.43-14.45,12.63,8.29Z"/>
    <path class="cls-1" d="M403.38,188.99c-5.24,1.67-11.59-.17-11.59-.17v-17.72h15.13v14.31s-.59,2.64-3.55,3.58Z"/>
    <polygon class="cls-19" points="380.9 160.18 380.9 168.18 376.22 166.74 380.9 160.18"/>
    <path class="cls-18" d="M405.6,139.34c-3.12-.82-14.03-3.03-23.73,5.07-2.14,1.79-4.6,6.56-5.39,12.52,0,0,.88.8,3.97,2.15l25.15-19.74Z"/>
    <path class="cls-1" d="M398.77,142.63c-4.77-.52-15.19,1.02-17.73,13.36-2.54,12.34-2.48,22.14,3.86,23.78,6.34,1.63,21.79-1.38,25.57-17.31,3.78-15.92-7.04-19.32-11.69-19.83Z"/>
    <path class="cls-18" d="M385.59,145.63s-1.65,6.47.88,11.54c1.3,2.61,1.59,5.67.55,8.41-.51,1.34-1.22,2.7-2.19,3.78,0,0,5.22-.71,5.22-4.98,0,0,1.68,4.39,2.12,7.43.43,3.03,2.25,5.59,7.9,7.15,2.74.76,6.26.41,8.07-.72,0,0,5.53-3.77,7.76-6.85,2.22-3.08,7.03-14.02,2.04-22.59-4.99-8.56-17.64-15.74-32.35-3.17Z"/>
    <path class="cls-1" d="M390.05,164.38s.63-5.25,4.28-5.3c4.01-.06,4.5,3.81,4.43,5.18-.19,3.6-2.38,7.12-8.7,5.11v-4.98Z"/>
    <path class="cls-26" d="M415.43,175.74c0,2.3-1.86,4.16-4.16,4.16s-4.16-1.86-4.16-4.16,1.86-4.16,4.16-4.16,4.16,1.86,4.16,4.16Z"/>
    <path class="cls-18" d="M411.63,179.16c-.81-.67-1.45-1.54-1.68-2.57-.36-1.6.13-2.64.76-3.29.65-.69,1.59-1.02,2.54-1.02,1.09,0,2.93.12,4.6.7,4.38,1.52,7.81,7.94,3.23,18.01-1.36,2.99-1.74,7.42.85,9.04.3.19.17.64-.18.64-3.83-.03-12.15-1.06-9.73-9.85,2.14-7.78.86-10.62-.4-11.65Z"/>
    <path class="cls-18" d="M385.59,145.63s-4.21,3.14-3.5,13.94c0,0,2.47,1.21,4.36.84,0,0-.43-5.84,1.89-10.37l-2.75-4.42Z"/>
    <path class="cls-26" d="M387.17,190.45s-5.27,1.9-8.71,7.24c-2.38,3.69-5.89,10.59-5.89,10.59,0,0,3.72,6.48,12.63,8.29,0,0,3.63-6.16,4.68-7.68,1.04-1.52,5.61-12.86-1.15-18.99l-1.55.55Z"/>
    <path class="cls-24" d="M387.17,190.45s-5.27,1.9-8.71,7.24c-2.38,3.69-5.89,10.59-5.89,10.59,0,0,3.72,6.48,12.63,8.29,0,0,3.63-6.16,4.68-7.68,1.04-1.52,5.61-12.86-1.15-18.99l-1.55.55Z"/>
  </g>
  <g>
    <g>
      <path class="cls-18" d="M165.51,386.99v.14c0,1.92-.44,3.8-1.17,5.58-.43,1.04-.8,2.5-.8,4.4v6.17c0,.53-.43.97-.97.97h0c-.53,0-.96-.43-.96-.97v-9.51l3.91-6.78Z"/>
      <path class="cls-18" d="M162.35,380.7s-3.31,2.43-3.31,8.88-4.79,12.11-7.22,13.57c-2.43,1.45-7.82-2.02-7.82-2.02,0,0-5.73,4.87-5.73,7.06s2.8,3.99,9.28,3.08c6.48-.9,11.86-1.83,12.87-8.84,1.18-8.2,1.22-9.25,3.69-11.95,2.47-2.7,1.53-8.3-1.76-9.79Z"/>
      <path class="cls-1" d="M163.36,363.85l-1.06,15.7s-.86,24.36-12.55,24.36h-6.08c-.28,0,0-3.93,0-3.93,0,0,6.71-9.77,7.2-19.47l-.6-16.66h13.08Z"/>
      <path class="cls-25" d="M162.3,379.55s-2.68,1.93-3.36,8.88c-.76,7.77-4.87,12.11-7.33,13.57s-7.94-2.02-7.94-2.02c0,0-5.82,4.87-5.82,7.06s2.85,3.99,9.42,3.08c6.58-.9,10.89-2.06,12.1-9.04,1.21-6.98,1.24-8.61,3.75-11.31,2.51-2.7,4.14-5.22-.82-10.22Z"/>
    </g>
    <path class="cls-22" d="M155.45,243.16l-6.04,54.22c-1.07,9.63-1.38,19.33-.92,29.01l1.78,37.46s6.97,4.93,13.08,0l4.84-27.45c.84-4.75.49-9.63-1-14.21h0l11.07-34.34-5.35-43.59-17.47-1.11Z"/>
    <path class="cls-25" d="M158.58,259.68s2.96,8.67,11.5,11.46l3.66,30.78,4.53-14.06-3.46-28.17h-16.23Z"/>
    <g>
      <path class="cls-18" d="M200.23,402.04v.14c0,1.92-.44,3.8-1.17,5.58-.43,1.04-.8,2.5-.8,4.4v6.17c0,.53-.43.97-.97.97h0c-.53,0-.97-.43-.97-.97v-9.51l3.91-6.78Z"/>
      <path class="cls-18" d="M197.07,395.75s-3.31,2.43-3.31,8.88-4.79,12.11-7.22,13.57c-2.43,1.45-7.82-2.02-7.82-2.02,0,0-5.73,4.87-5.73,7.06s2.8,3.99,9.28,3.08c6.48-.9,11.86-1.83,12.87-8.84,1.18-8.2,1.22-9.25,3.69-11.95,2.47-2.7,1.53-8.3-1.76-9.79Z"/>
      <path class="cls-1" d="M198.09,378.9l-1.06,15.7s-.86,24.36-12.55,24.36h-6.08c-.28,0,0-3.93,0-3.93,0,0,6.71-9.77,7.2-19.47l-.6-16.66h13.08Z"/>
      <path class="cls-25" d="M197.02,394.6s-2.68,1.93-3.36,8.88c-.76,7.77-4.87,12.11-7.33,13.57s-7.94-2.02-7.94-2.02c0,0-5.82,4.87-5.82,7.06s2.85,3.99,9.42,3.08c6.58-.9,10.89-2.06,12.1-9.04,1.21-6.98,1.24-8.61,3.75-11.31,2.51-2.7,4.14-5.22-.82-10.22Z"/>
    </g>
    <path class="cls-22" d="M190.57,242.88s13.32,14.69,13.32,31.37-3.71,52.36-3.71,52.36l1.06,2.65c1.69,4.21,2.26,8.77,1.67,13.25l-4.81,36.46s-5.45,4.98-13.08,0l-4.05-49.14-9.65-62.38s-7.06-1.54-12.72-7.76v-17.16l31.99.36Z"/>
    <path class="cls-25" d="M155.25,236.67l.2,6.49s4.11,3.61,16.67,3.61,18.44-3.61,18.44-3.61v-7.03s-35.32.54-35.32.54Z"/>
    <path class="cls-1" d="M163.45,193.68c-2.7.31-10.37-.78-14.81,10.36-4.44,11.14-8.4,22.3-8.4,22.3l-8.15-8.45s-9.54-14.31-11.8-12.73c-2.26,1.58-1.45,4.16-.81,5.99.64,1.83,3.02,7.58,3.81,9.15.79,1.57,10.55,23.96,19.32,23.96,5.87,0,12.31-19.79,12.31-19.79l8.53-30.8Z"/>
    <path class="cls-26" d="M193.9,214.23c-.06.46-.13.93-.19,1.38-2.03,14.34-3.14,20.52-3.14,20.52,0,0-8.98,3.99-20.48,3.99s-14.83-3.45-14.83-3.45l-1.13-11.77s-4.55-3.44-4.55-11.44,13.88-19.62,13.88-19.62l4.16-.2,14.29.52,9.83.86,1.41.12s2.89,3.77.74,19.09Z"/>
    <g>
      <g>
        <path class="cls-18" d="M186.75,152.13s1.58-1.5,1.36-4.53c-.22-3.03,2.64-.83,2.88.91.24,1.75-1.54,4.32-3.19,4.89l-1.04-1.27Z"/>
        <path class="cls-18" d="M187.8,152.74s2.16.32,4.41-1.73c2.25-2.05,2.28,1.56,1.06,2.83-1.23,1.27-4.36,1.45-5.82.51l.36-1.6Z"/>
      </g>
      <path class="cls-18" d="M197.73,180.16c-1.61-1.6-2.6-3.71-2.53-5.98.16-4.92-.47-12.25-4.59-18.42-6.92-10.35-15.77-9.68-22.99-8.97-7.22.71-15.39-2.3-17.65,1.58-4.05,6.97,1.28,9.01,1.28,9.01-3.51,8.1,4.85,10.09,4.85,10.09l4.23,11.4c-.76-.28-1.58-.43-2.46-.34-2.96.3-5.29,2.98-5.11,5.95.17,2.96,2.63,5.3,5.63,5.3.7,0,1.37-.14,1.99-.38.93,1.85,2.82,3.13,5.03,3.13.98,0,1.9-.25,2.7-.69,2-1.1,4.19-1.82,6.47-1.82h2.37c2.28,0,4.46.73,6.47,1.82.8.44,1.72.69,2.7.69,2.3,0,4.28-1.38,5.15-3.36,1.22.61,2.66.84,4.22.33,2.06-.67,3.63-2.52,3.88-4.67.22-1.83-.44-3.51-1.62-4.68Z"/>
      <path class="cls-1" d="M167.61,185.66v7.97s-9.15,11.06-.23,11.86c8.92.81,14.53-11.34,14.53-11.34v-16.66l-14.3,8.17Z"/>
      <path class="cls-19" d="M182.37,172.55v.54c-3.34,13.18-12.02,16.05-14.82,16.72l-.1-20.4,14.5-.07.43,3.21Z"/>
      <path class="cls-1" d="M170.15,149.04c-4.74.39-14.61,3.86-14.75,16.36-.15,12.5,1.77,22.04,8.25,22.44,6.48.4,20.97-5.46,21.64-21.68.67-16.23-10.51-17.49-15.13-17.11Z"/>
      <polygon class="cls-19" points="165.28 170.42 165.39 177.76 161.07 176.51 165.28 170.42"/>
      <path class="cls-18" d="M170.6,170.22c.01.83-.65,1.51-1.47,1.52-.83.01-1.5-.65-1.52-1.47-.01-.83.65-1.5,1.47-1.52.83-.01,1.5.65,1.52,1.47Z"/>
      <path class="cls-18" d="M160.75,169.32c.01.83-.65,1.51-1.47,1.52-.83.01-1.5-.65-1.52-1.47-.01-.83.65-1.51,1.47-1.52.83-.01,1.5.65,1.52,1.47Z"/>
      <path class="cls-26" d="M157.39,166.25l2.9-1.78s-1.14-1.15-2.25-.43c-1.11.72-.65,2.21-.65,2.21Z"/>
      <path class="cls-19" d="M166.78,180.09s1.16-.51,3.65-2.01c0,0,.78,1.99-.85,2.81-1.63.82-2.8-.8-2.8-.8Z"/>
      <path class="cls-18" d="M158.47,154.24s3.19,16.99,26.53,15.61c0,0,5.64-17.6-8.72-21.99s-17.81,6.38-17.81,6.38Z"/>
      <path class="cls-18" d="M157.39,166.25l2.9-1.78s-1.14-1.15-2.25-.43c-1.11.72-.65,2.21-.65,2.21Z"/>
      <path class="cls-1" d="M181.46,171.43s1.15-4.93,4.63-4.59c3.82.37,3.87,4.1,3.66,5.4-.56,3.41-3.8,6.76-8.98,6.26l.69-7.07Z"/>
      <path class="cls-18" d="M178.37,169.36s-.57,4.73,2.83,4.73l.83-4.24-3.66-.49Z"/>
    </g>
    <path class="cls-19" d="M140.24,226.34s2.71,2.65,4.01,5.42c0,0,.01-3.17-3.34-7.28l-.67,1.86Z"/>
    <g>
      <path class="cls-18" d="M128.06,219.75l-10.96-20.85c-.38-.72.19-1.57,1-1.49l12.49,1.15c.61.06,1.14.42,1.41.97l10.82,21.89c.4.8-.28,1.72-1.17,1.57l-11.89-2.01c-.73-.12-1.35-.58-1.69-1.23Z"/>
      <path class="cls-25" d="M142.82,221.42l-10.82-21.89c-.27-.55-.8-.91-1.41-.97l-12.49-1.15c-.63-.06-1.11.45-1.11,1.02.13-.04.27-.07.42-.06l12.49,1.15c.61.06,1.14.42,1.41.97l10.82,21.89c.09.18.12.37.11.55.56-.22.89-.9.59-1.51Z"/>
    </g>
    <path class="cls-1" d="M121.54,207.35l5.63,10.7s12.2.99,11.82-4.52c-.38-5.51-2.82-5.41-2.82-5.41,0,0-8.17,1.9-14.63-.77Z"/>
    <g>
      <path class="cls-1" d="M218.93,235.99c-.03,4.26-8.04,29.44-8.04,29.44l-7.62-4.32s1.77-6.6,1.72-12.9c-.04-6.3,1.47-12.02,1.47-12.02,0,0-4.31-7.98-12.75-20.58-.01-.02-.02-.03-.03-.05-7.96-11.86-2.61-19.64-1.93-20.54l1.41.12c8.9,1.1,12.06,10.37,15.26,15.98,3.2,5.62,10.55,20.63,10.51,24.88Z"/>
      <path class="cls-1" d="M203.26,261.11s-1.19.9-2.37,1.44c-1.18.53-2.25.71-4.3,3.9-1.32,2.05-3.23,1.87-3.05,3.29.18,1.42,4.86.68,6.35-1.51,0,0-.7,3.2-2.43,4.87-1.73,1.68-4.22,4.4-4.22,5.84s7.07,4.05,11.34.3c4.28-3.75,6.3-13.81,6.3-13.81l-7.62-4.32Z"/>
    </g>
  </g>
  <g>
    <path class="cls-6" d="M364.86,62.06l-41.09-23.72c-3.37-1.95-6.11.12-6.11,4.62v23.93c0,4.5,2.73,9.72,6.11,11.67l3.79,2.19-6.43,13.6,16.51-7.78,27.22,15.72c3.37,1.95,6.11-.12,6.11-4.62v-23.93c0-4.5-2.73-9.72-6.11-11.67Z"/>
    <g>
      <path class="cls-26" d="M362.46,73.62c-.08,0-.17-.02-.25-.07l-36.3-20.96c-.24-.14-.32-.44-.18-.68.14-.24.44-.32.68-.18l36.3,20.96c.24.14.32.44.18.68-.09.16-.26.25-.43.25Z"/>
      <path class="cls-26" d="M362.46,81.27c-.08,0-.17-.02-.25-.07l-36.3-20.96c-.24-.14-.32-.44-.18-.68.14-.24.44-.32.68-.18l36.3,20.96c.24.14.32.44.18.68-.09.16-.26.25-.43.25Z"/>
      <path class="cls-26" d="M345.75,79.28c-.08,0-.17-.02-.25-.07l-19.58-11.31c-.24-.14-.32-.44-.18-.68.14-.24.44-.32.68-.18l19.58,11.31c.24.14.32.44.18.68-.09.16-.26.25-.43.25Z"/>
    </g>
  </g>
  <g>
    <path class="cls-6" d="M407.53,101.94l-16.34-9.44c-2.03-1.17-3.68.07-3.68,2.79v14.43c0,2.71,1.65,5.87,3.68,7.04l3.78,2.18,3.09,13.34,2.49-10.11,6.98,4.03c2.04,1.17,3.68-.07,3.68-2.79v-14.43c0-2.71-1.65-5.87-3.68-7.04Z"/>
    <g>
      <path class="cls-26" d="M404.8,112.72c0,3.92-2.75,5.51-6.15,3.55-3.4-1.96-6.15-6.73-6.15-10.66s2.75-5.51,6.15-3.55c3.4,1.96,6.15,6.73,6.15,10.66Z"/>
      <g class="cls-27">
        <path class="cls-13" d="M404.8,112.72c0,3.92-2.75,5.51-6.15,3.55-3.4-1.96-6.15-6.73-6.15-10.66s2.75-5.51,6.15-3.55c3.4,1.96,6.15,6.73,6.15,10.66Z"/>
      </g>
      <path class="cls-13" d="M394.62,105.88c-.11-.06-.22-.19-.27-.35-.07-.21-.01-.39.13-.39h1.58s-1.58-1.82-1.58-1.82c-.15-.17-.21-.41-.13-.54.07-.13.25-.09.4.08l2.11,2.44c.1.12.17.27.17.4s-.06.21-.17.21h-2.11s-.09-.01-.13-.04Z"/>
      <path class="cls-13" d="M402.32,110.33s-.09-.06-.13-.11l-2.11-2.44c-.1-.12-.17-.27-.17-.4s.06-.21.17-.21h2.11c.15,0,.33.17.4.39.07.21.01.39-.13.39h-1.58s1.58,1.82,1.58,1.82c.15.17.21.41.13.54-.05.09-.16.1-.27.04Z"/>
      <path class="cls-13" d="M398.65,113.25c-1.8-1.04-3.4-3.04-4.29-5.36-.05-.14-.05-.27,0-.34.05-.08.15-.08.26-.02l8.05,4.65c.11.06.2.18.26.32.05.14.05.27,0,.34-.89,1.3-2.49,1.45-4.29.41ZM395.17,108.53c.81,1.75,2.08,3.22,3.48,4.03,1.4.81,2.67.79,3.48-.01l-6.96-4.02Z"/>
    </g>
  </g>
  <g>
    <path class="cls-26" d="M111.63,206.36l-15.75-5.31c-2.55-16.07-16.46-28.35-33.25-28.35-18.61,0-33.68,15.08-33.68,33.68,0,10.14,4.47,19.23,11.56,25.4,5.92,5.16,13.66,8.29,22.12,8.29,11.01,0,20.77-5.27,26.91-13.43,3.23-4.29,5.46-9.39,6.34-14.93l15.75-5.34Z"/>
    <path class="cls-15" d="M111.63,206.36l-15.75-5.31c-2.55-16.07-16.46-28.35-33.25-28.35-18.61,0-33.68,15.08-33.68,33.68,0,10.14,4.47,19.23,11.56,25.4,5.92,5.16,13.66,8.29,22.12,8.29,11.01,0,20.77-5.27,26.91-13.43,3.23-4.29,5.46-9.39,6.34-14.93l15.75-5.34Z"/>
    <g>
      <path class="cls-22" d="M89.53,226.62c-6.13,8.16-15.9,13.43-26.91,13.43-8.46,0-16.2-3.13-22.12-8.29l11.89-4.33,16.08-3.31,5.15-1.47c5.63-1.6,11.69-.09,15.9,3.97Z"/>
      <g>
        <path class="cls-18" d="M84.73,191.36s2.62-13.17-9.55-18.52c-12.18-5.35-31.21-3.34-35.38,13.37-4.17,16.71,6.56,27.17,12.6,29.42l32.33-24.27Z"/>
        <path class="cls-12" d="M52.4,227.44l1.81,2.86c2.77,4.38,7.75,6.85,12.92,6.42h0c3.6-.3,5.74-4.18,4.07-7.38l-2.71-5.21v-20.72h-16.08v24.03Z"/>
        <path class="cls-17" d="M68.48,222.87c-5.68-2.19-11.62-6.6-14.77-14.05v-5.41h14.77v19.46Z"/>
        <path class="cls-12" d="M72.23,177.04s15.3.58,12.54,25.22c-1.3,11.59-2.25,18-12.17,18s-24.55-7.47-23.6-27.37c.94-19.9,23.23-15.85,23.23-15.85Z"/>
        <polygon class="cls-17" points="74.11 198.73 74.11 207.37 79.18 205.82 74.11 198.73"/>
        <g>
          <circle class="cls-18" cx="68.48" cy="200.22" r="1.76"/>
          <path class="cls-18" d="M78.3,198.99c0,.97.79,1.76,1.76,1.76s1.76-.79,1.76-1.76-.79-1.76-1.76-1.76-1.76.79-1.76,1.76Z"/>
          <path class="cls-18" d="M82.21,195.32l-3.44-2.05s1.32-1.37,2.64-.55.81,2.59.81,2.59Z"/>
          <path class="cls-18" d="M67.56,194.73l-3.11,2.53s-.83-1.71.39-2.67,2.71.14,2.71.14Z"/>
        </g>
        <path class="cls-17" d="M76.49,210.88s-2.8.26-4.74-1.27c0,0-.32,2.5,1.77,2.98,2.09.48,2.97-1.71,2.97-1.71Z"/>
        <path class="cls-18" d="M80.07,180.53s-1.67,5.91-14.2,4.97c-12.53-.94-11.43,2.53-10.07,8.39.94,4.04,1.02,14.76-2.09,9.51h-6.19v-12.38c0-8.74,7.09-15.83,15.83-15.83h6.2c4.16,0,8.07,1.98,10.53,5.34h0Z"/>
        <path class="cls-12" d="M53.86,202.77s-.63-5.93-4.74-6.04c-4.52-.12-5.13,4.23-5.07,5.77.16,4.07,3.45,8.46,9.58,8.63l.23-8.36Z"/>
      </g>
    </g>
  </g>
  <g>
    <g>
      <path class="cls-26" d="M138.4,122.46c-1.67-8.38-6.32-15.39-12.61-20.18-2.43-1.86-5.09-3.37-7.92-4.51-.98-.4-1.97-.74-3-1.03-5.06-1.5-10.54-1.82-16.08-.72-1.39.28-2.75.64-4.06,1.08-.97.32-1.93.69-2.85,1.09t-.01.01c-.26.11-.51.22-.74.33-6.4,2.98-11.59,7.86-14.98,13.79-3.9,6.81-5.45,15.02-3.81,23.32,1.07,5.34,3.33,10.12,6.47,14.13.63.8,1.27,1.55,1.96,2.3,2.43,2.58,5.24,4.76,8.32,6.47.55.3,1.11.59,1.68.86,1.58.77,3.22,1.4,4.92,1.91,3.48,1.05,7.18,1.54,10.96,1.39l11.62,25.17-1.17-27.25c1.31-.49,2.58-1.04,3.8-1.68,2.59-1.33,4.96-2.99,7.07-4.92,1.11-.99,2.15-2.07,3.09-3.2,6.4-7.57,9.43-17.87,7.34-28.35Z"/>
      <path class="cls-15" d="M138.4,122.46c-1.67-8.38-6.32-15.39-12.61-20.18-2.43-1.86-5.09-3.37-7.92-4.51-.98-.4-1.97-.74-3-1.03-5.06-1.5-10.54-1.82-16.08-.72-1.39.28-2.75.64-4.06,1.08-.97.32-1.93.69-2.85,1.09t-.01.01c-.26.11-.51.22-.74.33-6.4,2.98-11.59,7.86-14.98,13.79-3.9,6.81-5.45,15.02-3.81,23.32,1.07,5.34,3.33,10.12,6.47,14.13.63.8,1.27,1.55,1.96,2.3,2.43,2.58,5.24,4.76,8.32,6.47.55.3,1.11.59,1.68.86,1.58.77,3.22,1.4,4.92,1.91,3.48,1.05,7.18,1.54,10.96,1.39l11.62,25.17-1.17-27.25c1.31-.49,2.58-1.04,3.8-1.68,2.59-1.33,4.96-2.99,7.07-4.92,1.11-.99,2.15-2.07,3.09-3.2,6.4-7.57,9.43-17.87,7.34-28.35Z"/>
    </g>
    <g>
      <path class="cls-18" d="M124.31,150.58c0,1.98-1.38,4.25-3.73,6.35-2.31,2.06-5.56,3.97-9.36,5.27-5.36.95-10.66.57-15.54-.91-1.69-.51-3.33-1.14-4.92-1.91-.57-.27-1.13-.56-1.68-.86-3.08-1.7-5.9-3.89-8.32-6.47-.69-.74-1.34-1.5-1.96-2.3-.73-6.77,4.04-13.54,4.98-16.29,1.33-3.9,2.12-18.14,2.29-21.21,0-.05.01-.1.01-.15.01-.28.02-.43.02-.43,0,0,4.27-.97,9.67-1.13.3-.02.61-.02.94-.02,6.04-.08,13.23.92,17.41,5.31,1.26,1.3,2.24,2.9,2.86,4.86.37,1.17.6,2.48.68,3.93.05,1.03.12,2.01.19,2.92.05.59.11,1.16.17,1.71.01.17.03.33.05.48.33,2.93.78,5.25,1.29,7.15.28,1.05.58,1.96.89,2.78,1.14,3.04,2.38,4.69,3.18,6.54.54,1.22.87,2.51.87,4.36Z"/>
      <path class="cls-1" d="M131.06,150.81c-.95,1.13-1.98,2.21-3.09,3.2-2.11,1.93-4.48,3.59-7.07,4.92l-.31-1.99-2.74-17.39s.98-.06,2.41.14c3.28.46,8.9,2.3,10.42,9.4.12.55.25,1.13.38,1.72Z"/>
      <path class="cls-22" d="M127.97,154.01c-2.11,1.93-4.48,3.59-7.07,4.92-2.75,1.44-5.75,2.51-8.94,3.15-.25.05-.49.1-.73.13-5.36.95-10.66.57-15.54-.91-1.69-.51-3.33-1.14-4.92-1.91-.57-.27-1.13-.56-1.68-.86-.34-11.62,1.74-16.73,1.74-16.73.33-.1.71-.19,1.12-.3.06-.02.14-.03.2-.04,2.86-.69,6.96-1.4,6.96-1.4l13.26-.29,5.48-.22c1.85,1.95,3.83,4.24,5.59,6.68,1.81,2.48,3.43,5.13,4.53,7.78Z"/>
      <g>
        <path class="cls-18" d="M94.96,96.75s-.69-5.29-1.61-5.32c-.92-.03-1.39,4.47-1.39,4.47,0,0-4.21-.92-3.92.36.29,1.28,5.08,3.16,5.08,3.16l1.83-2.67Z"/>
        <path class="cls-18" d="M86.04,113.7c.09,14.7,13.07,17.37,13.07,17.37l26.14-9.07s2.14-1.44,3.23-5.24c.37-1.3.63-2.89.62-4.78,0-.01,0-.03,0-.04-.04-6.18-3.74-13.3-13.38-16.57-1.92-.66-4.09-1.16-6.5-1.47-1.1-.14-2.17-.23-3.21-.25-7.82-.24-13.64,2.67-16.93,7.92-.72,1.15-1.31,2.41-1.78,3.78-.85,2.46-1.28,5.26-1.26,8.36Z"/>
        <path class="cls-1" d="M99.11,140.05l.6,1.04c2.88,5,7.13,9.07,12.25,11.73l1.66.86c1.11.58,2.44-.23,2.43-1.48h0c-.01-4.01-1.08-7.95-3.09-11.42l-.59-1.02v-19.01h-13.26v19.31Z"/>
        <path class="cls-19" d="M99.11,123.6v.48c2.34,7.55,7.73,12.65,13.26,15.68v-19.01h-12.89l-.37,2.86Z"/>
        <path class="cls-1" d="M112.18,98.65c4.69.6,14.33,4.5,13.91,16.92-.42,12.43-2.76,21.81-9.21,21.91-6.45.1-20.58-6.38-20.51-22.52.07-16.15,11.23-16.9,15.81-16.31Z"/>
        <polygon class="cls-19" points="116.99 120.62 116.06 127.86 120.46 127.1 116.99 120.62"/>
        <g>
          <path class="cls-18" d="M110.76,119.67c-.05.82.58,1.52,1.4,1.57.82.05,1.52-.58,1.57-1.4s-.58-1.52-1.4-1.57c-.82-.05-1.52.58-1.57,1.4Z"/>
          <path class="cls-18" d="M120.59,119.22c-.05.82.58,1.52,1.4,1.57.82.05,1.52-.58,1.57-1.4.05-.82-.58-1.52-1.4-1.57-.82-.05-1.52.58-1.57,1.4Z"/>
          <path class="cls-18" d="M124.07,116.33l-2.8-1.9s1.18-1.09,2.25-.33c1.07.76.55,2.23.55,2.23Z"/>
        </g>
        <path class="cls-19" d="M117.21,130.75s-2.36.22-4.01-1.07c0,0-.27,2.11,1.49,2.51,1.77.4,2.51-1.44,2.51-1.44Z"/>
        <path class="cls-18" d="M123.54,104.35s-3.94,16.73-27.06,14.3c0,0-4.8-17.74,9.67-21.45,14.47-3.71,17.4,7.15,17.4,7.15Z"/>
        <path class="cls-1" d="M99.93,120.38s-.92-4.95-4.39-4.77c-3.81.2-4.04,3.9-3.88,5.2.4,3.41,3.47,6.89,8.63,6.63l-.36-7.05Z"/>
      </g>
      <path class="cls-1" d="M95.66,160.75l.02.55c-1.69-.51-3.33-1.14-4.92-1.91-.57-.27-1.13-.56-1.68-.86-3.08-1.7-5.9-3.89-8.32-6.47,1.16-7.17,6.72-9.82,11.18-10.56.06-.02.14-.03.2-.04,0,0,5.33,3.26,3.51,19.3Z"/>
    </g>
  </g>
</svg>