<?xml version="1.0" encoding="UTF-8"?>
<svg id="TEXT" xmlns="http://www.w3.org/2000/svg" viewBox="0 0 519 308">
  <defs>
    <style>
      .cls-1 {
        fill: #7860ea;
      }

      .cls-1, .cls-2, .cls-3, .cls-4, .cls-5, .cls-6, .cls-7, .cls-8, .cls-9, .cls-10, .cls-11, .cls-12, .cls-13, .cls-14, .cls-15 {
        stroke-width: 0px;
      }

      .cls-2 {
        fill: #4e4e84;
      }

      .cls-4 {
        fill: #e7e5d7;
      }

      .cls-5 {
        fill: #231822;
      }

      .cls-6 {
        fill: #f3d970;
      }

      .cls-7 {
        fill: #d3d1c2;
      }

      .cls-8 {
        fill: #fdf982;
      }

      .cls-9 {
        fill: #fff;
      }

      .cls-16 {
        letter-spacing: -.01em;
      }

      .cls-17 {
        font-family: Outfit-Medium, Outfit;
        font-size: 3.92px;
        font-weight: 500;
      }

      .cls-17, .cls-14 {
        fill: #6767aa;
      }

      .cls-10 {
        fill: #e69d75;
      }

      .cls-11 {
        fill: #161716;
      }

      .cls-18 {
        letter-spacing: -.12em;
      }

      .cls-12 {
        fill: #fafcfb;
      }

      .cls-13 {
        fill: #d47063;
      }

      .cls-15 {
        fill: #9c9eaa;
      }
    </style>
  </defs>
  <g>
    <g>
      <g>
        <polygon class="cls-10" points="113.33 282.63 96.94 282.86 96.7 267.4 113.02 265.35 113.33 282.63"/>
        <g>
          <path class="cls-4" d="M130.18,285.41l-33.47.02v-6.74s2.43-3.23,6.14-1.59c0,0,5.49,3.97,10.43-.78l12.4,5.31s4.51,1.48,4.51,3.77Z"/>
          <path class="cls-2" d="M97.88,285.41h33.75v2.36h-33.75c-.65,0-1.18-.53-1.18-1.18h0c0-.65.53-1.18,1.18-1.18Z" transform="translate(228.48 573.13) rotate(179.97)"/>
          <path class="cls-2" d="M116.94,277.89c-1.12,1.75-3.38,5.28-4.81,7.52h-2.28c1.28-2,3.96-6.2,5.3-8.29l1.79.77Z"/>
          <path class="cls-2" d="M115.79,285.41h-2.28c1.04-1.63,3.07-4.81,4.51-7.06l1.79.77c-1.21,1.89-2.88,4.51-4.02,6.29Z"/>
        </g>
        <polygon class="cls-10" points="80.81 282.7 64.42 283.13 64 267.67 80.3 265.43 80.81 282.7"/>
        <path class="cls-2" d="M84.03,151.22c.74,15.96,4.51,75.61,9.98,116.41.36,2.69,2.67,4.69,5.38,4.65,3-.05,7.56.23,12.17-1.24,2.23-.71,3.76-2.77,3.77-5.1l1.16-124.69c0-.3-.02-.6-.07-.9l-.1-.61c-.56-3.38-4.1-5.37-7.28-4.11l-19.93,7.94c-2.13.85-5.18,5.36-5.08,7.65Z"/>
        <path class="cls-14" d="M63.57,149.34s-6.08,42.57-1,120.71c.15,2.24,2,3.99,4.24,4.13,3.18.2,8.01.11,13.44-1.41,1.84-.51,3.17-2.13,3.31-4.03l7.78-112.9,5.83-28-33.6,21.5Z"/>
        <path class="cls-5" d="M62.91,273.69h0s0,0,0,0Z"/>
        <g>
          <path class="cls-9" d="M97.69,285.28l-33.47.42-.08-6.74s2.39-3.26,6.12-1.66c0,0,5.54,3.91,10.42-.9l12.46,5.17s4.52,1.43,4.55,3.72Z"/>
          <path class="cls-14" d="M65.41,285.47h33.75v2.36h-33.75c-.65,0-1.18-.53-1.18-1.18h0c0-.65.53-1.18,1.18-1.18Z" transform="translate(166.95 572.27) rotate(179.29)"/>
          <path class="cls-14" d="M84.37,277.92c-1.1,1.77-3.31,5.32-4.72,7.58l-2.28.03c1.26-2.02,3.89-6.25,5.2-8.35l1.8.75Z"/>
          <path class="cls-14" d="M83.31,285.45l-2.28.03c1.02-1.64,3.02-4.84,4.43-7.11l1.8.75c-1.19,1.9-2.83,4.54-3.94,6.34Z"/>
        </g>
      </g>
      <path class="cls-8" d="M119.68,155.99l.19-.23,3.59-55.51s17.75,14.53,22.75,15.2c5,.67,28.57-28.47,28.57-28.47-3.44-11.13-12.51-13.43-12.51-13.43l-18.89,18.63-18.37-21.26c-.96-.75-4.52-.39-8.43-2.18-6.61-1.11-14.64-1.96-14.64-1.96,0,0-16.08-2.3-18.9-.79-2.83,1.51-19.44,28.95-22.1,41.82-2.66,12.87-4.1,19.59,5.04,21.93l1.84,2.51.41,17.88s15.34,7.64,51.53,6.26l-.08-.4Z"/>
      <path class="cls-15" d="M162.27,73.55l-18.89,18.63-18.37-21.26c-.95-.74-4.44-1.51-8.43-2.18l-14.75,29.74-15.47-33.06c-6.39-.49-8.21.9-9.64,1.75-11.01,6.58-16.16,27.83-18.82,40.7-2.66,12.87-1.87,21.43,7.27,23.77l.36.04-3.95,20.11s23.65,7.78,59.84,6.4l.19-.23,2.58-56.1s16.97,14.97,21.97,15.64c5,.67,28.63-30.52,28.63-30.52-3.44-11.13-12.51-13.43-12.51-13.43Z"/>
      <polygon class="cls-5" points="75.35 113.14 75.01 112.62 79.04 109.57 82.08 91.17 82.66 91.27 79.58 109.93 75.35 113.14"/>
      <path class="cls-5" d="M68.5,132.32l-3.4-.38c-4.49-1.15-7.19-3.82-8.28-8.16-.94-3.77-.69-8.85.79-15.98l.58.13c-3.01,14.55-.97,21.33,7.03,23.39l3.35.37-.07.63Z"/>
      <path class="cls-5" d="M143.12,97.58l-.03-5.27-17.79-20.59c-1.3-1.51-4.07-1.77-4.1-1.77l.06-.63h0c.13.01,3.02.28,4.48,1.97l17.95,20.76.04,5.52h-.59Z"/>
      <path class="cls-5" d="M143.58,92.41l-.4-.46,19.61-17.89.16.04c.09.02,8.46,1.67,12.12,12.78l-.56.22c-3.29-9.98-10.66-12.34-11.83-12.72l-19.09,18.05Z"/>
      <path class="cls-5" d="M124.42,113.91l-3.28,43.97c-2.05.08-15.37.6-22.75-.13l-.06.63c.17.02.34.03.52.05,8.11.71,22.43.08,22.58.07h.27s3.34-44.57,3.34-44.57l-.61-.03Z"/>
      <path class="cls-5" d="M95.29,78.12c-2.8-2.25-4.7-5.51-5.33-9.2l.58-.12c.61,3.53,2.42,6.66,5.1,8.81l-.36.51Z"/>
      <g>
        <path class="cls-10" d="M99.49,41.63s4.85-1.58,8.87.21c2.33,1.04,3.73,3.46,3.51,6l-.22,2.48-12.31-6.58s-2.11.78-1.92.5c.19-.28,2.07-2.62,2.07-2.62Z"/>
        <g>
          <path class="cls-10" d="M111.89,47.55l-.91,10.48s-.17,3.76-3.49,3.94l.18,5.05c.07,1.88-1.2,3.56-3.03,3.97-.9.2-1.95.31-3.13.21-3.74-.33-5.53-3.31-5.72-4.74-.19-1.43,1.33-8.06,1.33-8.06l.17-3.31,1.54-12.73,13.06,5.2Z"/>
          <path class="cls-5" d="M102.42,51.71s-.08-.02-.1-.05c-.06-.06-.05-.16.01-.22.02-.02,2.36-2.03,4.18-.28.06.06.06.16,0,.22-.06.06-.16.06-.22,0-1.62-1.55-3.67.21-3.76.29-.03.03-.08.04-.12.04Z"/>
          <path class="cls-5" d="M108.94,51.33s-.09-.03-.11-.06c-.05-.07-.04-.17.03-.22.07-.05,1.67-1.19,2.54-.3.06.06.06.16,0,.22-.06.06-.16.06-.22,0-.68-.7-2.12.33-2.13.34-.03.02-.07.03-.11.03Z"/>
          <path class="cls-3" d="M105.52,52.61c-.02.26-.25.45-.51.43-.26-.02-.45-.25-.43-.51.02-.26.25-.45.51-.43.26.02.45.25.43.51Z"/>
          <path class="cls-3" d="M110.54,52.58c-.02.26-.25.45-.51.43-.26-.02-.45-.25-.43-.51.02-.26.25-.45.51-.43.26.02.45.25.43.51Z"/>
          <path class="cls-5" d="M99.51,41.46s-3.95-.54-5.25,2.84c-1.31,3.38.25,5.36.19,6.4-.06,1.04-1.36,7.94,3.57,7.85l2.32-11.39-1.3-4.73.47-.97Z"/>
          <path class="cls-10" d="M101.67,52.11c-.14,1.55-1.5,2.7-3.05,2.56-1.55-.14-2.7-1.5-2.56-3.05.14-1.55,1.5-2.7,3.05-2.56,1.55.14,2.7,1.5,2.56,3.05Z"/>
          <path class="cls-13" d="M98.51,53.57c-.58-.05-.93-.52-1.02-.97-.11-.53.11-1.02.55-1.24.66-.33,1.2-.03,1.47.18-.09-.33-.26-.58-.51-.74-.53-.35-1.23-.19-1.24-.19-.04.01-.08-.02-.09-.06-.01-.04.02-.08.06-.09.03,0,.78-.18,1.36.21.34.23.55.59.63,1.09l.04.28-.18-.21s-.64-.74-1.47-.32c-.46.23-.54.72-.47,1.07.07.36.35.8.88.85,0,0,.01,0,.02,0,.04,0,.07.04.07.08,0,.04-.04.08-.08.07,0,0-.01,0-.02,0Z"/>
          <path class="cls-13" d="M100.18,58.13s-.33,6.29,7.45,7.57l-.13-3.72s-5.16.58-7.32-3.84Z"/>
          <path class="cls-13" d="M106.9,55.91s-.06-.03-.07-.06c0-.04.02-.08.06-.09l1.61-.38-.17-3.72s.03-.08.07-.08c.04,0,.08.03.08.07l.18,3.85-1.73.41s-.02,0-.02,0Z"/>
          <polygon class="cls-10" points="96.92 59.26 97.93 54.02 99.23 54.28 98.77 59.57 96.92 59.26"/>
        </g>
        <path class="cls-5" d="M100.25,41.42s-1.11,2.11.08,5.9c1.19,3.79-3.75-1.7-3.75-1.7,0,0,.84-5.32,3.67-4.2Z"/>
      </g>
      <path class="cls-5" d="M100.33,47.32s11.99.33,12.96-2.4c.98-2.73-1.82-3.05-1.82-3.05,0,0,.87-3.92-2.83-3.06-3.7.86-10.36.13-12.53,3.3-2.17,3.17,4.22,5.2,4.22,5.2Z"/>
      <path class="cls-5" d="M99.91,49.29l.32,2.22.58-.6s1.29-3.04.72-4.6-3.58.35-3.58.35l1.96,2.63Z"/>
      <polygon class="cls-6" points="95.9 64.72 102.48 71.36 107.66 66.88 111.3 67.93 107.13 76.75 102.53 73.35 97.23 76.22 91.35 65.64 95.9 64.72"/>
      <path class="cls-12" d="M108.87,57.14s-2.96-.09-2.96-.09c0,0,.37.85,1.46.88,1.08.03,1.51-.79,1.51-.79Z"/>
      <g>
        <g>
          <path class="cls-9" d="M233.53,106.19l-77.35,63.65c-3.45,2.84-8.56,2.33-11.38-1.13l-34.9-42.78c-2.81-3.44-2.31-8.51,1.13-11.34l77.35-63.65c3.45-2.84,8.56-2.33,11.38,1.13l34.9,42.78c2.81,3.44,2.31,8.51-1.13,11.34Z"/>
          <path class="cls-15" d="M150.97,172.35c-2.39,0-4.62-1.06-6.13-2.91l-34.75-42.55c-.15-.18-.12-.45.06-.6.08-.06.17-.1.27-.1.13,0,.25.06.33.16l33.93,41.55c1.81,2.18,3.99,3.33,6.33,3.33,1.84,0,3.72-.75,5.42-2.16l47.65-39.21c.08-.06.17-.1.27-.1.13,0,.25.06.33.16.15.18.12.45-.06.6l-48.65,40.03c-1.41,1.16-3.19,1.8-5.02,1.8Z"/>
          <path class="cls-15" d="M137.58,93.15c-.07,0-.18-.02-.27-.1-.1-.09-.15-.2-.15-.33,0-.13.06-.24.15-.32l51.18-42.12c1.43-1.17,3.23-1.82,5.07-1.82,2.41,0,4.67,1.07,6.19,2.94l27.94,34.24c.15.18.12.45-.06.6-.08.07-.17.1-.27.1-.13,0-.25-.06-.33-.16l-27.61-33.84c-1.46-1.79-3.62-2.81-5.93-2.81-1.77,0-3.49.62-4.86,1.74l-50.75,41.76c-.09.07-.2.11-.31.11Z"/>
          <g>
            <path class="cls-14" d="M168.35,115.53c.18.38.39.76.54,1.17.15.42.26.86.36,1.29.08.36-.17.69-.58.83-.44.15-.94-.05-1.08-.43-.11-.3-.22-.61-.34-.91-.28-.7-.64-1.35-1.27-1.82-.34-.25-.71-.45-1.11-.6-.28-.1-.51-.25-.67-.51-.31-.5-.09-1.09.48-1.33.54-.23,1.1-.22,1.65-.11,1.06.19,2.02.65,2.95,1.18.35.2.69.43,1.04.65.09.05.18.11.27.14.29.11.49-.05.44-.36-.03-.18-.08-.37-.16-.53-.25-.51-.64-.92-1.06-1.29-.7-.62-1.46-1.13-2.35-1.45-.35-.13-.72-.21-1.1-.21-.58,0-.96-.49-.9-1.11.06-.58.51-.95,1.09-.88,1.09.13,2.06.56,2.98,1.14,1.24.78,2.3,1.75,3.13,2.97.38.56.69,1.16.81,1.84.11.61.03,1.18-.41,1.65-.29.32-.64.45-1.06.39-.51-.07-.98-.27-1.43-.5-.7-.36-1.38-.73-2.07-1.1-.05-.03-.11-.06-.15-.07Z"/>
            <g>
              <path class="cls-14" d="M176.66,115.3c.05.26.11.51.14.77.06.44-.26.93-.67,1.06-.51.15-1.05-.16-1.2-.69-.05-.2-.08-.4-.12-.6-.54-2.73-2.06-4.76-4.43-6.18-1.04-.63-2.14-1.11-3.3-1.46-.83-.25-.92-1.18-.46-1.64.27-.27.6-.34.97-.23,1.49.44,2.87,1.11,4.14,2.01,1.44,1.02,2.63,2.27,3.56,3.77.62,1,1.07,2.07,1.36,3.21Z"/>
              <path class="cls-14" d="M179.42,112.35c.14.24.3.48.43.73.22.42.1,1.03-.24,1.29-.43.33-1.07.19-1.41-.3-.13-.18-.23-.38-.34-.57-1.55-2.58-3.77-4.12-6.58-4.78-1.23-.29-2.47-.41-3.7-.38-.89.02-1.32-.89-1.06-1.51.16-.37.45-.55.84-.56,1.59-.05,3.16.16,4.72.65,1.76.55,3.38,1.42,4.83,2.63.97.81,1.81,1.74,2.52,2.8Z"/>
              <path class="cls-14" d="M180.13,112.64c.03.28.07.56.09.84.03.48-.37.98-.83,1.08-.56.12-1.13-.26-1.24-.85-.04-.22-.05-.44-.08-.66-.34-3-1.81-5.32-4.25-7.07-1.07-.77-2.22-1.39-3.45-1.87-.87-.34-.89-1.35-.35-1.82.32-.27.69-.32,1.08-.17,1.57.61,3.01,1.45,4.31,2.54,1.47,1.23,2.65,2.68,3.53,4.38.58,1.14.98,2.33,1.19,3.59Z"/>
            </g>
            <path class="cls-15" d="M164.16,116.4c.76-.18,1.55.33,1.73,1.12.17.72-.26,1.42-.96,1.59-.76.18-1.55-.32-1.73-1.09-.17-.74.25-1.45.97-1.61Z"/>
            <path class="cls-15" d="M161.98,123.28c-1.31,1.1-3.1.95-4.18-.34s-.92-3.08.39-4.18c1.13-.94,2.63-.93,3.71.01l-1.2,1.01c-.52-.32-1.13-.29-1.58.09-.61.51-.65,1.37-.09,2.04s1.41.77,2.02.26c.48-.4.59-1.03.31-1.6l1.21-1.01c.78,1.27.55,2.77-.6,3.73h0Z"/>
            <path class="cls-15" d="M182.07,103.4c.08.1.16.21.23.32l-2.47,2.06c.39.32.8.31,1.16.01.27-.22.39-.53.34-.81l1.14-.95c.4.95.12,1.99-.71,2.69-1.04.87-2.44.75-3.29-.26s-.72-2.4.33-3.28,2.45-.75,3.27.22h0ZM179.33,105.14l1.34-1.12c-.38-.25-.77-.23-1.11.06s-.41.65-.23,1.06Z"/>
            <path class="cls-15" d="M184.19,100.48l-.74.62,1.98,2.37-1.14.96-1.98-2.37-.55.46-.75-.9.57-.47-.27-.32c-.56-.67-.52-1.36.19-1.95l.8-.67.73.88-.51.42c-.17.14-.19.33-.05.5l.19.23.78-.65.75.9Z"/>
            <path class="cls-15" d="M188.05,99.58l.84,1-.79.66c-.73.61-1.56.54-2.17-.2l-1.05-1.25-.61.51-.22-.27.16-2.83.23-.2.81.97.83-.7.74.88-.81.67.88,1.06c.2.24.46.26.7.06l.44-.37Z"/>
          </g>
          <text class="cls-17" transform="translate(170.4 129.61) rotate(-41.55)"><tspan class="cls-18" x="0" y="0">T</tspan><tspan x="1.94" y="0">ap in. S</tspan><tspan class="cls-16" x="14.43" y="0">t</tspan><tspan x="15.86" y="0">and Out</tspan></text>
        </g>
        <path class="cls-10" d="M119.35,124.85c2.92-2.31.13-2.99.13-2.99,1.45-1.41,1.21-2.15.75-2.52-.33-.27-.78-.34-1.18-.21-1.29.41-5.21,1.67-7.62,2.61-1.63-.27-.85-3.19.02-4.65.45-.75.59-2.04-1.31-.89-1.55.94-4.05,4.26-4.05,4.26l-9.08-1.74.19,13.65s10.47.76,12.05.88c1.58.13,7.02-1.34,8.75-2.69,3.13-2.45,1.32-2.74,1.32-2.74,3.03-2.86.04-2.96.04-2.96Z"/>
        <path class="cls-13" d="M115.97,123.81c-.08,0-.15-.06-.18-.14-.03-.11.03-.22.13-.26,1.41-.48,3.44-1.71,3.46-1.72.09-.06.21-.02.26.08.05.1.02.22-.07.28-.08.05-2.09,1.26-3.54,1.76-.02,0-.04,0-.06,0Z"/>
        <path class="cls-13" d="M115.94,126.39c-.09,0-.17-.07-.18-.17-.02-.11.05-.22.16-.24,1.77-.35,3.33-1.3,3.34-1.31.09-.06.21-.02.26.07.05.1.02.22-.07.28-.07.04-1.63,1-3.47,1.36-.01,0-.02,0-.03,0Z"/>
        <path class="cls-13" d="M116.32,129.33c-.09,0-.17-.07-.18-.16-.02-.11.05-.22.15-.24,1.52-.35,2.9-1.28,2.92-1.29.09-.06.21-.03.26.06.06.09.03.22-.06.28-.06.04-1.46.98-3.04,1.34-.01,0-.03,0-.04,0Z"/>
      </g>
      <path class="cls-15" d="M93.61,111.99l9.16,1.44s1.31,6.46-2.04,19.03c-.33,1.22-.97,3.3-.97,3.3,0,0-9.43-.02-10.62-3.4-.74-2.13,2.04-10.79,2.04-10.79l2.42-9.58Z"/>
      <path class="cls-5" d="M99.97,136.11l-31.47-3.79.07-.63,31,3.73c.62-1.93,4.62-14.94,2.97-21.71l-23.28-3.65.09-.63,23.66,3.71.05.19c1.96,7.41-2.81,21.91-3.01,22.53l-.08.24Z"/>
    </g>
    <g>
      <path class="cls-10" d="M158.12,74.03c.67-.54,1.55-.51,1.67-.36l4.13,5.07c.46.57.44,1.42-.1,1.92-.59.55-1.51.48-2.01-.14l-4.24-5.2s-.13-.75.54-1.29Z"/>
      <path class="cls-10" d="M160.24,72.32c.66-.55,1.54-.54,1.67-.39l4.23,4.99c.48.56.47,1.41-.06,1.92-.58.56-1.5.51-2.01-.1l-4.34-5.12s-.14-.75.52-1.3Z"/>
      <path class="cls-10" d="M162.51,71.29c.53-.46,1.25-.45,1.36-.33l3.5,4.04c.39.45.39,1.15-.03,1.57-.47.46-1.22.43-1.65-.06l-3.59-4.14s-.12-.61.41-1.07Z"/>
      <path class="cls-13" d="M159.94,73.49c-.09-.07-.23-.08-.33,0-.11.09-.13.25-.04.37l4.15,5.05c.39.48.36,1.16-.08,1.56-.23.21-.53.32-.84.3-.31-.02-.59-.17-.79-.41l-3.78-4.64c-.09-.11-.25-.13-.37-.04-.11.09-.13.25-.04.37l3.78,4.64c.28.35.71.57,1.16.6.46.03.89-.12,1.23-.44.63-.59.68-1.58.12-2.27l-4.15-5.05s-.03-.03-.04-.04Z"/>
      <path class="cls-10" d="M156.55,76.21c.59-.48,1.38-.45,1.49-.32l3.67,4.51c.41.51.39,1.26-.09,1.7-.52.49-1.34.42-1.79-.12l-3.76-4.62s-.11-.67.48-1.15Z"/>
      <path class="cls-13" d="M158.17,75.73c-.08-.07-.2-.07-.29,0-.1.08-.11.23-.03.32l3.68,4.49c.34.42.32,1.03-.07,1.39-.21.19-.47.28-.75.27-.28-.02-.53-.15-.7-.36l-3.36-4.12c-.08-.1-.23-.11-.32-.03-.1.08-.11.23-.03.32l3.36,4.12c.25.31.63.51,1.03.53.41.03.79-.11,1.09-.39.56-.52.61-1.41.11-2.02l-3.68-4.49s-.02-.02-.04-.03Z"/>
      <path class="cls-13" d="M162.09,71.99c-.1-.08-.24-.08-.33,0-.11.09-.12.26-.03.37l4.19,4.81c.4.47.39,1.09-.03,1.49-.23.22-.52.33-.84.31-.31-.02-.6-.16-.8-.39l-4.34-5.12c-.09-.11-.26-.12-.37-.03-.11.09-.12.26-.03.37l4.34,5.12c.29.34.72.56,1.17.58.46.02.89-.14,1.22-.46.62-.59.64-1.52.07-2.2l-4.19-4.81s-.02-.02-.03-.03Z"/>
      <path class="cls-13" d="M164.01,70.77c-.08-.07-.21-.07-.29,0-.09.08-.11.23-.02.32l3.5,4.04c.32.37.32.93-.02,1.26-.18.18-.42.27-.67.26-.25,0-.48-.12-.65-.31l-3.59-4.14c-.08-.09-.23-.11-.32-.02-.09.08-.11.23-.02.32l3.59,4.14c.24.28.6.45.97.47.38.01.74-.12,1.01-.39.51-.5.53-1.32.04-1.88l-3.5-4.04s-.02-.02-.03-.03Z"/>
    </g>
  </g>
  <polygon class="cls-10" points="465.39 274.57 475.19 265.27 466.43 256.01 455.63 264.21 465.39 274.57"/>
  <path class="cls-9" d="M457.06,285.91l19.74-19.27-3.88-3.97s-3.3-.51-4.53,2.6c0,0-.95,5.5-6.6,5.55l-4.25,10.27s-1.81,3.47-.49,4.82Z"/>
  <path class="cls-14" d="M453.76,276.41h27.81v1.94h-27.81c-.54,0-.97-.44-.97-.97h0c0-.54.44-.97.97-.97Z" transform="translate(-60.91 405.12) rotate(-44.3)"/>
  <path class="cls-2" d="M415.47,144.79s5.99,32.2,11.45,68.34c15.79,15.22,32.23,31.63,44.51,45.26,0,0-3.41,7.91-13.82,12.58l-25.72-22.02c.02.13.03.26.05.39-7.07-5.64-25.33-19.81-31.94-25.06-1.04-.83-1.76-1.99-2.03-3.28l-4.73-69.47,22.23-6.73Z"/>
  <path class="cls-3" d="M457.62,271.28s.09,0,.13-.03c10.55-4.78,13.94-12.67,13.97-12.74l.08-.18-.14-.14c-.2-.22-20.54-22.06-28.01-29.12-.12-.12-.32-.11-.43.01-.12.12-.11.32.01.43,7.13,6.74,26.02,26.99,27.84,28.94-.56,1.18-4.14,7.97-13.58,12.24-.15.07-.22.25-.15.41.05.11.16.18.28.18Z"/>
  <path class="cls-3" d="M468.34,263.36c.08,0,.16-.03.22-.09.12-.12.12-.31,0-.43l-18.82-19.21c-.12-.12-.31-.12-.43,0-.12.12-.12.31,0,.43l18.82,19.21c.06.06.14.09.22.09Z"/>
  <polygon class="cls-10" points="426.97 283.81 440.48 284 440.67 271.26 427.22 269.58 426.97 283.81"/>
  <path class="cls-9" d="M413.09,286.11h27.59v-5.55s-2.01-2.66-5.06-1.3c0,0-4.52,3.28-8.6-.64l-10.21,4.39s-3.71,1.22-3.71,3.11Z"/>
  <path class="cls-14" d="M412.86,286.11h27.81v1.94h-27.81c-.54,0-.97-.44-.97-.97h0c0-.54.44-.97.97-.97Z"/>
  <path class="cls-14" d="M441.95,140.84s3.18,68.89.68,118.3c-.25,4.93-.74,9.66-1.11,14.11,0,0-7.68,4.84-18.21.65l-10.34-97.21-7.8-20.6v-33.92l36.77,18.67Z"/>
  <path class="cls-3" d="M418.75,231.65c-.17,0-.31-.12-.33-.29l-3.8-35.78c-.02-.18.11-.34.29-.36.18-.02.34.11.36.29l3.8,35.78c.02.18-.11.34-.29.36-.01,0-.02,0-.04,0Z"/>
  <path class="cls-3" d="M431.1,275.79c5.81,0,10.48-2.25,10.55-2.28l.13-.06.03-.14c3.46-18.73,1.25-111.01,1.23-111.94,0-.15-.13-.28-.28-.28h0c-.16,0-.28.13-.28.29.02.93,2.22,92.68-1.19,111.68-1.15.52-9.84,4.22-17.84.59-.14-.07-.31,0-.38.14-.07.14,0,.31.14.38,2.66,1.21,5.39,1.63,7.9,1.63Z"/>
  <path class="cls-3" d="M436.88,275.1c.16,0,.28-.12.28-.28l.5-33.42c0-.16-.12-.29-.28-.29h0c-.16,0-.28.12-.28.28l-.5,33.42c0,.16.12.29.28.29h0Z"/>
  <path class="cls-9" d="M430.73,76.89s10.55-.37,15.59,2.48c7.52,4.26,4.84,28.65,4.84,28.65,0,0-6.39-3.48-6.77-4.65-.39-1.16-13.65-26.49-13.65-26.49Z"/>
  <path class="cls-15" d="M387.97,150.16c-1.35,12.59,1.66,34.17,2.39,43.42,5.97,10.12,55.38,6.35,55.38,6.35-.44-24.14-1.99-58.33-1.99-58.33-20.72,6.68-55.78,8.57-55.78,8.57Z"/>
  <path class="cls-15" d="M440.94,78.8c-6-.83-21.82-1.4-21.82-1.4,0,0-2.1.55-1.43.24-17.47,3.09-19.41,16.04-19.41,16.04l-7.75,34.12-10.27,3.84c-3.07,5.82-.82,21.52-.82,21.52l45.97,5.18s9.94,1.64,18.34-9.14c5.56-7.13,7.45-29.02,7.45-45.02,0,0-.96-24.09-10.27-25.38Z"/>
  <path class="cls-5" d="M425.48,131.77c-.05.02-.11.02-.17.01-.16-.04-.25-.19-.22-.35.05-.2,4.85-20.63,6.9-33.48.03-.16.17-.27.33-.24.16.03.27.17.24.33-2.05,12.87-6.86,33.32-6.91,33.52-.02.1-.09.17-.18.21Z"/>
  <g>
    <path class="cls-9" d="M410.62,252.4l-104.57,28.57c-2.23.61-4.54-.71-5.15-2.94l-58.74-214.94c-.7-2.56.81-5.21,3.37-5.91l103.38-28.25c2.56-.7,5.21.81,5.91,3.37l58.74,214.94c.61,2.23-.71,4.54-2.94,5.15Z"/>
    <path class="cls-4" d="M348.85,28.95l-103.24,28.21c-2.6.71-4.13,3.4-3.42,6l3.08,11.29,112.66-30.78-3.08-11.29c-.71-2.6-3.4-4.13-6-3.42Z"/>
    <path class="cls-3" d="M345.5,24.85l-99.07,27.07c-6.38,1.74-10.13,8.32-8.39,14.7l58.07,212.52c1.74,6.38,8.32,10.13,14.7,8.39l99.07-27.07c6.38-1.74,10.13-8.32,8.39-14.7l-58.07-212.52c-1.74-6.38-8.32-10.13-14.7-8.39ZM412.96,245.02c.95,3.46-1.09,7.04-4.56,7.99l-100.11,27.36c-3.46.95-7.04-1.09-7.99-4.56l-57.48-210.36c-1.06-3.86,1.22-7.85,5.09-8.91l98.66-26.96c3.86-1.06,7.85,1.22,8.91,5.09l57.48,210.36Z"/>
    <path class="cls-1" d="M256.94,62.75c.23.86-.27,1.75-1.13,1.98-.86.23-1.75-.27-1.98-1.13-.23-.86.27-1.75,1.13-1.98.86-.23,1.75.27,1.98,1.13Z"/>
    <path class="cls-1" d="M261.75,61.44c.23.86-.27,1.75-1.13,1.98-.86.23-1.75-.27-1.98-1.13-.23-.86.27-1.75,1.13-1.98.86-.23,1.75.27,1.98,1.13Z"/>
    <g>
      <path class="cls-1" d="M334.61,38.52l.3,1.11-.63.17.52,1.9.63-.17.37,1.34,12.22-3.34-1.19-4.35-12.22,3.34ZM347.51,39.29l-11.39,3.11-1-3.64,11.39-3.11,1,3.64Z"/>
      <rect class="cls-1" x="345.09" y="36.53" width="1.25" height="2.58" transform="translate(2.26 92.46) rotate(-15.28)"/>
      <rect class="cls-1" x="343.06" y="37.08" width="1.25" height="2.58" transform="translate(2.04 91.95) rotate(-15.28)"/>
      <rect class="cls-1" x="340.98" y="37.65" width="1.25" height="2.58" transform="translate(1.82 91.42) rotate(-15.28)"/>
    </g>
    <g>
      <path class="cls-7" d="M312.51,251.2l-29.8-108.78c-1.33-4.86,1.54-9.87,6.4-11.18l60.02-16.17c4.83-1.3,9.81,1.55,11.13,6.37l29.8,108.78c1.33,4.86-1.54,9.87-6.4,11.18l-60.02,16.17c-4.83,1.3-9.81-1.55-11.13-6.37Z"/>
      <ellipse class="cls-9" cx="327.43" cy="234.5" rx="7.02" ry="12.73" transform="translate(-50.8 96.14) rotate(-15.52)"/>
      <path class="cls-9" d="M341.7,236l-26.37-94.98c-.84-3.03.95-6.21,3.99-7.05h0c3.03-.84,6.21.95,7.05,3.99l26.37,94.98c.84,3.03-.95,6.21-3.99,7.05h0c-3.03.84-6.21-.95-7.05-3.99Z"/>
      <path class="cls-9" d="M318.27,193.1l-14.17-51.03c-.55-1.97.62-4.04,2.59-4.59h0c1.97-.55,4.04.62,4.59,2.59l14.17,51.03c.55,1.97-.62,4.04-2.59,4.59h0c-1.97.55-4.04-.62-4.59-2.59Z"/>
      <rect class="cls-9" x="347.31" y="132.84" width="7.45" height="49.11" rx="3.36" ry="3.36" transform="translate(-29.31 99.64) rotate(-15.52)"/>
      <path class="cls-9" d="M300.38,168.06l-6.43-23.18c-.55-1.97.62-4.04,2.59-4.59h0c1.97-.55,4.04.62,4.59,2.59l6.43,23.18c.55,1.97-.62,4.04-2.59,4.59h0c-1.97.55-4.04-.62-4.59-2.59Z"/>
      <path class="cls-9" d="M311.28,207.3l-6.43-23.18c-.55-1.97.62-4.04,2.59-4.59h0c1.97-.55,4.04.62,4.59,2.59l6.43,23.18c.55,1.97-.62,4.04-2.59,4.59h0c-1.97.55-4.04-.62-4.59-2.59Z"/>
      <path class="cls-3" d="M301.27,210.69c-.23,0-.43-.15-.49-.37l-18.74-68.41c-.63-2.31-.33-4.72.86-6.79,1.19-2.07,3.11-3.56,5.42-4.18l59.72-16.11s.09-.02.13-.02c.23,0,.43.15.49.37.07.27-.09.55-.36.63l-58.31,15.73c-5.6,1.56-8.13,5.97-6.59,11.51l18.36,67.01c.04.13.02.27-.05.39-.07.12-.18.2-.31.24-.04.01-.09.02-.13.02Z"/>
      <path class="cls-3" d="M336.17,254.7c-.23,0-.43-.15-.49-.37-.07-.27.09-.55.36-.63l47.48-12.79c2.22-.6,4.07-2.03,5.22-4.02,1.14-2,1.44-4.32.83-6.53l-19.55-71.37c-.07-.26.04-.53.26-.63.07-.03.14-.05.22-.05.23,0,.43.15.49.37l19.72,71.97c.64,2.33.33,4.77-.87,6.87-1.2,2.1-3.15,3.6-5.48,4.23l-48.04,12.94s-.09.02-.13.02Z"/>
    </g>
  </g>
  <path class="cls-5" d="M395.75,131.43c-.06.02-.13.03-.19,0-.15-.05-.24-.21-.19-.36.07-.23,7.2-22.85,8.69-30.67.03-.16.18-.26.34-.23.16.03.26.18.23.34-1.5,7.85-8.63,30.5-8.71,30.73-.03.09-.09.15-.17.18Z"/>
  <path class="cls-5" d="M424.73,88.37c-.22.02-.45.04-.69.06-.13,0-.25-.09-.26-.22,0-.13.09-.25.22-.26,10-.7,11.86-8.02,11.87-8.1.02-.13.15-.22.28-.2.13.02.22.14.2.27-.01.08-1.86,7.43-11.63,8.44Z"/>
  <path class="cls-5" d="M393.71,126.03c-.13.05-.28,0-.35-.13l-1.95-3.34.03-.11,6.57-28.83c.04-.26.61-3.62,3.46-7.32,2.67-3.47,7.94-7.89,17.86-9.21.16-.02.31.09.33.25.02.16-.09.3-.25.33-9.71,1.29-14.85,5.59-17.45,8.96-2.82,3.66-3.36,7.06-3.37,7.09v.02s-6.55,28.73-6.55,28.73l1.83,3.14c.08.14.03.32-.1.4-.01,0-.03.02-.04.02Z"/>
  <g>
    <path class="cls-10" d="M421.52,54.68l-2.47,12.4s-.96,3.95,2.43,5.14l-1.71,5.19c-.64,1.93.17,4.06,1.95,5.03.87.48,1.93.91,3.19,1.16,3.98.79,6.74-1.77,7.37-3.19.63-1.43,1.06-8.77,1.06-8.77l.82-3.48,2.25-13.68-14.89.2Z"/>
    <path class="cls-13" d="M430.24,70.44s-1.56,6.62-10.02,5.6l1.26-3.83s5.19,2.16,8.76-1.78Z"/>
    <path class="cls-11" d="M429.85,63.1s.09,0,.12-.02c.08-.05.1-.15.05-.23-.02-.03-1.84-2.82-4.26-1.55-.08.04-.11.15-.07.23.04.08.15.12.23.07,2.15-1.12,3.75,1.33,3.82,1.44.03.04.07.07.11.07Z"/>
    <path class="cls-11" d="M435.92,62.49l-3.73.03-.78.54s1.51-5.95,2.42-6.99c.91-1.05,2.1,6.42,2.1,6.42Z"/>
    <path class="cls-11" d="M423.2,60.74s.1,0,.14-.03c.07-.06.09-.16.03-.24-.06-.07-1.37-1.74-2.54-1.08-.08.05-.11.15-.06.23.05.08.15.11.23.06.92-.52,2.1.98,2.11.99.03.03.06.05.1.06Z"/>
    <path class="cls-3" d="M426.36,63.1c-.05.28.12.54.4.6.28.05.54-.12.6-.4.05-.28-.12-.54-.4-.6-.28-.05-.54.12-.6.4Z"/>
    <path class="cls-3" d="M421.16,61.55c-.05.28.12.54.4.6.28.05.54-.12.6-.4.05-.28-.12-.54-.4-.6-.28-.05-.54.12-.6.4Z"/>
    <path class="cls-10" d="M430.51,63.75c-.33,1.65.74,3.26,2.39,3.58,1.65.33,3.26-.74,3.58-2.39.33-1.65-.74-3.26-2.39-3.58s-3.26.74-3.58,2.39Z"/>
    <path class="cls-13" d="M433.69,66.1c.62.12,1.13-.26,1.36-.7.27-.52.19-1.09-.2-1.46-.58-.54-1.23-.4-1.58-.26.2-.31.45-.52.75-.62.65-.21,1.34.17,1.34.18.04.02.09,0,.12-.03.02-.04,0-.09-.03-.12-.03-.02-.75-.42-1.48-.19-.42.13-.75.45-.98.94l-.13.27.25-.17s.88-.57,1.62.11c.41.38.34.92.17,1.26-.19.35-.6.73-1.17.61,0,0-.01,0-.02,0-.05,0-.09.02-.1.07,0,.05.02.09.07.1,0,0,.01,0,.02,0Z"/>
    <path class="cls-13" d="M423.93,66.11s.07,0,.09-.04c.02-.04,0-.09-.03-.12l-1.55-.88,1.31-3.81s0-.09-.05-.11c-.04-.02-.09,0-.11.05l-1.35,3.94,1.68.95s.02,0,.03,0Z"/>
    <path class="cls-12" d="M424.9,67.98s-3.27-.74-3.27-.74c0,0,.14,1.42,1.34,1.69,1.2.27,1.93-.95,1.93-.95Z"/>
    <path class="cls-11" d="M435.92,62.49c-.15.57,1.41-9.21,1.08-9.49.69-1.32-5.45-1.83-6-1-1.46.84-6-2-6-2,0,0-2.35-1.46-4,2-1.65,3.46,4.35,5.32,9.96,4.66,0,0,3.28,1.71,4.96,5.83Z"/>
  </g>
  <path class="cls-5" d="M433.29,129.83s-.03,0-.04.01l-7.76,1.78c-.16.04-.31-.06-.35-.22-.04-.16.06-.31.22-.35l7.76-1.78c.16-.04.31.06.35.22.03.14-.05.29-.18.34Z"/>
  <path class="cls-5" d="M433.43,157.47c-.68.26-1.32.46-1.92.62-3.55.94-6.04.55-6.14.53-.16-.03-.27-.18-.24-.33.03-.16.18-.27.33-.24.02,0,2.49.39,5.93-.53,3.17-.85,7.86-3.01,12.14-8.5,5.38-6.89,7.34-28.12,7.39-44.2,0-.16.13-.29.29-.29.16,0,.29.13.29.29-.05,16.17-2.04,37.55-7.51,44.56-3.6,4.61-7.48,6.93-10.56,8.1Z"/>
  <path class="cls-10" d="M359.85,145.3c-.11-.74.41-1.44,1.14-1.59l5.65.23c.14-.03.25-.15.27-.3h0c.03-.21-.15-.4-.37-.38l-7.03-.64c-.89-.12-1.45-.57-1.46-1.4,0-.75.43-1.42,1.5-1.35l7.46.52c.16-.01.29-.14.31-.3v-.11c.04-.19-.1-.36-.29-.38l-8.86-1c-.75-.09-1.33-.73-1.29-1.48.04-.82.77-1.42,1.57-1.33l8.9,1c.19.02.36-.11.38-.3l.04-.36c.02-.17-.09-.33-.26-.37l-7.55-1.51c-.73-.18-1.23-.89-1.09-1.63.15-.81.95-1.31,1.73-1.12,0,0,11.41,1.87,13.14,2.06l-1.89-3.61c-.48-.61-.38-1.5.23-1.98h0c.61-.48,1.5-.38,1.98.23l6.42,6.42c.31.4.2,1.41-.09,2.2-.33,8.32-.45,9.59-.75,11.83l-8.79-1.33c-2.54-.38-9.34-.84-9.34-.84-1.02-.17-1.57-.36-1.69-1.17Z"/>
  <path class="cls-15" d="M380.26,131.63s-3.03,7.16-.82,21.52l14.91,2.09-2.71-24.14-11.38.53Z"/>
  <path class="cls-5" d="M435.51,132.02s-.07.02-.11.02c-.42-.01-41.49-1.25-54.93-.14-.33.88-1.85,5.44-1.42,13.78,0,.16-.11.3-.28.3-.16,0-.3-.12-.3-.28-.48-9.45,1.45-14.01,1.53-14.2l.07-.16h.17c13.28-1.15,54.76.09,55.18.1.16,0,.29.14.28.3,0,.12-.08.22-.19.26Z"/>
  <path class="cls-5" d="M417.03,157.71s-.02,0-.03,0l-24.21-2.44c-.18-.02-.31-.18-.29-.36.02-.18.18-.31.36-.29l24.21,2.44c.18.02.31.18.29.36-.02.17-.16.29-.33.29Z"/>
  <path class="cls-5" d="M390.53,127.79h0c-.14-.03-.23-.17-.2-.32l1.08-4.91.52.08-1.07,4.94c-.03.14-.17.23-.32.2Z"/>
  <rect class="cls-11" x="41.3" y="287.68" width="450.7" height="1.51"/>
  <g>
    <path class="cls-14" d="M301.85,102.09c.04.86.13,1.74.09,2.62-.04.91-.18,1.82-.34,2.72-.13.73-.87,1.16-1.75,1.1-.95-.06-1.73-.83-1.7-1.67.03-.66.07-1.32.08-1.99.03-1.55-.14-3.05-.95-4.42-.44-.75-.99-1.42-1.62-2.01-.44-.41-.76-.89-.86-1.48-.19-1.18.68-2.12,1.96-2.13,1.2-.01,2.23.46,3.2,1.09,1.85,1.2,3.29,2.81,4.62,4.55.51.66.96,1.36,1.45,2.04.12.17.25.35.4.49.46.43.96.29,1.11-.32.09-.37.14-.76.12-1.13-.07-1.16-.47-2.23-.97-3.27-.82-1.72-1.86-3.29-3.27-4.59-.56-.52-1.18-.96-1.89-1.27-1.08-.47-1.43-1.68-.82-2.8.57-1.05,1.72-1.39,2.75-.8,1.94,1.11,3.44,2.69,4.72,4.5,1.72,2.45,2.95,5.12,3.54,8.06.27,1.36.38,2.73.07,4.1-.28,1.23-.88,2.23-2.08,2.79-.79.37-1.55.34-2.3-.11-.9-.54-1.62-1.28-2.29-2.08-1.03-1.23-2.03-2.47-3.04-3.71-.08-.1-.17-.19-.22-.26Z"/>
    <g>
      <path class="cls-14" d="M317.69,108.23c-.11.52-.2,1.04-.34,1.56-.23.87-1.23,1.55-2.1,1.46-1.08-.11-1.86-1.13-1.72-2.25.05-.41.16-.82.25-1.23,1.15-5.56-.12-10.58-3.45-15.14-1.46-2-3.16-3.78-5.05-5.35-1.36-1.12-.8-2.95.44-3.46.73-.3,1.41-.17,2.01.33,2.45,2,4.53,4.35,6.21,7.05,1.9,3.05,3.17,6.35,3.73,9.91.37,2.38.38,4.75.02,7.12Z"/>
      <path class="cls-14" d="M325.22,104.85c.08.57.18,1.14.23,1.71.09.97-.62,2.02-1.48,2.24-1.06.27-2.16-.48-2.42-1.68-.09-.44-.14-.9-.2-1.34-.87-6.09-3.84-10.75-8.6-14.2-2.09-1.51-4.32-2.72-6.68-3.64-1.68-.66-1.79-2.72-.8-3.68.58-.57,1.28-.68,2.03-.39,3.03,1.16,5.82,2.81,8.37,4.96,2.87,2.43,5.24,5.34,7.02,8.76,1.19,2.29,2.03,4.71,2.53,7.26Z"/>
      <path class="cls-14" d="M326.33,105.96c-.17.55-.31,1.11-.5,1.65-.33.91-1.47,1.56-2.41,1.38-1.16-.22-1.92-1.38-1.66-2.59.09-.44.25-.87.38-1.31,1.74-5.91.8-11.44-2.41-16.67-1.41-2.29-3.09-4.37-5.01-6.24-1.38-1.34-.61-3.25.78-3.69.81-.26,1.54-.05,2.16.54,2.48,2.39,4.53,5.11,6.11,8.18,1.79,3.47,2.88,7.15,3.17,11.04.2,2.6,0,5.17-.6,7.7Z"/>
    </g>
    <path class="cls-15" d="M293.29,100.41c1.58.27,2.66,1.85,2.37,3.47-.26,1.49-1.62,2.47-3.07,2.23-1.57-.26-2.67-1.84-2.4-3.43.26-1.52,1.62-2.52,3.1-2.27Z"/>
  </g>
</svg>