<?xml version="1.0" encoding="UTF-8"?>
<svg id="BACKGROUND" xmlns="http://www.w3.org/2000/svg" viewBox="0 0 497 539">
  <defs>
    <style>
      .cls-1 {
        fill: none;
        stroke: #2d201b;
        stroke-miterlimit: 10;
        stroke-width: .6px;
      }

      .cls-2 {
        fill: #4e4e84;
      }

      .cls-2, .cls-3, .cls-4, .cls-5, .cls-6, .cls-7, .cls-8 {
        stroke-width: 0px;
      }

      .cls-3, .cls-9 {
        fill: #3c3a8f;
      }

      .cls-4 {
        fill: #d1705d;
      }

      .cls-5 {
        fill: #beb09f;
      }

      .cls-6 {
        fill: #fff;
      }

      .cls-7 {
        fill: #6767aa;
      }

      .cls-8 {
        fill: #9c9eaa;
      }

      .cls-9 {
        stroke: #3c3a8f;
        stroke-linecap: round;
        stroke-linejoin: round;
        stroke-width: 1.5px;
      }
    </style>
  </defs>
  <g>
    <path class="cls-7" d="M128.75,77.97c.69,0,1.4-.04,2.1.03.73.07,1.45.22,2.17.38.58.13.89.74.81,1.45-.09.76-.73,1.35-1.41,1.29-.53-.05-1.06-.11-1.59-.14-1.24-.09-2.45,0-3.58.59-.62.33-1.18.74-1.68,1.22-.35.34-.74.58-1.22.63-.95.1-1.67-.63-1.63-1.66.04-.96.46-1.77,1-2.53,1.04-1.43,2.39-2.53,3.83-3.52.55-.38,1.13-.72,1.69-1.08.14-.09.29-.18.41-.3.36-.35.27-.75-.21-.9-.29-.09-.6-.14-.9-.14-.93,0-1.81.29-2.66.65-1.41.59-2.71,1.36-3.81,2.44-.44.43-.81.91-1.09,1.47-.42.85-1.4,1.08-2.28.55-.82-.5-1.05-1.43-.53-2.24.97-1.51,2.29-2.66,3.79-3.61,2.03-1.28,4.22-2.16,6.6-2.52,1.1-.17,2.2-.2,3.29.11.98.27,1.76.79,2.16,1.78.26.65.21,1.26-.18,1.84-.47.7-1.09,1.25-1.76,1.75-1.02.78-2.06,1.53-3.1,2.29-.08.06-.16.13-.22.17Z"/>
    <g>
      <path class="cls-7" d="M134.29,65.51c.41.11.83.2,1.23.33.69.22,1.19,1.05,1.08,1.74-.13.86-.98,1.45-1.87,1.29-.33-.06-.65-.16-.98-.25-4.42-1.14-8.49-.32-12.28,2.17-1.66,1.09-3.16,2.38-4.49,3.84-.95,1.05-2.39.52-2.75-.49-.21-.59-.08-1.14.34-1.6,1.7-1.89,3.67-3.46,5.9-4.7,2.52-1.4,5.22-2.29,8.09-2.6,1.92-.21,3.82-.12,5.71.26Z"/>
      <path class="cls-7" d="M131.88,59.34c.46-.04.92-.1,1.38-.12.78-.03,1.59.58,1.74,1.28.18.86-.47,1.71-1.44,1.87-.36.06-.72.07-1.09.11-4.92.45-8.77,2.66-11.73,6.34-1.3,1.62-2.35,3.36-3.18,5.21-.59,1.32-2.25,1.33-2.99.49-.43-.49-.49-1.05-.23-1.64,1.05-2.38,2.48-4.56,4.31-6.51,2.06-2.21,4.49-3.99,7.31-5.29,1.88-.86,3.86-1.44,5.92-1.74Z"/>
      <path class="cls-7" d="M132.81,58.49c.43.15.88.29,1.3.47.72.3,1.19,1.24,1.01,1.99-.22.92-1.19,1.49-2.14,1.23-.35-.09-.69-.23-1.03-.35-4.67-1.63-9.14-1.09-13.46,1.28-1.9,1.04-3.63,2.31-5.2,3.77-1.13,1.05-2.63.36-2.93-.77-.17-.66.02-1.24.52-1.71,2.01-1.89,4.28-3.43,6.8-4.58,2.86-1.3,5.84-2.03,8.98-2.11,2.09-.05,4.14.21,6.15.78Z"/>
    </g>
    <path class="cls-8" d="M127.06,84.77c.28-1.25,1.59-2.06,2.88-1.77,1.18.27,1.92,1.39,1.67,2.55-.27,1.25-1.58,2.07-2.85,1.79-1.21-.27-1.96-1.4-1.7-2.57Z"/>
  </g>
  <g>
    <path class="cls-6" d="M249.53,274.28c0,3.18-1.37,6.31-4,8.47-4.45,3.64-10.95,3.23-14.89-.96l-35.69-37.85c3.11,2.1,7,3.02,10.95,2.25,7.88-1.53,13.08-9.24,11.55-17.12l-.9-4.66,30.97,43.53c1.36,1.91,2.02,4.13,2.02,6.33Z"/>
    <path class="cls-6" d="M217.44,229.07c1.53,7.88-3.67,15.59-11.55,17.12-3.95.77-7.84-.15-10.95-2.25h0c-3.1-2.1-5.4-5.37-6.17-9.29l-8.91-46.45c7.51,11.99,26.41,8.65,27.57-10.01.33.83.58,1.7.76,2.6l8.36,43.61h0s.9,4.67.9,4.67Z"/>
    <path class="cls-7" d="M207.48,176.78c0,.48-.02.96-.06,1.41-1.15,18.66-20.06,22-27.57,10.01-1.82-2.91-2.97-6.72-3.04-11.42.35-24.61,30.32-24.61,30.66,0Z"/>
    <path class="cls-3" d="M238.6,286.21c-3.19,0-6.37-1.26-8.7-3.73l-35.69-37.85c-.35-.37-.36-.95-.03-1.33.33-.39.9-.47,1.32-.18,3.02,2.04,6.64,2.79,10.2,2.1,3.55-.69,6.63-2.73,8.67-5.76,2.04-3.02,2.78-6.64,2.09-10.19l-.9-4.66c-.09-.46.16-.92.59-1.11.43-.19.94-.04,1.21.34l30.97,43.53c1.44,2.03,2.21,4.42,2.21,6.91,0,3.6-1.59,6.97-4.37,9.25-2.2,1.8-4.89,2.69-7.56,2.69ZM199.15,246.95l32.21,34.16c3.57,3.78,9.51,4.16,13.53.87,2.31-1.89,3.64-4.7,3.64-7.7,0-2.07-.64-4.06-1.84-5.75l-28.3-39.78.03.14c.79,4.07-.06,8.23-2.4,11.69-2.34,3.47-5.87,5.81-9.94,6.6-2.33.46-4.69.37-6.93-.22Z"/>
    <path class="cls-3" d="M203.09,247.46c-3.04,0-6.03-.9-8.63-2.64-.03-.02-.06-.03-.09-.05-3.46-2.34-5.8-5.87-6.59-9.93l-8.91-46.46c-.09-.47.17-.94.62-1.12.45-.18.96,0,1.21.4,3.24,5.18,8.99,7.6,14.65,6.16,6.42-1.63,10.56-7.5,11.07-15.71.03-.47.38-.85.84-.93.46-.08.91.19,1.09.62.35.9.62,1.83.81,2.78l8.36,43.62s0,.04,0,.06l.89,4.6c.79,4.07-.06,8.23-2.4,11.69-2.34,3.47-5.87,5.81-9.94,6.6-1,.19-2,.29-2.99.29ZM195.42,243.06s.06.03.08.05c3.02,2.04,6.64,2.79,10.2,2.1,3.55-.69,6.63-2.73,8.67-5.76,2.04-3.02,2.78-6.64,2.09-10.19h0s-.9-4.66-.9-4.66c0-.02,0-.04,0-.06l-7.92-41.3c-1.98,7.44-7.1,11.34-11.79,12.53-5.2,1.32-10.46-.17-14.26-3.84l8.16,42.54c.69,3.5,2.7,6.55,5.68,8.6Z"/>
    <path class="cls-3" d="M192.09,196.24c-5.2,0-10.09-2.72-13.09-7.52-2.05-3.27-3.12-7.28-3.19-11.94.19-13.39,8.6-19.47,16.33-19.47s16.14,6.08,16.33,19.44v.03c-.01.51-.02,1-.06,1.48-.66,10.71-6.93,16.06-12.57,17.5-1.25.32-2.51.47-3.75.47ZM192.14,159.32c-6.78,0-14.16,5.47-14.33,17.47.06,4.25,1.03,7.92,2.88,10.88,3.24,5.18,8.99,7.6,14.65,6.17,6.42-1.63,10.56-7.5,11.07-15.71.04-.45.05-.9.06-1.35-.18-11.99-7.55-17.45-14.33-17.45Z"/>
    <path class="cls-3" d="M192.14,192.05c-.46,0-.87-.32-.98-.79-.12-.54.22-1.07.76-1.19h0c.44-.1,10.81-2.55,10.81-14.65,0-.55.45-1,1-1s1,.45,1,1c0,13.74-12.26,16.58-12.39,16.61-.07.02-.14.02-.21.02Z"/>
    <path class="cls-3" d="M249.04,278.52c-.28,0-.56-.12-.76-.35l-33.12-38.7c-.11-.13-.19-.29-.22-.47l-10.02-53.53c-.1-.54.26-1.07.8-1.17.54-.1,1.07.26,1.17.8l9.98,53.26,32.95,38.5c.36.42.31,1.05-.11,1.41-.19.16-.42.24-.65.24Z"/>
  </g>
  <g>
    <path class="cls-6" d="M285.94,285.54c1.95.79,2.9,3.04,2.11,4.99-.39.99-1.15,1.7-2.06,2.08-.91.38-1.95.42-2.94.03l-14.7-6.1c.55-1.32.93-2.7,1.09-4.12.16-1.23.17-2.49,0-3.72l16.48,6.83Z"/>
    <path class="cls-6" d="M283.2,296.98c1.76,1.16,2.24,3.55,1.08,5.32-.58.88-1.47,1.43-2.43,1.63-.97.19-2,.02-2.89-.56l-15.42-10.4-.06-.06c.63-.48,1.23-1.02,1.78-1.6,1.21-1.26,2.2-2.74,2.92-4.35,0-.03.03-.06.04-.09l14.98,10.11Z"/>
    <path class="cls-6" d="M257.15,266.74c.08,0,.15,0,.23,0h17.94c2.11,0,3.84,1.73,3.84,3.84,0,1.06-.43,2-1.12,2.7-.7.69-1.66,1.12-2.71,1.12h-13.83c-2.98,18.04-22.1,10.81-22.65,10.6h0c-.24-.39-.43-.79-.63-1.17-3.36-6.96-.38-14.06,7.12-16.63,3.18-1.08,7.17-1.35,11.84-.45Z"/>
    <path class="cls-6" d="M273.6,303.01c1.51,1.48,1.53,3.93.05,5.42-.74.76-1.71,1.12-2.69,1.14-.99,0-1.97-.36-2.72-1.09l-12.74-12.7-.07-.23c2.14,0,4.11-.46,5.86-1.31.77-.36,1.5-.81,2.18-1.32l.08.05,10.06,10.04Z"/>
    <path class="cls-8" d="M269.46,278.71c.16,1.23.15,2.49,0,3.72-.17,1.42-.54,2.8-1.09,4.12-.04.11-.09.22-.14.33,0,.03-.03.06-.04.09-.72,1.61-1.71,3.09-2.92,4.35-.54.58-1.14,1.11-1.78,1.6,0,0,0,0-.02,0-.68.51-1.41.96-2.18,1.32-1.75.85-3.72,1.32-5.86,1.31h-.16c-.63-.02-1.26-.07-1.91-.17-1.09-.16-2.21-.44-3.37-.88-1.33-.65-2.55-1.35-3.68-2.07-3.48-2.26-5.93-4.82-7.47-7.44.55.21,19.68,7.44,22.65-10.6h6.69c.15.31.29.61.41.93.44,1.08.73,2.23.87,3.38Z"/>
    <path class="cls-6" d="M263.54,292.97l-.08-.05s0,0,.02,0l.06.06Z"/>
    <path class="cls-6" d="M258.69,305.35c.68,1.99-.39,4.18-2.4,4.86-1,.35-2.03.24-2.92-.19-.88-.43-1.6-1.2-1.94-2.2l-5.13-15.39c1.12.72,2.35,1.42,3.68,2.07,1.16.43,2.28.72,3.37.88.65.1,1.28.15,1.91.17l.23.23,3.2,9.57Z"/>
    <polygon class="cls-6" points="255.42 295.55 255.49 295.78 255.27 295.55 255.42 295.55"/>
    <path class="cls-9" d="M244.92,266.37c.14.28.28.54.39.83-7.51,2.56-10.48,9.67-7.12,16.63-.18.07-.36.14-.55.2-1.75-1.67-4.48-5.51-1.82-11.66,2.64-6.13,6.91-6.35,9.1-6Z"/>
    <path class="cls-6" d="M238.19,283.83c.2.38.39.78.63,1.16,0,0-.52-.33-1.18-.97.19-.06.37-.13.55-.2Z"/>
    <path class="cls-3" d="M284.48,293.92c-.61,0-1.22-.12-1.8-.35l-14.71-6.1c-.25-.1-.44-.3-.54-.54-.1-.25-.1-.52,0-.77.53-1.26.87-2.56,1.02-3.85.15-1.19.16-2.35.01-3.47-.04-.35.1-.71.38-.92.28-.22.66-.26.99-.13l16.48,6.83c1.19.48,2.12,1.4,2.62,2.59.5,1.19.52,2.5.03,3.7-.47,1.18-1.4,2.12-2.6,2.63-.61.26-1.25.39-1.9.39ZM269.64,286l13.8,5.72c.69.28,1.47.27,2.17-.03.71-.3,1.25-.84,1.52-1.53.28-.7.28-1.47-.02-2.17-.3-.7-.84-1.24-1.54-1.52,0,0,0,0,0,0l-14.99-6.21c.01.76-.03,1.53-.13,2.3-.14,1.15-.41,2.31-.8,3.45Z"/>
    <path class="cls-3" d="M281.09,305c-.95,0-1.88-.27-2.68-.8l-15.43-10.4c-.05-.04-.11-.08-.15-.13-.2-.2-.33-.51-.31-.8.02-.29.13-.58.36-.75.62-.47,1.17-.97,1.65-1.49,1.14-1.18,2.06-2.55,2.74-4.08.1-.3.33-.53.63-.63.3-.1.63-.05.89.12l14.98,10.11c2.21,1.47,2.82,4.47,1.35,6.7-.71,1.07-1.79,1.8-3.06,2.06-.32.06-.64.09-.96.09ZM265.13,292.84l14.38,9.7c.62.41,1.38.55,2.14.41.73-.15,1.37-.58,1.78-1.2.86-1.3.5-3.07-.79-3.93,0,0,0,0,0,0l-14.03-9.46c-.71,1.35-1.59,2.57-2.63,3.66-.26.28-.54.56-.85.83Z"/>
    <path class="cls-3" d="M247.67,287.6c-4.57,0-8.53-1.42-9.19-1.67-.13-.05-.26-.13-.36-.23-.06-.05-.11-.13-.15-.19-.22-.36-.41-.73-.6-1.1l-.07-.13c-1.76-3.63-1.96-7.44-.58-10.74,1.4-3.36,4.34-5.95,8.26-7.29,3.48-1.19,7.7-1.37,12.22-.51.05,0,.11,0,.17,0h17.94c2.67,0,4.84,2.17,4.84,4.84,0,1.27-.5,2.48-1.41,3.4-.93.92-2.15,1.42-3.42,1.42h-12.99c-.97,4.83-3.2,8.29-6.65,10.28-2.52,1.45-5.36,1.93-8,1.93ZM239.51,284.18c1.7.58,9.56,3,15.16-.24,3.1-1.79,5.06-5.06,5.83-9.71.08-.48.5-.84.99-.84h13.83c.75,0,1.46-.3,2.01-.84.53-.54.83-1.25.83-1.99,0-1.56-1.27-2.84-2.84-2.84h-17.94s-.07,0-.1,0c-.1.01-.21,0-.31,0-4.23-.81-8.14-.67-11.32.42-3.37,1.15-5.88,3.34-7.06,6.17-1.16,2.77-.97,5.99.52,9.08l.06.11c.11.22.23.45.36.67Z"/>
    <path class="cls-3" d="M270.98,310.58c-1.32,0-2.54-.49-3.44-1.38l-12.75-12.71c-.12-.12-.2-.26-.25-.42l-.07-.23c-.09-.3-.04-.63.15-.89.19-.25.49-.4.8-.4.02,0,.04,0,.07,0,1.9,0,3.7-.41,5.36-1.21.71-.34,1.39-.75,2.01-1.22.33-.25.78-.27,1.14-.05.06.04.2.14.25.19l10.06,10.04c.92.9,1.43,2.11,1.44,3.41.01,1.29-.48,2.51-1.38,3.43-.88.9-2.08,1.42-3.38,1.44h0ZM257.54,296.41l11.4,11.36c.52.52,1.24.8,2.02.8.53-.01,1.32-.17,1.98-.84.53-.54.82-1.25.81-2.01,0-.76-.31-1.47-.85-2h0s-9.53-9.51-9.53-9.51c-.53.35-1.08.66-1.66.94-1.31.64-2.71,1.06-4.17,1.27Z"/>
    <path class="cls-3" d="M255.49,296.55h-.22c-.75-.02-1.42-.08-2.06-.18-1.18-.17-2.35-.47-3.57-.93-1.37-.66-2.64-1.38-3.87-2.16-3.45-2.24-6.07-4.85-7.79-7.77-.22-.37-.18-.83.1-1.15.27-.33.73-.44,1.12-.29.38.14,9.31,3.44,15.48-.12,3.1-1.79,5.06-5.06,5.83-9.71.08-.48.5-.84.99-.84h6.69c.38,0,.73.22.9.56.16.33.3.65.44.99.47,1.14.78,2.37.93,3.64.17,1.29.16,2.62,0,3.97-.17,1.47-.57,2.95-1.16,4.38-.03.09-.09.22-.15.35-.01.03-.03.06-.03.08-.78,1.74-1.82,3.3-3.11,4.64-.54.58-1.18,1.16-1.89,1.7-.03.02-.06.04-.09.06-.72.54-1.49,1-2.29,1.38-1.92.93-4.02,1.41-6.22,1.41ZM241.32,286.79c1.44,1.75,3.29,3.36,5.53,4.81,1.16.74,2.36,1.42,3.57,2.01,1,.37,2.03.64,3.08.79.58.09,1.16.14,1.8.16h.19c1.9,0,3.71-.41,5.36-1.21.71-.34,1.39-.75,2.01-1.22.02-.02.05-.03.07-.05.6-.46,1.13-.95,1.59-1.44,1.14-1.18,2.06-2.55,2.74-4.08.01-.04.03-.06.04-.1.04-.08.08-.17.11-.25.54-1.3.89-2.6,1.04-3.89.15-1.19.16-2.35.01-3.47,0,0,0,0,0,0-.13-1.09-.4-2.14-.8-3.12-.04-.1-.08-.21-.13-.31h-5.21c-.97,4.83-3.2,8.29-6.65,10.28-4.83,2.78-10.84,1.98-14.36,1.12Z"/>
    <path class="cls-3" d="M263.5,293.96c-.17,0-.34-.05-.5-.14l-.08-.05c-.38-.24-.55-.7-.43-1.12.08-.29.29-.51.54-.63.38-.18.86-.1,1.15.2.36.36.41.96.1,1.36-.2.25-.49.39-.79.39Z"/>
    <path class="cls-3" d="M255.07,311.42c-.72,0-1.45-.16-2.13-.49-1.17-.58-2.04-1.56-2.46-2.77l-5.13-15.4c-.13-.4,0-.84.33-1.11.33-.26.8-.28,1.15-.05,1.17.75,2.37,1.42,3.58,2.01,1,.37,2.03.64,3.08.79.58.09,1.16.14,1.8.16.25,0,.5.11.68.29l.23.23c.11.11.19.24.24.39l3.19,9.56c.41,1.21.33,2.52-.24,3.68-.57,1.16-1.56,2.03-2.78,2.45-.5.17-1.02.26-1.54.26ZM248.1,294.66l4.28,12.85c.24.7.76,1.28,1.44,1.62.69.33,1.46.38,2.15.14.72-.25,1.3-.75,1.63-1.44.33-.68.38-1.45.14-2.16,0,0,0,0,0,0l-3.05-9.14c-.51-.03-1-.08-1.49-.15-1.18-.17-2.35-.47-3.57-.93-.52-.25-1.04-.52-1.54-.79Z"/>
    <path class="cls-3" d="M255.49,296.78c-.26,0-.51-.1-.71-.29l-.23-.23c-.29-.29-.37-.72-.22-1.09.15-.37.52-.62.92-.62h.16c.44,0,.83.29.96.71l.07.23c.13.44-.05.91-.44,1.15-.16.1-.34.14-.52.14Z"/>
    <path class="cls-3" d="M237.64,285.02c-.25,0-.5-.1-.69-.28-1.61-1.54-5.04-5.86-2.05-12.78,2.99-6.95,8.11-6.92,10.18-6.59.32.05.59.25.73.54l.05.1c.13.26.26.52.38.8.11.25.1.54-.01.79-.11.25-.33.45-.59.53-3.37,1.15-5.88,3.34-7.06,6.17-1.16,2.77-.97,5.99.52,9.08.12.25.13.54.03.8-.1.26-.31.46-.57.57-.2.08-.4.15-.61.22-.1.03-.2.05-.3.05ZM242.48,267.35c-1.99.34-4.15,1.72-5.74,5.41-1.02,2.35-1.18,4.33-.9,5.94-.08-1.79.21-3.53.89-5.16,1.08-2.6,3.08-4.73,5.75-6.19Z"/>
    <path class="cls-3" d="M238.83,285.99c-.18,0-.37-.05-.53-.15-.06-.04-.63-.4-1.35-1.1-.25-.25-.36-.6-.28-.95.08-.34.33-.62.67-.72.17-.05.34-.12.5-.18.48-.18,1.02.02,1.25.48l.07.14c.16.32.33.64.52.96.24.4.18.91-.15,1.23-.19.19-.45.29-.71.29Z"/>
  </g>
  <g>
    <path class="cls-6" d="M150.2,205.48h0c-9.2,6.64-13.63,14.65-13.63,14.65-22.43-8.73-14.41-44.23-12.42-53.54,1.96-9.17,17.16-15.74,24.72-15.57v2.72s4.45,4.18,15.23,4.18c3.6,0,6.27-.34,8.25-.79,3.94-.91,5.05-2.26,5.05-2.26v-1.64c1.75.02,16.82.56,24.3,14.16,7.96,14.47,6.91,39.48-4.21,47.92,0,0,1.92-10.85-7.77-15.95,0,0,0,0,0,0-2.72-1.43-6.35-2.4-11.19-2.55-12.12-.38-21.51,3.77-28.31,8.67Z"/>
    <path class="cls-9" d="M189.71,199.37c9.7,5.1,7.77,15.95,7.77,15.95-2.08,1.57-4.7,3.03-7.77,4.29v-20.24Z"/>
    <path class="cls-7" d="M189.71,229.09v.58s-3.13,5.63-19.76,5.63-19.76-5.63-19.76-5.63v-24.18h0c6.8-4.91,16.18-9.06,28.31-8.68,4.84.16,8.47,1.12,11.19,2.55,0,0,0,0,0,0v29.72Z"/>
    <path class="cls-9" d="M150.2,205.49v18.25c-4.63-.72-9.22-1.9-13.63-3.61,0,0,4.43-8.01,13.63-14.64Z"/>
    <path class="cls-3" d="M136.57,221.13c-.12,0-.24-.02-.36-.07-15.17-5.9-19.59-24.14-13.13-54.21l.1-.47c2.12-9.9,17.94-16.55,25.72-16.36.54.01.98.46.98,1v2.25c1.16.86,5.58,3.66,14.23,3.66,3.12,0,5.82-.26,8.02-.76,2.55-.59,3.8-1.36,4.27-1.73v-1.19c0-.27.11-.52.3-.71.19-.19.44-.29.7-.29h.01c1.76.02,17.42.6,25.17,14.68,7.84,14.24,7.3,40.26-4.48,49.2-.33.25-.77.27-1.12.06-.35-.21-.54-.62-.46-1.03.07-.41,1.66-10.2-7.25-14.89-.03-.01-.05-.03-.08-.04-2.8-1.46-6.4-2.27-10.7-2.41-10.07-.31-19.37,2.51-27.59,8.41-.03.03-.06.05-.1.08-8.9,6.41-13.3,14.23-13.34,14.31-.18.33-.52.52-.88.52ZM147.87,152.03c-7.32.38-20.94,6.35-22.74,14.77l-.1.47c-6.1,28.42-2.36,45.77,11.12,51.6,1.35-2.19,5.71-8.58,13.37-14.13.03-.03.06-.05.1-.08,8.61-6.21,18.34-9.2,28.92-8.86,4.63.15,8.54,1.05,11.63,2.67h0s.05.03.07.04c7.23,3.84,8.35,10.75,8.38,14.46,9.32-9.55,9.25-32.28,2.2-45.1-6.39-11.62-18.62-13.35-22.43-13.6v.59c0,.23-.08.46-.23.64-.14.17-1.45,1.64-5.6,2.6-2.35.54-5.2.81-8.47.81-11.05,0-15.72-4.27-15.91-4.45-.2-.19-.31-.45-.31-.73v-1.71ZM150.2,205.49h0,0Z"/>
    <path class="cls-3" d="M189.71,220.61c-.2,0-.39-.06-.56-.17-.28-.19-.44-.5-.44-.83v-20.24c0-.35.18-.67.48-.86.3-.18.67-.19.98-.03,10.22,5.38,8.31,16.89,8.29,17.01-.04.25-.18.47-.38.62-2.19,1.65-4.88,3.13-7.99,4.42-.12.05-.25.08-.38.08ZM190.71,201.14v16.96c2.23-1,4.18-2.12,5.84-3.33.21-1.79.66-9.22-5.84-13.63Z"/>
    <path class="cls-3" d="M169.96,236.3c-17.02,0-20.49-5.89-20.63-6.15-.08-.15-.13-.32-.13-.49v-24.18c0-.32.15-.63.42-.82,8.61-6.21,18.34-9.2,28.92-8.86,4.63.15,8.54,1.05,11.63,2.67h0c.32.17.54.51.54.9v30.3c0,.17-.04.34-.13.49-.14.25-3.61,6.15-20.63,6.15ZM151.2,229.36c.72.88,4.78,4.95,18.76,4.95s18.01-4.04,18.76-4.95v-29.37c-2.73-1.31-6.17-2.04-10.24-2.18-9.95-.32-19.13,2.44-27.27,8.18v23.36ZM189.71,229.67h0,0Z"/>
    <path class="cls-3" d="M150.2,224.74c-.05,0-.1,0-.15-.01-4.85-.75-9.5-1.99-13.84-3.67-.27-.1-.48-.32-.58-.59s-.08-.57.06-.83c.19-.34,4.64-8.28,13.92-14.96.3-.22.71-.25,1.04-.08.33.17.54.51.54.89v18.25c0,.29-.13.57-.35.76-.18.16-.41.24-.65.24ZM138.06,219.61c3.53,1.29,7.27,2.27,11.15,2.94v-15.07c-6.08,4.77-9.77,9.99-11.15,12.12Z"/>
    <path class="cls-3" d="M136.22,215.79c-.27,0-.54-.11-.74-.33-11.78-12.96-6.85-41.81-3.74-48.79,3.58-8.01,15.93-11.56,16.45-11.71.53-.15,1.08.16,1.23.69.15.53-.16,1.08-.69,1.23-.12.03-11.97,3.44-15.17,10.59-3.3,7.39-7.26,34.91,3.39,46.63.37.41.34,1.04-.07,1.41-.19.17-.43.26-.67.26Z"/>
  </g>
  <g>
    <path class="cls-6" d="M177.4,148.58c-6.69,1.54-13.41-.69-17.91-5.3-1.99-2.04-3.55-4.55-4.47-7.4-2.2-.98-4.27-2.24-6.14-3.75-4.7-3.77-8.23-9.08-9.7-15.41-3.49-14.99,5.83-29.96,20.81-33.45,14.58-3.39,29.13,5.31,33.13,19.58-.08-.25-.16-.48-.25-.73-.23.13-2.35,1.28-5.92,2.71-6.52,2.62-17.87,6.15-31.36,5.97l4.36,18.72c.78,3.37,2.44,6.34,4.67,8.7,4.5,4.77,11.35,7.1,18.18,5.52l.32-.08c10.19-2.37,16.59-12.65,14.22-22.85l.79,3.4c2.38,10.19-4.03,20.48-14.22,22.84l-6.47,1.51s-.03,0-.04,0Z"/>
    <path class="cls-7" d="M183.12,143.67l-.32.08c-6.83,1.58-13.68-.75-18.18-5.52-2.24-2.36-3.9-5.33-4.67-8.7l-4.36-18.72c13.49.19,24.84-3.34,31.36-5.97,3.57-1.43,5.69-2.58,5.92-2.71.09.25.17.48.25.73.08.25.15.49.21.74.04.17.08.33.12.5l.89,3.79,1.74,7.46,1.27,5.47c2.37,10.2-4.03,20.49-14.22,22.85Z"/>
    <path class="cls-6" d="M193.75,115.88c.41,1.78-.69,3.55-2.46,3.96-1.78.41-3.55-.69-3.96-2.46-.4-1.78.69-3.55,2.47-3.96.13-.03.25-.05.36-.07,1.66-.18,3.22.89,3.59,2.53Z"/>
    <path class="cls-6" d="M191.96,108.44c.32,1.12-.52,2.57-1.71,2.74-.13.02-.27.04-.39.06-1.29.19-2.57.32-3.88.43-1.27.12-2.19-1.27-2.19-2.38,0-1.34,1.19-2.08,2.38-2.19.32-.03.68-.07,1.07-.12.65-.08,1.36-.18,1.98-.27,1.27-.19,2.39.43,2.74,1.72Z"/>
    <path class="cls-2" d="M177.4,153.24v1.64s-1.11,1.35-5.05,2.26h0s-12.86-13.85-12.86-13.85c4.5,4.61,11.22,6.83,17.91,5.3v4.66Z"/>
    <path class="cls-6" d="M176.72,119.85c.41,1.78-.69,3.55-2.47,3.95-1.78.41-3.54-.69-3.95-2.46-.41-1.78.69-3.55,2.46-3.96,1.78-.4,3.55.69,3.96,2.47Z"/>
    <path class="cls-6" d="M174.95,112.38c.48,1.07-.13,2.62-1.27,2.98-1.37.41-2.75.79-4.14,1.13-1.24.31-2.36-.94-2.53-2.02-.21-1.33.87-2.25,2.02-2.53.81-.2,2-.54,2.95-.83,1.23-.38,2.43.06,2.98,1.27Z"/>
    <path class="cls-7" d="M148.87,151.02v-18.88c1.87,1.51,3.95,2.77,6.14,3.75.92,2.85,2.48,5.36,4.47,7.4l12.86,13.84h0c-1.97.46-4.65.8-8.25.8-10.78,0-15.23-4.18-15.23-4.18v-2.72Z"/>
    <path class="cls-3" d="M173.21,150.05c-5.35,0-10.62-2.16-14.44-6.07-2.04-2.09-3.61-4.63-4.56-7.36-2.13-.99-4.14-2.23-5.96-3.7-5.09-4.08-8.56-9.59-10.04-15.96-3.61-15.5,6.06-31.04,21.56-34.66,15.07-3.51,30.14,5.4,34.32,20.28.15.52-.15,1.07-.67,1.23-.39.12-.79-.01-1.04-.3-.99.5-2.7,1.31-5.04,2.25-6.87,2.77-17.66,6.01-30.47,6.05l4.07,17.49c.71,3.09,2.24,5.94,4.43,8.24,4.4,4.67,11,6.68,17.23,5.24l.3-.08c9.69-2.25,15.74-11.96,13.49-21.65h0c-.12-.55.21-1.08.75-1.21.54-.12,1.08.21,1.2.75,0,0,0,0,0,.01l.79,3.39c1.21,5.19.31,10.55-2.52,15.11-2.84,4.56-7.26,7.73-12.45,8.93l-6.47,1.51s0,0,0,0c-.01,0-.03,0-.04,0h0c-1.46.34-2.94.5-4.41.5ZM166.36,83.54c-2.03,0-4.09.23-6.15.71-14.42,3.36-23.42,17.83-20.06,32.25,1.38,5.92,4.61,11.06,9.35,14.85,1.81,1.46,3.8,2.67,5.93,3.61.26.12.46.34.55.61.85,2.64,2.27,5,4.23,7,4.39,4.5,10.89,6.42,16.97,5.02h0s.02,0,.04,0l6.47-1.51c4.67-1.08,8.65-3.94,11.2-8.04.81-1.3,1.45-2.68,1.9-4.1-2.56,5.22-7.35,9.29-13.44,10.7l-.3.08c-6.93,1.6-14.26-.62-19.15-5.81-2.42-2.55-4.13-5.72-4.92-9.16l-4.36-18.72c-.07-.3,0-.61.2-.85.19-.24.47-.37.79-.37,13.05.19,24.05-3.11,30.98-5.89,2.46-.98,4.21-1.83,5.11-2.29-3.77-10.96-14.05-18.08-25.32-18.08Z"/>
    <path class="cls-3" d="M178.55,145.23c-5.48,0-10.82-2.25-14.66-6.32-2.42-2.55-4.13-5.72-4.92-9.16l-4.36-18.72c-.07-.3,0-.61.2-.85.19-.24.47-.37.79-.37,13.05.19,24.05-3.11,30.98-5.89,3.68-1.48,5.78-2.64,5.8-2.66.26-.15.56-.17.84-.07.28.1.49.32.59.6.09.26.18.51.26.76.09.27.16.54.23.81l4.02,17.23c2.5,10.76-4.21,21.55-14.96,24.05l-.31.08c-1.49.34-2.99.51-4.49.51ZM156.85,111.81l4.07,17.49c.71,3.09,2.24,5.94,4.43,8.24,4.4,4.67,11,6.68,17.23,5.24l.3-.07s.01,0,.02,0c9.68-2.25,15.72-11.96,13.47-21.65l-4.01-17.22c-.02-.09-.04-.18-.07-.27-1,.5-2.68,1.3-4.96,2.21-6.87,2.77-17.66,6.01-30.47,6.05Z"/>
    <path class="cls-3" d="M172.35,158.13c-.22,0-.44-.08-.62-.22-.07-.06-.13-.12-.18-.19l-12.79-13.76c-.37-.4-.35-1.03.04-1.4.4-.38,1.02-.37,1.41.03,4.39,4.5,10.89,6.42,16.97,5.02.3-.07.61,0,.85.19.24.19.38.48.38.78v6.29c0,.23-.08.46-.23.64-.14.17-1.45,1.64-5.6,2.6-.07.02-.15.03-.22.03ZM165.85,148.66l6.84,7.36c2.17-.57,3.27-1.25,3.71-1.59v-4.63c-3.57.59-7.22.17-10.55-1.13ZM177.4,154.87h0,0Z"/>
    <path class="cls-3" d="M164.1,158.92c-11.05,0-15.72-4.27-15.91-4.45-.2-.19-.31-.45-.31-.73v-21.6c0-.38.22-.74.57-.9.35-.17.76-.12,1.06.12,1.8,1.45,3.8,2.67,5.92,3.61.26.12.46.34.55.61.85,2.64,2.27,5,4.23,7l12.88,13.86c.17.19.27.43.27.68,0,.47-.32.88-.78.98-2.35.54-5.2.81-8.47.81ZM149.87,153.26c1.16.86,5.58,3.66,14.23,3.66,2.35,0,4.45-.15,6.29-.43l-11.64-12.52c-2.02-2.07-3.59-4.61-4.55-7.35-1.52-.7-2.97-1.53-4.33-2.48v19.13Z"/>
    <path class="cls-3" d="M155.02,136.89c-.45,0-.86-.3-.97-.76l-6.14-24.91c-.13-.54.19-1.08.73-1.21.53-.13,1.08.19,1.21.73l6.14,24.91c.13.54-.19,1.08-.73,1.21-.08.02-.16.03-.24.03Z"/>
  </g>
  <g>
    <path class="cls-7" d="M222.72,487.68h-62.08v-20.51h27.6s34.48,3.02,34.48,20.51Z"/>
    <path class="cls-6" d="M203.49,336.99c1.68,2.95,2.74,6.89,2.8,11.83-.08,6.36-1.82,11.08-4.39,14.14h0c-7.36,8.83-21.39,4.11-21.61-14.14.23-19.66,16.52-23.61,23.2-11.84h0Z"/>
    <path class="cls-6" d="M202.42,278.06l1.07,58.92c-6.68-11.78-22.97-7.82-23.2,11.84.22,18.26,14.25,22.97,21.61,14.15l-11.6,90.36c-.49,3.82-2.47,7.08-5.28,9.29h0c-2.71,2.14-6.19,3.28-9.89,2.99-4.39-.36-8.17-2.7-10.48-6.1-1.6-2.32-2.51-5.12-2.48-8.13l1.06-103.05c1.51-1.92,2.87-4.32,3.98-7.23,3.03-8.45,1.78-14.99-1.46-18.78l5.94-42.91c.09-.63.15-1.26.18-1.88,15.83-.33,25.58-2.69,28.03-8.88,1.55,2.79,2.45,5.99,2.52,9.4Z"/>
    <path class="cls-6" d="M197.36,234.48c4.51,5.86,4.86,26.06,2.81,33.39-.08.28-.17.54-.27.8-2.45,6.18-12.2,8.55-28.03,8.88,0-.31.02-.61.02-.91,0-4.56-1.54-8.85-4.18-12.29-3.13-4.07-7.79-6.96-13.28-7.72-8.04-1.11-15.63,2.66-19.76,9.06-1.49-8.55-.89-25.9,3.29-31.21,4.74-6.03,9.87-7.08,12.23-7.22v2.42s3.13,5.63,19.76,5.63,19.76-5.63,19.76-5.63v-.58c2.44.88,5.41,2.49,7.64,5.39Z"/>
    <path class="cls-9" d="M185.03,462.63v4.53h-20.39v-7.63h0c2.32,3.38,6.1,5.72,10.48,6.09,3.7.3,7.18-.85,9.89-2.98Z"/>
    <path class="cls-6" d="M171.87,277.54c-.03.62-.09,1.25-.18,1.88l-5.94,42.91c-5.63-6.61-17.3-4.86-22.92,9.72-5.85,16.35,4.29,25.57,13.88,21.51l-57.4,99.42c-2.42,4.18-6.56,6.78-11.05,7.36-2.31.31-4.69.07-6.98-.75-.55-.21-1.09-.43-1.63-.7-4.08-2.05-6.83-5.72-7.84-9.85-.79-3.21-.52-6.68.99-9.89l51-108.65,7.83-56.62c.42-3.02,1.49-5.79,3.05-8.2,4.12-6.4,11.72-10.18,19.76-9.06,5.48.76,10.15,3.65,13.28,7.72,2.64,3.44,4.18,7.73,4.18,12.29,0,.3,0,.6-.02.91Z"/>
    <path class="cls-6" d="M165.76,322.33c3.23,3.79,4.49,10.33,1.46,18.78-1.11,2.91-2.48,5.31-3.98,7.23-1.99,2.54-4.24,4.26-6.52,5.23-9.59,4.06-19.73-5.16-13.88-21.51,5.62-14.59,17.29-16.33,22.92-9.72Z"/>
    <path class="cls-7" d="M116.57,487.76h-24.91s-34.78-12.79-34.78-12.79l7.08-19.26,4.02,1.48,12.49,4.6,6.25,2.3,3.14,1.15s1.18.55,3.04,1.57c1.86,1.02,4.39,2.49,7.1,4.33,8.17,3.01,16.57,8.32,16.57,16.63Z"/>
    <path class="cls-9" d="M88.26,460.35l-1.54,3.74-6.25-2.3.81-2.19c2.29.82,4.67,1.06,6.98.75Z"/>
    <path class="cls-9" d="M81.28,459.6l-.81,2.19-12.49-4.6,3.82-8.15h0c1.01,4.13,3.76,7.8,7.84,9.85.53.27,1.07.49,1.63.7Z"/>
    <path class="cls-3" d="M222.72,488.68h-62.08c-.55,0-1-.45-1-1v-20.52c0-.55.45-1,1-1h27.6c1.53.13,35.48,3.31,35.48,21.52,0,.55-.45,1-1,1ZM161.64,486.68h60.03c-1.32-15.51-33.2-18.49-33.53-18.52h-26.51v18.52Z"/>
    <path class="cls-3" d="M193.29,368.28c-1.26,0-2.52-.21-3.76-.66-6.29-2.24-10.12-9.27-10.23-18.79.14-12,5.88-17.73,11.21-19.11,5.31-1.37,10.75,1.29,13.85,6.77.02.03.03.06.04.09,1.86,3.31,2.83,7.42,2.89,12.23-.08,6.11-1.65,11.19-4.55,14.71-.02.03-.04.06-.07.09-2.53,3.03-5.92,4.67-9.38,4.67ZM193.34,331.36c-.77,0-1.55.1-2.33.3-4.61,1.19-9.59,6.32-9.71,17.17.12,10.17,4.68,15.41,8.9,16.91,3.82,1.36,7.98.08,10.87-3.33.02-.03.04-.06.07-.09,2.65-3.17,4.09-7.84,4.16-13.51-.05-4.42-.98-8.34-2.67-11.32-.02-.03-.03-.06-.04-.09-2.22-3.87-5.62-6.04-9.24-6.04ZM201.9,362.97h0,0Z"/>
    <path class="cls-3" d="M176.28,466.66c-.41,0-.82-.02-1.22-.05-4.56-.38-8.66-2.76-11.23-6.53-1.76-2.56-2.68-5.57-2.65-8.7l1.06-103.05c0-.22.08-.43.21-.61,1.51-1.93,2.8-4.27,3.84-6.97,2.61-7.28,2.14-13.76-1.29-17.77-.19-.22-.27-.5-.23-.79l5.94-42.91c.08-.6.14-1.2.17-1.79.03-.53.45-.94.98-.95,16.41-.34,25.03-2.96,27.12-8.25.14-.36.48-.6.86-.63.39-.02.75.18.94.51,1.66,2.99,2.57,6.4,2.64,9.86h0s1.07,58.92,1.07,58.92c0,.46-.29.86-.74.98-.44.12-.91-.07-1.13-.47-2.69-4.74-7.13-6.97-11.61-5.81-4.61,1.19-9.59,6.32-9.71,17.17.12,10.17,4.68,15.41,8.9,16.91,3.85,1.37,8.04.06,10.94-3.41.28-.34.76-.45,1.17-.28.41.18.65.6.59,1.04l-11.6,90.36c-.51,3.91-2.48,7.42-5.56,9.88-.03.03-.06.06-.09.08-2.69,2.11-5.97,3.24-9.36,3.24ZM164.23,348.69l-1.05,102.71c-.03,2.72.77,5.33,2.3,7.55,2.24,3.27,5.79,5.34,9.74,5.67,3.28.26,6.51-.7,9.1-2.7.03-.03.06-.05.09-.08,2.72-2.14,4.46-5.2,4.9-8.63l11.23-87.52c-3.22,2.53-7.24,3.28-11.02,1.94-6.29-2.24-10.12-9.27-10.23-18.79.14-12,5.88-17.73,11.21-19.11,4.34-1.12,8.76.45,11.93,4.04l-1.02-55.69c-.05-2.54-.57-4.96-1.55-7.23-3.35,4.88-11.88,7.27-27.06,7.67-.03.35-.07.7-.12,1.04l-5.88,42.48c3.64,4.58,4.14,11.63,1.35,19.41-1.06,2.78-2.38,5.21-3.93,7.24Z"/>
    <path class="cls-3" d="M171.87,278.54c-.27,0-.52-.11-.71-.3-.19-.2-.3-.46-.29-.74,0-.29.02-.59.02-.88,0-4.19-1.41-8.34-3.97-11.68-3.1-4.04-7.58-6.64-12.62-7.34-7.38-1.02-14.75,2.36-18.78,8.61-.22.35-.63.52-1.04.44-.4-.08-.72-.4-.79-.81-1.39-7.96-1.11-26.15,3.49-32,4.91-6.24,10.23-7.44,12.96-7.6.27-.02.54.08.74.27.2.19.31.45.31.73v2.1c.72.88,4.78,4.95,18.76,4.95s18.01-4.04,18.76-4.95v-.26c0-.33.16-.63.43-.82.27-.19.61-.23.91-.12,2.34.84,5.64,2.52,8.1,5.72,4.86,6.31,4.98,27.12,2.98,34.26-.09.31-.19.61-.3.89-2.46,6.22-11.39,9.16-28.94,9.52h-.02ZM151.68,255.43c.96,0,1.92.07,2.89.2,5.56.77,10.51,3.65,13.93,8.1,2.81,3.65,4.36,8.19,4.39,12.78,15.74-.43,24.03-3.04,26.08-8.22.08-.22.16-.46.23-.7,2.09-7.45,1.54-27.06-2.64-32.5h0c-1.83-2.38-4.21-3.81-6.16-4.65-.9,1.21-5.32,5.87-20.44,5.87-17.02,0-20.49-5.89-20.63-6.15-.08-.15-.13-.32-.13-.49v-1.31c-2.56.39-6.6,1.84-10.44,6.73-3.58,4.54-4.44,19.03-3.43,28.01,4.02-4.85,10.06-7.68,16.36-7.68Z"/>
    <path class="cls-3" d="M185.03,468.16h-20.39c-.55,0-1-.45-1-1v-7.63c0-.27.11-.52.29-.71.21-.21.51-.31.8-.29.3.03.57.18.74.43,2.23,3.27,5.78,5.33,9.74,5.66,3.31.26,6.58-.72,9.19-2.77.3-.24.71-.28,1.05-.11.34.17.56.52.56.9v4.53c0,.55-.45,1-1,1ZM180.14,466.16h3.89v-1.63c-1.22.73-2.53,1.27-3.89,1.63ZM165.64,466.16h6.79c-2.58-.68-4.91-2.02-6.79-3.89v3.89Z"/>
    <path class="cls-3" d="M86.34,461.47c-1.83,0-3.66-.32-5.39-.94-.66-.25-1.22-.49-1.74-.75-4.2-2.11-7.25-5.94-8.37-10.51-.88-3.57-.51-7.22,1.05-10.55l50.94-108.51,7.81-56.47c.44-3.11,1.51-6,3.2-8.6,4.45-6.9,12.59-10.64,20.73-9.51,5.56.77,10.51,3.65,13.93,8.1,2.83,3.69,4.39,8.27,4.39,12.9,0,.31,0,.62-.02.94,0,0,0,.01,0,.02-.03.66-.09,1.32-.19,1.98l-5.94,42.91c-.05.39-.33.71-.71.82-.38.11-.79-.01-1.04-.31-2.22-2.6-5.42-3.76-8.8-3.18-5.15.88-9.68,5.48-12.43,12.62-2.78,7.79-2.03,14.73,2.03,18.57,2.8,2.65,6.74,3.27,10.52,1.66.4-.17.85-.06,1.14.26.28.32.33.79.12,1.16l-57.4,99.42c-2.51,4.34-6.8,7.2-11.78,7.85-.68.09-1.37.14-2.06.14ZM151.68,257.43c-6.46,0-12.61,3.28-16.16,8.8-1.53,2.36-2.5,4.98-2.9,7.79l-7.83,56.62c-.01.1-.04.2-.09.29l-51,108.65c-1.37,2.92-1.69,6.11-.92,9.23.97,4,3.64,7.35,7.32,9.2.45.23.95.44,1.53.66,2.07.74,4.33.98,6.5.7,4.36-.57,8.12-3.07,10.31-6.87l56.12-97.2c-3.71.76-7.37-.23-10.14-2.84-4.65-4.4-5.6-12.14-2.53-20.72,3.02-7.84,8.11-12.89,13.97-13.89,3.39-.58,6.64.29,9.18,2.4l5.66-40.94c.08-.59.14-1.19.17-1.79,0-.29.02-.58.02-.87,0-4.19-1.41-8.34-3.97-11.68-3.1-4.04-7.58-6.64-12.62-7.34-.87-.12-1.75-.18-2.62-.18ZM171.87,277.54h0,0Z"/>
    <path class="cls-3" d="M152.15,355.53c-2.85,0-5.56-1.05-7.72-3.09-4.65-4.4-5.6-12.14-2.53-20.72,3.02-7.84,8.11-12.89,13.97-13.89,4.09-.7,7.97.71,10.66,3.86h0c3.91,4.57,4.5,11.78,1.64,19.77-1.11,2.9-2.5,5.42-4.14,7.51-2.02,2.58-4.35,4.44-6.91,5.53-1.65.7-3.33,1.04-4.96,1.04ZM157.88,319.65c-.55,0-1.12.05-1.69.14-5.15.88-9.68,5.48-12.43,12.62-2.78,7.79-2.03,14.73,2.03,18.57,2.8,2.65,6.74,3.27,10.52,1.66,2.25-.96,4.31-2.61,6.12-4.92,1.51-1.93,2.81-4.28,3.84-6.97,2.61-7.28,2.14-13.76-1.29-17.77,0,0,0,0,0,0-1.84-2.16-4.37-3.33-7.11-3.33Z"/>
    <path class="cls-3" d="M116.57,488.76h-24.91c-.12,0-.23-.03-.34-.07l-34.78-12.78c-.25-.09-.45-.28-.56-.52-.11-.24-.12-.52-.03-.76l7.08-19.26c.09-.25.28-.45.52-.56.24-.11.51-.12.76-.03l25.9,9.53c.13.06,1.31.61,3.17,1.63,1.68.92,4.27,2.41,7.08,4.31,11.03,4.09,17.11,10.31,17.11,17.52,0,.27-.11.52-.29.71s-.44.29-.71.29ZM91.84,486.75h23.69c-.74-7.93-10.16-12.58-15.87-14.68-.08-.03-.15-.07-.22-.11-2.78-1.89-5.35-3.37-7.02-4.28-1.8-.99-2.97-1.54-2.98-1.54l-24.88-9.15-6.39,17.38,33.67,12.38Z"/>
    <path class="cls-3" d="M86.73,465.08c-.11,0-.23-.02-.34-.06l-6.25-2.3c-.25-.09-.45-.28-.56-.52-.11-.24-.12-.52-.03-.77l.81-2.19c.19-.51.76-.78,1.27-.59,2.09.75,4.34.99,6.51.7.36-.05.71.1.92.38.22.28.27.66.13.99l-1.54,3.74c-.16.38-.53.62-.92.62ZM81.76,461.19l4.41,1.62.55-1.34c-1.63.04-3.26-.17-4.83-.63l-.13.35Z"/>
    <path class="cls-3" d="M80.47,462.79c-.11,0-.23-.02-.35-.06l-12.49-4.6c-.26-.1-.47-.3-.58-.56-.11-.26-.1-.55.02-.8l3.82-8.15c.17-.35.52-.58.91-.58.46,0,.87.32.98.76.97,4,3.64,7.35,7.32,9.2.45.23.95.44,1.53.66.52.19.78.77.59,1.28l-.81,2.19c-.15.4-.53.65-.94.65ZM69.35,456.63l10.53,3.88.13-.34c-.28-.12-.55-.24-.8-.37-3.43-1.72-6.09-4.59-7.56-8.06l-2.3,4.9Z"/>
    <path class="cls-3" d="M141.46,338.27c-.25,0-.5-.09-.69-.28-8.14-7.81-16.72-6.52-16.8-6.51-.54.09-1.06-.28-1.15-.82-.09-.54.28-1.06.82-1.15.39-.06,9.62-1.5,18.51,7.04.4.38.41,1.02.03,1.41-.2.2-.46.31-.72.31Z"/>
    <path class="cls-3" d="M180.3,349.82s-.08,0-.12,0c-8.41-.97-16.8-.48-16.89-.47-.54.04-1.02-.39-1.06-.94-.03-.55.39-1.03.94-1.06.08,0,8.66-.51,17.24.48.55.06.94.56.88,1.11-.06.51-.49.89-.99.89Z"/>
    <path class="cls-3" d="M147.55,349.7c-.25,0-.49-.09-.69-.27-3.05-2.9-3.09-7.46-2.84-9.93.74-7.33,4.89-14.09,11.09-18.08.46-.3,1.08-.17,1.38.3.3.46.16,1.08-.3,1.38-5.6,3.61-9.5,9.97-10.18,16.6-.21,2.1-.21,5.96,2.23,8.27.4.38.42,1.01.04,1.41-.2.21-.46.31-.73.31Z"/>
    <path class="cls-3" d="M188.26,362.09c-.32,0-.63-.15-.83-.44-2.87-4.23-4.19-9.36-3.7-14.44.48-5.09,2.74-9.88,6.35-13.49.39-.39,1.02-.39,1.41,0s.39,1.02,0,1.41c-3.24,3.24-5.34,7.71-5.77,12.27-.43,4.56.8,9.34,3.37,13.13.31.46.19,1.08-.27,1.39-.17.12-.37.17-.56.17Z"/>
    <path class="cls-3" d="M89.16,477.36c-.18,0-.37-.05-.53-.15-.47-.29-.61-.91-.31-1.38,3.35-5.32,11.32-5.68,11.65-5.69.56-.04,1.02.41,1.04.96.02.55-.41,1.02-.96,1.04-.07,0-7.25.34-10.04,4.76-.19.3-.52.47-.85.47Z"/>
    <path class="cls-3" d="M142.44,259.65c-.55,0-1-.45-1-1,0-.49-.03-11.98.97-17.18,1.08-5.63,7.15-8.21,7.41-8.32.51-.21,1.09.03,1.31.54.21.51-.03,1.09-.54,1.31-.05.02-5.34,2.29-6.22,6.85-.97,5.01-.93,16.68-.93,16.79,0,.55-.44,1-1,1h0Z"/>
  </g>
  <g>
    <path class="cls-9" d="M146.62,107.84c4.77-.87,10.38,2.13,12.72,10.16,2.24,8.54-1.51,14.15-6.44,15.51l-3.87,1.07c.64-.18,1.27-.42,1.87-.76,3.94-2.13,6.51-7.34,4.57-14.75-2.15-7.36-7.02-10.5-11.49-10.3-.68.02-1.35.13-1.99.31l3.87-1.07c.26-.07.52-.12.78-.17Z"/>
    <path class="cls-6" d="M143.96,108.78c4.48-.2,9.35,2.94,11.49,10.3,1.94,7.42-.62,12.62-4.57,14.75-.59.34-1.23.59-1.87.76-4.92,1.36-11.03-1.52-13.5-10-1.06-4.08-.77-7.47.37-10.07,1.25-2.84,3.5-4.72,6.08-5.44.65-.18,1.31-.28,1.99-.31ZM151.37,120.22c-3.28-11.28-16.25-7.69-13.27,3.67,3.28,11.27,16.25,7.68,13.27-3.67Z"/>
    <path class="cls-2" d="M146.61,107.8v.04c-.25.05-.51.1-.77.17l-3.87,1.07c-2.58.71-4.83,2.59-6.08,5.44l-4.57-6.92c-.19-.28-.3-.62-.33-.97l-1-14.78c-.03-.48.11-.94.36-1.31.27-.37.65-.65,1.11-.78,1.07-.3,2.18.34,2.48,1.4l3.05,11.04c.15.54.52,1,1.03,1.26l8.58,4.34Z"/>
    <path class="cls-7" d="M138.1,123.89c-2.98-11.36,9.99-14.95,13.27-3.67,2.98,11.35-9.99,14.94-13.27,3.67Z"/>
    <path class="cls-3" d="M149.02,135.59c-.44,0-.84-.29-.96-.73-.15-.53.16-1.08.7-1.23h0c.6-.17,1.15-.39,1.63-.67,3.25-1.76,6.02-6.26,4.1-13.63-2.13-7.29-6.82-9.72-10.48-9.55-.61.02-1.2.11-1.77.27-.54.14-1.08-.17-1.23-.7-.15-.53.17-1.08.7-1.23h0s0,0,0,0l3.86-1.07c.28-.08.57-.14.85-.19,0,0,0,0,.01,0,5.06-.92,11.3,2.08,13.86,10.87,2.49,9.48-1.96,15.33-7.14,16.76l-3.87,1.07s0,0,0,0h0c-.09.02-.18.04-.27.04ZM148.67,108.71c3.12,1.41,6.12,4.52,7.75,10.09,1.48,5.64.49,9.86-1.48,12.69,3.11-2.1,5.16-6.62,3.43-13.22-1.88-6.46-5.95-9.33-9.7-9.55Z"/>
    <path class="cls-3" d="M146.64,135.91c-4.65,0-9.79-3.2-12.07-11.04-1.05-4.04-.9-7.75.41-10.75,1.32-3,3.77-5.18,6.73-6,.72-.2,1.47-.31,2.22-.34,4.42-.22,10.04,2.59,12.5,11.02,2.23,8.52-1.15,13.8-5.05,15.91-.61.35-1.31.63-2.08.85-.85.23-1.74.36-2.65.36ZM144.36,109.77c-.12,0-.24,0-.35,0,0,0,0,0,0,0-.6.02-1.19.11-1.76.27-2.38.66-4.36,2.43-5.43,4.88-1.13,2.59-1.24,5.84-.31,9.41,2.34,8.05,8,10.46,12.26,9.29.6-.17,1.16-.39,1.64-.67,3.25-1.76,6.02-6.26,4.1-13.63-2.06-7.06-6.52-9.56-10.13-9.56ZM143.96,108.78h0,0Z"/>
    <path class="cls-3" d="M145.49,131.75c-3.22,0-6.78-2.19-8.35-7.58-1.71-6.54,1.38-10.57,4.98-11.57,3.6-.99,8.33.88,10.21,7.34,0,0,0,.02,0,.03,1.71,6.51-1.39,10.54-4.99,11.54-.6.16-1.22.25-1.86.25ZM143.96,114.35c-.45,0-.88.06-1.3.17-2.68.74-4.95,3.91-3.59,9.11,1.49,5.13,5.07,6.68,7.75,5.94,2.68-.74,4.95-3.9,3.59-9.09-1.27-4.35-4.02-6.13-6.45-6.13Z"/>
    <path class="cls-3" d="M135.89,115.52c-.33,0-.65-.17-.83-.45l-4.57-6.92c-.28-.42-.46-.92-.49-1.45l-1-14.78c-.04-.69.15-1.38.54-1.95.42-.58.99-.98,1.67-1.17,1.6-.44,3.26.5,3.71,2.1l3.05,11.04c.08.27.27.5.52.63l8.58,4.34c.25.13.44.36.51.63v.04c.08.27.04.55-.11.79-.15.24-.38.4-.66.45-.24.05-.48.09-.71.16l-3.87,1.07c-2.38.66-4.36,2.43-5.43,4.88-.15.33-.47.56-.83.59-.03,0-.06,0-.08,0ZM132.01,90.69c-.09,0-.18.01-.27.04-.23.06-.43.2-.57.4-.13.18-.19.42-.18.66l1,14.77c.01.17.07.34.16.48l3.65,5.53c1.4-2.2,3.48-3.78,5.9-4.45l2.15-.59-6.27-3.17c-.76-.38-1.32-1.07-1.55-1.88l-3.05-11.04c-.12-.45-.53-.74-.98-.74Z"/>
    <path class="cls-3" d="M145.49,131.75c-3.22,0-6.78-2.19-8.35-7.58,0,0,0-.02,0-.03-1.71-6.51,1.39-10.55,4.99-11.54,3.6-.99,8.33.88,10.21,7.34,1.71,6.53-1.38,10.57-4.98,11.56-.6.16-1.22.25-1.86.25ZM139.07,123.62c1.5,5.15,5.07,6.7,7.75,5.95,2.68-.74,4.95-3.91,3.59-9.1-1.5-5.14-5.07-6.69-7.75-5.95-2.68.74-4.95,3.9-3.59,9.1Z"/>
  </g>
  <g>
    <g>
      <path class="cls-8" d="M264.33,229.93l-2.81-7.23-6.16-15.82-2.02-5.18,40.54-15.74,14.16-47.26c2.73-9,12.33-14.15,21.33-11.41h0c8.99,2.72,14.14,12.32,11.41,21.33l-16.53,55.16c-1.39,4.61-4.59,8.2-8.58,10.25-.03.02-.06.03-.1.05-.64.35-1.32.67-2.02.95l-47.8,18.56-1.43-3.66Z"/>
      <path class="cls-4" d="M261.52,222.7l2.81,7.23c-2.46,4.34-7.3,5.07-9.23,5.18-.16-.49-.45-.95-.86-1.33-1.32-1.24-3.41-1.17-4.65.15l-.18.19c.79-.84,1.05-2,.78-3.06-.15-.59-.46-1.13-.93-1.58-1.31-1.23-3.4-1.17-4.65.15l-.18.19-.03-.03c.8-.85,1.06-2,.79-3.05-.15-.59-.45-1.14-.94-1.59-1.31-1.24-3.4-1.17-4.65.15l-.16.17c.78-.84,1.03-1.99.77-3.04-.06-.23-.14-.44-.26-.65,1.53-1.23,2.56-3.42,2.13-7.25,0,0,5.83,12.2,19.41,8.18Z"/>
      <path class="cls-6" d="M255.36,206.88l6.16,15.82c-13.58,4.02-19.41-8.18-19.41-8.18.43,3.83-.6,6.02-2.13,7.25-2.58,2.09-6.59,1.44-7.27,1.31-.06,0-.1-.02-.1-.02v-7.18c0-1.78.74-3.46,2.03-4.67l3.65-3.38c1.27-1.19,2.98-1.8,4.71-1.7l12.35.74Z"/>
      <path class="cls-6" d="M255.1,235.11c.03.08.06.17.08.25,0,.03,0,.06,0,.09.24,1.03-.03,2.15-.8,2.96l-4.81,5.15c-1.23,1.32-3.32,1.38-4.64.15-1.31-1.23-1.39-3.29-.18-4.61,0-.02,0-.03.02-.03l2.07-2.21,1.71-1.82.86-.92.18-.19c1.23-1.32,3.32-1.39,4.65-.15.4.38.7.84.86,1.33Z"/>
      <path class="cls-6" d="M250.2,231.06c.27,1.06,0,2.22-.78,3.06l-.86.92-1.71,1.82-2.07,2.21s-.02,0-.02.03l-.16.16c-1.23,1.32-3.32,1.39-4.65.16-1.32-1.24-1.38-3.33-.15-4.65l.59-.63,4.04-4.32.18-.19c1.24-1.32,3.33-1.38,4.65-.15.46.44.78.99.93,1.58Z"/>
      <path class="cls-6" d="M245.21,226.74c.27,1.05,0,2.2-.79,3.05l-4.05,4.33-.76.81c-1.23,1.32-3.32,1.39-4.64.16-1.32-1.24-1.38-3.32-.15-4.65l1.31-1.4h0s2.47-2.63,2.47-2.63l.87-.94.16-.17c1.24-1.32,3.33-1.39,4.65-.15.48.44.79,1,.94,1.59Z"/>
      <path class="cls-6" d="M240.24,222.43c.26,1.05,0,2.2-.77,3.04l-.87.94-2.47,2.62h0s-1.31,1.41-1.31,1.41l-.18.19c-1.23,1.32-3.33,1.39-4.65.16-1.32-1.23-1.38-3.32-.15-4.65l2.86-3.05c.68.13,4.68.78,7.27-1.31.12.21.2.42.26.65Z"/>
      <path class="cls-7" d="M265.76,234.59c-.4,0-.78-.24-.93-.64l-1.43-3.66h0s-11-28.23-11-28.23c-.1-.25-.09-.52.02-.77.11-.24.31-.43.55-.53l40.08-15.56,14.02-46.79c1.4-4.62,4.53-8.43,8.82-10.72,4.23-2.26,9.06-2.76,13.62-1.41.05,0,.1.02.15.03,9.55,2.9,14.97,13.04,12.08,22.59l-16.53,55.16c-1.43,4.72-4.65,8.57-9.08,10.85h0s-.08.04-.11.05c-.62.35-1.34.68-2.1.98l-47.8,18.56c-.12.05-.24.07-.36.07ZM265.26,229.57l1.07,2.73,46.87-18.2c.67-.27,1.31-.57,1.9-.89.02-.01.06-.03.09-.05.01,0,.02-.01.04-.02,3.94-2.03,6.81-5.45,8.08-9.65l16.53-55.16c2.56-8.46-2.19-17.42-10.61-20.06-.05,0-.1-.02-.15-.03-4.09-1.25-8.44-.81-12.24,1.22-3.81,2.04-6.6,5.42-7.85,9.53l-14.16,47.26c-.09.3-.31.53-.6.65l-39.6,15.38,10.63,27.29ZM315.12,213.21s0,0,0,0c0,0,0,0,0,0ZM315.12,213.2s0,0,0,0c0,0,0,0,0,0ZM315.14,213.19s-.01,0-.02.01c0,0,0,0,.02-.01Z"/>
      <path class="cls-3" d="M255.1,236.11c-.43,0-.82-.28-.95-.7-.1-.32-.31-.64-.59-.91-.44-.41-1.02-.64-1.64-.61-.61.02-1.17.28-1.59.72l-.18.19c-.38.4-1.01.42-1.41.04-.4-.38-.42-1.01-.04-1.41.53-.56.73-1.36.54-2.13-.1-.41-.33-.79-.65-1.1-.91-.85-2.36-.81-3.22.11l-.18.19c-.19.2-.45.31-.72.31-.25.01-.53-.1-.72-.3-.38-.38-.41-1.03-.04-1.42.54-.57.74-1.36.55-2.12-.11-.44-.33-.81-.65-1.1-.45-.42-1.02-.63-1.63-.63-.62.02-1.19.27-1.61.72l-.16.17c-.38.4-1.01.42-1.41.05-.4-.38-.43-1.01-.05-1.41.52-.56.72-1.35.53-2.12-.04-.15-.09-.28-.15-.39-.24-.43-.14-.97.24-1.27,1.51-1.22,2.1-3.36,1.76-6.36-.06-.48.25-.94.72-1.07.47-.14.97.09,1.18.53.22.47,5.65,11.38,18.22,7.65.5-.15,1.03.11,1.22.6l2.81,7.23c.11.28.09.59-.06.85-2.7,4.77-7.93,5.56-10.05,5.68-.02,0-.04,0-.06,0ZM252,231.89c1.09,0,2.13.41,2.93,1.16.32.3.59.64.79,1,1.97-.22,5.48-1.06,7.5-4.22l-2.31-5.93c-9.31,2.35-15.08-2.64-17.81-6.07-.24,1.74-.89,3.15-1.93,4.21.01.04.02.09.04.13.09.38.13.76.13,1.14.19-.03.38-.05.57-.05,1.18-.02,2.23.38,3.05,1.16.59.54,1.02,1.26,1.22,2.07.1.38.14.77.13,1.16,1.28-.21,2.63.15,3.65,1.1.6.58,1.02,1.29,1.21,2.06.09.38.14.76.13,1.13.18-.03.36-.05.55-.05.05,0,.1,0,.15,0Z"/>
      <path class="cls-3" d="M256.24,224.51c-6.61,0-10.89-3.87-13.13-6.68-.28,2.03-1.12,3.61-2.5,4.72-2.9,2.35-7.24,1.67-8.08,1.52-.08-.01-.15-.03-.15-.03-.44-.11-.76-.51-.76-.97v-7.18c0-2.04.86-4.01,2.35-5.4l3.65-3.38c1.46-1.37,3.45-2.08,5.46-1.96l12.35.74c.39.02.73.27.87.63l6.16,15.82c.1.26.09.55-.03.8-.12.25-.35.44-.61.52-2.01.6-3.87.85-5.57.85ZM242.11,213.53c.38,0,.73.21.9.57.22.45,5.35,10.76,17.17,7.93l-5.53-14.18-11.71-.7c-1.47-.09-2.91.43-3.97,1.43l-3.65,3.39c-1.09,1.01-1.71,2.45-1.71,3.93v6.32c1.32.14,3.98.21,5.74-1.21,1.51-1.22,2.11-3.36,1.77-6.36-.06-.48.25-.94.72-1.07.09-.03.19-.04.28-.04Z"/>
      <path class="cls-3" d="M247.18,245.59c-1.1,0-2.13-.41-2.93-1.16-1.69-1.59-1.81-4.26-.27-5.97.02-.03.04-.05.07-.08h0s4.82-5.14,4.82-5.14c.77-.83,1.83-1.31,2.98-1.35,1.15-.04,2.24.37,3.08,1.16.53.5.91,1.1,1.12,1.73.04.11.08.23.11.34.01.05.02.11.03.16h0c.3,1.38-.1,2.8-1.06,3.82l-4.81,5.14c-.78.83-1.83,1.31-2.98,1.35-.05,0-.1,0-.14,0ZM245.56,239.7s-.04.05-.06.08c-.84.91-.78,2.34.13,3.2.44.42,1.03.62,1.64.61.61-.02,1.17-.27,1.58-.71l4.81-5.15c.52-.55.73-1.31.55-2.05,0-.04-.02-.08-.02-.12,0-.03-.02-.05-.03-.08,0-.02-.01-.04-.02-.06-.1-.32-.31-.64-.59-.91-.44-.41-1.02-.64-1.64-.61-.61.02-1.17.28-1.59.72l-4.77,5.09Z"/>
      <path class="cls-3" d="M242.21,241.3c-1.05,0-2.1-.38-2.93-1.15-1.73-1.62-1.81-4.34-.19-6.06l4.82-5.14c1.61-1.72,4.33-1.81,6.06-.19.6.58,1.02,1.29,1.21,2.06.36,1.43-.02,2.92-1.02,3.99l-4.58,4.9s-.06.07-.09.1l-.16.16c-.83.89-1.96,1.34-3.1,1.34ZM247.03,229.59c-.61,0-1.22.24-1.67.72l-4.81,5.14c-.86.92-.82,2.37.1,3.23.92.86,2.37.81,3.23-.11l.13-.14s.03-.03.05-.05h0s4.63-4.95,4.63-4.95c.53-.57.73-1.36.54-2.13h0c-.1-.41-.33-.79-.65-1.1-.43-.41-.99-.61-1.55-.61Z"/>
      <path class="cls-3" d="M237.2,236.96c-1.09,0-2.12-.41-2.92-1.15-1.72-1.61-1.8-4.33-.19-6.06l1.24-1.33s.05-.06.07-.09l3.49-3.73c.79-.84,1.86-1.32,3.01-1.35,1.18-.02,2.23.38,3.05,1.16.59.54,1.02,1.26,1.22,2.07.36,1.42-.02,2.91-1.03,3.98l-4.81,5.14c-.78.83-1.84,1.31-2.99,1.35-.05,0-.1,0-.15,0ZM236.93,229.63s-.05.06-.07.09l-1.31,1.4c-.86.92-.81,2.37.1,3.23.44.41,1.03.63,1.63.61.61-.02,1.18-.28,1.59-.72l4.81-5.14c.54-.57.74-1.36.55-2.12,0,0,0,0,0,0-.11-.43-.33-.8-.64-1.09-.45-.42-1.02-.63-1.63-.63-.62.02-1.19.27-1.61.72l-3.42,3.65Z"/>
      <path class="cls-3" d="M232.24,232.66c-1.09,0-2.13-.41-2.92-1.15-.83-.78-1.31-1.84-1.35-2.99-.04-1.15.37-2.23,1.15-3.07l2.86-3.05c.23-.25.58-.36.91-.3.42.08,4.19.72,6.45-1.11.23-.18.53-.26.81-.21.29.05.54.23.68.49.15.27.27.56.36.9,0,0,0,0,0,.01.35,1.42-.03,2.9-1.01,3.96l-3.27,3.49s-.05.06-.07.09l-1.49,1.59c-.77.83-1.84,1.31-2.99,1.35-.05,0-.1,0-.15,0ZM233.08,224.16l-2.5,2.66c-.41.44-.63,1.03-.61,1.64.02.61.27,1.18.71,1.59.44.42,1.02.63,1.64.61.62-.02,1.18-.28,1.6-.72l1.42-1.51s.05-.06.07-.09l3.33-3.56c.36-.39.57-.89.6-1.42-2.31,1.14-5.01.96-6.25.79Z"/>
      <path class="cls-7" d="M310.82,196.1c-.31,0-.61-.14-.81-.41-5.42-7.36-16.15-8.72-16.26-8.73-.55-.07-.94-.56-.87-1.11.06-.55.55-.94,1.11-.88.47.06,11.69,1.46,17.63,9.53.33.44.23,1.07-.21,1.4-.18.13-.39.19-.59.19Z"/>
    </g>
    <g>
      <path class="cls-8" d="M306.66,198.73v-53.21c0-10.66,8.73-19.39,19.39-19.39h6.21l-.2.63s3.4,5.59,13.5,5.59,16.09-5.59,16.09-5.59v-.63h10.5c10.67,0,19.4,8.73,19.4,19.4v65.17l2.02,23.14s-1.81,1.3-5.52,2.99c-5.84,2.65-16.38,6.28-31.97,7.34-2.86.2-5.9.31-9.1.31-3.61,0-6.99-.08-10.16-.23-16.68-.75-27.18-3.24-32.23-4.78-2.42-.73-3.58-1.24-3.58-1.24l5.64-39.49Z"/>
      <path class="cls-7" d="M346.99,245.48c-3.53,0-6.96-.08-10.21-.23-16.98-.76-27.64-3.35-32.48-4.83-2.44-.74-3.64-1.26-3.69-1.28-.41-.18-.65-.61-.59-1.06l5.63-39.42v-53.14c0-11.24,9.15-20.39,20.39-20.39h6.21c.32,0,.62.15.81.41.19.26.24.59.15.89l-.05.16c.91,1.16,4.38,4.77,12.4,4.77s13.76-3.97,15.09-5.05v-.17c0-.55.45-1,1-1h10.5c11.25,0,20.4,9.15,20.4,20.4v65.17l2.02,23.05c.03.35-.13.69-.41.9-.08.06-1.94,1.38-5.69,3.09-6.18,2.81-16.8,6.38-32.31,7.43-2.96.2-6.05.31-9.17.31ZM302.12,237.59c.57.21,1.49.54,2.77.92,4.75,1.45,15.23,3.99,31.99,4.74,6.04.28,12.91.35,19.15-.08,15.21-1.03,25.59-4.51,31.62-7.25,2.52-1.14,4.15-2.11,4.89-2.58l-1.97-22.55v-65.26c0-10.15-8.26-18.4-18.4-18.4h-9.57c-.05.14-.14.26-.25.36-.26.24-6.39,5.86-16.77,5.86s-14.21-5.82-14.36-6.07c-.03-.05-.05-.1-.08-.15h-5.09c-10.14,0-18.39,8.25-18.39,18.39v53.21s0,.09,0,.14l-5.53,38.71ZM306.66,198.73h0,0Z"/>
    </g>
    <g>
      <path class="cls-4" d="M371.35,96.39c0,4.39-3.56,7.95-7.95,7.95-.6,0-1.18-.07-1.75-.2v22.63s-5.99,5.59-16.09,5.59-13.5-5.59-13.5-5.59l1.3-.63,13.39-6.49h-10.38c-.71,0-1.41-.05-2.09-.15-7.2-1.03-12.79-7.26-12.79-14.74v-27.34h30.39c0,11.9,3.88,16.74,3.88,16.74.81-2.76,3.06-4.89,5.89-5.53.56-.13,1.14-.19,1.75-.19.41,0,.82.03,1.21.09,3.81.58,6.74,3.88,6.74,7.86Z"/>
      <path class="cls-9" d="M364.43,76.86l.18,11.67c-.39-.06-.8-.09-1.21-.09-.6,0-1.18.06-1.75.19-2.83.64-5.08,2.77-5.89,5.53,0,0-3.88-4.83-3.88-16.74h-30.39v.29c-.18.02-.36.02-.55.02-4.11,0-7.46-3.33-7.46-7.45,0-3.17,1.97-5.87,4.74-6.95.25-.09.49-.18.76-.25-.04-.35-.06-.69-.06-1.05,0-.1,0-.2,0-.3.16-5.71,4.83-10.29,10.58-10.29s10.58,4.73,10.58,10.58c0,.43-.02.86-.08,1.27l15.4,2.88c5.16.97,8.92,5.42,9,10.67Z"/>
      <path class="cls-9" d="M346.76,119.64l-13.39,6.49-1.3.63.2-.63,2.01-6.49.02-.15c.68.1,1.38.15,2.09.15h10.38Z"/>
      <path class="cls-3" d="M345.56,84.84c.07.96-.62,2.22-1.74,2.2-1.24-.02-2.49-.06-3.73-.14-1.04-.08-1.86-1.27-1.67-2.27.23-1.12,1.15-1.74,2.27-1.67.86.06,1.93.12,2.66.13,1.04,0,2.12.57,2.2,1.75Z"/>
      <path class="cls-3" d="M341.26,88.44c1.59,0,2.87,1.28,2.87,2.86s-1.28,2.86-2.87,2.86-2.86-1.28-2.86-2.86,1.28-2.86,2.86-2.86Z"/>
      <path class="cls-3" d="M330.34,83.76c.22.94-.29,2.3-1.38,2.45-1.11.15-2.24.29-3.36.38-.12.02-.23.03-.35.04-1.02.08-1.99-.94-1.99-1.93v-.06c.06-1.14.88-1.89,1.99-1.98.86-.07,1.93-.19,2.64-.29,1.03-.14,2.19.25,2.45,1.39Z"/>
      <path class="cls-3" d="M326.08,88.44c1.58,0,2.86,1.28,2.86,2.86s-1.28,2.86-2.86,2.86-2.86-1.28-2.86-2.86c0-1.48,1.12-2.7,2.56-2.84.1,0,.2-.02.3-.02Z"/>
      <path class="cls-3" d="M345.57,133.36c-10.54,0-14.21-5.82-14.36-6.07-.15-.24-.18-.53-.1-.8.08-.27.27-.49.52-.62l10.77-5.22h-6.02c-.76,0-1.51-.05-2.23-.16-7.78-1.11-13.65-7.87-13.65-15.73v-27.34c0-.55.45-1,1-1h30.39c.55,0,1,.45,1,1,0,7.66,1.65,12.3,2.74,14.52,1.23-2.15,3.33-3.73,5.8-4.29,1.03-.24,2.23-.28,3.33-.11,4.33.66,7.59,4.47,7.59,8.85,0,4.94-4.01,8.95-8.95,8.95-.25,0-.5-.01-.75-.03v21.46c0,.28-.12.54-.32.73-.26.24-6.39,5.86-16.77,5.86ZM333.62,127.12c1.38,1.46,4.91,4.24,11.94,4.24,8.29,0,13.75-3.97,15.09-5.05v-22.16c0-.3.14-.59.38-.78.24-.19.55-.26.85-.19.5.11,1.02.17,1.52.17,3.83,0,6.95-3.12,6.95-6.95,0-3.4-2.53-6.36-5.89-6.87-.84-.13-1.79-.1-2.58.09-2.47.56-4.44,2.41-5.15,4.84-.11.36-.4.63-.77.7-.36.07-.74-.06-.97-.36-.16-.2-3.88-4.97-4.09-16.36h-28.4v26.34c0,6.87,5.13,12.78,11.93,13.75.63.09,1.29.14,1.95.14h10.38c.47,0,.87.32.97.78.1.45-.12.92-.54,1.12l-13.57,6.58Z"/>
      <path class="cls-3" d="M355.77,95.16c-.3,0-.59-.14-.78-.37-.16-.2-3.88-4.97-4.09-16.36h-28.7c-.16.15-.36.25-.59.28-.21.02-.44.03-.66.03-4.66,0-8.46-3.79-8.46-8.45,0-3.51,2.11-6.61,5.38-7.88.02,0,.05-.02.07-.03,0-.11,0-.22,0-.34,0-.13,0-.26.01-.39.17-6.24,5.26-11.19,11.58-11.19s11.58,5.2,11.58,11.58c0,.16,0,.31,0,.46l14.51,2.71c5.59,1.05,9.72,5.94,9.82,11.64h0s.18,11.67.18,11.67c0,.29-.12.57-.34.77-.22.19-.52.28-.81.24-.84-.13-1.8-.1-2.59.08-2.47.56-4.44,2.41-5.15,4.84-.11.36-.4.63-.77.7-.06.01-.13.02-.19.02ZM321.5,76.42h30.39c.55,0,1,.45,1,1,0,7.66,1.65,12.3,2.74,14.52,1.23-2.15,3.33-3.73,5.8-4.29.67-.15,1.41-.22,2.16-.21l-.16-10.57c-.08-4.75-3.53-8.83-8.19-9.7l-15.4-2.88c-.53-.1-.88-.59-.81-1.13.05-.33.07-.69.07-1.13,0-5.28-4.3-9.58-9.58-9.58s-9.44,4.09-9.58,9.31c-.01.14,0,.2,0,.27,0,.32.02.62.05.93.06.5-.26.96-.74,1.08-.23.06-.45.14-.66.22-2.48.97-4.09,3.33-4.09,6.02,0,3.5,2.81,6.36,6.29,6.44.18-.19.44-.3.72-.3Z"/>
      <path class="cls-3" d="M332.07,127.76c-.23,0-.47-.08-.65-.24-.3-.26-.42-.68-.3-1.06l2.19-7.1c.04-.27.17-.51.39-.67.21-.16.48-.23.75-.19.63.09,1.29.14,1.95.14h10.38c.47,0,.87.32.97.78.1.45-.12.92-.54,1.12l-14.7,7.12c-.14.07-.29.1-.44.1ZM335.03,120.59l-1.32,4.27,8.7-4.21h-6.02c-.46,0-.91-.02-1.36-.06Z"/>
      <path class="cls-3" d="M334.41,100.25c-.11,0-.23-.02-.34-.06l-4.88-1.75c-.27-.1-.49-.31-.59-.58-.11-.27-.09-.57.04-.83l3.68-7.09c.25-.49.86-.68,1.35-.43.49.25.68.86.43,1.35l-3.16,6.08,3.8,1.36c.52.19.79.76.6,1.28-.15.41-.53.66-.94.66Z"/>
      <path class="cls-3" d="M361.21,101.16c-.52,0-.96-.4-1-.93-.39-5.33,3.13-8.31,5.05-9.15.51-.22,1.1.01,1.32.52.22.51-.01,1.09-.51,1.31h0c-.17.08-4.24,1.95-3.86,7.17.04.55-.37,1.03-.92,1.07-.03,0-.05,0-.07,0Z"/>
      <path class="cls-3" d="M336.72,108.51c-1,0-1.99-.24-2.89-.72-1.48-.77-2.57-2.08-3.07-3.68-.17-.53.13-1.09.66-1.25l10.04-3.15c.25-.08.53-.05.76.07.23.12.41.33.49.59,1.03,3.29-.81,6.81-4.1,7.85-.62.19-1.25.29-1.88.29ZM333.07,104.44c.4.67.97,1.21,1.68,1.58,1.01.53,2.16.63,3.25.29,1.91-.6,3.11-2.43,2.98-4.35l-7.91,2.48Z"/>
    </g>
    <g>
      <path class="cls-5" d="M379.06,455.31l-28.06-105.94c-.48-.92-.92-1.86-1.28-2.83-.77-2-1.28-4.09-1.54-6.22l-11.35-96.06c3.17.15,6.55.23,10.16.23,3.21,0,6.24-.11,9.1-.31,15.58-1.06,26.13-4.68,31.97-7.34l10.95,92.62,34.16,125.42-54.1.43Z"/>
      <path class="cls-5" d="M302.36,454.87l-11.09-1.23,13.32-214.17c5.05,1.54,15.55,4.03,32.23,4.78l11.35,96.06c.26,2.13.77,4.22,1.54,6.22l-7.01,112.82-1.98-.22-38.37-4.27Z"/>
      <polygon class="cls-6" points="340.72 459.14 340.71 459.26 302.36 459.26 302.36 454.87 340.72 459.14"/>
      <path class="cls-7" d="M340.71,459.26v28.5h-86.27c0-24.31,47.91-28.5,47.91-28.5h38.36Z"/>
      <path class="cls-5" d="M434.13,454.61c.08.3.02.62-.17.87-.19.25-.48.39-.79.4l-54.1.43h0c-.45,0-.85-.3-.97-.74l-28.03-105.83c-.5-.95-.92-1.9-1.28-2.84-.79-2.06-1.33-4.23-1.6-6.46l-11.35-96.07c-.03-.29.06-.58.26-.8.2-.22.48-.33.78-.32,6.04.28,12.91.35,19.15-.08,15.21-1.03,25.59-4.51,31.62-7.25.29-.13.63-.12.91.04.28.16.46.44.5.75l10.94,92.55M337.96,245.3l11.21,94.9c.25,2.06.75,4.07,1.48,5.98.34.9.75,1.81,1.23,2.72.04.07.06.14.08.21l27.86,105.19,52.02-.42-33.82-124.16s-.02-.1-.03-.15l-10.79-91.28c-6.32,2.71-16.55,5.89-31.06,6.88-5.91.41-12.4.37-18.2.13Z"/>
      <path class="cls-5" d="M342.71,460.36s-.07,0-.11,0l-1.98-.22-49.45-5.5c-.53-.06-.92-.52-.89-1.06l13.32-214.17c.02-.31.18-.59.43-.76.25-.17.57-.23.86-.13,4.75,1.45,15.22,3.99,31.99,4.74.49.02.89.4.95.88l11.35,96.06c.25,2.06.75,4.07,1.48,5.98.05.13.07.28.06.42l-7.01,112.82c-.02.27-.14.53-.35.7-.18.15-.41.24-.64.24ZM292.33,452.75l10.14,1.13h0l39.31,4.37,6.93-111.56c-.75-2-1.26-4.1-1.52-6.26l-11.25-95.23c-15.21-.75-25.22-2.95-30.42-4.43l-13.19,211.97Z"/>
      <path class="cls-6" d="M340.71,460.26h-38.36c-.55,0-1-.45-1-1v-4.39c0-.28.12-.56.33-.75.21-.19.49-.28.78-.25l38.37,4.27c.54.06.93.54.89,1.08v.12c-.05.52-.49.92-1.01.92ZM303.36,458.26h20.41l-20.41-2.27v2.27Z"/>
      <path class="cls-6" d="M340.71,488.76h-86.27c-.55,0-1-.45-1-1,0-24.94,46.83-29.33,48.83-29.5h38.44c.55,0,1,.44,1,1v28.5c0,.55-.45,1-1,1ZM255.47,486.76h84.24v-26.5h-37.36c-.38.04-45.57,4.26-46.88,26.5Z"/>
      <path class="cls-1" d="M351,349.37s-2.22-4.01-2.82-9.05l-9.91-83.89-27.85-5.65"/>
      <polyline class="cls-1" points="378.42 242.12 389.11 332.6 421.97 448.34"/>
      <polygon class="cls-6" points="429.09 459.58 429.08 459.69 390.72 459.69 390.72 455.31 429.09 455.31 429.09 459.58"/>
      <path class="cls-7" d="M433.08,459.69v28.5h-86.27c0-24.31,47.91-28.5,47.91-28.5h38.36Z"/>
      <path class="cls-6" d="M429.08,460.69h-38.36c-.55,0-1-.45-1-1v-4.39c0-.55.45-1,1-1h38.37c.55,0,1,.45,1,1v4.27s0,.05,0,.08v.12c-.05.52-.49.92-1.01.92ZM429.09,459.58h0,0ZM391.72,458.69h36.37v-2.39h-36.37v2.39Z"/>
      <path class="cls-6" d="M429.08,489.2h-86.27c-.55,0-1-.45-1-1,0-24.94,46.83-29.33,48.83-29.5h38.44c.55,0,1,.44,1,1v28.5c0,.55-.45,1-1,1ZM343.84,487.2h84.24v-26.5h-37.36c-.38.04-45.57,4.26-46.88,26.5Z"/>
      <path class="cls-6" d="M336.83,482.2h-77.93c-.55,0-1-.45-1-1s.45-1,1-1h77.93c.55,0,1,.45,1,1s-.45,1-1,1Z"/>
      <path class="cls-6" d="M426.55,482.2h-78.67c-.55,0-1-.45-1-1s.45-1,1-1h78.67c.55,0,1,.45,1,1s-.45,1-1,1Z"/>
      <path class="cls-6" d="M290.47,482.2c-.55,0-1-.45-1-1,0-12.96-11.46-15.49-11.95-15.59-.54-.11-.89-.64-.78-1.18.11-.54.64-.89,1.18-.78.13.03,13.55,2.93,13.55,17.55,0,.55-.45,1-1,1Z"/>
      <path class="cls-6" d="M378.42,482.2c-.55,0-1-.45-1-1,0-4.83-1.3-8.56-3.87-11.09-3.67-3.61-8.7-3.57-8.77-3.57-.59,0-1.01-.43-1.02-.98,0-.55.43-1.01.98-1.02.24,0,5.93-.06,10.19,4.12,2.98,2.92,4.49,7.14,4.49,12.53,0,.55-.45,1-1,1Z"/>
    </g>
    <g>
      <path class="cls-8" d="M330.53,231.63l-5.71-20.99-2-7.37,55.02-14.89-12.8-37.61c-3.01-8.93,1.82-18.68,10.75-21.68h0c8.92-3.01,18.67,1.82,21.68,10.74l18.55,54.52c2.18,6.45.24,13.35-4.39,17.81-.04.04-.08.08-.11.11-2.06,2.11-4.68,3.71-7.71,4.53l-72,19.49-1.27-4.66h0Z"/>
      <path class="cls-4" d="M330.53,231.63h0s-2.55,1.84-2.55,1.84c-1.34.95-2.85,1.63-4.46,1.97l-21.79,4.77c-1.82.39-3.64-.77-4.03-2.58l-.05-.2c-.39-1.82.77-3.64,2.58-4.03l-1.74.37c-1.81.4-3.63-.76-4.02-2.58l-.05-.2c-.39-1.81.77-3.63,2.58-4.03l-1.36.31c-1.81.39-3.63-.77-4.03-2.58l-.04-.21c-.39-1.81.77-3.63,2.59-4.02l-1.62.35c-1.81.4-3.64-.76-4.03-2.58l-.04-.19c-.39-1.82.77-3.64,2.58-4.04l12.16-2.66-1.38-4c-.14-.42-.25-.85-.3-1.28l-.89-7.32c-.03-.24-.04-.46-.04-.69,0-2.62,1.81-4.94,4.45-5.51.5-.12,1.02.21,1.12.72l1.8,8.21c.37,1.74,1.47,3.23,3,4.1l1.33.76,7.52,4.3c.92.52,1.99.69,3.03.46l1.96-.42,5.71,20.99Z"/>
      <path class="cls-7" d="M331.8,237.3c-.44,0-.84-.29-.96-.74l-1.27-4.66s-.01-.05-.02-.07l-7.7-28.3c-.07-.26-.04-.53.1-.76.13-.23.35-.4.61-.47l53.99-14.61-12.46-36.6c-.18-.52.1-1.09.62-1.27.52-.18,1.09.1,1.27.62l12.8,37.61c.09.26.07.55-.06.79-.13.24-.35.42-.62.5l-54.05,14.63,7.45,27.39s.01.05.02.07l.99,3.63,71.04-19.23c2.75-.75,5.26-2.22,7.26-4.26,0,0,.07-.07.07-.07,4.55-4.39,6.17-10.97,4.19-16.83l-18.55-54.52c-2.83-8.39-11.94-12.93-20.33-10.15-.12.05-.26.08-.4.08-.55,0-1-.44-1-1h0c0-.44.27-.82.68-.96,9.46-3.18,19.75,1.92,22.94,11.38l18.55,54.52c2.23,6.59.41,13.99-4.64,18.85l-.11.11c-2.22,2.28-5.05,3.94-8.15,4.77l-72,19.49c-.09.02-.18.04-.26.04Z"/>
      <path class="cls-7" d="M394.72,193.49c-.19,0-.39-.06-.56-.17-6.5-4.38-16.18-3.94-16.28-3.94-.53.03-1.02-.4-1.05-.95-.03-.55.4-1.02.95-1.05.42-.02,10.45-.48,17.5,4.28.46.31.58.93.27,1.39-.19.29-.51.44-.83.44Z"/>
      <path class="cls-3" d="M294.16,221.45c-.46,0-.88-.33-.98-.8-.11-.54.24-1.07.78-1.18l5.45-1.11c.54-.11,1.07.24,1.18.78.11.54-.24,1.07-.78,1.18l-5.45,1.11c-.07.01-.13.02-.2.02Z"/>
      <path class="cls-3" d="M296.52,228.1c-.46,0-.87-.32-.98-.79-.12-.54.23-1.07.77-1.19l4.87-1.05c.54-.11,1.07.23,1.19.77.12.54-.23,1.07-.77,1.19l-4.87,1.05c-.07.02-.14.02-.21.02Z"/>
      <path class="cls-3" d="M300.22,234.4c-.46,0-.87-.32-.98-.78-.12-.54.22-1.07.76-1.19l3.45-.77c.54-.12,1.07.22,1.19.76.12.54-.22,1.07-.76,1.19l-3.45.77c-.07.02-.15.02-.22.02Z"/>
    </g>
  </g>
  <g>
    <g>
      <path class="cls-6" d="M227.67,221.45c0,.13,0,.26,0,.39-.21,5.74-4.81,10.35-10.56,10.54l-52.31,1.8c2.54-.14,5.07-.94,7.33-2.45,6.67-4.47,8.46-13.6,3.98-20.27l-3.76-5.63,45.52,4.73c5.59.59,9.81,5.3,9.81,10.88Z"/>
      <path class="cls-6" d="M176.1,211.47c4.48,6.67,2.68,15.8-3.98,20.27-2.26,1.51-4.78,2.31-7.33,2.45l-.61.02h-.17c-1.77,0-3.53-.32-5.18-.94-.5-.19-.99-.4-1.46-.64-.21-.11-.41-.22-.61-.34-.2-.12-.39-.24-.59-.36-.27-.18-.53-.36-.79-.54-1.35-.98-2.56-2.19-3.54-3.65l-25.05-37.57-2.22-3.32c-4.48-6.68-2.67-15.8,3.98-20.28h0c6.67-4.48,15.79-2.68,20.27,3.99l1.09,1.65,22.42,33.62,3.76,5.63Z"/>
      <path class="cls-7" d="M150.92,172.21l-1.09-1.65c-4.48-6.68-13.6-8.47-20.27-3.98h0c-6.66,4.47-8.46,13.59-3.98,20.27l2.22,3.32c-4.21-2.84-7.32-8.18-7.43-16.02.33-23.94,28.72-24.59,30.57-1.94Z"/>
      <path class="cls-3" d="M164.79,235.18c-.53,0-.97-.42-1-.96-.02-.55.4-1.01.94-1.04,2.43-.13,4.79-.92,6.83-2.28,3-2.01,5.04-5.09,5.75-8.67.71-3.58-.02-7.21-2.04-10.21l-3.76-5.63c-.21-.32-.22-.74-.02-1.07.2-.33.57-.52.96-.48l45.52,4.73c6.11.65,10.71,5.75,10.71,11.87v.39c-.24,6.27-5.3,11.33-11.54,11.54l-52.31,1.8s-.02,0-.03,0ZM174.35,207.05l2.58,3.86c2.31,3.45,3.14,7.61,2.34,11.71-.81,4.1-3.15,7.63-6.6,9.94-.19.13-.38.25-.57.36l44.96-1.54c5.19-.18,9.41-4.39,9.6-9.58v-.36c0-5.1-3.82-9.35-8.91-9.88l-43.4-4.51Z"/>
      <path class="cls-3" d="M164.01,235.2c-1.91,0-3.77-.34-5.53-1-.5-.19-1.01-.41-1.55-.68-.24-.13-.46-.24-.68-.37l-.59-.35c-.32-.21-.6-.4-.86-.59-1.5-1.09-2.78-2.4-3.78-3.9l-27.27-40.89c-4.79-7.14-2.88-16.86,4.26-21.66.05-.03.1-.06.15-.08,3.42-2.25,7.51-3.05,11.56-2.25,4.1.81,7.64,3.15,9.96,6.6l1.1,1.65,26.18,39.25c2.31,3.45,3.14,7.61,2.34,11.71-.81,4.1-3.15,7.63-6.6,9.94-2.33,1.56-5.04,2.46-7.83,2.61l-.83.02ZM128.98,167.49c-6.12,4.22-7.73,12.62-3.58,18.8l27.27,40.89c.87,1.3,1.98,2.44,3.29,3.39.25.18.5.35.76.52l.55.33c.18.11.37.21.56.31.46.23.91.43,1.34.59,1.54.58,3.16.87,4.83.87l.75-.02c2.41-.13,4.77-.92,6.8-2.28,3-2.01,5.04-5.09,5.75-8.67.71-3.58-.02-7.21-2.04-10.21,0,0,0,0,0,0l-27.27-40.9c-2.02-3.01-5.1-5.05-8.68-5.75-3.57-.7-7.2.02-10.2,2.04-.05.03-.09.06-.14.08Z"/>
      <path class="cls-3" d="M126.78,191.17c-.19,0-.39-.06-.56-.17-4.97-3.35-7.76-9.33-7.87-16.83.18-13.02,8.33-19.2,15.82-19.46,7.39-.23,15.74,5.1,16.74,17.42.04.45-.24.88-.67,1.03-.43.15-.91-.01-1.16-.39l-1.1-1.65c-2.02-3.01-5.1-5.05-8.68-5.75-3.57-.7-7.2.02-10.2,2.04-.05.03-.09.06-.14.08-6.12,4.22-7.73,12.62-3.58,18.8l2.22,3.33c.27.4.21.93-.13,1.26-.19.19-.45.29-.71.29ZM134.67,156.7c-.14,0-.28,0-.42,0-6.8.23-13.73,5.72-13.89,17.46.03,2.18.3,4.21.81,6.06-.53-5.53,1.9-11.18,6.83-14.49.05-.03.1-.06.15-.08,3.42-2.25,7.52-3.05,11.56-2.25,3.34.65,6.3,2.33,8.53,4.78-2.11-7.9-8.1-11.49-13.57-11.49Z"/>
    </g>
    <g>
      <g>
        <path class="cls-6" d="M254.19,209.04c1.76.38,2.9,2.15,2.51,3.9-.38,1.76-2.11,2.88-3.86,2.52-.02,0-.03,0-.04,0l-2.95-.64-2.44-.53-1.23-.27-.25-.06c-1.77-.38-2.9-2.14-2.52-3.91.14-.63.45-1.19.88-1.62.02,0,.04-.03.06-.05.75-.73,1.86-1.08,2.95-.83l6.89,1.48Z"/>
        <path class="cls-6" d="M253.05,215.51c1.77.39,2.9,2.14,2.52,3.91-.38,1.76-2.14,2.89-3.9,2.51l-.84-.18-6.05-1.31c-1.77-.39-2.9-2.15-2.52-3.91.15-.63.45-1.18.88-1.61.77-.77,1.9-1.14,3.03-.9l1.23.27,2.44.53,2.95.64s.03,0,.04,0l.21.05Z"/>
        <path class="cls-4" d="M251.9,222.02c1.76.38,2.9,2.14,2.51,3.9-.37,1.77-2.13,2.9-3.9,2.51l-1.87-.41h0s-3.53-.76-3.53-.76l-1.25-.26-.22-.05c-1.77-.39-2.9-2.14-2.52-3.91.15-.63.46-1.19.88-1.62.76-.77,1.89-1.14,3.02-.88l5.8,1.25,1.08.23Z"/>
        <path class="cls-8" d="M244.35,208.39s-.05.04-.06.05c-.43.43-.75.99-.88,1.62-.39,1.77.74,3.53,2.52,3.91l.25.06c-1.13-.25-2.25.13-3.03.9-.42.43-.73.98-.88,1.61-.38,1.76.75,3.52,2.52,3.91l6.05,1.31s0,.04,0,.05l-5.8-1.25c-1.13-.25-2.26.12-3.02.88-.42.43-.74.99-.88,1.62-.39,1.77.75,3.52,2.52,3.91l.22.05c-1.12-.24-2.24.14-2.99.9-.43.43-.73.98-.88,1.61-.31,1.44.37,2.88,1.6,3.57-.85.26-1.78.43-2.75.54-5.56.04-9.92-1.2-13.06-3.17-.98-.6-1.84-1.29-2.57-2.03-4.37-4.4-4.38-10.76.27-15.56,1.82-1.89,4.37-3.53,7.64-4.73,1.58-.57,3.31-1.04,5.23-1.39,3.16-.23,5.84.41,8,1.64Z"/>
        <path class="cls-6" d="M250.77,228.49c1.77.39,2.9,2.14,2.52,3.91-.38,1.76-2.14,2.89-3.9,2.51l-6.89-1.48c-.33-.07-.64-.19-.91-.35-1.22-.69-1.91-2.13-1.6-3.57.15-.63.45-1.17.88-1.61.76-.76,1.87-1.14,2.99-.9l1.25.26,3.53.76h0s1.87.4,1.87.4l.26.05Z"/>
        <path class="cls-9" d="M223,212.35c.17.17.33.35.48.52-4.66,4.8-4.64,11.15-.27,15.56.74.74,1.59,1.42,2.57,2.03,0,0-1.75-.03-3.69-.97h0c-2.22-1.05-4.71-3.26-5.15-7.87-.63-6.48,3.81-8.62,6.07-9.27Z"/>
        <path class="cls-3" d="M253.49,216.53c-.25,0-.49-.02-.74-.07-.07,0-.13-.01-.2-.03l-6.86-1.49c-1.1-.24-2.06-.9-2.68-1.87-.62-.97-.83-2.11-.59-3.23.17-.8.57-1.53,1.15-2.11.04-.04.08-.07.12-.1,1.02-.97,2.45-1.36,3.83-1.05l6.87,1.47c1.11.24,2.07.9,2.69,1.87.62.97.83,2.11.59,3.22-.43,2-2.21,3.38-4.18,3.38ZM252.9,214.46s.1,0,.14.02c1.22.25,2.42-.54,2.68-1.75.13-.59.02-1.2-.32-1.72-.33-.52-.84-.87-1.43-1h0s-6.89-1.48-6.89-1.48c-.74-.17-1.51.05-2.04.57-.03.03-.06.06-.1.08-.29.3-.48.68-.57,1.08-.13.59-.02,1.21.31,1.72.33.52.84.87,1.44,1l6.77,1.47Z"/>
        <path class="cls-3" d="M252.36,223.01c-.3,0-.6-.03-.9-.1l-6.89-1.49c-2.31-.5-3.78-2.79-3.28-5.1.18-.8.58-1.53,1.14-2.1,1.05-1.05,2.52-1.49,3.95-1.17l6.51,1.41c.06,0,.11.01.17.02l.21.05c1.11.25,2.07.91,2.69,1.87.62.97.83,2.11.59,3.23-.24,1.11-.9,2.06-1.87,2.69-.7.45-1.5.69-2.32.69ZM245.47,214.95c-.6,0-1.18.24-1.62.68-.3.3-.51.69-.61,1.12-.26,1.22.53,2.44,1.76,2.71l6.89,1.49c.59.13,1.2.01,1.71-.32.51-.33.87-.84.99-1.43.13-.6.02-1.21-.31-1.72-.33-.52-.84-.87-1.44-1,0,0,0,0,0,0l-.1-.02c-.06,0-.12-.01-.17-.03l-6.59-1.43c-.16-.04-.32-.05-.48-.05Z"/>
        <path class="cls-3" d="M251.22,229.51c-.31,0-.61-.03-.92-.1l-1.77-.38s-.07,0-.11-.02l-5.01-1.08c-2.3-.5-3.77-2.79-3.27-5.1.19-.81.58-1.54,1.15-2.11,1.05-1.05,2.52-1.48,3.96-1.16l6.86,1.48s0,0,0,0c1.12.24,2.08.91,2.7,1.88.62.97.83,2.11.58,3.22-.23,1.1-.89,2.06-1.86,2.68-.7.45-1.5.69-2.32.69ZM248.75,227.04s.08,0,.11.02l1.87.41c.6.13,1.21.02,1.72-.31.51-.33.86-.84.99-1.43.13-.6.02-1.2-.31-1.71-.33-.52-.84-.87-1.43-1l-6.88-1.48c-.76-.17-1.55.06-2.11.61-.3.3-.51.7-.61,1.14-.27,1.22.52,2.44,1.76,2.71l4.9,1.06Z"/>
        <path class="cls-3" d="M238.57,234.63c-5.25,0-9.85-1.15-13.32-3.32-1-.62-1.93-1.35-2.75-2.17-4.82-4.86-4.71-11.83.26-16.96,2.02-2.09,4.72-3.76,8.02-4.97,1.69-.61,3.5-1.09,5.39-1.44.04,0,.07-.01.11-.01,3.21-.24,6.1.36,8.57,1.77.31.18.5.5.5.86,0,.32-.15.62-.4.81-.29.3-.48.68-.57,1.08-.13.59-.02,1.21.31,1.72.33.52.84.87,1.44,1l.27.06c.53.13.87.66.75,1.19-.12.54-.65.87-1.19.76-.76-.17-1.55.07-2.11.63-.3.3-.51.69-.61,1.12-.26,1.22.53,2.44,1.76,2.71l6.04,1.3c.44.1.77.48.79.93,0,.09,0,.22-.03.31-.12.54-.65.88-1.19.76l-5.8-1.25c-.76-.17-1.55.06-2.11.61-.3.3-.51.7-.61,1.14-.27,1.22.52,2.44,1.76,2.71l.24.05c.54.12.87.65.75,1.19-.12.54-.65.88-1.18.76-.75-.16-1.53.07-2.08.63-.31.31-.51.69-.61,1.13-.21.96.25,1.98,1.12,2.47.35.2.55.58.5.98-.04.4-.32.73-.71.85-.87.26-1.85.46-2.93.58-.13.01-.26,0-.38,0ZM236.47,207.75c-1.76.33-3.45.78-5.02,1.34-3,1.1-5.45,2.61-7.26,4.48-4.24,4.37-4.35,10.06-.28,14.16.71.71,1.51,1.34,2.39,1.88,3.15,1.98,7.39,3.02,12.26,3.02.07,0,.14,0,.21,0,.28-.03.55-.07.81-.11-.59-.94-.82-2.09-.58-3.21.19-.82.57-1.52,1.14-2.1.27-.27.58-.51.9-.69-.83-.98-1.21-2.33-.92-3.68.19-.81.58-1.54,1.15-2.11.28-.28.6-.52.94-.71-.84-.98-1.23-2.33-.94-3.69.18-.8.58-1.53,1.14-2.1.28-.28.58-.51.91-.7-.12-.14-.23-.29-.33-.45-.62-.97-.83-2.11-.59-3.23.08-.39.22-.76.4-1.1-1.87-.83-4-1.17-6.35-1Z"/>
        <path class="cls-3" d="M250.08,235.99c-.3,0-.6-.03-.9-.1l-6.89-1.48c-.43-.09-.84-.25-1.2-.46-1.62-.91-2.47-2.82-2.08-4.64.19-.82.57-1.52,1.14-2.1,1.03-1.04,2.49-1.47,3.91-1.17l4.68,1.01s.08,0,.11.02l2.12.46s0,0,.01,0c1.11.24,2.07.91,2.69,1.87.62.97.83,2.11.59,3.23-.24,1.11-.9,2.06-1.87,2.69-.7.45-1.5.69-2.32.69ZM243.19,227.94c-.6,0-1.17.24-1.61.67-.31.31-.51.69-.61,1.13-.21.96.25,1.98,1.12,2.47.19.11.41.19.63.24l6.89,1.48c.59.13,1.2.01,1.72-.32.52-.33.87-.84,1-1.43.13-.6.02-1.21-.31-1.72-.33-.51-.84-.87-1.43-1l-2.03-.44s-.07,0-.11-.02l-4.77-1.03c-.16-.03-.31-.05-.47-.05Z"/>
        <path class="cls-3" d="M225.78,231.46h-.02c-.08,0-1.93-.04-4-1.01-.04-.01-.08-.03-.11-.05-2.34-1.11-5.23-3.52-5.72-8.69-.71-7.34,4.51-9.66,6.79-10.32.35-.1.73,0,.99.26.18.19.37.39.53.58.33.39.31.97-.05,1.34-4.23,4.37-4.35,10.06-.28,14.16.71.71,1.51,1.34,2.39,1.88.38.24.56.7.44,1.13-.12.43-.52.72-.96.72ZM221.04,214.3c-1.81,1.14-3.5,3.27-3.11,7.22.28,2.97,1.49,5.16,3.6,6.52-3.26-4.09-3.42-9.33-.49-13.75Z"/>
      </g>
      <path class="cls-4" d="M255.36,206.88l6.16,15.82c-13.58,4.02-19.41-8.18-19.41-8.18.43,3.83-.6,6.02-2.13,7.25-2.58,2.09-6.59,1.44-7.27,1.31-.06,0-.1-.02-.1-.02v-7.18c0-1.78.74-3.46,2.03-4.67l3.65-3.38c1.27-1.19,2.98-1.8,4.71-1.7l12.35.74Z"/>
      <path class="cls-4" d="M255.1,235.11c.03.08.06.17.08.25,0,.03,0,.06,0,.09.24,1.03-.03,2.15-.8,2.96l-4.81,5.15c-1.23,1.32-3.32,1.38-4.64.15-1.31-1.23-1.39-3.29-.18-4.61,0-.02,0-.03.02-.03l2.07-2.21,1.71-1.82.86-.92.18-.19c1.23-1.32,3.32-1.39,4.65-.15.4.38.7.84.86,1.33Z"/>
      <path class="cls-4" d="M250.2,231.06c.27,1.06,0,2.22-.78,3.06l-.86.92-1.71,1.82-2.07,2.21s-.02,0-.02.03l-.16.16c-1.23,1.32-3.32,1.39-4.65.16-1.32-1.24-1.38-3.33-.15-4.65l.59-.63,4.04-4.32.18-.19c1.24-1.32,3.33-1.38,4.65-.15.46.44.78.99.93,1.58Z"/>
      <path class="cls-4" d="M245.21,226.74c.27,1.05,0,2.2-.79,3.05l-4.05,4.33-.76.81c-1.23,1.32-3.32,1.39-4.64.16-1.32-1.24-1.38-3.32-.15-4.65l1.31-1.4h0s2.47-2.63,2.47-2.63l.87-.94.16-.17c1.24-1.32,3.33-1.39,4.65-.15.48.44.79,1,.94,1.59Z"/>
      <path class="cls-4" d="M240.24,222.43c.26,1.05,0,2.2-.77,3.04l-.87.94-2.47,2.62h0s-1.31,1.41-1.31,1.41l-.18.19c-1.23,1.32-3.33,1.39-4.65.16-1.32-1.23-1.38-3.32-.15-4.65l2.86-3.05c.68.13,4.68.78,7.27-1.31.12.21.2.42.26.65Z"/>
      <path class="cls-3" d="M256.24,224.51c-6.61,0-10.89-3.87-13.13-6.68-.28,2.03-1.12,3.61-2.5,4.72-2.9,2.35-7.24,1.67-8.08,1.52-.08-.01-.15-.03-.15-.03-.44-.11-.76-.51-.76-.97v-7.18c0-2.04.86-4.01,2.35-5.4l3.65-3.38c1.46-1.37,3.45-2.08,5.46-1.96l12.35.74c.39.02.73.27.87.63l6.16,15.82c.1.26.09.55-.03.8-.12.25-.35.44-.61.52-2.01.6-3.87.85-5.57.85ZM242.11,213.53c.38,0,.73.21.9.57.22.45,5.35,10.76,17.17,7.93l-5.53-14.18-11.71-.7c-1.47-.09-2.91.43-3.97,1.43l-3.65,3.39c-1.09,1.01-1.71,2.45-1.71,3.93v6.32c1.32.14,3.98.21,5.74-1.21,1.51-1.22,2.11-3.36,1.77-6.36-.06-.48.25-.94.72-1.07.09-.03.19-.04.28-.04Z"/>
      <path class="cls-3" d="M247.18,245.59c-1.1,0-2.13-.41-2.93-1.16-1.69-1.59-1.81-4.26-.27-5.97.02-.03.04-.05.07-.08h0s4.82-5.14,4.82-5.14c.77-.83,1.83-1.31,2.98-1.35,1.15-.04,2.24.37,3.08,1.16.53.5.91,1.1,1.12,1.73.04.11.08.23.11.34.01.05.02.11.03.16h0c.3,1.38-.1,2.8-1.06,3.82l-4.81,5.14c-.78.83-1.83,1.31-2.98,1.35-.05,0-.1,0-.14,0ZM245.56,239.7s-.04.05-.06.08c-.84.91-.78,2.34.13,3.2.44.42,1.03.62,1.64.61.61-.02,1.17-.27,1.58-.71l4.81-5.15c.52-.55.73-1.31.55-2.05,0-.04-.02-.08-.02-.12,0-.03-.02-.05-.03-.08,0-.02-.01-.04-.02-.06-.1-.32-.31-.64-.59-.91-.44-.41-1.02-.64-1.64-.61-.61.02-1.17.28-1.59.72l-4.77,5.09Z"/>
      <path class="cls-3" d="M242.21,241.3c-1.05,0-2.1-.38-2.93-1.15-1.73-1.62-1.81-4.34-.19-6.06l4.82-5.14c1.61-1.72,4.33-1.81,6.06-.19.6.58,1.02,1.29,1.21,2.06.36,1.43-.02,2.92-1.02,3.99l-4.58,4.9s-.06.07-.09.1l-.16.16c-.83.89-1.96,1.34-3.1,1.34ZM247.03,229.59c-.61,0-1.22.24-1.67.72l-4.81,5.14c-.86.92-.82,2.37.1,3.23.92.86,2.37.81,3.23-.11l.13-.14s.03-.03.05-.05h0s4.63-4.95,4.63-4.95c.53-.57.73-1.36.54-2.13h0c-.1-.41-.33-.79-.65-1.1-.43-.41-.99-.61-1.55-.61Z"/>
      <path class="cls-3" d="M237.2,236.96c-1.09,0-2.12-.41-2.92-1.15-1.72-1.61-1.8-4.33-.19-6.06l1.24-1.33s.05-.06.07-.09l3.49-3.73c.79-.84,1.86-1.32,3.01-1.35,1.18-.02,2.23.38,3.05,1.16.59.54,1.02,1.26,1.22,2.07.36,1.42-.02,2.91-1.03,3.98l-4.81,5.14c-.78.83-1.84,1.31-2.99,1.35-.05,0-.1,0-.15,0ZM236.93,229.63s-.05.06-.07.09l-1.31,1.4c-.86.92-.81,2.37.1,3.23.44.41,1.03.63,1.63.61.61-.02,1.18-.28,1.59-.72l4.81-5.14c.54-.57.74-1.36.55-2.12,0,0,0,0,0,0-.11-.43-.33-.8-.64-1.09-.45-.42-1.02-.63-1.63-.63-.62.02-1.19.27-1.61.72l-3.42,3.65Z"/>
      <path class="cls-3" d="M232.24,232.66c-1.09,0-2.13-.41-2.92-1.15-.83-.78-1.31-1.84-1.35-2.99-.04-1.15.37-2.23,1.15-3.07l2.86-3.05c.23-.25.58-.36.91-.3.42.08,4.19.72,6.45-1.11.23-.18.53-.26.81-.21.29.05.54.23.68.49.15.27.27.56.36.9,0,0,0,0,0,.01.35,1.42-.03,2.9-1.01,3.96l-3.27,3.49s-.05.06-.07.09l-1.49,1.59c-.77.83-1.84,1.31-2.99,1.35-.05,0-.1,0-.15,0ZM233.08,224.16l-2.5,2.66c-.41.44-.63,1.03-.61,1.64.02.61.27,1.18.71,1.59.44.42,1.02.63,1.64.61.62-.02,1.18-.28,1.6-.72l1.42-1.51s.05-.06.07-.09l3.33-3.56c.36-.39.57-.89.6-1.42-2.31,1.14-5.01.96-6.25.79Z"/>
    </g>
  </g>
  <g>
    <path class="cls-7" d="M179,177.13c-.09.32-.15.66-.27.98-.12.33-.28.65-.44.97-.13.26-.45.33-.77.21-.35-.13-.55-.5-.44-.81.09-.24.18-.48.26-.73.19-.57.3-1.15.15-1.75-.08-.33-.2-.64-.37-.93-.12-.2-.18-.42-.15-.65.06-.46.5-.71.97-.56.44.13.77.43,1.06.77.55.66.9,1.42,1.19,2.21.11.3.2.61.3.92.03.08.05.16.09.23.12.21.32.22.45,0,.08-.13.14-.26.17-.41.11-.44.08-.88.02-1.32-.11-.73-.31-1.43-.69-2.08-.15-.26-.33-.49-.56-.69-.35-.3-.34-.79.02-1.13.33-.33.8-.32,1.11.02.59.63.97,1.39,1.23,2.21.36,1.1.51,2.23.39,3.39-.05.53-.17,1.06-.44,1.53-.24.42-.58.73-1.09.8-.34.05-.61-.05-.84-.3-.27-.3-.45-.66-.61-1.03-.24-.57-.47-1.15-.7-1.72-.02-.05-.04-.09-.05-.12Z"/>
    <g>
      <path class="cls-7" d="M184.17,181.21c-.1.18-.19.36-.3.54-.18.29-.63.43-.95.3-.39-.16-.56-.63-.38-1.03.07-.15.15-.29.23-.43,1.06-1.93,1.16-3.94.45-6.01-.31-.91-.74-1.76-1.26-2.56-.38-.57.04-1.18.56-1.23.3-.03.54.1.71.35.68,1.02,1.18,2.13,1.49,3.32.35,1.35.45,2.72.25,4.1-.13.92-.4,1.8-.81,2.64Z"/>
      <path class="cls-7" d="M187.34,180.82c-.04.22-.06.44-.11.66-.08.37-.46.68-.81.66-.42-.02-.75-.42-.7-.9.02-.17.05-.35.08-.52.37-2.36-.2-4.42-1.56-6.25-.6-.8-1.29-1.5-2.06-2.11-.55-.44-.35-1.21.13-1.46.28-.14.55-.1.8.09.99.78,1.84,1.71,2.53,2.79.79,1.23,1.33,2.58,1.6,4.05.18.98.21,1.98.11,2.98Z"/>
      <path class="cls-7" d="M187.63,181.36c-.12.19-.24.38-.37.55-.23.3-.72.41-1.05.24-.4-.21-.55-.73-.32-1.15.09-.15.19-.29.29-.44,1.32-1.99,1.6-4.15,1.01-6.45-.26-1.01-.65-1.97-1.14-2.89-.36-.65.15-1.28.71-1.28.33,0,.58.16.74.45.65,1.17,1.09,2.41,1.33,3.73.27,1.49.25,2.98-.09,4.46-.22.99-.59,1.91-1.1,2.78Z"/>
    </g>
    <path class="cls-8" d="M176.02,175.52c.55.28.77.99.48,1.56-.27.52-.88.73-1.39.47-.55-.28-.78-.99-.5-1.55.27-.54.89-.75,1.41-.49Z"/>
  </g>
</svg>